<svg width="24" height="24" viewBox="0 0 1000 1000">
  <path d="M793.6 656.214c-61.44 0-119.467-23.893-160.853-65.28l-120.747-107.093-64.853-57.173h0.427l-114.773-101.973c-27.307-27.307-63.573-42.24-102.4-42.24-79.787 0-144.64 64.427-144.64 144.213s64.853 144.213 144.64 144.213c38.827 0 75.093-14.933 104.107-43.947l48.213-42.667 64.427 57.173-53.76 47.36c-43.52 43.52-101.547 67.413-162.987 67.413-127.147 0-230.4-103.253-230.4-229.547s103.253-229.547 230.4-229.547c61.44 0 119.467 23.893 160.853 65.28l120.747 106.667 0.427-0.427 64.427 58.027h-0.427l114.773 101.973c27.307 27.307 63.573 42.24 102.4 42.24 79.787 0 144.64-64.427 144.64-144.213s-64.853-144.213-144.64-144.213c-38.4 0-75.093 14.933-104.107 43.947l-48.64 43.093-64.427-57.173 54.187-47.787c43.52-43.093 101.12-66.987 162.987-66.987 127.147 0 230.4 102.827 230.4 229.547s-103.253 229.12-230.4 229.12z" />
</svg>