<svg width="24" height="24" viewBox="0 0 1000 1000">
  <path d="M298.667 426.667c0-117.824 95.509-213.333 213.333-213.333s213.333 95.509 213.333 213.333-95.509 213.333-213.333 213.333c-48.213 0-92.16-15.787-128-42.667v236.373c40.533 12.8 83.2 19.627 128 19.627 235.648 0 426.667-191.019 426.667-426.667s-191.019-426.667-426.667-426.667-426.667 191.019-426.667 426.667c0 157.867 85.333 295.68 213.333 369.493v-369.493zM618.667 426.667c0-15.787-8.533-29.013-21.333-36.693l-80.64-61.013c-7.253-5.547-16.213-8.96-26.027-8.96-23.573 0-42.667 19.115-42.667 42.667v128c0 23.552 19.093 42.667 42.667 42.667 9.813 0 18.773-3.413 26.027-8.96l80.64-61.013c12.8-7.68 21.333-20.907 21.333-36.693z" />
</svg>