<svg width="24" height="24" viewBox="0 0 1000 1000">
  <path d="M512-0c46.933 0 85.333 38.4 85.333 85.333h-170.667c0-46.933 38.357-85.333 85.333-85.333zM849.6 187.755l-39.019 85.696v138.667h0.043v57.344c0 2.219-0.277 4.373-0.341 6.592-0.149 7.211-0.427 14.4-1.088 21.483-0.405 4.267-1.109 8.448-1.685 12.651-0.683 4.992-1.344 10.005-2.261 14.912-0.896 4.715-2.005 9.301-3.115 13.909-1.003 4.181-2.027 8.384-3.2 12.48-1.408 4.949-2.965 9.835-4.629 14.699-1.195 3.456-2.453 6.912-3.776 10.325-2.005 5.205-4.075 10.389-6.357 15.445-1.173 2.56-2.432 5.077-3.669 7.616-2.752 5.675-5.547 11.307-8.661 16.768-0.405 0.725-0.875 1.408-1.301 2.155-16.171 28.011-36.736 53.056-60.779 74.368-0.363 0.32-0.704 0.64-1.045 0.96-5.76 5.035-11.712 9.835-17.835 14.443-0.725 0.533-1.451 1.109-2.197 1.643-6.101 4.48-12.331 8.747-18.752 12.779-0.704 0.448-1.429 0.853-2.155 1.301-6.656 4.075-13.419 7.979-20.395 11.541-0.043 0-0.064 0.021-0.107 0.043-15.872 8.085-32.725 14.379-50.048 19.605v12.949c0 47.061-38.165 85.227-85.205 85.227-47.061 0-85.205-38.165-85.205-85.227v-12.949c-17.344-5.227-34.219-11.52-50.091-19.605-0.021-0.021-0.064-0.043-0.107-0.043-6.976-3.563-13.76-7.467-20.395-11.541-0.725-0.448-1.429-0.853-2.155-1.301-6.421-4.011-12.672-8.299-18.752-12.779-0.747-0.533-1.472-1.109-2.197-1.643-6.144-4.608-12.096-9.387-17.835-14.443-0.363-0.32-0.704-0.64-1.045-0.96-24.043-21.312-44.608-46.379-60.779-74.368-0.427-0.725-0.896-1.408-1.301-2.155-3.115-5.461-5.888-11.115-8.661-16.768-1.237-2.539-2.496-5.056-3.669-7.616-2.283-5.056-4.373-10.219-6.357-15.445-1.323-3.413-2.581-6.869-3.776-10.325-1.664-4.864-3.221-9.728-4.629-14.699-1.173-4.096-2.219-8.299-3.2-12.48-1.109-4.629-2.219-9.216-3.115-13.909-0.917-4.907-1.579-9.92-2.261-14.912-0.576-4.203-1.28-8.384-1.685-12.651-0.661-7.083-0.939-14.272-1.088-21.483-0.043-2.219-0.341-4.352-0.341-6.592v-57.344h0.043v-138.667l-39.019-85.696c-2.368-5.205-3.733-10.965-3.733-17.067 0-23.595 19.115-42.688 42.667-42.688h597.333c23.552 0 42.667 19.093 42.667 42.688 0 6.101-1.365 11.861-3.733 17.067z" />
</svg>