<svg width="24" height="24" viewBox="0 0 1000 1000">
  <path d="M128 42.667h85.333v85.333h-85.333v-85.333zM213.333 640h-85.333v-85.333h85.333v85.333zM128 213.334h85.333v85.333h-85.333v-85.333zM298.667 42.667h85.333v85.333h-85.333v-85.333zM213.333 810.667h-85.333v-85.333h85.333v85.333zM384 810.667h-85.333v-85.333h85.333v85.333zM725.333 810.667h-85.333v-85.333h85.333v85.333zM554.667 640h-85.333v-85.333h85.333v85.333zM554.667 810.667h-85.333v-85.333h85.333v85.333zM810.667 213.334h85.333v85.333h-85.333v-85.333zM469.333 42.667h85.333v85.333h-85.333v-85.333zM128 384h768v85.333h-768v-85.333zM810.667 810.667v-85.333h85.333v85.333h-85.333zM810.667 554.667h85.333v85.333h-85.333v-85.333zM469.333 213.334h85.333v85.333h-85.333v-85.333zM640 42.667h85.333v85.333h-85.333v-85.333zM810.667 42.667h85.333v85.333h-85.333v-85.333z" />
</svg>