<svg width="24" height="24" viewBox="0 0 1000 1000">
  <path d="M896 682.326h-85.333v42.645h-85.333v-42.645h-42.667v16.597c0 85.141-65.536 154.411-146.112 154.411h-49.131c-80.555 0-146.112-69.269-146.112-154.411v-16.597h-42.667v42.645h-85.333v-42.645h-85.333c-23.552 0-42.667-19.093-42.667-42.645v-597.035c0-23.552 19.115-42.645 42.667-42.645h768c23.552 0 42.667 19.093 42.667 42.645v597.035c0.021 23.552-19.093 42.645-42.645 42.645zM426.667 698.923c0 38.101 27.264 69.12 60.779 69.12h49.131c33.493 0 60.779-30.997 60.779-69.12v-16.597h-170.667v16.597zM853.333 85.291h-85.333v469.525h-85.333v-469.525h-341.333v469.525h-85.333v-469.525h-85.333v511.744h682.667v-511.744z" />
</svg>