<svg width="24" height="24" viewBox="0 0 1000 1000">
  <path d="M825.365 631.19l-0.875 3.093c-6.997 27.755-31.936 48.363-61.845 48.363h-501.227c-30.72 0-56.32-21.675-62.528-50.539l-0.192-0.64-70.72-247.488v-298.667c0-23.467 19.2-42.667 42.667-42.667h42.667c23.467 0 42.667 19.2 42.667 42.667v42.667h512v-42.667c0-23.467 19.2-42.667 42.667-42.667h42.667c23.467 0 42.667 19.2 42.667 42.667v298.667l-70.613 247.211zM265.621 555.094l12.075 42.24h468.608l12.075-42.24 36.693-128.427h-566.123l36.672 128.427zM277.333 213.334c-35.349 0-64 28.651-64 64s28.651 64 64 64 64-28.651 64-64-28.651-64-64-64zM746.667 213.334c-35.349 0-64 28.651-64 64s28.651 64 64 64 64-28.651 64-64-28.651-64-64-64z" />
</svg>