<svg width="24" height="24" viewBox="0 0 1000 1000">
  <path d="M52.885 521.771h39.552l-20.011 48-19.541-48zM328.896 288l32.896 35.115-31.104 35.115h-72.448v-21.781h63.104v-24.448h-63.104v-24h70.656zM399.104 322.667l44.011-48.896v96.448l-44.011-47.552zM527.104 343.552c0 9.771-5.931 14.677-17.771 14.677h-37.333v-30.677h36.885c12.16 0 18.219 5.333 18.219 16zM655.552 345.323c0 8.597-6.229 12.885-18.667 12.885h-36.437v-27.115h36.011c12.736 0.021 19.093 4.757 19.093 14.229zM531.989 552.448c0 8.597-6.229 12.885-18.667 12.885h-36.437v-26.667h36.011c12.736 0 19.093 4.587 19.093 13.781zM736 521.771h39.552l-19.563 48-19.989-48zM310.656 590.656v-120.448h-29.333v94.229l-41.771-94.229h-25.344l-41.771 94.229v-94.229h-58.667l-11.115 26.667h-60.011l-11.115-26.667h-31.104l51.563 120.448h42.667l48.896-114.219v114.219h47.104l37.781-81.771 34.219 81.771h48zM557.781 343.552c0-5.931-0.811-11.115-2.453-15.552s-3.712-8.149-6.229-11.115c-2.517-2.965-5.845-5.419-10.005-7.339-4.139-1.92-8-3.413-11.563-4.437-3.563-1.045-8.213-1.707-13.995-2.005s-10.453-0.448-13.995-0.448c-3.563 0-8.363 0.064-14.443 0.213s-10.453 0.213-13.12 0.213v-40.448h-56l-35.563 40-36.885-40h-113.771v120.448h115.563l35.563-39.552 36.437 39.552h92.011c32.299 0.021 48.448-13.163 48.448-39.531zM428.437 495.104v-24.896h-96.448v120.448h96.448v-25.323h-67.563v-21.781h65.771v-24.448h-65.771v-24h67.563zM1024 246.656v-101.781c0-16.299-5.696-30.293-17.109-42.005s-25.259-17.557-41.557-17.557h-906.667c-16.299 0-30.144 5.845-41.557 17.557s-17.109 25.707-17.109 42.005v301.333h49.344l11.115 27.115h24.448l11.115-27.115h96.896v20.437l8.448-20.437h50.219l8.896 20.885v-20.885h240.448v44.011l4.437 0.448c2.965 0 4.437-2.069 4.437-6.229v-38.229h124.011v10.219c6.805-3.563 14.955-6.229 24.448-8 9.472-1.771 17.259-2.731 23.339-2.88s15.403-0.085 28.011 0.213 20.224 0.448 22.891 0.448l11.115 27.115h24.896l11.115-27.115h100.885v25.771l15.104-25.771h80.896v168h-80v-19.563l-11.115 19.563h-82.219v-19.563l-10.219 19.563h-110.677c-20.437 0-36.587-3.264-48.448-9.771v9.771h-76.437v-9.771c-7.104 6.528-17.92 9.771-32.448 9.771h-279.104l-19.115-43.115-19.115 43.115h-88v-19.563l-9.771 19.563h-75.115l-34.667-79.552v173.781c0 16.299 5.696 30.293 17.109 42.005s25.259 17.557 41.557 17.557h906.667c16.299 0 30.144-5.845 41.557-17.557s17.109-25.707 17.109-42.005v-301.333h-53.333c-15.104 0-27.115-3.264-36.011-9.771v9.771h-78.677c-16.299 0-27.861-3.264-34.667-9.771v9.771h-140.437v-9.771c-9.195 6.528-22.080 9.771-38.677 9.771h-92.885v-9.771c-6.805 6.528-20.288 9.771-40.448 9.771h-104l-24-25.771-22.229 25.771h-155.115v-168h152.448l24.448 26.219 23.104-26.219h93.781v39.552h9.344c17.472 0 30.805 1.92 40 5.781v-45.333h77.333v44.011h3.563c2.368 0 3.861-0.299 4.437-0.896 0.597-0.597 0.896-2.069 0.896-4.437v-38.677h235.115c16.896 0 29.931 3.563 39.104 10.667v-10.667h74.667c17.728 0 31.808 2.517 42.176 7.552zM687.104 350.656c0-6.805-1.771-13.184-5.333-19.115s-8.597-10.219-15.104-12.885c7.403-2.667 12.437-6.528 15.104-11.563s4.011-11.84 4.011-20.437v-24h-28.885v20.011c0 9.771-1.771 16.213-5.333 19.328s-10.368 4.672-20.437 4.672h-30.677v-44.011h-28.885v120.448h68.437c14.229 0 25.621-2.219 34.219-6.677 8.597-4.437 12.885-13.013 12.885-25.771zM563.989 558.23c0-7.104-1.856-13.632-5.547-19.563-3.712-5.931-8.661-10.219-14.891-12.885 7.701-2.667 12.821-6.443 15.339-11.328s3.776-11.776 3.776-20.672v-23.552h-28.885c0 2.667 0.064 6.592 0.213 11.776s0.149 8.896 0 11.115c-0.149 2.219-0.597 4.971-1.344 8.213s-2.005 5.632-3.776 7.104c-1.771 1.493-4.373 2.752-7.787 3.776s-7.787 1.557-13.12 1.557h-31.104v-43.563h-28.437v120.448l68.011-0.448c14.528 0 26.069-2.155 34.667-6.443s12.885-12.8 12.885-25.536zM799.104 287.552v-24.896h-96v120.448h96v-24.896h-67.115v-21.781h65.771v-24.448h-65.771v-23.979l67.115-0.448zM609.771 590.656v-120.448h-29.333v120.448h29.333zM917.781 300.886c0-25.493-15.104-38.229-45.333-38.229h-56v25.771h56c10.069 0 15.104 3.712 15.104 11.115 0 4.736-2.517 7.851-7.552 9.344-5.035 1.472-11.179 2.219-18.453 2.219s-14.592 0.512-21.995 1.557-13.632 4.373-18.667 10.005c-5.035 5.632-7.552 13.781-7.552 24.448 0 11.563 3.861 20.437 11.563 26.667s17.472 9.344 29.333 9.344h57.771v-25.344h-52.885c-10.667 0-16-3.712-16-11.115 0-4.736 2.603-7.787 7.787-9.109 5.184-1.344 11.413-1.92 18.667-1.771s14.528-0.213 21.781-1.109 13.483-4.075 18.667-9.557c5.163-5.483 7.765-13.568 7.765-24.235zM1024 323.115v-44.885c-7.104-10.368-20.139-15.552-39.104-15.552h-55.552v25.771h55.552c9.771 0 14.677 3.712 14.677 11.115 0 3.84-1.856 6.677-5.547 8.448s-8.299 2.603-13.781 2.453c-5.483-0.149-11.413 0.149-17.771 0.896-6.379 0.747-12.288 1.92-17.771 3.563s-10.069 5.184-13.781 10.667c-3.712 5.483-5.547 12.672-5.547 21.547 0 11.563 3.925 20.437 11.776 26.667s17.707 9.344 29.547 9.344h57.344v-25.344h-52.437c-10.667 0-16-3.712-16-11.115 0-5.931 4.288-9.195 12.885-9.771 8.597-0.597 18.731-1.344 30.443-2.219 11.648-0.917 20.032-4.779 25.067-11.584zM950.656 590.23v-120h-40.896l-54.229 90.219v-90.219h-58.667l-11.563 26.667h-59.563l-11.115-26.667h-33.344c-38.229 0-57.344 19.712-57.344 59.115 0 40.896 19.712 61.333 59.115 61.333h28.011v-26.219c-2.069 0-6.229 0.149-12.437 0.448s-10.453 0.363-12.672 0.213c-2.219-0.149-5.632-0.448-10.219-0.896s-7.787-1.408-9.557-2.88c-1.771-1.472-3.925-3.477-6.443-5.995s-4.224-5.931-5.12-10.219-1.344-9.259-1.344-14.891c0-11.264 2.005-19.861 5.995-25.771 4.011-5.931 11.328-8.896 21.995-8.896h12.885l40.896 94.677h43.115l48.448-113.771v113.771h44.011l50.667-83.563v83.563h29.376z" />
</svg>