<svg width="24" height="24" viewBox="0 0 1000 1000">
  <path d="M511.232 853.334c119.872 0 220.949-41.152 303.232-123.435 82.795-82.795 124.203-183.872 124.203-303.232 0-119.872-40.64-219.691-121.92-299.413-86.357-84.843-188.181-127.232-305.515-127.232-115.307 0-215.381 41.899-300.181 125.717-83.797 83.797-125.717 184.107-125.717 300.949 0 116.821 41.92 217.899 125.717 303.232 82.283 82.261 182.336 123.413 300.181 123.413zM512.768 776.384c-97.024 0-179.051-34.027-246.101-102.101-69.611-71.104-104.384-153.643-104.384-247.616 0-94.464 34.539-176.256 103.616-245.333s151.36-103.616 246.869-103.616c94.976 0 177.771 34.795 248.384 104.384 67.051 64.512 100.565 146.027 100.565 244.565 0 97.024-34.048 179.563-102.101 247.616-68.075 68.053-150.357 102.101-246.848 102.101zM627.051 532.566v-174.464h-48.768v-207.232h-132.565v207.232h-48.768v174.464c0 7.616 2.667 14.101 8 19.435s11.819 8 19.435 8h175.232c7.104 0 13.44-2.667 19.051-8 5.589-5.333 8.384-11.819 8.384-19.435zM452.565 642.283c0 40.128 19.797 60.203 59.413 60.203s59.435-20.075 59.435-60.203c0-39.616-19.819-59.435-59.435-59.435-39.595 0-59.413 19.819-59.413 59.435z" />
</svg>