<svg width="24" height="24" viewBox="0 0 1000 1000">
  <path d="M511.232 853.334c119.36 0 220.949-41.664 304.768-124.949 40.128-40.128 70.592-85.973 91.435-137.515 20.821-51.563 31.232-106.283 31.232-164.181 0-58.411-10.283-113.131-30.869-164.203-20.565-51.051-50.923-96.128-91.051-135.232-41.643-41.131-88.896-72.64-141.717-94.464-52.843-21.845-107.435-32.768-163.819-32.768s-110.357 10.773-161.899 32.384c-51.563 21.568-97.792 52.821-138.667 93.717-40.896 40.875-72 86.976-93.333 138.283s-32 105.387-32 162.283c0 56.384 10.773 110.592 32.384 162.667 21.589 52.053 52.949 98.667 94.080 139.819 81.301 82.752 181.099 124.16 299.456 124.16zM512.768 776.384c-97.536 0-179.563-34.027-246.101-102.101-33.515-34.027-59.307-72.256-77.333-114.667-18.048-42.411-27.051-86.741-27.051-132.949 0-45.717 9.003-89.792 27.051-132.181 18.027-42.432 43.819-80.277 77.333-113.536 33.515-33.28 71.36-58.667 113.515-76.203s86.336-26.283 132.565-26.283c45.717 0 90.027 8.875 132.949 26.667 42.923 17.771 81.643 43.435 116.203 76.949 66.539 65.024 99.797 146.539 99.797 244.587 0 47.232-8.64 91.925-25.92 134.080s-42.411 79.744-75.413 112.768c-68.565 68.587-151.104 102.869-247.595 102.869zM507.413 497.515l-57.131-29.717c-6.101 12.693-13.589 21.589-22.464 26.667-8.896 5.077-17.152 7.616-24.768 7.616-38.101 0-57.131-25.152-57.131-75.435 0-22.848 4.821-41.152 14.464-54.848 9.643-13.717 23.872-20.587 42.667-20.587 24.896 0 42.411 12.203 52.587 36.587l52.565-26.667c-11.179-20.843-26.667-37.227-46.485-49.152-19.797-11.947-41.643-17.92-65.515-17.92-38.101 0-68.821 11.691-92.181 35.051s-35.051 55.872-35.051 97.536c0 40.64 11.819 72.875 35.435 96.768 23.616 23.872 53.44 35.797 89.515 35.797 52.8 0.021 90.645-20.544 113.493-61.696zM753.515 497.515l-56.384-29.717c-6.101 12.693-13.589 21.589-22.485 26.667s-17.408 7.616-25.515 7.616c-38.101 0-57.131-25.152-57.131-75.435 0-22.848 4.821-41.152 14.464-54.848 9.643-13.717 23.872-20.587 42.667-20.587 24.875 0 42.411 12.203 52.565 36.587l53.333-26.667c-11.691-20.843-27.435-37.227-47.232-49.152-19.797-11.947-41.408-17.92-64.768-17.92-38.613 0-69.461 11.691-92.565 35.051-23.125 23.36-34.667 55.872-34.667 97.536 0 40.64 11.797 72.875 35.435 96.768 23.616 23.872 53.461 35.797 89.536 35.797 52.821 0.021 90.389-20.544 112.747-61.696z" />
</svg>