<svg width="24" height="24" viewBox="0 0 1000 1000">
  <path d="M139.115 479.552c0-15.104-5.333-27.563-16-37.333-8.597-7.701-21.781-11.563-39.552-11.563h-7.552v97.771h7.552c18.069 0 31.253-4.011 39.552-12.011 10.667-9.152 16-21.461 16-36.864zM928.448 508.438c0-15.403-9.472-23.104-28.437-23.104h-8.448v44.885h8.896c18.645 0 27.989-7.253 27.989-21.781zM168.896 479.552c0 21.931-7.403 39.787-22.229 53.547-14.805 13.781-33.92 20.672-57.344 20.672h-42.219v-148.011h42.219c21.931 0 39.552 5.632 52.885 16.896 17.792 15.125 26.688 34.091 26.688 56.896zM182.229 405.782h28.885v148.011h-28.885v-148.011zM324.437 450.667c0 11.861-3.029 21.035-9.109 27.563-6.080 6.507-17.259 12.736-33.557 18.667-8.597 2.965-14.443 5.781-17.557 8.448s-4.672 6.080-4.672 10.219c0 4.736 2.005 8.661 5.995 11.776s9.109 4.672 15.339 4.672c8.597 0 16.448-4.011 23.552-12.011l15.104 19.563c-12.139 10.965-26.667 16.448-43.563 16.448-13.035 0-24-4.075-32.896-12.224s-13.333-18.155-13.333-29.995c0-10.368 2.667-18.581 8-24.661s14.805-11.477 28.437-16.213c10.965-3.861 17.621-6.677 20.011-8.448 5.632-3.563 8.448-8.597 8.448-15.104 0-5.931-2.069-10.88-6.229-14.891-4.139-4.011-9.472-5.995-16-5.995-14.229 0-24.747 6.528-31.552 19.563l-18.667-17.771c13.035-18.965 30.080-28.437 51.115-28.437 15.104 0 27.413 4.523 36.885 13.547 9.515 8.981 14.251 20.757 14.251 35.285zM448 410.667v34.219c-10.965-10.965-22.528-16.448-34.667-16.448-14.528 0-26.453 4.821-35.776 14.443s-13.995 21.845-13.995 36.672c0 14.229 4.672 26.304 13.995 36.224 9.344 9.92 20.821 14.891 34.453 14.891 12.736 0 24.747-5.632 36.011-16.896v34.219c-11.861 5.931-23.701 8.896-35.563 8.896-21.931 0-40.512-7.488-55.787-22.443s-22.891-33.259-22.891-54.891 7.552-39.936 22.677-54.891c15.104-14.955 33.621-22.443 55.552-22.443 12.437 0 24.427 2.816 35.989 8.448zM995.563 142.23v234.219c-19.264-11.84-40.661-24.299-64.213-37.333s-58.731-30.379-105.557-52.011c-46.805-21.632-95.637-42.005-146.453-61.12s-112.661-39.040-185.557-59.776c-72.896-20.736-147.563-38.229-224-52.437h697.344c7.701 0 14.379 2.816 20.011 8.448 5.611 5.632 8.427 12.309 8.427 20.011zM617.323 478.656c0 22.229-7.851 41.195-23.552 56.896s-34.667 23.552-56.896 23.552c-22.229 0-41.195-7.851-56.896-23.552s-23.552-34.667-23.552-56.896 7.851-41.195 23.552-56.896 34.667-23.552 56.896-23.552c22.229 0 41.195 7.851 56.896 23.552 15.701 15.723 23.552 34.688 23.552 56.896zM684.885 401.771l64 152h-31.552l-40-99.563-39.552 99.563h-31.552l63.104-152h15.552zM761.771 405.782h81.771v24.896h-52.885v40h51.115v24.896h-51.115v32.896h52.885v25.344h-81.771v-148.032zM935.552 405.782h35.563l-46.677 62.229c22.528 4.736 33.771 18.667 33.771 41.771 0 13.931-4.587 24.747-13.781 32.448s-22.080 11.563-38.677 11.563h-43.115v-148.011h28.885v59.115h4.011l40.021-59.115zM1024 708.438v-563.563c0-16.597-5.696-30.677-17.109-42.219s-25.259-17.344-41.557-17.344h-906.667c-16.299 0-30.144 5.781-41.557 17.344s-17.109 25.621-17.109 42.219v563.563c0 16.597 5.696 30.677 17.109 42.219s25.259 17.344 41.557 17.344h906.667c16.299 0 30.144-5.781 41.557-17.344s17.109-25.621 17.109-42.219z" />
</svg>