<svg width="24" height="24" viewBox="0 0 1000 1000">
  <path d="M298.219 410.219h-5.781c-13.931 0-20.885-4.736-20.885-14.229 0-6.528 2.965-9.771 8.896-9.771 5.035 0 9.195 2.219 12.437 6.677 3.264 4.437 5.035 10.219 5.333 17.323zM473.771 426.219h27.563v1.344c0.299 1.173 0.363 2.155 0.213 2.88-0.149 0.747-0.299 1.771-0.448 3.115s-0.448 2.517-0.896 3.563c-0.448 1.045-1.109 2.005-2.005 2.88-0.896 0.896-2.005 1.621-3.328 2.219-1.344 0.597-3.029 0.896-5.12 0.896-8.277 0-13.611-5.632-15.979-16.896zM713.771 410.219h-5.333c-14.229 0-21.333-4.736-21.333-14.229 0-6.528 2.965-9.771 8.896-9.771 5.035 0 9.195 2.219 12.437 6.677 3.264 4.437 5.035 10.219 5.333 17.323zM855.552 421.782c0 12.16-4.437 18.219-13.333 18.219-5.632 0-10.219-2.965-13.781-8.896s-5.333-13.483-5.333-22.677c0-12.437 4.139-18.667 12.437-18.667 5.931 0 10.731 2.965 14.443 8.896s5.568 13.632 5.568 23.125zM213.333 484.438h38.677l-19.563-116.437h-24.896l14.229 89.344-31.552-89.344h-17.344l-1.771 88.896-15.104-88.896h-23.552l19.563 116.437h36.011l0.896-72.448 24.405 72.448zM325.781 436.886c0-1.771-0.597-8-1.771-18.667-4.736-29.931-7.253-46.677-7.552-50.219h-20.885l0.448 9.771c-5.931-7.701-14.528-11.563-25.771-11.563-6.805 0-12.373 2.368-16.661 7.104s-6.443 10.965-6.443 18.667c0 11.563 3.861 20.523 11.563 26.88s18.517 9.557 32.448 9.557c4.139 0 7.552-0.149 10.219-0.448 0 0.896 0.064 1.707 0.213 2.453s0.299 1.408 0.448 2.005c0.149 0.597 0.213 1.045 0.213 1.344 0 5.931-5.333 8.896-16 8.896-8.597 0-17.344-1.472-26.219-4.437 0 1.173 1.045 8.299 3.115 21.333 11.264 3.264 21.184 4.885 29.781 4.885 21.888 0 32.853-9.195 32.853-27.563zM395.115 462.656l-3.563-21.781c-6.528 0.896-12.587 1.344-18.219 1.344-8 0-12.011-2.517-12.011-7.552 0-2.368 0.661-4.139 2.005-5.333s4.523-2.816 9.557-4.885c11.861-5.632 17.771-14.507 17.771-26.667 0-21.333-12.885-31.851-38.677-31.552-10.069 0-18.667 0.896-25.771 2.667 0 0.597 1.045 7.851 3.115 21.781 8.597-2.368 16.149-3.563 22.677-3.563 9.472 0 14.229 2.816 14.229 8.448 0 2.069-0.661 3.776-2.005 5.12s-4.523 3.179-9.557 5.547c-12.736 5.931-19.115 14.677-19.115 26.219 0 21.333 12.437 32 37.333 32 8.896 0 16.299-0.597 22.229-1.792zM434.219 462.656h12.437l-3.115-23.104h-12.885c-0.597-5.035-1.557-11.029-2.88-18.005s-2.368-12.672-3.115-17.109c-0.747-4.437-1.109-7.104-1.109-8 0-4.736 2.816-7.104 8.448-7.104 2.368 0 4.736 0.299 7.104 0.896l-3.563-20.885c-6.229-2.069-12.139-3.115-17.771-3.115-12.736 0-19.413 6.955-20.011 20.885 0 3.563 1.195 11.861 3.563 24.896 0.896 5.931 4.587 27.563 11.115 64.896h24.448l-2.667-14.251zM524.437 430.23c0-6.827-1.045-14.528-3.115-23.104h-49.344c-0.896-6.507 0.597-11.413 4.437-14.677 3.861-3.264 9.472-4.885 16.896-4.885 8.896 0 17.472 2.069 25.771 6.229l-4.011-24c-8.896-2.368-17.344-3.563-25.344-3.563-28.139 0-42.219 14.080-42.219 42.219 0 16.299 4.075 29.696 12.224 40.213s18.453 15.787 30.891 15.787c10.368 0 18.603-3.115 24.661-9.344 6.123-6.208 9.152-14.507 9.152-24.875zM586.219 463.104c-3.861-6.805-7.104-16-9.771-27.563-6.528 0.597-11.115-2.965-13.781-10.667s-6.379-26.667-11.115-56.896h-24.896l1.344 6.229c6.528 38.507 10.816 68.011 12.885 88.448h22.677l-1.344-14.677c4.139 6.229 7.936 10.603 11.328 13.12 3.413 2.539 7.637 3.2 12.672 2.005zM669.333 481.323l-4.011-25.344c-8.299 4.139-15.701 6.229-22.229 6.229-9.195 0-16.747-4.075-22.677-12.224s-8.896-18.603-8.896-31.339c0-8.896 2.005-15.851 5.995-20.885s9.707-7.552 17.109-7.552c6.229 0 13.333 1.92 21.333 5.781l-4.437-26.219c-8.299-2.368-15.701-3.563-22.229-3.563-13.333 0-23.936 4.523-31.787 13.547-7.851 9.045-11.776 21.269-11.776 36.672 0 20.736 5.269 37.696 15.787 50.88s24.064 19.776 40.661 19.776c7.744 0.021 16.789-1.899 27.157-5.76zM741.333 436.886c0-5.333-0.597-11.563-1.771-18.667-3.861-23.403-6.379-40.149-7.552-50.219h-20.437l0.448 9.771c-5.931-7.701-14.677-11.563-26.219-11.563-6.805 0-12.288 2.368-16.448 7.104s-6.229 10.965-6.229 18.667c0 11.563 3.776 20.523 11.328 26.88 7.552 6.379 18.304 9.557 32.213 9.557 4.437 0 7.851-0.149 10.219-0.448 0.597 2.069 0.896 4.011 0.896 5.781 0 5.931-5.333 8.896-16 8.896-8.597 0-17.344-1.472-26.219-4.437 0 1.173 1.195 8.299 3.563 21.333 11.264 3.264 21.184 4.885 29.781 4.885 21.611 0.021 32.427-9.173 32.427-27.541zM803.989 463.104c-4.139-7.104-7.253-16.299-9.344-27.563-6.805 0.597-11.477-2.816-13.995-10.219s-6.293-26.517-11.328-57.344h-24.875l1.344 6.229c5.632 30.805 9.92 60.288 12.885 88.448h23.104c0-3.264-0.597-8.149-1.771-14.677 4.437 6.229 8.363 10.603 11.776 13.12 3.392 2.539 7.467 3.2 12.203 2.005zM866.667 484.438h24.896l-19.115-116.437h-23.552l1.344 8.448c-6.805-6.805-14.528-10.219-23.104-10.219-9.195 0-16.512 3.563-21.995 10.667s-8.213 16.597-8.213 28.437c0 15.701 4.075 29.333 12.224 40.896s17.707 17.344 28.672 17.344c9.195 0 17.045-4.288 23.552-12.885l5.291 33.749zM915.989 426.667c0 43.861-10.731 84.288-32.213 121.344-21.483 37.035-50.816 66.368-88 88s-77.696 32.448-121.557 32.448c-53.632 0-102.229-16.299-145.771-48.896 37.632-34.368 62.955-76.437 76.011-126.229h-22.229c-13.035 44.437-36.437 81.92-70.229 112.448-33.771-30.507-57.195-68.011-70.229-112.448h-22.229c13.035 49.771 38.379 91.861 76.011 126.229-43.563 32.597-92.139 48.896-145.771 48.896-43.861 0-84.373-10.816-121.557-32.448s-66.517-50.965-88-88c-21.483-37.035-32.213-77.483-32.213-121.344s10.731-84.288 32.213-121.344c21.483-37.035 50.816-66.368 88-88s77.696-32.448 121.557-32.448c53.632 0 102.229 16.299 145.771 48.896-35.563 32.896-60.011 72-73.344 117.333h22.229c13.632-40.896 36.139-75.413 67.563-103.552 31.403 28.139 53.931 62.677 67.563 103.552h22.229c-13.333-45.333-37.781-84.437-73.344-117.333 43.563-32.597 92.139-48.896 145.771-48.896 43.861 0 84.373 10.816 121.557 32.448s66.517 50.965 88 88c21.483 37.056 32.213 77.483 32.213 121.344zM1024 711.104v-568.896c0-15.403-5.632-28.736-16.896-40s-24.597-16.896-40-16.896h-910.229c-15.403 0-28.736 5.632-40 16.896s-16.896 24.597-16.896 40v568.896c0 15.403 5.632 28.736 16.896 40s24.597 16.896 40 16.896h910.229c15.403 0 28.736-5.632 40-16.896 11.264-11.243 16.896-24.576 16.896-40z" />
</svg>