<svg width="24" height="24" viewBox="0 0 1000 1000">
  <path d="M814.741 729.6c-82.581 82.496-183.701 123.733-303.296 123.733-118.187 0-218.219-41.237-300.096-123.733-84.032-85.333-126.016-186.283-126.016-302.933 0-116.608 41.984-216.896 126.016-300.779 84.011-83.947 184.043-125.888 300.096-125.888 117.461 0 219.307 42.325 305.429 126.912 81.173 80.363 121.792 180.288 121.792 299.755 0 119.488-41.301 220.459-123.925 302.933zM761.344 182.4c-70.485-69.675-153.429-104.491-248.811-104.491-95.424 0-177.664 34.475-246.72 103.467s-103.595 150.741-103.595 245.312c0 40 6.315 77.824 18.795 113.472l113.067-50.048h-8.149v-50.688h40.021c0-7.168-0.704-14.315-0.704-21.44v-12.16h-39.296v-50.709h46.421c6.443-37.867 20.736-68.565 40-92.864 40-52.864 104.277-81.429 174.293-81.429 45.717 0 87.125 13.568 111.445 27.157l-17.173 79.275c-14.997-7.851-48.555-18.56-81.408-18.56-35.733 0-69.269 10.688-92.139 36.416-10.709 12.139-18.56 28.587-23.552 50.005h155.285l220.651-97.664c-15.339-27.093-34.752-52.139-58.432-75.051zM483.84 405.803l-0.939 0.704 1.621-0.704h-0.683zM616.683 439.403h6.379v50.688h-120.939l-49.131 21.739c4.245 9.515 9.237 18.005 15.083 24.661 22.144 27.179 53.547 38.592 87.851 38.592 31.424 0 60.693-9.28 79.275-17.131l20.011 81.429c-25.728 11.413-63.573 21.419-107.136 21.419-67.136 0-124.288-27.136-164.992-72.853-9.045-10.432-16.875-22.144-23.979-34.539l-140.309 62.080c13.589 20.395 29.589 39.979 48.107 58.645 66.944 68.267 148.8 102.4 245.653 102.4 96.811 0 179.051-34.133 246.72-102.4 68.331-67.563 102.485-150.037 102.485-247.488 0-32.107-3.648-62.4-10.837-90.944l-234.24 103.701z" />
</svg>