<svg width="24" height="24" viewBox="0 0 1000 1000">
  <path d="M825.6 510.294c-29.013 147.2-158.293 257.707-313.6 257.707-123.307 0-230.4-69.973-283.733-172.373-128.427-13.653-228.267-122.453-228.267-254.293 0-141.227 114.773-256 256-256h554.667c117.76 0 213.333 95.573 213.333 213.333 0 112.64-87.467 203.947-198.4 211.627zM810.667 170.667h-554.667c-94.293 0-170.667 76.373-170.667 170.667s76.373 170.667 170.667 170.667h30.293c28.16 98.56 118.187 170.667 225.707 170.667 129.707 0 234.667-104.96 234.667-234.667v-21.333h64c70.827 0 128-57.173 128-128s-57.173-128-128-128z" />
</svg>