<svg width="24" height="24" viewBox="0 0 1000 1000">
  <path d="M825.216 374.72c0.789 5.355 1.387 10.731 2.005 16.107l0.341 2.475c0.213 1.365 0.405 2.752 0.512 4.117 0.875 9.728 1.323 19.52 1.323 29.227s-0.448 19.499-1.323 29.227c-0.128 1.365-0.32 2.752-0.512 4.117l-0.341 2.475c-0.597 5.376-1.216 10.752-2.005 16.107l88.277 71.595c3.947 3.179 4.992 8.768 2.517 13.227l-85.013 152.107c-2.56 4.565-8.107 6.549-12.864 4.565l-105.131-42.475c-1.237 0.96-2.453 1.92-3.691 2.88l-7.040 5.589c-2.325 1.92-4.672 3.84-7.083 5.589-1.28 0.939-2.645 1.792-3.989 2.645l-2.197 1.408c-20.757 14.336-42.453 25.984-64.576 34.645l-16.085 114.027c-0.725 5.099-5.077 8.939-10.219 8.939h-172.203c-5.141 0-9.493-3.84-10.219-8.939l-16.085-114.027c-22.123-8.661-43.819-20.288-64.512-34.603l-2.304-1.472c-1.301-0.832-2.645-1.685-3.925-2.624-2.411-1.749-4.757-3.669-7.083-5.568l-7.104-5.653c-1.216-0.939-2.411-1.877-3.648-2.837l-105.131 42.475c-4.779 1.984-10.283 0-12.843-4.565l-85.013-152.107c-2.475-4.459-1.408-10.048 2.517-13.227l88.277-71.595c-0.789-5.355-1.408-10.731-1.963-16.064l-0.363-2.411c-0.213-1.408-0.427-2.837-0.533-4.224-0.875-9.749-1.323-19.52-1.323-29.227s0.448-19.477 1.323-29.227c0.128-1.387 0.341-2.816 0.533-4.224l0.341-2.368c0.576-5.376 1.195-10.752 1.984-16.107l-88.277-71.573c-3.947-3.179-4.992-8.768-2.517-13.205l85.013-152.149c2.56-4.544 8.085-6.507 12.843-4.565l105.131 42.475c1.152-0.896 2.283-1.792 3.456-2.667l7.083-5.632c2.368-1.963 4.8-3.947 7.296-5.76 1.109-0.789 2.24-1.515 3.392-2.24l1.963-1.28c20.928-14.549 42.923-26.368 65.387-35.179l16.085-114.027c0.725-5.099 5.077-8.939 10.219-8.939h172.203c5.141 0 9.493 3.84 10.219 8.939l16.085 114.027c22.507 8.832 44.48 20.651 65.365 35.157l1.963 1.28c1.173 0.725 2.304 1.472 3.413 2.261 2.539 1.835 4.971 3.819 7.424 5.824l6.955 5.547c1.173 0.875 2.304 1.771 3.456 2.667l105.131-42.475c4.757-1.941 10.283 0.021 12.864 4.565l85.013 152.149c2.475 4.437 1.408 10.027-2.517 13.205l-88.277 71.595zM661.547 426.667c0-82.325-66.987-149.333-149.333-149.333-82.325 0-149.333 67.008-149.333 149.333s67.008 149.333 149.333 149.333c82.347 0 149.333-67.008 149.333-149.333z" />
</svg>