<svg width="24" height="24" viewBox="0 0 1000 1000">
  <path d="M810.667 405.334c0 0-85.333-92.587-85.333-149.333 0-46.933 38.4-85.333 85.333-85.333s85.333 38.4 85.333 85.333c0 56.747-85.333 149.333-85.333 149.333zM0 42.667h1024v-128h-1024v128zM755.499 499.499l-396.501 396.501-60.331-60.331 110.336-110.336-225.835-225.835c-16.661-16.661-16.661-43.669 0-60.331l256-256c8.341-8.341 19.243-12.501 30.165-12.501s21.824 4.16 30.165 12.501l256 256c16.661 16.661 16.661 43.669 0 60.331zM273.664 469.334l195.669 195.669 195.669-195.669h-391.339z" />
</svg>