<svg width="24" height="24" viewBox="0 0 1000 1000">
  <path d="M756.245 498.774l-0.192 0.192 0.427 0.405-172.053 172.032-0.405-0.405-54.336 54.336-60.352-60.352 54.891-54.891-438.891-439.765v-170.304h170.475l439.979 438.528 54.528-54.528 60.352 60.352-54.421 54.4zM220.544 85.334h-49.877v49.685l413.845 414.677 50.901-50.88-414.869-413.483zM903.019 817.707c-47.531 47.509-124.587 47.509-172.117 0l-116.267-116.139 172.032-172.032 116.373 116.245c47.509 47.467 47.509 124.437-0.021 171.925z" />
</svg>