<svg width="24" height="24" viewBox="0 0 1000 1000">
  <path d="M512 810.667c-212.075 0-384-171.925-384-384s171.925-384 384-384 384 171.925 384 384c0 21.333-1.707 42.667-5.547 64-11.52 21.333-37.12 21.333-37.12 21.333h-85.333v42.667c0 42.667-42.667 42.667-42.667 42.667h-85.333v42.667c0 42.667-42.667 42.667-42.667 42.667h-42.667v85.333c0 42.667-42.667 42.667-42.667 42.667zM405.333 682.667c35.349 0 64-28.651 64-64s-28.651-64-64-64-64 28.651-64 64 28.651 64 64 64zM277.333 512c35.349 0 64-28.651 64-64s-28.651-64-64-64-64 28.651-64 64 28.651 64 64 64zM490.667 469.334c35.349 0 64-28.651 64-64s-28.651-64-64-64-64 28.651-64 64 28.651 64 64 64zM704 384c35.349 0 64-28.651 64-64s-28.651-64-64-64v0 0c-35.349 0-64 28.651-64 64v0 0c0 35.349 28.651 64 64 64zM469.333 256c35.349 0 64-28.651 64-64s-28.651-64-64-64-64 28.651-64 64 28.651 64 64 64z" />
</svg>