<svg width="24" height="24" viewBox="0 0 1000 1000">
  <path d="M896.043 725.334h-511.232v-85.333h-86.144v85.333h-170.709c-23.531 0-42.624-19.115-42.624-42.667v-170.795c0.384 0 0.747 0.107 1.131 0.107 47.083 0 85.248-38.208 85.248-85.333s-38.165-85.333-85.248-85.333c-0.384 0-0.747 0.107-1.131 0.107v-170.795c0-23.552 19.093-42.667 42.624-42.667h170.709v85.333h86.144v-85.333h511.232c23.531 0 42.624 19.115 42.624 42.667v170.688c-46.976 0.107-85.035 38.251-85.035 85.312s38.059 85.205 85.035 85.312v170.731c0 23.552-19.093 42.667-42.624 42.667zM384.811 298.667h-86.144v85.333h86.144v-85.333zM384.811 469.334h-86.144v85.333h86.144v-85.333z" />
</svg>