<svg width="24" height="24" viewBox="0 0 1000 1000">
  <path d="M341.333 554.667h170.667v-85.333h-170.667v85.333zM341.333 426.667h341.333v-85.333h-341.333v85.333zM341.333 298.667h341.333v-85.333h-341.333v85.333zM810.667 810.667h-170.667v42.667h-256v-42.667h-170.667c-23.552 0-42.667-19.115-42.667-42.667v-725.333c0-23.552 19.115-42.667 42.667-42.667h597.333c23.552 0 42.667 19.115 42.667 42.667v725.333c0 23.552-19.115 42.667-42.667 42.667zM768 85.334h-512v640h128v-42.667h256v42.667h128v-640z" />
</svg>