<svg width="24" height="24" viewBox="0 0 1000 1000">
  <path d="M384 810.667h85.333v-85.333h-85.333v85.333zM554.667 810.667h85.333v-85.333h-85.333v85.333zM384 640h85.333v-85.333h-85.333v85.333zM554.667 640h85.333v-85.333h-85.333v85.333zM384 469.334h85.333v-85.333h-85.333v85.333zM554.667 469.334h85.333v-85.333h-85.333v85.333zM384 298.667h85.333v-85.333h-85.333v85.333zM554.667 298.667h85.333v-85.333h-85.333v85.333zM384 128h85.333v-85.333h-85.333v85.333zM554.667 128h85.333v-85.333h-85.333v85.333z" />
</svg>