<svg width="24" height="24" viewBox="0 0 1000 1000">
  <path d="M512 853.334c-235.264 0-426.667-191.403-426.667-426.667s191.403-426.667 426.667-426.667 426.667 191.403 426.667 426.667-191.403 426.667-426.667 426.667zM661.333 597.334c35.349 0 64-28.651 64-64s-28.651-64-64-64-64 28.651-64 64 28.651 64 64 64zM362.667 597.334c35.349 0 64-28.651 64-64s-28.651-64-64-64-64 28.651-64 64 28.651 64 64 64zM298.667 192c34.133 87.040 118.613 149.333 218.027 149.333s183.467-62.293 218.027-149.333h-436.053z" />
</svg>