<svg width="24" height="24" viewBox="0 0 1000 1000">
  <path d="M512 853.334c-235.264 0-426.667-191.403-426.667-426.667s191.403-426.667 426.667-426.667 426.667 191.403 426.667 426.667-191.403 426.667-426.667 426.667zM362.667 597.334c35.349 0 64-28.651 64-64s-28.651-64-64-64-64 28.651-64 64 28.651 64 64 64zM717.184 273.6c-3.051-4.203-76.181-102.933-205.205-102.933-126.549 0-201.643 98.219-204.8 102.4-14.123 18.859-10.304 45.611 8.533 59.755 18.859 14.101 45.461 10.304 59.605-8.384 1.152-1.472 54.016-68.437 136.64-68.437 84.629 0 135.659 67.072 136.171 67.733 13.824 19.072 40.512 23.317 59.584 9.451 19.072-13.824 23.339-40.512 9.472-59.584zM661.333 469.334c-35.349 0-64 28.651-64 64s28.651 64 64 64 64-28.651 64-64-28.651-64-64-64z" />
</svg>