<svg width="24" height="24" viewBox="0 0 1000 1000">
  <path d="M512 853.334c-235.648 0-426.667-191.019-426.667-426.667 0-234.667 190.72-426.667 426.667-426.667 235.648 0 426.667 191.040 426.667 426.667 0 235.648-191.019 426.667-426.667 426.667zM512 85.334c-188.523 0-341.333 152.832-341.333 341.333s152.811 341.333 341.333 341.333 341.333-152.832 341.333-341.333-152.811-341.333-341.333-341.333zM426.667 533.334c0-35.346-28.654-64-64-64s-64 28.654-64 64c0 35.346 28.654 64 64 64s64-28.654 64-64zM725.333 533.334c0-35.346-28.654-64-64-64s-64 28.654-64 64c0 35.346 28.654 64 64 64s64-28.654 64-64zM640 298.667h-256c-23.552 0-42.667-19.115-42.667-42.667s19.115-42.667 42.667-42.667h256c23.552 0 42.667 19.115 42.667 42.667s-19.115 42.667-42.667 42.667z" />
</svg>