<svg width="24" height="24" viewBox="0 0 1000 1000">
  <path d="M625.195 128c-118.379 0-220.523 69.931-268.395 170.667h240.533v85.333h-266.261c-2.005 13.973-3.392 28.139-3.392 42.667s1.387 28.693 3.392 42.667h266.261v85.333h-240.533c47.872 100.736 150.016 170.667 268.395 170.667 96.683 0 187.733-47.659 243.52-127.488l69.952 48.875c-71.744 102.656-188.928 163.947-313.472 163.947-166.315 0-307.776-107.115-360.491-256h-179.371v-85.333h159.531c-1.557-14.016-2.517-28.224-2.517-42.667s0.96-28.651 2.517-42.667h-159.531v-85.333h179.349c52.715-148.885 194.197-256 360.491-256 124.544 0 241.728 61.291 313.472 163.947l-69.952 48.875c-55.787-79.829-146.816-127.488-243.499-127.488z" />
</svg>