<svg width="24" height="24" viewBox="0 0 1000 1000">
  <path d="M178.539 426.752c29.461 59.136 141.931 255.936 333.632 255.936 40.683 0 77.611-9.301 111.147-23.936l64.384 64.384c-50.389 27.115-108.736 44.885-175.531 44.885-280.384 0-414.336-311.531-419.904-324.8l-6.955-16.533 6.955-16.533c2.837-6.741 39.019-90.795 110.763-171.669l60.8 60.8c-43.84 50.219-72.448 101.845-85.291 127.467zM341.333 426.688c0-15.232 2.197-29.909 5.952-43.968l208.683 208.661c-14.059 3.776-28.757 5.952-43.968 5.952-94.101 0.021-170.667-76.523-170.667-170.645zM931.755 443.2c-3.179 7.616-48.853 113.707-140.245 202.581l104.469 104.491-60.373 60.373-110.336-110.336c0 0-0.021 0-0.043 0.021l-62.187-62.208c0 0 0.021-0.021 0.043-0.021l-64.555-64.555c0 0-0.043 0.021-0.043 0.021l-64.704-64.704c0.021 0 0.021-0.021 0.064-0.021l-240.427-240.405c0 0-0.021 0.021-0.043 0.043l-60.843-60.864c0.021-0.021 0.043-0.021 0.043-0.021l-104.555-104.576 60.373-60.352 110.528 110.528c58.24-39.659 129.109-67.819 213.269-67.819 280.405 0 414.037 311.552 419.584 324.843l6.912 16.491-6.933 16.491zM594.197 448.491c1.877-6.976 3.157-14.208 3.157-21.781 0-47.061-38.272-85.333-85.333-85.333-7.573 0-14.805 1.28-21.781 3.136l103.957 103.979zM512.171 170.688c-57.557 0-107.904 18.005-151.104 44.672l64.427 64.427c25.365-15.040 54.912-23.744 86.507-23.744 94.101 0 170.667 76.565 170.667 170.667 0 31.573-8.704 61.12-23.744 86.507l71.851 71.851c60.715-58.539 99.243-127.467 114.709-158.421-29.355-59.115-141.589-255.957-333.312-255.957z" />
</svg>