<svg width="24" height="24" viewBox="0 0 1000 1000">
  <path d="M853.611 810.667h-683.221c-23.424 0-42.389-18.965-42.389-42.389v-683.221c0-23.403 18.965-42.389 42.389-42.389h367.829v297.408h-100.075v115.904h100.075v85.483c0 99.2 60.587 153.216 149.077 153.216 42.389 0 78.827-3.157 89.429-4.565v-103.659l-61.376-0.021c-48.128 0-57.451-22.869-57.451-56.427v-74.005h114.773l-14.955-115.904h-99.84v-297.408h195.712c23.403 0 42.389 18.987 42.389 42.389v683.221c0.021 23.403-18.965 42.368-42.368 42.368z" />
</svg>