<svg width="24" height="24" viewBox="0 0 1000 1000">
  <path d="M584.789 798.891c-40.085 40.085-105.685 40.085-145.771 0l-366.293-366.272c-40.085-40.085-40.085-105.685 0-145.771l261.376-261.376c18.197-15.851 41.984-25.451 68.032-25.451h219.563c28.608 0 54.507 11.584 73.259 30.336l256.299 256.32c40.085 40.085 40.085 105.685 0 145.771l-366.464 366.443zM318.784 312.576c-2.667-2.667-6.379-4.331-10.453-4.331h-31.339c-3.712 0-7.104 1.365-9.707 3.627l-37.291 37.291c-5.717 5.717-5.717 15.083 0 20.8l271.488 271.488c5.717 5.717 15.083 5.717 20.8 0l52.288-52.288c5.717-5.739 5.717-15.083 0-20.8l-255.787-255.787zM574.592 129.899l-36.565-36.565c-2.667-2.667-6.379-4.331-10.453-4.331h-31.339c-3.712 0-7.104 1.365-9.707 3.627l-37.291 37.291c-5.717 5.717-5.717 15.083 0 20.8l52.267 52.267c5.717 5.717 15.083 5.717 20.8 0l52.288-52.288c5.717-5.717 5.717-15.061 0-20.8zM574.592 349.142l-146.197-146.176c-2.667-2.667-6.379-4.331-10.453-4.331h-31.339c-3.712 0-7.104 1.365-9.707 3.627l-37.291 37.291c-5.717 5.739-5.717 15.083 0 20.821l161.877 161.856c5.717 5.739 15.083 5.739 20.8 0l52.288-52.288c5.739-5.717 5.739-15.083 0.021-20.8z" />
</svg>