<svg width="24" height="24" viewBox="0 0 1000 1000">
  <path d="M403.883 512l-105.216-128.661 105.387-127.339 65.109 54.507-60.523 73.152 60.693 74.219zM615.36 383.659l-60.523-73.152 65.109-54.507 105.387 127.339-105.216 128.661-65.451-54.123zM840.832 670.166l-170.667 170.667c-8 8-18.859 12.501-30.165 12.501h-426.667c-23.552 0-42.667-19.115-42.667-42.667v-768c0-23.552 19.115-42.667 42.667-42.667h597.333c23.552 0 42.667 19.115 42.667 42.667v597.333c0 11.307-4.501 22.165-12.501 30.165zM768 85.334h-512v682.667h340.992v-170.667h171.008v-512z" />
</svg>