<svg width="24" height="24" viewBox="0 0 1000 1000">
  <path d="M426.667 512h85.333v-85.333h-85.333v85.333zM554.667 512h85.333v-85.333h-85.333v85.333zM896 682.71h-426.667l-51.2 68.267c-8.043 10.731-20.693 17.067-34.133 17.067h-256c-23.552 0-42.667-19.115-42.667-42.667v-597.333c0-23.552 19.115-42.667 42.667-42.667h768c23.552 0 42.667 19.115 42.667 42.667v512c0 23.552-19.115 42.667-42.667 42.667zM853.333 170.71h-682.667v255.957h213.333v85.333h-213.333v170.709h192l51.2-68.267c8.043-10.731 20.693-17.067 34.133-17.067h405.333v-426.667z" />
</svg>