<svg width="24" height="24" viewBox="0 0 1000 1000">
  <path d="M810.667 778.667c-53.013 0-96-42.987-96-96 0-19.477 5.888-37.547 15.872-52.693l-212.288-363.925c-2.112 0.128-4.096 0.619-6.229 0.619s-4.139-0.491-6.229-0.619l-212.288 363.925c9.984 15.147 15.872 33.216 15.872 52.693 0 53.013-42.987 96-96 96s-96-42.987-96-96 42.987-96 96-96c2.133 0 4.139 0.491 6.229 0.64l212.288-363.947c-9.984-15.125-15.872-33.216-15.872-52.693 0-53.013 42.987-96 96-96s96 42.987 96 96c0 19.499-5.888 37.568-15.872 52.693l212.288 363.947c2.112-0.149 4.096-0.64 6.229-0.64 53.013 0 96 42.987 96 96s-42.987 96-96 96z" />
</svg>