<svg width="24" height="24" viewBox="0 0 1000 1000">
  <path d="M725.333 384v384c0 23.467-19.2 42.667-42.667 42.667h-554.667c-23.467 0-42.667-19.2-42.667-42.667v-597.333l170.667 170.667h426.667c23.467 0 42.667 19.2 42.667 42.667zM640.128 426.667h-426.667l-42.667-42.667v341.333h469.333v-298.667zM853.333 682.667h-42.667l0.085-469.333-42.667 42.667h-426.752v42.667h-85.333v-85.333c0-23.467 19.2-42.667 42.667-42.667h426.667l170.667-170.667v640c0 23.467-19.2 42.667-42.667 42.667zM768 682.667h42.667v-85.333h-42.667v85.333z" />
</svg>