<svg width="24" height="24" viewBox="0 0 1000 1000">
  <path d="M725.141 725.376l-18.347-106.624c-2.987-9.813-15.787-21.333-28.139-21.333-12.8 0-166.763 0-166.763 0-20.053 0-44.779-13.653-44.779-33.707v-17.493c0-20.032 24.747-34.112 44.779-34.112 0 0 125.824 0 139.883 0 14.080 0 27.712-15.36 24.747-30.272-2.987-15.36-39.232-109.611-40.939-118.997-1.707-7.253-11.093-21.333-27.712-21.333-14.080 0-122.837 0-122.837 0-22.187 0-28.992-2.987-43.925-21.333-14.507-18.773-130.944-153.536-130.944-153.536-1.28-1.28-11.52 2.56-11.52 4.267v554.453c0 12.8 26.027 42.645 42.645 42.645 0 0 348.459 0 362.517 0 13.653 0.021 24.747-25.984 21.333-42.624zM725.141 322.347c4.693 20.459 75.925 329.685 94.677 422.229zM749.867 853.334c0 0-392.384 0-455.083 0-63.125 0-81.472-47.339-81.472-76.779 0-29.845 0-723.349 0-723.349 0-33.28 17.92-46.059 28.139-49.899 10.24-4.267 37.952-7.68 54.592 11.52 0 0 200.875 232.021 204.715 235.861 5.547 5.547 5.547 5.547 11.093 5.547 11.093 0 93.824 0 139.029 0 58.432 0 67.819 42.667 74.219 66.112 4.693 20.459 75.925 329.685 94.677 422.229 14.549 70.805-3.371 108.757-69.909 108.757z" />
</svg>