<svg width="24" height="24" viewBox="0 0 1000 1000">
  <path d="M170.667 725.334h-85.333v-682.667c0-23.552 19.115-42.667 42.667-42.667h640v85.333h-597.333v640zM853.333 810.667h-597.333c-23.467 0-42.667-19.2-42.667-42.667v-597.333c0-23.467 19.2-42.667 42.667-42.667h597.333c23.467 0 42.667 19.2 42.667 42.667v597.333c0 23.467-19.2 42.667-42.667 42.667zM810.667 213.334h-512v512h512v-512zM341.333 640h426.667v-85.333h-426.667v85.333zM341.333 512h426.667v-85.333h-426.667v85.333zM341.333 384h298.667v-85.333h-298.667v85.333z" />
</svg>