<svg width="24" height="24" viewBox="0 0 1000 1000">
  <path d="M853.376 810.667h-597.419c-23.467 0-42.667-19.2-42.667-42.667v-597.333c0-23.467 19.2-42.667 42.667-42.667h597.419c23.467 0 42.667 19.2 42.667 42.667v597.333c0 23.467-19.2 42.667-42.667 42.667zM640.043 256h-298.752v85.333h298.752v-85.333zM768.043 426.667h-426.752v85.333h426.752v-85.333zM768.043 597.334h-426.752v85.333h426.752v-85.333zM170.624 725.334h-85.333v-682.667c0-23.552 19.115-42.667 42.667-42.667h640v85.333h-597.333v640z" />
</svg>