<svg width="24" height="24" viewBox="0 0 1000 1000">
  <path d="M938.667 486.976c0 190.912-191.445 346.219-426.688 346.219s-426.645-155.328-426.645-346.219c0-171.115 151.787-314.517 356.821-341.632 13.888-2.965 32.789-9.195 37.568-21.035 4.288-10.773 2.795-27.648 1.365-38.549 0 0-4.971-30.123-6.059-36.565-1.835-10.773-8.576-42.176 36.949-22.976 45.568 19.157 245.739 144.683 335.211 247.723h-0.043c61.888 67.776 91.52 136.619 91.52 213.035zM344.96 373.376h-84.757c-12.352 0-22.4 10.027-22.4 22.4v169.515c0 12.331 10.027 22.379 22.4 22.379 12.331 0 22.357-10.069 22.357-22.379v-147.157h62.4c12.373 0 22.357-10.048 22.357-22.357 0-12.352-9.984-22.4-22.357-22.4zM432.661 395.776c0-12.373-10.048-22.4-22.357-22.4-12.331 0-22.379 10.027-22.379 22.4v169.515c0 12.331 10.048 22.379 22.379 22.379s22.357-10.069 22.357-22.379v-169.515zM636.715 395.776c0-9.685-6.123-18.219-15.296-21.248-2.304-0.789-4.693-1.152-7.125-1.152-6.955 0-13.653 3.328-17.856 8.96l-86.891 118.293v-104.853c0-12.373-10.027-22.4-22.379-22.4-12.309 0-22.357 10.027-22.357 22.4v169.515c0 9.643 6.123 18.176 15.275 21.227 2.304 0.768 4.715 1.152 7.104 1.152 6.976 0 13.675-3.349 17.899-8.96l86.869-118.336v104.917c0 12.331 10.069 22.379 22.379 22.379 12.373 0 22.379-10.069 22.379-22.379v-169.515zM773.888 502.912c12.352 0 22.379-10.048 22.379-22.379s-10.027-22.357-22.379-22.357h-62.4v-40.021h62.4c12.352 0 22.379-10.048 22.379-22.357 0-12.373-10.027-22.4-22.379-22.4h-84.779c-12.309 0-22.357 10.027-22.357 22.4v84.693c0 0.021 0 0.021 0 0.043 0 0 0 0.043 0 0.043v84.629c0 0.043 0 0.064 0 0.085 0 12.331 10.005 22.379 22.357 22.379h84.779c12.352 0 22.379-10.069 22.379-22.379 0-12.352-10.027-22.379-22.379-22.379h-62.4v-40h62.4z" />
</svg>