<svg width="24" height="24" viewBox="0 0 1000 1000">
  <path d="M935.68 658.902l-257.707-420.267-184.32 300.373 146.347 238.507c7.253 11.093 21.333 15.787 33.28 12.373l262.4-130.987zM938.667 97.387c0-24.32-21.333-33.707-47.36-20.48l-200.96 100.267 248.32 405.333v-485.12zM384 90.582c0-23.893-18.347-34.987-39.68-23.893l-235.52 116.907c-12.8 6.827-23.467 23.893-23.467 38.4v542.72c0 19.2 14.080 27.307 31.573 19.627l254.293-127.147 12.8-19.627v-546.987zM652.373 196.395l-225.707 113.067v256l225.707-369.067z" />
</svg>