<svg width="24" height="24" viewBox="0 0 1000 1000">
  <path d="M938.667 460.736c0 216.832-191.040 392.597-426.667 392.597s-426.667-175.765-426.667-392.597c0-136.939 76.288-257.344 191.765-327.616l-64.512-133.099c0 0 463.509 0 635.051 218.389l-0.448-0.064c57.131 66.773 91.477 150.827 91.477 242.389zM320 384c-35.349 0-64 28.672-64 64s28.651 64 64 64c35.349 0 64-28.672 64-64s-28.651-64-64-64zM512 384c-35.349 0-64 28.672-64 64s28.651 64 64 64c35.349 0 64-28.672 64-64s-28.651-64-64-64zM704 384c-35.349 0-64 28.672-64 64s28.651 64 64 64c35.349 0 64-28.672 64-64s-28.651-64-64-64z" />
</svg>