<svg width="24" height="24" viewBox="0 0 1000 1000">
  <path d="M371.563 186.283c-47.211 55.701-77.696 137.984-79.808 230.357 0 0.256 0 19.883 0 20.117 2.112 92.395 32.597 174.741 79.808 230.357 61.227 79.488 152.235 129.92 253.781 129.92 62.485 0 121.003-19.115 171.008-52.309-75.051 67.157-174.144 108.181-282.752 108.587-0.512 0-1.109 0-1.621 0-235.627 0-426.667-191.040-426.667-426.667 0-228.843 180.181-415.552 406.379-426.155 6.784-0.341 13.504-0.512 20.288-0.512 109.269 0 208.875 41.088 284.352 108.608-50.005-33.216-108.523-52.224-171.008-52.224-101.611 0.021-192.555 50.453-253.76 129.92zM816.896 724.928c-33.877 15.381-70.891 24-109.739 24-40.747 0-79.381-9.685-114.581-26.517 86.72-43.669 148.843-159.403 148.843-295.637 0-136.384-62.165-252.117-148.949-295.723 35.221-16.853 73.877-26.56 114.688-26.56 38.869 0 75.883 8.576 109.76 23.936 75.285 76.907 121.749 182.080 121.749 298.24 0 116.075-46.464 221.333-121.771 298.261zM371.563 667.051c0.299 0.405 0.661 0.747 0.96 1.131-0.32-0.363-0.661-0.683-0.96-1.045v-0.085z" />
</svg>