<svg width="24" height="24" viewBox="0 0 1000 1000">
  <path d="M723.563 288.299c0-159.317-128.981-288.299-288.235-288.299s-288.341 128.981-288.341 288.299c0 159.189 129.067 288.256 288.341 288.256s288.235-129.067 288.235-288.256zM437.184 596.48c0 0 73.344 180.331 279.445 126.997 0 0 168.341-50.603 160.085-239.488 0 0-6.763-125.824-130.923-187.477 0 0 7.317 124.715-90.603 218.752 0 0-84.779 85.717-218.005 81.216zM335.936 579.84c-57.451 77.525-6.485 176.917-14.869 156.395 0 0 41.109 117.76 166.293 117.056 0 0 105.643 5.333 163.157-98.859 0 0-85.824 5.397-158.699-54.613 0 0-42.133-32.064-76.288-101.675-0.021 0-45.397-4.139-79.595-18.304z" />
</svg>