<svg width="24" height="24" viewBox="0 0 1000 1000">
  <path d="M832.043 469.334h-64.043v128c0 46.933-38.443 85.333-85.376 85.333h-127.915v64c0 58.667-48 106.667-106.667 106.667s-106.667-48-106.667-106.667v-64h-128.085c-46.933 0-85.291-38.4-85.291-85.333v-128h106.709c58.667 0 106.667-48 106.667-106.667s-48-106.667-106.667-106.667h-106.709v-128c0-46.933 38.357-85.333 85.291-85.333h128.085v64c0 58.667 48 106.667 106.667 106.667s106.667-48 106.667-106.667v-64h127.915c46.933 0 85.376 38.4 85.376 85.333v128h64.043c58.667 0 106.624 48 106.624 106.667s-47.957 106.667-106.624 106.667z" />
</svg>