<svg width="24" height="24" viewBox="0 0 1000 1000">
  <path d="M869.163 346.795c5.419 24.661 8.171 50.133 8.171 76.331 0 199.573-161.621 361.344-361.131 361.344-21.547 0-42.837-1.963-63.381-5.611-32.384 20.096-70.741 31.808-111.787 31.808-115.883 0-209.835-92.501-209.835-206.635 0-39.659 11.413-76.843 31.168-108.267-4.885-23.531-7.296-47.765-7.296-72.64 0-199.509 161.749-361.323 361.109-361.323 22.037 0 43.413 2.027 64.384 5.781 29.867-15.872 64.085-24.917 100.373-24.917 116.949 0 211.84 93.355 211.84 208.576 0 34.517-8.448 66.923-23.616 95.552zM529.045 175.915c-89.408-5.739-182.165 28.373-214.955 99.136-32.875 70.869 21.205 94.016 41.749 91.477 20.757-2.581 31.659-3.243 57.301-54.72 25.835-51.52 57.92-57.323 105.003-57.323 46.912 0 94.592 25.088 94.592 63.040 0 37.973-33.493 52.779-51.499 58.624-18.005 5.803-66.923 16.704-130.048 32.768-62.997 16.128-118.507 65.067-118.507 126.229 0 61.099 45.803 133.888 183.552 140.352 137.749 6.4 198.912-65.067 204.715-105.621s-20.672-55.36-20.672-55.36c-33.387-16.064-57.835-13.461-84.203 35.456-26.539 48.875-64.405 48.171-97.259 48.171-32.832 0-78.507-16.64-78.507-53.333 0-36.736 65.621-49.621 65.621-49.621 95.339-25.685 238.208-37.931 238.208-158.955-0.021-121.067-105.643-154.475-195.093-160.32z" />
</svg>