<svg width="24" height="24" viewBox="0 0 1000 1000">
  <path d="M512 42.667c0-47.128-38.205-85.333-85.333-85.333s-85.333 38.205-85.333 85.333c0 47.128 38.205 85.333 85.333 85.333s85.333-38.205 85.333-85.333zM682.667 192c0-35.346-28.654-64-64-64s-64 28.654-64 64c0 35.346 28.654 64 64 64s64-28.654 64-64zM512 320c0-35.346-28.654-64-64-64s-64 28.654-64 64c0 35.346 28.654 64 64 64s64-28.654 64-64zM725.333 213.334v85.333h85.333c47.125 0 85.333 38.208 85.333 85.333s-38.208 85.333-85.333 85.333h-85.333v42.667c0 117.824-95.509 213.333-213.333 213.333-103.765 0-189.163-73.557-209.067-170.667h-46.933c-70.699 0-128-57.301-128-128 0-70.677 57.301-128 128-128h42.667v-85.333h-42.667c-117.824 0-213.333 95.509-213.333 213.333s95.509 213.333 213.333 213.333c42.667 100.267 140.8 170.667 256 170.667 146.347 0 266.24-113.493 277.333-257.28l21.333 1.28c94.251 0 170.667-76.416 170.667-170.667s-76.416-170.667-170.667-170.667h-85.333z" />
</svg>