<svg width="24" height="24" viewBox="0 0 1000 1000">
  <path d="M512 384c-47.061 0-85.333-38.272-85.333-85.333s38.272-85.333 85.333-85.333c47.061 0 85.333 38.272 85.333 85.333s-38.272 85.333-85.333 85.333zM810.667 853.334h-597.333c-23.573 0-42.667-19.115-42.667-42.667v-768c0-23.552 19.093-42.667 42.667-42.667h597.333c23.552 0 42.667 19.115 42.667 42.667v768c0 23.552-19.115 42.667-42.667 42.667zM512 725.334c47.147 0 85.333-38.187 85.333-85.333 0-47.104-38.187-85.333-85.333-85.333-47.125 0-85.333 38.229-85.333 85.333 0 47.147 38.208 85.333 85.333 85.333zM512 128c-94.101 0-170.667 76.565-170.667 170.667s76.565 170.667 170.667 170.667c94.101 0 170.667-76.565 170.667-170.667s-76.565-170.667-170.667-170.667z" />
</svg>