<svg width="24" height="24" viewBox="0 0 1000 1000">
  <path d="M741.141-0c-14.571 0-28.757 4.053-41.067 11.691l-188.053 114.603-188.416-114.816c-25.557-15.723-60.203-14.869-85.227 2.453-25.429 17.387-38.037 48.405-31.872 78.848l44.011 217.963-160.043 139.989c-22.741 19.691-31.936 51.221-23.275 80.149 8.533 28.587 33.259 50.027 62.955 54.528l223.104 33.749 88.171 189.205c12.608 27.285 40.384 44.971 70.677 44.971 30.229 0 57.984-17.643 70.72-44.971l88.128-189.205 223.061-33.749c29.547-4.416 54.229-25.835 62.827-54.528 8.555-29.013-0.64-60.437-23.381-80.213l-159.957-139.925 44.011-218.005c6.293-30.187-6.272-61.291-32.064-78.955-13.013-8.96-28.395-13.781-44.309-13.781z" />
</svg>