<svg width="24" height="24" viewBox="0 0 1000 1000">
  <path d="M775.339 564.992c0 29.632-10.56 54.912-31.659 75.84-21.12 20.928-46.485 31.381-76.117 31.381s-54.912-10.56-75.84-31.659c-20.928-21.099-31.381-46.293-31.381-75.563 0-29.632 10.453-54.912 31.381-75.84s46.208-31.381 75.84-31.381c29.632 0 54.997 10.453 76.117 31.381 21.099 20.949 31.659 46.229 31.659 75.84zM436.437 238.336c0-30.741-10.731-56.768-32.213-78.059-21.483-21.312-47.403-31.957-77.781-31.957-20.736 0-39.808 5.376-57.216 16.107s-30.741 25.003-40 42.773c19.264-7.403 37.397-14.805 54.443-22.229 22.229-8.896 44.437-8.619 66.667 0.832s37.973 25.451 47.232 48.043c8.896 22.229 8.619 44.437-0.832 66.667s-25.472 37.781-48.064 46.677l-45.547 18.325c8.149 1.856 15.936 2.773 23.339 2.773 30.379 0 56.299-10.645 77.781-31.957 21.461-21.227 32.192-47.253 32.192-77.995zM938.667 693.334v-533.333c0-44.075-15.659-81.771-46.955-113.045-31.296-31.296-68.992-46.955-113.045-46.955h-533.333c-44.075 0-81.749 15.637-113.045 46.955-31.296 31.296-46.955 68.971-46.955 113.045v84.992l95.552-38.336c7.403-34.069 24.725-62.229 51.947-84.437 27.221-22.229 58.432-33.344 93.611-33.344 38.528 0 72.043 12.971 100.565 38.891s44.629 57.963 48.341 96.107l191.659 140.011c55.552 0 102.869 19.541 141.952 58.624s58.603 86.208 58.603 141.376c0 55.552-19.541 102.869-58.603 141.952-39.083 39.083-86.379 58.624-141.952 58.624-54.805 0-101.675-19.349-140.565-58.069-38.891-38.699-58.709-85.461-59.435-140.267l-124.992-178.901c-3.328 0.384-8.512 0.555-15.552 0.555-27.776 0-53.141-6.848-76.117-20.565l-164.992 66.112v260.011c0 44.075 15.659 81.771 46.955 113.045 31.296 31.296 68.992 46.955 113.045 46.955h533.333c44.075 0 81.749-15.637 113.045-46.955 31.275-31.275 46.933-68.971 46.933-113.045zM801.451 563.883c0-37.035-13.141-68.608-39.445-94.72s-57.963-39.168-94.997-39.168-68.608 13.056-94.72 39.168c-26.112 26.112-39.168 57.685-39.168 94.72s13.056 68.715 39.168 94.997c26.112 26.304 57.685 39.445 94.72 39.445 37.397 0 69.163-13.056 95.275-39.168s39.168-57.856 39.168-95.275z" />
</svg>