<svg width="24" height="24" viewBox="0 0 1000 1000">
  <path d="M512 682.667c-141.163 0-256-114.837-256-256s114.837-256 256-256 256 114.837 256 256c0 141.163-114.837 256-256 256zM512 256c-94.101 0-170.667 76.565-170.667 170.667s76.565 170.667 170.667 170.667 170.667-76.565 170.667-170.667c0-94.101-76.565-170.667-170.667-170.667zM469.333 853.334h85.333v-128h-85.333v128zM469.333 128h85.333v-128h-85.333v128zM863.133 676.683l42.564-73.958-110.938-63.846-42.564 73.958 110.938 63.846zM162.351 177.905l-42.581 73.95 110.925 63.872 42.581-73.95-110.925-63.872zM161.68 671.414l110.938-63.859-42.573-73.958-110.938 63.859 42.573 73.958zM857.667 176.022l-110.925 63.872 42.581 73.95 110.925-63.872-42.581-73.95z" />
</svg>