<svg width="24" height="24" viewBox="0 0 1000 1000">
  <path d="M866.048 810.667h-708.011c-16.64 0-30.037-13.44-30.037-29.995v-707.968c0-16.597 13.419-30.037 30.037-30.037h708.011c16.533 0 29.952 13.44 29.952 30.037v707.968c0 16.555-13.419 29.995-29.952 29.995zM480.363 215.339c0-16.555-13.461-29.995-30.037-29.995h-229.547c-16.64 0-30.037 13.461-30.037 29.995v504.171c0 16.555 13.419 29.995 30.037 29.995h229.547c16.597 0 30.037-13.44 30.037-29.995v-504.171zM833.259 442.774c0-16.597-13.419-30.059-30.037-30.059h-229.547c-16.597 0-30.037 13.461-30.037 30.059v276.757c0 16.555 13.461 29.995 30.037 29.995h229.547c16.64 0 30.037-13.44 30.037-29.995v-276.757z" />
</svg>