<svg width="24" height="24" viewBox="0 0 1000 1000">
  <path d="M853.333 597.334h-128v170.667h-640c-23.467 0-42.667-19.2-42.667-42.667v-512h85.333c0-70.827 57.173-128 128-128s128 57.173 128 128h256c0-70.827 57.173-128 128-128s128 57.173 128 128h85.333v213.333l-128 170.667zM256 149.334c-35.413 0-64 28.587-64 64s28.587 64 64 64 64-28.587 64-64c0-35.413-28.587-64-64-64zM768 149.334c-35.413 0-64 28.587-64 64s28.587 64 64 64 64-28.587 64-64c0-35.413-28.587-64-64-64zM725.333 426.667v106.667h106.667l83.627-106.667h-190.293z" />
</svg>