<svg width="24" height="24" viewBox="0 0 1000 1000">
  <path d="M128 810.667v-768h768v768h-768zM624.981 180.715c-18.005-6.4-36.203-9.728-54.592-10.005-26.389-0.533-49.92 3.541-70.592 12.203s-36.8 20.075-48.405 34.197-20.267 28.928-26.005 44.395-8.597 30.805-8.597 45.995v167.189h-51.989v65.984c18.133 6.677 33.941 15.744 47.403 27.2 13.461 11.477 23.723 24.128 30.805 37.995 7.061 13.867 12.267 26.539 15.595 37.995s5.675 23.061 6.997 34.795c0.256 2.667 1.472 4.011 3.605 4.011h75.2v-130.389h102.4v-77.589h-102.784v-159.189c0-6.144 0.661-11.925 2.005-17.387s3.669-10.88 6.997-16.213c3.328-5.333 8.469-9.536 15.403-12.608s15.189-4.459 24.789-4.203c15.723 0 29.461 2.923 41.195 8.811l24.789-73.195c-4.821-6.933-16.213-13.589-34.219-19.989z" />
</svg>