<svg width="24" height="24" viewBox="0 0 1000 1000">
  <path d="M980.053 656c-6.933 19.072-49.515 14.144-49.515 14.144l-141.184-0.981c0 0-10.56 1.493-18.261-3.115-7.467-4.672-12.373-15.211-12.373-15.211s-22.4-59.52-52.075-109.995c-62.827-106.901-88.021-112.32-98.347-105.899-23.723 15.488-17.792 62.101-17.792 95.317 0 103.339 15.701 146.645-30.72 157.696-15.168 3.584-26.496 6.208-65.728 6.421-50.453 0.491-92.928 0-117.12-11.819-16.256-8-28.672-25.536-20.843-26.56 9.173-1.024 30.336-5.653 41.429-20.885 14.656-19.563 14.123-63.872 14.123-63.872s8.277-121.6-19.541-136.811c-19.072-10.304-45.077 10.837-101.056 107.712-28.779 49.451-50.411 104.341-50.411 104.341s-4.096 10.283-11.605 15.957c-8.981 6.443-21.589 8.768-21.589 8.768l-134.165-0.555c0 0-20.203 0.256-27.669-8.491-6.421-8-0.469-22.677-0.469-22.677s105.088-243.2 223.787-366.869c109.056-113.579 232.981-100.651 232.981-100.651h56.107c0 0 16.747-3.691 25.493 5.611 7.979 8.491 7.701 19.307 7.701 19.307s-1.003 75.243 33.813 86.315c34.475 11.051 78.805-72.64 125.696-104.853 35.328-24.213 62.357-19.072 62.357-19.072l125.461 1.835c0 0 65.429 4.117 34.283 55.637-2.325 4.437-18.069 38.123-93.248 107.925-78.571 72.896-68.053 61.141 26.773 187.584 57.749 76.8 80.896 123.648 73.707 143.744z" />
</svg>