<svg width="24" height="24" viewBox="0 0 1000 1000">
  <path d="M512 640c34.731 0 68.779-2.923 102.016-8.235l107.221 107.221c-66.539 18.816-136.704 29.013-209.237 29.013-172.8 0-332.373-57.173-460.8-153.6l76.8-102.4c106.667 80.213 239.787 128 384 128zM306.965 324.715l186.517 186.517c-108.011-3.861-207.573-40.704-288.683-101.632l76.8-102.4c8.192 6.165 16.683 12.011 25.365 17.515zM896 512l76.8 102.4c-32.832 24.661-67.904 46.421-104.533 65.621l70.485 70.485-60.331 60.331-707.84-707.84 60.331-60.331 142.336 142.336 138.752-185.003 153.6 204.8c-42.667 32-96 51.2-153.6 51.2-28.267 0-55.467-4.672-80.917-13.163l136.875 136.875c64.896-9.472 124.501-34.901 174.443-72.512l76.8 102.4c-43.648 32.789-92.715 58.411-145.472 75.883l98.667 98.667c44.032-19.584 85.611-43.584 123.605-72.149z" />
</svg>