<svg width="24" height="24" viewBox="0 0 1000 1000">
  <path d="M682.667 682.667c0 94.251-76.416 170.667-170.667 170.667h-42.667v-85.333h42.667c47.125 0 85.333-38.208 85.333-85.333s-38.208-85.333-85.333-85.333h-384v-85.333h384c94.251 0 170.667 76.416 170.667 170.667zM810.667 597.334h-42.667v-85.333h42.667c23.552 0 42.667-19.115 42.667-42.667s-19.115-42.667-42.667-42.667h-640v-85.333h640c70.699 0 128 57.323 128 128 0 70.699-57.301 128-128 128zM768 256h-640v-85.333h640c23.552 0 42.667-19.115 42.667-42.667s-19.115-42.667-42.667-42.667h-85.333v-85.333h85.333c70.699 0 128 57.323 128 128 0 70.699-57.301 128-128 128z" />
</svg>