<svg width="24" height="24" viewBox="0 0 1000 1000">
  <path d="M558.677 362.56l6.656-362.56c-21.205 3.755-39.147 5.653-53.845 5.653-14.016 0-31.957-1.877-53.845-5.653l6.677 362.56c-13.675 23.595-42.475 74.112-86.421 151.552-43.925 77.44-80.939 141.461-111.019 192.043-30.080 50.603-61.035 99.648-92.821 147.179 19.819-5.12 38.293-7.701 55.381-7.701 14.699 0 33.685 2.56 56.917 7.701 21.547-37.952 44.352-77.184 68.459-117.696s52.651-87.787 85.632-141.803c32.981-54.016 56.661-92.821 71.019-116.416 12.651 20.864 31.36 51.2 56.149 91.029s44.864 72.299 60.245 97.429c15.381 25.131 33.344 55.211 53.845 90.261 20.523 35.051 38.805 67.435 54.869 97.173 18.453-4.779 36.757-7.168 54.869-7.168 19.136 0 38.635 2.389 58.453 7.168-9.579-13.333-19.84-28.459-30.763-45.376s-19.392-30.336-25.387-40.256c-5.973-9.92-15.637-26.325-28.971-49.237s-21.717-37.269-25.131-43.072c-49.877-84.779-110.208-189.056-180.971-312.811z" />
</svg>