<svg width="24" height="24" viewBox="0 0 1000 1000">
  <path d="M694.848 426.667c0 11.755-4.757 20.309-14.293 25.707l-243.819 152.384c-9.835 6.357-20.16 6.677-30.955 0.96-10.475-5.717-15.723-14.613-15.723-26.667v-304.768c0-12.075 5.248-20.949 15.723-26.667 5.077-2.539 10.005-3.797 14.763-3.797 6.357 0 11.755 1.579 16.192 4.757l243.819 152.384c9.536 5.397 14.293 13.952 14.293 25.707zM938.667 426.667c0-30.464-0.149-54.293-0.469-71.424-0.32-17.152-1.664-38.805-4.053-65.003s-5.952-49.6-10.709-70.229c-5.077-23.168-16.021-42.688-32.853-58.581s-36.501-25.067-59.051-27.605c-70.485-7.936-176.981-11.904-319.531-11.904s-249.045 3.968-319.531 11.904c-22.549 2.539-42.304 11.733-59.285 27.605s-28.011 35.392-33.088 58.581c-4.437 20.629-7.851 44.053-10.24 70.229-2.389 26.197-3.733 47.851-4.053 65.003-0.32 17.131-0.469 40.96-0.469 71.424s0.149 54.293 0.469 71.424c0.32 17.152 1.664 38.805 4.053 65.003s5.952 49.6 10.709 70.229c5.077 23.168 16.021 42.688 32.853 58.581 16.832 15.872 36.501 25.088 59.051 27.627 70.485 7.936 176.981 11.904 319.531 11.904s249.045-3.968 319.531-11.904c22.549-2.539 42.304-11.755 59.285-27.627s28.011-35.392 33.088-58.581c4.437-20.629 7.851-44.053 10.24-70.229 2.389-26.197 3.733-47.851 4.053-65.003 0.32-17.131 0.469-40.96 0.469-71.424z" />
</svg>