<svg width="24" height="24" viewBox="0 0 1000 1000">
  <path d="M253.44 292.651c0.192-0.512 4.608-12.736 7.168-18.795 14.059-33.259 34.197-63.104 59.861-88.768 25.643-25.621 55.509-45.76 88.768-59.84 34.453-14.571 71.019-21.952 108.736-21.952 37.696 0 74.283 7.381 108.736 21.952 33.259 14.080 63.125 34.219 88.768 59.861s45.781 55.509 59.861 88.768c14.571 34.453 21.952 71.040 21.952 108.736s-7.381 74.283-21.952 108.736c-14.080 33.259-34.197 63.125-59.861 88.789-25.643 25.643-55.509 45.781-88.768 59.84-34.453 14.571-71.040 21.952-108.736 21.952-38.144 0-76.267-7.595-110.229-21.952-27.157-11.477-73.109-41.067-100.011-68.8l-0.149-0.171v229.888h386.155c14.059 0.149 14.059 19.776 14.059 26.219s0 26.069-14.101 26.219h-417.536c-11.371 0-18.411-9.451-18.411-18.219v-323.563c0-10.432 13.013-17.984 25.088-20.565 23.595-5.035 29.035 2.496 34.816 10.475l0.768 1.067c8.832 13.12 36.395 40.853 36.672 41.131 43.029 43.029 100.544 66.709 161.984 66.709 61.141 0 118.485-23.701 161.515-66.709 43.157-43.179 66.944-100.373 66.944-161.067 0-60.907-23.659-118.123-66.603-161.067-42.389-42.389-101.632-66.709-162.496-66.709-41.237 0-81.024 10.987-115.115 31.787l0.149 196.736c0 26.24 11.392 54.741 30.443 76.288 21.803 24.619 51.84 38.187 84.608 38.187 31.723 0 61.355-12.053 83.435-33.92 21.909-21.717 33.984-50.645 33.984-81.451 0-65.749-51.691-117.248-117.696-117.248-12.715 0-35.861 5.611-36.8 5.845-13.333 3.968-18.987-14.528-20.864-20.629-7.168-23.445 3.605-28.096 5.845-28.8 21.248-6.592 35.157-7.829 53.44-7.829 93.163 0 168.96 75.84 168.96 169.045 0 92.459-75.755 167.68-168.853 167.68-45.589 0-88.427-17.429-120.619-49.088-30.656-30.144-48.235-70.336-48.235-110.251l-0.021-1.003c-0.149-4.971-0.256-122.923-0.277-161.621l-0.171 0.192c-17.515 19.392-34.816 49.067-46.293 79.403-4.501 11.883-14.656 9.771-28.523 5.504-6.059-1.856-24.491-7.552-20.416-20.864l0.021-0.128zM451.925 338.859c0.064-5.653 5.227-10.603 8.32-13.568l0.981-0.939c5.291-5.205 10.347-7.851 14.997-7.851 3.861 0 6.229 1.813 7.083 2.603 2.325 2.176 28.757 28.928 31.275 31.488l29.461-29.355c2.731-3.072 5.696-4.608 9.152-4.715 4.693 0 9.835 2.795 15.232 8.32 12.715 12.971 6.357 19.989 3.285 23.36l-29.845 29.867 31.125 31.339c6.827 7.381 0.789 15.232-5.205 21.248-8.725 8.725-17.152 10.987-22.549 6.016l-30.955-30.997-31.296 31.317c-1.664 1.579-3.755 2.432-6.059 2.432-4.181 0-9.109-2.816-14.677-8.384-9.621-9.621-11.691-16.277-6.677-21.589l31.296-31.211-31.125-31.168c-2.581-2.603-3.861-5.333-3.819-8.213zM520.128 761.899c-50.027 0-103.253-10.091-142.357-27.008-4.181-1.643-6.677-4.992-7.232-9.707-0.512-4.459 0.683-10.325 3.669-17.963 2.432-6.208 8.875-22.656 21.333-17.899 40.021 15.275 84.267 23.68 124.565 23.68 45.675 0 89.984-8.939 131.669-26.581 33.131-14.016 64.384-34.261 98.368-63.701 2.475-2.155 5.099-3.243 7.808-3.243 6.635 0 12.971 6.507 18.411 12.608 9.067 10.176 15.296 18.645 6.357 27.115-32.448 30.741-68.011 53.717-111.915 72.277-47.701 20.181-98.411 30.421-150.677 30.421zM789.739 144.064v0c-6.016 5.995-11.136 9.557-15.637 10.837-4.565 1.301-8.64 0.341-11.776-2.816l-2.965-2.965c-31.019-31.019-67.115-55.36-107.328-72.363-41.6-17.6-85.824-26.517-131.413-26.517s-89.813 8.917-131.413 26.517c-40.213 17.003-76.309 41.344-107.328 72.363-32.32 32.299-56.661 68.416-72.363 107.328-15.317 37.931-20.309 66.453-21.952 75.84-0.149 0.875-0.277 1.579-0.363 2.069-2.112 11.029-12.267 11.819-26.88 9.579-6.080-0.939-24.555-3.755-22.805-17.045l0.043-0.299c4.885-30.784 13.547-60.949 25.685-89.707 19.541-46.187 47.509-87.68 83.115-123.285s77.099-63.573 123.285-83.115c47.829-20.224 98.624-30.485 150.976-30.485 52.331 0 103.125 10.261 150.976 30.507 46.165 19.52 87.659 47.488 123.285 83.115 0.085 0.085 2.027 2.005 3.093 3.179 3.904 4.267 7.317 11.733-8.235 27.264z" />
</svg>