<svg width="24" height="24" viewBox="0 0 1000 1000">
  <path d="M512 682.667c165.12 0 298.667-133.547 298.667-298.667 0-35.84-6.827-70.4-18.347-102.4l64.853-64.853c24.747 50.773 38.827 107.093 38.827 167.253 0 212.053-171.947 384-384 384-60.16 0-116.48-14.080-167.253-38.827l64.853-64.853c32 11.52 66.56 18.347 102.4 18.347zM938.667 694.614l-196.267 164.693-55.040-65.28 196.267-164.693 55.040 65.28zM124.587 840.96l-54.187-54.613 56.747-56.747-47.36-39.68 60.587-60.587 47.36 40.107 34.133-34.133c-58.453-67.413-93.867-155.307-93.867-251.307 0-212.053 171.52-384 384-384 96 0 183.893 35.413 251.307 93.867l93.867-93.867 54.187 54.187-786.773 786.773zM702.72 154.027c-51.627-42.667-118.187-68.693-190.72-68.693-165.12 0-298.667 133.547-298.667 298.667 0 72.533 26.027 139.093 68.693 190.72l420.693-420.693zM342.187 798.72l-60.587 60.587-36.693-30.293 60.587-60.587 36.693 30.293z" />
</svg>