<svg width="24" height="24" viewBox="0 0 1000 1000">
  <path d="M676.373 209.494c-7.68-6.827-18.347-7.253-26.88-2.56-37.973 31.573-44.8 46.080-65.707 76.373-62.72-64-107.093-83.2-188.587-83.2-96 0-171.093 59.307-171.093 177.92 0 93.013 49.92 155.307 122.027 186.88 62.293 27.307 148.907 32.427 215.040 39.68v14.080c0 28.16 2.133 60.16-14.080 83.627-13.653 20.907-40.533 29.867-64 29.867-43.52 0-82.347-22.613-91.733-68.693-2.133-10.24-10.667-20.48-20.053-20.907l-110.933 11.947c-9.387 2.133-19.627 9.387-17.067 23.893 25.6 134.4 147.2 174.933 256 174.933 55.467 0 128-14.933 171.947-56.747 55.467-52.053 50.773-121.6 50.773-197.12v-177.92c0-53.333 21.333-77.227 42.667-105.813 7.253-10.667 8.96-23.040 0-30.293l-87.893-75.947h-0.427zM561.173 488.107v23.893c-82.773 0-170.24-16.64-170.24-113.92 0-49.493 26.027-83.2 69.547-83.2 32.427 0 61.013 20.053 79.36 52.053 22.187 39.68 21.333 76.8 21.333 121.173zM856.853 104.96c-92.16-68.267-227.84-104.96-343.893-104.96-162.56 0-309.333 60.16-420.267 160.427-8.533 7.68-0.853 18.347 10.667 12.373 118.613-69.547 266.667-111.36 419.413-111.36 102.827 0 216.32 21.333 320.427 65.28 15.787 6.827 28.16-10.24 13.653-21.76zM895.68 149.334c-11.947 15.36-78.933 7.253-109.653 3.413-8.107-0.853-9.387 6.827-1.28 12.8 52.907 37.547 140.373 26.453 150.613 14.080 10.24-12.8-2.987-100.267-52.907-141.653-7.68-6.827-14.933-2.987-11.093 4.693 11.093 28.587 36.267 91.307 24.32 106.667z" />
</svg>