<svg width="24" height="24" viewBox="0 0 1000 1000">
  <path d="M618.645 675.542h-35.541v35.563h35.541zM440.896 675.542h-35.541v35.563h35.541zM637.504 776.512l46.571 46.571c6.763 6.763 6.763 18.133 0 25.237-7.104 6.741-18.496 6.741-25.237 0l-52.608-52.629c-28.437 13.867-60.437 22.037-94.208 22.037-34.133 0-66.133-8.171-94.571-22.4l-52.971 52.971c-6.763 6.741-18.133 6.741-24.896 0-7.104-7.104-7.104-18.496 0-25.237l46.571-46.571c-52.971-39.104-87.467-100.971-87.467-172.075h426.624c0 71.125-35.563 133.333-87.808 172.096zM814.187 568.896c-29.461 0-53.333-23.872-53.333-53.333v-248.875c0-29.461 23.872-53.333 53.333-53.333s53.333 23.872 53.333 53.333v248.875c0 29.44-23.872 53.333-53.333 53.333zM209.813 568.896c-29.461 0-53.333-23.872-53.333-53.333v-248.875c0-29.461 23.872-53.333 53.333-53.333s53.333 23.872 53.333 53.333v248.875c-0.021 29.44-23.893 53.333-53.333 53.333zM298.688 213.355c0-19.627 15.915-35.563 35.541-35.563h35.541v-124.437c0-29.461 23.872-53.333 53.333-53.333s53.333 23.872 53.333 53.333v124.437h71.104v-124.437c0-29.461 23.872-53.333 53.333-53.333s53.333 23.872 53.333 53.333v124.437h35.541c19.627 0 35.541 15.915 35.541 35.563v355.52h-426.624v-355.52z" />
</svg>