<svg width="24" height="24" viewBox="0 0 1000 1000">
  <path d="M512 853.334c-235.264 0-426.667-191.403-426.667-426.667s191.403-426.667 426.667-426.667 426.667 191.403 426.667 426.667-191.403 426.667-426.667 426.667zM512 768c78.741 0 151.147-27.072 208.96-72.043l-478.251-478.251c-44.971 57.813-72.043 130.219-72.043 208.96 0 188.203 153.131 341.333 341.333 341.333zM512 85.334c-78.741 0-151.147 27.072-208.96 72.043l478.251 478.251c44.971-57.813 72.043-130.219 72.043-208.96 0-188.203-153.131-341.333-341.333-341.333z" />
</svg>