<svg width="24" height="24" viewBox="0 0 1000 1000">
  <path d="M560.085 317.44l61.013 61.013 274.773-274.901-60.885-60.885-274.901 274.773zM743.253 561.92l122.027 122.027c-168.533 168.533-441.6 168.96-610.133 0.853 167.68 55.467 354.56 10.667 488.107-122.88zM253.867 683.52c-168.107-168.533-167.68-441.6 0.853-610.133l122.027 122.027c-133.547 133.547-178.347 320.427-122.88 488.107zM254.72 684.374l-0.427-0.427c-16.213-128.427 49.92-293.547 183.467-427.52l244.48 244.48c-133.547 133.547-299.093 199.68-427.52 183.467z" />
</svg>