<svg width="24" height="24" viewBox="0 0 1000 1000">
  <path d="M213.248 64c-82.475 0-149.333 66.859-149.333 149.333s66.859 149.333 149.333 149.333 149.333-66.859 149.333-149.333-66.859-149.333-149.333-149.333zM213.248 426.667c-117.824 0-213.333-95.509-213.333-213.333s95.509-213.333 213.333-213.333 213.333 95.509 213.333 213.333-95.509 213.333-213.333 213.333zM631.381 512h179.2v76.8h-136.533l-82.773 139.52c-12.373 21.333-36.693 35.413-62.293 35.413-20.053 0-38.4-8.107-51.2-21.333l-157.867-157.44c-13.227-13.227-21.333-30.293-21.333-51.627 0-26.88 14.080-49.493 36.267-62.72l142.933-86.613v-213.333h76.8v277.333l-96 70.4 98.987 100.267 73.813-106.667zM810.581 64c-82.475 0-149.333 66.859-149.333 149.333s66.859 149.333 149.333 149.333 149.333-66.859 149.333-149.333-66.859-149.333-149.333-149.333zM810.581 426.667c-117.824 0-213.333-95.509-213.333-213.333s95.509-213.333 213.333-213.333 213.333 95.509 213.333 213.333-95.509 213.333-213.333 213.333zM682.581 733.867c42.667 0 76.8 34.133 76.8 76.8s-34.133 76.8-76.8 76.8-76.8-34.133-76.8-76.8 34.133-76.8 76.8-76.8z" />
</svg>