<svg width="24" height="24" viewBox="0 0 1000 1000">
  <path d="M554.667 810.667h-426.667v-768h256v170.667h85.333v-170.667h426.667v768h-341.333zM298.667 128h-85.333v85.333h85.333v-85.333zM298.667 298.667h-85.333v85.333h85.333v-85.333zM298.667 469.334h-85.333v85.333h85.333v-85.333zM298.667 640h-85.333v85.333h85.333v-85.333zM469.333 298.667h-85.333v85.333h85.333v-85.333zM469.333 469.334h-85.333v85.333h85.333v-85.333zM469.333 640h-85.333v85.333h85.333v-85.333zM640 128h-85.333v85.333h85.333v-85.333zM640 298.667h-85.333v85.333h85.333v-85.333zM640 469.334h-85.333v85.333h85.333v-85.333zM640 640h-85.333v85.333h85.333v-85.333zM810.667 128h-85.333v85.333h85.333v-85.333zM810.667 298.667h-85.333v85.333h85.333v-85.333zM810.667 469.334h-85.333v85.333h85.333v-85.333zM810.667 640h-85.333v85.333h85.333v-85.333z" />
</svg>