<svg width="24" height="24" viewBox="0 0 1000 1000">
  <path d="M725.333 810.667h-426.667c-70.4 0-128-57.6-128-128v-512c0-23.467 19.2-42.667 42.667-42.667v-42.667c0-23.467 19.2-42.667 42.667-42.667h42.667c23.467 0 42.667 19.2 42.667 42.667v42.667h341.333v-42.667c0-23.467 19.2-42.667 42.667-42.667h42.667c23.467 0 42.667 19.2 42.667 42.667v42.667c23.467 0 42.667 19.2 42.667 42.667v512c0 70.4-57.6 128-128 128zM320 213.334c-35.349 0-64 28.651-64 64s28.651 64 64 64 64-28.651 64-64-28.651-64-64-64zM704 213.334c-35.349 0-64 28.651-64 64s28.651 64 64 64 64-28.651 64-64-28.651-64-64-64zM768 426.667h-512v256h512v-256z" />
</svg>