<svg width="24" height="24" viewBox="0 0 1000 1000">
  <path d="M896 682.667h-213.333v85.333c0 23.552-19.115 42.667-42.667 42.667h-256c-23.552 0-42.667-19.115-42.667-42.667v-85.333h-213.333c-23.467 0-42.667-19.2-42.667-42.667v-256c0-23.467 19.2-42.667 42.667-42.667h298.667v85.333h170.667v-85.333h298.667c23.467 0 42.667 19.2 42.667 42.667v256c0 23.467-19.2 42.667-42.667 42.667zM597.333 682.667h-170.667v42.667h170.667v-42.667zM426.667 256v42.667h-298.667v-170.667c0-23.467 19.2-42.667 42.667-42.667h682.667c23.467 0 42.667 19.2 42.667 42.667v170.667h-298.667v-42.667h-170.667z" />
</svg>