<svg width="24" height="24" viewBox="0 0 1000 1000">
  <path d="M512 597.334c47.36 0 85.333 38.4 85.333 85.333 0 16.213-4.267 31.147-12.373 43.947l-72.96 126.72-72.96-126.72c-8.107-12.8-12.373-27.733-12.373-43.947 0-46.933 38.4-85.333 85.333-85.333zM853.333 85.334v128c0 46.933-38.4 85.333-85.333 85.333h-42.667v85.333c0 46.933-38.4 85.333-85.333 85.333h-85.333v85.333h-85.333v-85.333h-85.333c-46.933 0-85.333-38.4-85.333-85.333v-85.333h-42.667c-46.933 0-85.333-38.4-85.333-85.333v-128h-42.667v-85.333h768v85.333h-42.667z" />
</svg>