<svg width="24" height="24" viewBox="0 0 1000 1000">
  <path d="M282.453 478.294c61.44-120.747 160.427-219.307 281.173-281.173l93.867 93.867c11.52 11.52 28.587 15.36 43.52 10.24 47.787-15.787 99.413-24.32 152.32-24.32 23.467 0 42.667-19.2 42.667-42.667v-148.907c0-23.467-19.2-42.667-42.667-42.667-400.64 0-725.333 324.693-725.333 725.333 0 23.467 19.2 42.667 42.667 42.667h149.333c23.467 0 42.667-19.2 42.667-42.667 0-53.333 8.533-104.533 24.32-152.32 4.693-14.933 1.28-31.573-10.667-43.52l-93.867-93.867z" />
</svg>