<svg width="24" height="24" viewBox="0 0 1000 1000">
  <path d="M170.667 810.667c-23.573 0-42.667-19.115-42.667-42.667 0-400.597 324.736-725.333 725.333-725.333 23.573 0 42.667 19.115 42.667 42.667v149.333c0 23.552-19.093 42.667-42.667 42.667-53.333 0-104.533 8.533-152.32 24.32-14.933 4.693-31.573 1.28-43.52-10.24l-93.867-93.867c-120.747 61.44-219.733 160-281.173 281.173l93.867 94.293c11.947 11.093 15.36 27.733 10.667 42.667-15.787 47.787-24.32 98.987-24.32 152.32 0 23.552-19.093 42.667-42.667 42.667h-149.333zM640 810.667v-64h149.333l-234.667-234.667 42.667-42.667 234.667 234.667v-149.333h64v256h-256z" />
</svg>