<svg width="24" height="24" viewBox="0 0 1000 1000">
  <path d="M896 42.667h-768c-23.573 0-42.667 19.115-42.667 42.667v554.667c0 23.552 19.093 42.667 42.667 42.667h165.632l52.203 104.427c7.232 14.464 21.995 23.573 38.165 23.573h256c16.171 0 30.933-9.131 38.165-23.573l52.203-104.427h165.632c23.552 0 42.667-19.115 42.667-42.667v-554.667c0-23.552-19.115-42.667-42.667-42.667zM170.667 128h682.667v469.333h-149.333c-16.171 0-30.933 9.131-38.165 23.573l-52.203 104.427h-203.243l-52.203-104.427c-7.232-14.464-21.995-23.573-38.165-23.573h-149.333v-469.333zM512 213.334c-94.101 0-170.667 76.565-170.667 170.667s76.565 170.667 170.667 170.667c94.101 0 170.667-76.565 170.667-170.667s-76.565-170.667-170.667-170.667zM512 469.334c-47.061 0-85.333-38.272-85.333-85.333s38.272-85.333 85.333-85.333c47.061 0 85.333 38.272 85.333 85.333s-38.272 85.333-85.333 85.333z" />
</svg>