<svg width="24" height="24" viewBox="0 0 1000 1000">
  <path d="M533.333 512h85.333v85.333h85.333v85.333h-85.333v85.333h-85.333v-85.333h-85.333v-85.333h85.333zM938.667 725.334h-85.333l-70.677-298.667h-435.243l-75.755 384h-186.325v-85.333h112.341l100.992-512h512v85.333h-437.995l-8.427 42.667h489.088zM469.333 106.667c0-35.346-28.654-64-64-64s-64 28.654-64 64c0 35.346 28.654 64 64 64s64-28.654 64-64zM768 106.667c0-35.346-28.654-64-64-64s-64 28.654-64 64c0 35.346 28.654 64 64 64s64-28.654 64-64z" />
</svg>