<svg width="24" height="24" viewBox="0 0 1000 1000">
  <path d="M512 682.667c43.093 0 84.053-10.667 119.467-29.867l62.293 62.293c-52.48 33.28-114.773 52.907-181.76 52.907-188.587 0-341.333-152.747-341.333-341.333h-128l170.667-170.667 170.667 170.667h-128c0 141.227 114.773 256 256 256zM512 85.334c188.587 0 341.333 152.747 341.333 341.333h128l-170.667 170.667-170.667-170.667h128c0-141.227-114.773-256-256-256-43.093 0-83.627 11.093-119.467 29.867l-62.293-62.293c52.48-33.28 114.773-52.907 181.76-52.907z" />
</svg>