<svg width="24" height="24" viewBox="0 0 1000 1000">
  <path d="M511.232 853.334c119.872 0 220.949-41.152 303.232-123.435 82.795-82.283 124.203-183.36 124.203-303.232 0-119.893-40.64-219.691-121.92-299.435-86.357-84.843-188.181-127.232-305.515-127.232-115.819 0-215.872 42.155-300.181 126.485-83.819 83.819-125.717 183.872-125.717 300.203 0 116.821 41.899 217.899 125.717 303.232 82.283 82.261 182.336 123.413 300.181 123.413zM181.333 541.718c-12.693-35.051-19.051-73.408-19.051-115.051 0-94.485 34.539-176.256 103.616-245.333 69.589-68.565 151.872-102.848 246.848-102.848 96 0 178.795 34.795 248.384 104.384 24.896 23.872 44.437 48.768 58.667 74.667l-160.768 71.616c-5.589-26.923-19.179-48.896-40.747-65.899-21.589-17.024-47.125-26.795-76.587-29.333v-65.536h-49.515v65.536c-47.232 0.491-90.411 17.515-129.515 51.051l58.667 59.435c27.925-25.899 59.669-38.869 95.232-38.869 14.72 0 27.307 3.307 37.717 9.899s15.616 17.536 15.616 32.768c0 10.667-3.797 19.307-11.435 25.899l-41.131 17.536-50.283 22.848-67.819 29.717-217.899 97.515zM512.768 777.152c-97.024 0-179.051-34.283-246.101-102.848-16.768-16.768-32.512-35.819-47.232-57.152l163.029-73.152c7.104 22.336 20.565 40.256 40.384 53.717 19.797 13.44 42.923 20.949 69.333 22.464v65.536h49.515v-65.536c39.104-2.027 74.667-15.232 106.667-39.616l-55.616-57.131c-23.872 16.768-48.256 25.152-73.131 25.152-13.227 0-25.024-2.539-35.435-7.616s-15.616-13.717-15.616-25.899c0-3.563 1.259-7.125 3.797-10.667l91.435-41.152 68.565-30.464 218.667-97.536c7.104 29.973 10.667 60.437 10.667 91.435 0 98.027-34.048 180.565-102.101 247.616-67.541 68.544-149.824 102.848-246.827 102.848z" />
</svg>