<svg width="24" height="24" viewBox="0 0 1000 1000">
  <path d="M511.232 853.334c119.36 0 220.437-41.387 303.232-124.203 82.795-82.283 124.203-183.104 124.203-302.464s-40.64-219.435-121.92-300.181c-85.845-84.331-187.691-126.464-305.515-126.464-115.307 0-215.381 41.899-300.181 125.717-83.819 83.797-125.717 184.128-125.717 300.949 0 116.309 41.899 217.131 125.717 302.464 82.773 82.773 182.848 124.181 300.181 124.181zM512.768 776.363c-97.024 0-179.051-34.283-246.101-102.848-69.611-70.613-104.384-152.896-104.384-246.848 0-94.997 34.539-176.768 103.616-245.333 69.077-69.077 151.36-103.616 246.869-103.616 94.976 0 177.771 34.795 248.384 104.384 67.051 65.003 100.565 146.539 100.565 244.565 0 97.536-34.048 179.819-102.101 246.848-67.563 68.565-149.845 102.848-246.848 102.848zM673.515 527.232v-73.152h-310.101v73.152h310.101zM673.515 390.102v-73.152h-310.101v73.152h310.101z" />
</svg>