<svg width="24" height="24" viewBox="0 0 1000 1000">
  <path d="M143.104 448.448h-6.656c-5.632 0-8.448 2.667-8.448 8 0 8.299 2.816 20.885 8.448 37.781 1.472 4.437 3.712 7.339 6.677 8.661s7.104 2.005 12.437 2.005c22.805 0 34.219-7.253 34.219-21.781 0-12.139-4.523-20.971-13.547-26.453-9.045-5.483-20.096-8.213-33.131-8.213zM295.104 376.896c-13.931 0-20.885 4.288-20.885 12.885 0 18.368 18.219 27.563 54.677 27.563l1.344-1.344c-1.493-26.069-13.205-39.104-35.136-39.104zM639.104 447.552h-6.656c-5.632 0-8.448 2.816-8.448 8.448 0 8.299 2.816 20.885 8.448 37.781 1.472 4.437 3.627 7.253 6.443 8.448 2.816 1.173 7.040 1.771 12.672 1.771 22.805 0 34.219-7.253 34.219-21.781 0-12.16-4.523-20.971-13.547-26.453-9.045-5.461-20.096-8.213-33.131-8.213zM791.104 376.448c-13.931 0-20.885 4.437-20.885 13.333 0 18.368 18.219 27.563 54.677 27.563l1.344-1.344c-1.493-26.368-13.205-39.552-35.136-39.552zM165.781 539.563h-56.896c-2.368 0-4.523-0.597-6.443-1.771s-3.179-2.304-3.776-3.328-1.621-2.88-3.115-5.547c-0.896-2.069-7.552-30.229-20.011-84.437-12.437-54.229-18.667-82.667-18.667-85.333 0-2.069 0.811-3.925 2.453-5.547s3.627-2.453 5.995-2.453h27.563c7.403 0 12.224 5.12 14.443 15.339l6.677 30.677 14.443 15.339c13.931 0 26.88 1.109 38.891 3.328s23.936 5.845 35.776 10.88 21.269 12.821 28.224 23.339 10.453 23.040 10.453 37.547c0 10.667-2.155 19.712-6.443 27.115s-10.368 12.821-18.219 16.213c-7.851 3.413-15.787 5.696-23.787 6.891-8.021 1.152-17.195 1.749-27.563 1.749zM319.552 496.896c-11.264 0-22.229-0.896-32.896-2.667-0.597 0-1.856-0.149-3.776-0.448s-3.264-0.512-4.011-0.661l-3.328-0.661-3.328-0.896-2.88-1.344-2.88-1.771-2.219-2.219-2.005-3.115-1.771-4.011c-2.667-8.597-4.011-14.379-4.011-17.344s1.344-4.437 4.011-4.437c1.472 0 4.672 0.747 9.557 2.219s7.787 2.368 8.661 2.667c8.896 2.368 17.472 3.563 25.771 3.563 21.931 0 32.896-5.333 32.896-16 0-3.264-1.472-5.333-4.437-6.229-2.368-0.597-5.035-1.045-8-1.344s-6.144-0.512-9.557-0.661c-3.413-0.149-5.995-0.363-7.787-0.661-11.264-1.195-20.821-2.667-28.672-4.437s-16.213-4.672-25.109-8.661c-8.896-4.011-15.637-9.771-20.224-17.344-4.587-7.552-6.891-16.811-6.891-27.776 0-11.264 3.861-20.075 11.563-26.453s17.195-9.557 28.437-9.557c7.104 0 13.845 0.96 20.224 2.88s11.264 3.84 14.677 5.781c3.413 1.92 9.109 5.397 17.109 10.453-0.896-2.069-1.344-4.288-1.344-6.677s0.811-4.373 2.453-5.995c1.621-1.621 3.477-2.453 5.547-2.453h24.896c0.299 0.299 1.344 0.811 3.115 1.557s2.88 1.259 3.328 1.557 1.195 0.811 2.219 1.557 1.771 1.557 2.219 2.453c0.448 0.896 0.811 2.069 1.109 3.563l20.011 86.229c1.195 3.84 1.771 8.299 1.771 13.333 0 24-21.483 36.011-64.448 36.011zM554.219 494.656h-32.896c-6.528 0-12.288-3.413-17.344-10.219-1.472-2.069-5.845-9.621-13.12-22.677s-14.144-25.109-20.672-36.224c-6.528-11.115-10.368-16.811-11.563-17.109l-2.219 1.771c0 22.805-4.011 47.403-12.011 73.771-0.299 1.472-0.811 2.731-1.557 3.776s-1.621 2.005-2.667 2.88-2.005 1.621-2.88 2.219c-0.896 0.597-2.155 1.045-3.776 1.344s-2.88 0.512-3.776 0.661c-0.896 0.149-2.304 0.299-4.224 0.448s-3.264 0.213-4.011 0.213h-8.213c-11.264 0-16.896-3.115-16.896-9.344l0.448-2.219c1.472-15.701 5.184-38.080 11.115-67.115s9.621-50.219 11.115-63.552c0.597-4.736 0.896-8.299 0.896-10.667 0-5.632-4.523-14.741-13.547-27.328s-13.547-21.269-13.547-26.005c0-3.861 5.931-5.781 17.771-5.781 18.069 0 29.333 3.712 33.771 11.115l108.885 184.448c2.965 5.931 4.437 9.771 4.437 11.563 0.043 2.709-1.152 4.032-3.52 4.032zM661.781 538.667h-57.344c-5.333 0-9.621-3.413-12.885-10.219-1.771-3.84-8.661-32.213-20.672-85.12s-18.005-81.109-18.005-84.672c0-5.931 6.379-8.896 19.115-8.896h11.328l4.224 0.448 3.776 0.896 3.776 1.344 2.88 2.005 2.453 2.667 1.344 3.776 9.344 40.448c0.597 2.965 2.155 5.483 4.672 7.552s5.397 3.115 8.661 3.115c13.931 0 26.88 1.045 38.891 3.115s23.936 5.696 35.776 10.88c11.861 5.184 21.269 12.971 28.224 23.339s10.453 22.805 10.453 37.333c0 10.667-2.155 19.712-6.443 27.115s-10.368 12.821-18.219 16.213c-7.851 3.413-15.787 5.696-23.787 6.891-8.021 1.173-17.195 1.771-27.563 1.771zM815.552 496.896c-7.701 0-18.667-0.896-32.896-2.667-11.264-1.771-18.368-4.16-21.333-7.104-2.069-2.368-3.712-5.184-4.885-8.448-2.368-7.104-3.563-12.885-3.563-17.344 0-2.965 1.195-4.437 3.563-4.437 0.299 0 6.379 1.771 18.219 5.333 8.896 2.368 17.472 3.563 25.771 3.563 21.931 0 32.896-5.333 32.896-16 0-3.563-1.472-5.632-4.437-6.229-1.195-0.299-9.621-1.344-25.344-3.115-11.264-1.173-20.821-2.667-28.672-4.437s-16.213-4.672-25.109-8.661-15.637-9.771-20.224-17.344-6.891-16.811-6.891-27.776 3.861-19.627 11.563-26.005 17.195-9.557 28.437-9.557c7.104 0 13.781 0.896 20.011 2.667s11.264 3.712 15.104 5.781c3.861 2.069 9.472 5.632 16.896 10.667-0.896-4.437-1.344-6.805-1.344-7.104 0-1.472 0.299-2.731 0.896-3.776s1.557-1.856 2.88-2.453c1.344-0.597 2.517-1.109 3.563-1.557s2.603-0.747 4.672-0.896 3.477-0.213 4.224-0.213h7.787c12.437 0 19.563 3.712 21.333 11.115l20.011 86.229c0.896 4.437 1.344 9.045 1.344 13.781-0.021 23.979-21.504 35.989-64.469 35.989zM958.656 537.323h-24.448c-7.403 0-12.288-5.931-14.677-17.771-2.965-13.035-8.363-37.781-16.213-74.219s-14.144-64.597-18.88-84.437v-2.219c0-4.736 2.368-7.403 7.104-8h25.771c2.965 0 5.696 0.96 8.213 2.88s4.075 4.373 4.672 7.339l36.885 166.229h-0.448l0.448 2.219c0 2.069-0.811 3.925-2.453 5.547-1.6 1.621-3.584 2.432-5.973 2.432zM1024 711.104v-568.896c0-15.403-5.632-28.736-16.896-40s-24.597-16.896-40-16.896h-910.208c-15.403 0-28.736 5.632-40 16.896s-16.896 24.597-16.896 40v568.896c0 15.403 5.632 28.736 16.896 40s24.597 16.896 40 16.896h910.229c15.403 0 28.736-5.632 40-16.896 11.243-11.243 16.875-24.576 16.875-40z" />
</svg>