<svg width="24" height="24" viewBox="0 0 1000 1000">
  <path d="M511.232 853.334c119.872 0 221.077-41.28 303.616-123.819s123.819-183.488 123.819-302.869-40.64-219.179-121.92-299.413c-85.845-84.843-187.691-127.232-305.515-127.232-115.819 0-215.744 41.899-299.819 125.717-84.075 83.797-126.101 184.107-126.101 300.949 0 116.821 41.92 217.899 125.717 303.232 82.304 82.283 182.357 123.435 300.203 123.435zM512.384 776.384c-96.768 0-178.667-34.048-245.717-102.101-69.611-70.613-104.384-153.131-104.384-247.616 0-94.464 34.539-176.256 103.616-245.333s151.36-103.616 246.869-103.616c95.488 0 178.283 34.795 248.384 104.384 67.051 65.024 100.565 146.539 100.565 244.565 0 97.536-34.048 180.053-102.101 247.616-68.075 68.053-150.464 102.101-247.232 102.101zM518.869 684.95c5.056 0.512 9.515-0.896 13.333-4.203s5.973-7.509 6.485-12.565v-3.051l11.435-184.384 8.384 102.101c0 5.077 1.771 9.387 5.333 12.949 3.541 3.541 7.872 5.333 12.949 5.333s9.387-1.792 12.949-5.333c3.541-3.563 5.333-7.872 5.333-12.949v-3.051l9.899-137.131 9.899 110.464c0.491 4.565 2.411 8.384 5.717 11.435s7.232 4.565 11.819 4.565c4.565 0 8.64-1.408 12.181-4.203s5.589-6.464 6.101-11.051l19.819-166.080 9.152 22.101c3.029 7.616 8.875 11.435 17.515 11.435h99.797v-36.565h-87.616l-31.232-76.203c-3.563-9.131-10.176-12.949-19.819-11.435-4.565 0.491-8.256 2.283-11.051 5.333s-4.459 6.848-4.949 11.413l-6.848 54.869-12.949-159.232c-0.512-4.565-2.411-8.384-5.717-11.413-3.307-3.051-7.232-4.565-11.819-4.565-4.565 0-8.64 1.515-12.181 4.565-3.563 3.051-5.589 6.848-6.080 11.413v2.283l-10.667 131.819-9.152-124.203c-1.024-4.565-3.179-8.384-6.464-11.435-3.307-3.051-7.253-4.565-11.819-4.565s-8.64 1.536-12.181 4.565c-3.563 3.051-5.589 6.848-6.101 11.435v2.283l-9.899 148.587-9.899-163.051v-2.283c0-5.099-1.792-9.536-5.333-13.333-3.563-3.797-7.872-5.717-12.949-5.717s-9.408 1.899-12.949 5.717c-3.563 3.819-5.333 8.256-5.333 13.333v1.536l-9.899 150.848-9.152-145.515v-2.283c-1.024-4.565-3.179-8.384-6.464-11.413-3.307-3.051-7.232-4.565-11.797-4.565s-8.64 1.515-12.203 4.565c-3.563 3.051-5.589 6.848-6.101 11.413v2.283h-0.768v2.283l-10.667 152.384-8.384-97.536c-0.512-4.565-2.539-8.384-6.080-11.435-3.563-3.051-7.616-4.565-12.203-4.565-4.565 0-8.512 1.387-11.819 4.203-3.307 2.773-5.461 6.464-6.464 11.051l-19.051 131.051-2.283-4.565c-3.051-6.613-8.64-9.899-16.768-9.899h-88.384v36.565h76.949l23.616 48c3.541 8.128 9.771 11.541 18.667 10.283 8.875-1.28 14.101-6.229 15.616-14.869l5.333-35.051 14.464 168.384c0 5.077 1.771 9.387 5.333 12.949 3.541 3.563 7.872 5.333 12.949 5.333s9.387-1.792 12.949-5.333c3.541-3.563 5.333-7.872 5.333-12.949v-3.051l8.384-118.848 11.435 159.232v2.283c0.491 4.565 2.411 8.384 5.717 11.435s7.253 4.565 11.819 4.565 8.64-1.515 12.203-4.565c3.541-3.051 5.589-6.848 6.080-11.435v-2.283l9.152-138.667 10.667 168.384v3.051c0 4.565 1.643 8.384 4.949 11.435 3.243 3.029 7.189 4.8 11.776 5.312z" />
</svg>