<svg width="24" height="24" viewBox="0 0 1000 1000">
  <path d="M511.915 853.334c-235.648 0-426.667-191.019-426.667-426.667s191.019-426.667 426.667-426.667 426.667 191.019 426.667 426.667-191.019 426.667-426.667 426.667zM853.248 426.667c0-78.741-27.072-151.125-72.021-208.96l-226.56 226.624v320.683c168.064-21.12 298.581-164.629 298.581-338.347zM170.581 426.667c0 173.76 130.603 317.312 298.752 338.389v-356.053l251.563-251.627c-57.813-44.971-130.219-72.043-208.981-72.043-188.203 0-341.333 153.109-341.333 341.333z" />
</svg>