<svg width="24" height="24" viewBox="0 0 1000 1000">
  <path d="M896 469.334v85.333h-85.333v85.333c0 0.277-0.085 0.555-0.085 0.832v41.835c0 23.467-19.2 42.667-42.667 42.667h-127.915v85.333h-85.333v-85.333h-85.333v85.333h-85.333v-85.333h-128.085c-23.467 0-42.667-19.2-42.667-42.667v-128h-85.248v-85.333h85.248v-85.333h-85.248v-85.333h85.248v-128c0-23.467 19.2-42.667 42.667-42.667h128.085v-85.333h85.333v85.333h85.333v-85.333h85.333v85.333h127.915c23.467 0 42.667 19.2 42.667 42.667v41.835c0 0.277 0.085 0.555 0.085 0.832v85.333h85.333v85.333h-85.333v85.333h85.333zM298.667 213.334v426.667h426.667v-426.667h-426.667zM384 298.667h256v256h-256v-256zM469.333 469.334h85.333v-85.333h-85.333v85.333z" />
</svg>