<svg width="24" height="24" viewBox="0 0 1000 1000">
  <path d="M631.168 606.166l-119.168-119.168-119.168 119.168-60.331-60.331 119.168-119.168-119.168-119.168 60.331-60.331 119.168 119.168 119.168-119.168 60.331 60.331-119.168 119.168 119.168 119.168zM512 853.334c-235.264 0-426.667-191.403-426.667-426.667s191.403-426.667 426.667-426.667 426.667 191.403 426.667 426.667-191.403 426.667-426.667 426.667zM512 85.334c-188.203 0-341.333 153.131-341.333 341.333s153.131 341.333 341.333 341.333 341.333-153.131 341.333-341.333-153.131-341.333-341.333-341.333z" />
</svg>