<svg width="24" height="24" viewBox="0 0 1000 1000">
  <path d="M865.195 365.568l-92.437 61.141 92.437 61.163zM548.501 105.302v171.136l159.296 106.197 128-85.803zM512 339.968l-129.899 86.763 129.899 86.763 129.899-86.763zM475.499 105.302l-287.296 191.531 128 85.803 159.296-106.197zM158.805 487.872l92.437-61.163-92.437-61.141zM475.499 748.139v-171.136l-159.296-106.197-128 85.803zM548.501 748.139l287.296-191.531-128-85.803-159.296 106.197zM938.667 561.366c0 0.469 0 1.429 0 1.899 0 0.939 0 1.899-1.429 2.837 0 0.469 0 1.429-0.469 2.837 0 0-0.469 0-0.939 1.899 0 0.469-0.469 0.939-0.939 1.429 0 0.939-0.469 1.899-0.939 2.368-0.469 0.939-0.939 1.429-0.939 1.899-0.469 0.939-1.429 1.429-1.899 2.368-0.469 0.469-0.469 0.939-0.939 1.429 0 1.045-0.853 1.899-1.899 1.899-0.469 0.469-0.939 0.939-1.429 1.429-0.939 0.939-1.429 1.429-2.368 1.899-0.469 0.469-0.939 0.939-1.429 1.429-0.469 0-0.469 0-0.469 0.469l-390.165 259.797c-12.331 8.064-28.437 8.064-40.768 0l-390.165-259.797c0-0.469 0-0.469-0.469-0.469-0.469-0.469-0.939-0.939-1.429-1.429-0.939-0.469-1.429-0.939-2.368-1.899-0.469-0.469-0.939-0.939-1.429-1.429s-0.939-0.939-1.899-1.899c-0.469-0.469-0.469-0.939-0.939-1.429-0.469-0.96-1.429-1.429-1.899-2.368 0-0.469-0.469-0.939-0.939-1.899-0.469-0.469-0.939-1.429-0.939-2.368-0.469-0.469-0.939-0.939-0.939-1.429-0.469-1.899-0.469-1.899-0.939-1.899-0.469-1.429-0.469-2.368-0.469-2.837-1.429-0.939-1.429-1.899-1.429-2.837 0-0.469 0-1.429 0-1.899 0-1.429 0-2.837 0-4.736v-259.797c0-1.899 0-3.328 0-4.736 0-0.469 0-1.429 0-1.899 0-0.939 0-1.899 1.429-2.837 0-0.469 0-1.429 0.469-2.837 0.469 0 0.469 0 0.939-1.899 0-0.469 0.469-0.939 0.939-1.429 0-0.939 0.469-1.899 0.939-2.368 0.469-0.939 0.939-1.429 0.939-1.899 0.469-0.939 1.429-1.429 1.899-2.368 0.469-0.469 0.469-0.939 0.939-1.429 0.939-0.469 1.429-1.429 1.899-1.899s0.939-0.939 1.429-1.429c0.939-0.939 1.429-1.429 2.368-1.899 0.469-0.469 0.939-0.939 1.429-1.429 0.469 0 0.469 0 0.469-0.469l390.165-259.797c6.165-4.267 13.269-6.165 20.395-6.165s14.229 1.899 20.395 6.165l390.165 259.797c0 0.469 0 0.469 0.469 0.469 0.469 0.469 0.939 0.939 1.429 1.429 0.939 0.469 1.429 0.939 2.368 1.899 0.469 0.469 0.939 0.939 1.429 1.429 0.469 0.469 0.939 1.429 1.899 1.899 0.469 0.469 0.469 0.939 0.939 1.429 0.469 0.939 1.429 1.429 1.899 2.368 0 0.469 0.469 0.939 0.939 1.899 0.469 0.469 0.939 1.429 0.939 2.368 0.469 0.469 0.939 0.939 0.939 1.429 0.469 1.899 0.939 1.899 0.939 1.899 0.469 1.429 0.469 2.368 0.469 2.837 1.429 0.939 1.429 1.899 1.429 2.837 0 0.469 0 1.429 0 1.899 0 1.429 0 2.837 0 4.736v259.797c-0.021 1.899-0.021 3.307-0.021 4.736z" />
</svg>