<svg width="24" height="24" viewBox="0 0 1000 1000">
  <path d="M593.92 475.307c-2.133 14.080-6.827 26.453-12.8 37.12s-14.507 19.627-25.173 26.453c-10.24 6.4-23.040 9.387-38.827 9.813-9.813-0.427-18.773-2.133-26.88-5.547-8.533-3.84-16.213-8.96-22.187-15.36s-10.667-14.080-14.507-22.613c-3.84-8.533-5.547-17.92-5.973-27.307h-76.373c0.853 20.053 4.693 38.4 11.947 55.040s17.067 31.147 29.867 43.093c12.8 11.947 28.16 21.333 46.080 28.16s37.547 9.813 59.307 9.813c27.733 0 52.053-4.693 72.533-14.507s37.547-22.613 51.2-39.253 23.893-35.84 30.293-58.027 10.24-45.227 10.24-69.973v-11.52c0-24.747-3.413-47.787-9.813-69.973s-16.64-41.387-30.293-57.6-30.72-29.44-51.2-38.827-44.8-14.507-72.533-14.507c-20.053 0-38.827 3.413-56.32 9.813s-32.853 15.36-46.080 26.88c-13.227 11.52-23.893 24.747-31.573 40.107s-12.373 31.573-12.8 49.067h76.373c0.427-8.96 2.56-17.067 6.4-24.747s8.96-14.080 15.36-19.627 13.653-9.813 22.187-12.8c8.107-2.987 16.64-3.84 25.6-4.267 15.36 0.427 28.16 3.413 37.973 9.813 10.667 6.827 19.2 15.787 25.173 26.453s10.667 23.467 12.8 37.547 3.413 28.587 3.413 42.667v11.52c0 14.933-1.28 29.013-3.413 43.093zM512 853.334c235.52 0 426.667-191.147 426.667-426.667s-191.147-426.667-426.667-426.667-426.667 191.147-426.667 426.667 191.147 426.667 426.667 426.667zM512 85.334c188.16 0 341.333 153.173 341.333 341.333s-153.173 341.333-341.333 341.333-341.333-153.173-341.333-341.333c0-188.16 153.173-341.333 341.333-341.333z" />
</svg>