<svg width="24" height="24" viewBox="0 0 1000 1000">
  <path d="M490.667 257.28l17.493-104.107c-11.093-5.973-29.013-11.52-52.907-16.64-24.32-5.547-52.907-8.533-85.76-8.533-94.293 1.707-165.12 29.867-212.48 83.627-47.787 54.187-71.68 122.88-71.68 206.080 2.133 98.56 30.72 174.080 85.333 226.987 56.32 53.333 126.293 80.64 210.773 80.64 32 0 59.733-2.987 82.773-8.107s40.107-10.667 51.2-17.067l-24.747-106.24-45.227 14.507c-17.067 4.267-36.693 6.4-59.307 6.4-49.493 0.427-90.453-15.36-122.453-46.933-32.427-31.147-49.067-78.933-50.347-142.507 0-58.027 15.787-103.253 46.080-136.533 30.293-32.853 72.96-49.92 127.573-50.347l56.747 5.12c18.347 3.413 33.707 8.107 46.933 13.653zM592.64 128l26.027 170.667h-64l14.507 85.333h64l13.653 85.333h-64l14.507 85.333h64l26.027 170.667h85.333l-26.027-170.667h42.667l26.027 170.667h85.333l-26.027-170.667h64l-14.507-85.333h-64l-13.653-85.333h64l-14.507-85.333h-64l-26.027-170.667h-85.333l26.027 170.667h-42.667l-26.027-170.667h-85.333zM718.507 384h42.667l13.653 85.333h-42.667l-13.653-85.333z" />
</svg>