<svg width="24" height="24" viewBox="0 0 1000 1000">
  <path d="M512 853.334c-235.648 0-426.667-191.019-426.667-426.667 0-109.632 41.707-209.301 109.675-284.864l151.637 151.637 61.333-61.333-148.672-148.672c60.011-44.267 131.776-73.515 210.027-81.28v424.512h85.333v-424.512c215.595 21.419 384 203.264 384 424.512 0 235.648-191.019 426.667-426.667 426.667zM298.667 384c-23.467 0-42.667 19.2-42.667 42.667s19.2 42.667 42.667 42.667c23.467 0 42.667-19.2 42.667-42.667s-19.2-42.667-42.667-42.667zM512 597.334c-23.467 0-42.667 19.2-42.667 42.667s19.2 42.667 42.667 42.667 42.667-19.2 42.667-42.667c0-23.467-19.2-42.667-42.667-42.667zM725.333 384c-23.467 0-42.667 19.2-42.667 42.667s19.2 42.667 42.667 42.667 42.667-19.2 42.667-42.667c0-23.467-19.2-42.667-42.667-42.667z" />
</svg>