<svg width="24" height="24" viewBox="0 0 1000 1000">
  <path d="M511.915 853.334c-235.264 0-426.667-191.403-426.667-426.667 0-105.173 38.613-206.208 108.715-284.544 10.475-11.669 21.739-22.933 33.493-33.451l30.080-26.965 150.336 150.336-60.331 60.331-91.563-91.563c-55.083 62.4-85.376 142.507-85.376 225.856 0 188.203 153.131 341.333 341.333 341.333s341.333-153.131 341.333-341.333c0-173.781-130.517-317.611-298.667-338.688v338.688h-85.333v-426.667h42.667c235.264 0 426.667 191.403 426.667 426.667s-191.424 426.667-426.688 426.667zM554.581 640c0 23.467-19.2 42.667-42.667 42.667s-42.667-19.2-42.667-42.667c0-23.467 19.2-42.667 42.667-42.667s42.667 19.2 42.667 42.667zM255.915 426.667c0-23.467 19.2-42.667 42.667-42.667s42.667 19.2 42.667 42.667-19.2 42.667-42.667 42.667c-23.467 0-42.667-19.2-42.667-42.667zM767.915 426.667c0 23.467-19.2 42.667-42.667 42.667s-42.667-19.2-42.667-42.667c0-23.467 19.2-42.667 42.667-42.667s42.667 19.2 42.667 42.667z" />
</svg>