<svg width="24" height="24" viewBox="0 0 1000 1000">
  <path d="M163.989 741.995h101.995v-491.499h-265.984v348.501h163.989v142.997zM163.989 332.502v184.491h-61.504v-184.491h61.504zM307.008 598.998v-348.501h102.507v348.501h-102.507zM307.008 741.995v-101.995h102.507v101.995h-102.507zM450.496 598.998h266.496v-470.997h-266.496v81.493h164.011v41.003h-164.011v348.501zM614.507 332.502v184.491h-61.504v-184.491h61.504zM757.995 598.998h266.005v-470.997h-266.005v81.493h163.499v41.003h-163.499v348.501zM921.493 332.502v184.491h-61.504v-184.491h61.504z" />
</svg>