<svg width="24" height="24" viewBox="0 0 1000 1000">
  <path d="M741.248 376.918c-17.835 27.136-45.483 49.579-82.923 67.285-20.587 9.6-55.296 20.544-103.659 32.725v210.176c27.925-4.693 50.88-13.781 67.904-28.096 25.301-21.333 40.149-52.843 44.523-94.592l81.621 6.315c-1.472 38.72-12.011 73.387-31.595 104.043-19.584 30.613-47.595 53.781-84.011 69.568-23.68 10.261-49.984 16.811-78.421 20.395v88.576h-85.333v-87.573c-28.715-3.157-55.573-9.771-80.405-20.288-35.392-15.019-62.293-36.992-80.725-65.963s-27.648-60.117-27.648-93.461c0-30.315 7.531-57.707 22.613-82.176 15.061-24.469 37.931-44.949 68.651-61.483 19.925-10.859 52.544-22.315 97.515-34.347v-238.272c-14.635 3.243-28.629 7.595-41.771 13.461-29.269 13.035-50.837 30.165-64.725 51.328-13.888 21.141-22.741 48.256-26.56 81.28l-80.277-7.189c1.173-44.139 12.949-83.691 35.328-118.677 22.357-34.987 53.227-61.184 92.565-78.592 24.619-10.901 53.397-17.984 85.44-22.059v-89.387h85.333v86.507c36.181 2.581 69.461 10.581 99.477 24.704 36.715 17.28 64.875 41.429 84.459 72.512 19.584 31.061 29.397 64.149 29.397 99.264-0.021 35.52-8.96 66.816-26.773 94.016zM387.627 533.376c-16.683 15.317-25.003 34.816-25.003 58.539 0 27.328 11.776 50.645 35.307 70.016 16.704 13.76 40.619 22.507 71.403 26.496v-190.229c-42.155 11.947-69.397 23.68-81.707 35.179zM667.755 219.286c-12.139-17.28-30.656-30.827-55.509-40.747-17.301-6.891-36.587-11.243-57.579-13.333v220.949c26.539-7.168 45.184-12.885 55.829-17.131 26.923-10.517 46.229-23.509 57.92-38.933 11.691-15.488 17.536-33.557 17.536-54.272 0-20.437-6.059-39.275-18.197-56.533z" />
</svg>