<svg width="24" height="24" viewBox="0 0 1000 1000">
  <path d="M654.229 91.115c-15.552 89.259-41.472 181.483-77.781 276.672h-1.109l-1.109-0.555c-5.931-2.219-13.888-5.291-23.893-9.173s-28.693-12.971-56.107-27.221c-27.413-14.251-52.779-29.44-76.117-45.547s-47.595-37.312-72.768-63.616c-25.195-26.283-44.267-53.717-57.216-82.219l-8.341 6.101c68.139-55.552 145.557-83.328 232.213-83.328 48.896 0 96.299 9.621 142.229 28.885zM551.445 428.331c-7.787 18.155-17.6 38.699-29.44 61.675-115.179-34.453-239.808-51.669-373.888-51.669-0.363-2.603-0.555-6.485-0.555-11.669 0-45.931 8.149-89.728 24.448-131.392s39.253-78.976 68.885-111.936c18.517 32.96 41.387 63.787 68.608 92.501 27.221 28.693 53.611 51.755 79.168 69.163s49.728 32.405 72.491 44.992 41.195 21.483 55.275 26.667l20.565 7.232c1.472 0.363 3.883 1.024 7.232 1.941s5.739 1.749 7.211 2.496zM491.989 546.112c-44.437 78.891-89.621 148.885-135.552 210.005-51.115-24.064-94.443-58.517-130.005-103.339s-59.264-95.189-71.104-151.104c111.851 0 224.085 14.805 336.661 44.437zM872 368.896c-77.781 22.229-153.515 27.584-227.221 16.107 32.213-88.512 55.936-175.381 71.104-260.544 41.109 27.776 75.371 62.869 102.784 105.28 27.413 42.389 45.184 88.789 53.333 139.157zM424.768 780.566c-0.363 0-0.747-0.192-1.109-0.555 0.384 0.363 0.747 0.555 1.109 0.555zM752.555 699.99c-68.523 60.736-148.693 91.115-240.555 91.115-28.139 0-56.853-3.52-86.101-10.56 48.512-62.955 94.080-133.696 136.661-212.224 25.557 9.621 49.621 20.843 72.213 33.6 22.592 12.779 40.469 24.171 53.611 34.176s25.28 20.565 36.395 31.659c11.115 11.115 18.048 18.624 20.843 22.507l6.933 9.728zM876.437 430.55c-1.109 85.931-28.693 161.856-82.773 227.776l-0.555-0.555c-3.328-4.437-6.848-8.981-10.56-13.611s-11.755-12.864-24.171-24.725c-12.416-11.84-25.557-23.061-39.445-33.6-13.888-10.56-32.405-22.592-55.552-36.117s-47.509-25.472-73.045-35.84c9.259-19.627 17.408-37.227 24.448-52.779 0.747-2.219 1.941-5.461 3.605-9.728s3.051-7.317 4.16-9.173c13.333 1.856 27.136 3.136 41.387 3.883s27.861 1.109 40.832 1.109 25.749-0.277 38.336-0.832c12.587-0.555 24.448-1.301 35.563-2.219s21.568-1.941 31.381-3.051c9.813-1.109 18.709-2.304 26.667-3.605s14.72-2.411 20.288-3.328 10.176-1.771 13.888-2.496l5.547-1.109zM938.667 426.667c0-77.397-19.072-148.8-57.216-214.165s-89.899-117.12-155.285-155.285c-65.365-38.144-136.768-57.216-214.165-57.216s-148.8 19.072-214.165 57.216c-65.365 38.165-117.12 89.899-155.285 155.285-38.144 65.365-57.216 136.768-57.216 214.165s19.072 148.8 57.216 214.165c38.144 65.365 89.899 117.12 155.285 155.285 65.365 38.144 136.768 57.216 214.165 57.216s148.8-19.072 214.165-57.216c65.365-38.144 117.12-89.899 155.285-155.285 38.144-65.365 57.216-136.768 57.216-214.165z" />
</svg>