<svg width="24" height="24" viewBox="0 0 1000 1000">
  <path d="M705.963 91.35c-1.621 6.165-5.504 6.976-11.669 2.432-9.728-7.125-23.829-13.44-42.283-18.965-18.475-5.504-39.701-8.256-63.68-8.256-41.813 0-73.088 7.936-93.824 23.808-1.621 1.301-3.733 1.941-6.315 1.941-3.563 0-7.787-1.941-12.629-5.824-2.261-1.941-3.477-4.523-3.648-7.765s1.045-6.485 3.648-9.728c11.008-10.368 25.195-17.813 42.539-22.357s33.941-6.571 49.835-6.080c15.872 0.491 31.915 1.216 48.128 2.197 13.291 1.301 26.987 4.629 41.067 9.963s24.64 10.197 31.595 14.571 11.584 7.701 13.845 9.963c3.883 3.904 5.013 8.597 3.392 14.101zM686.997 147.243c-6.165 15.232-12.48 25.109-18.965 29.653-7.445 4.864-19.776 7.296-36.949 7.296-15.232 0-26.731-1.621-34.517-4.864-9.408-3.883-22.037-12.949-37.909-27.2-8.427-7.787-10.368-14.912-5.824-21.376 2.923-2.603 5.76-3.328 8.512-2.197s7.851 4.949 15.317 11.435c0.981 0.64 2.667 2.027 5.099 4.117 2.432 2.112 4.139 3.477 5.099 4.139 0.981 0.64 2.603 1.771 4.864 3.392s4.139 2.752 5.589 3.413 3.477 1.451 6.080 2.432 5.013 1.707 7.296 2.197c2.261 0.491 4.949 0.896 8.021 1.216s6.4 0.469 9.963 0.469c8.747 0 15.957-1.216 21.632-3.648s9.408-4.779 11.179-7.040 3.968-5.824 6.571-10.688c3.243-5.504 5.269-8.747 6.080-9.728s2.837-0.811 6.080 0.469c7.445 3.883 9.707 9.387 6.784 16.512zM859.563 283.798c0 7.125-0.811 14.336-2.432 21.632s-4.288 14.571-8.021 21.867c-3.733 7.296-9.237 13.205-16.533 17.728s-15.808 6.805-25.515 6.805c-10.688 0-26.411-6.72-47.147-20.16s-41.643-26.965-62.699-40.576c-21.056-13.611-37.44-20.416-49.088-20.416-8.747-0.32-19.029 2.752-30.869 9.237s-24.149 14.421-36.949 23.808-26.325 18.795-40.597 28.181-30.464 17.344-48.619 23.808c-18.155 6.485-36.139 9.557-53.952 9.237-37.269-0.32-69.184-13.035-95.765-38.144s-40.192-54.016-40.832-86.741c-0.64-36.288 11.349-62.848 35.968-79.701 9.387-6.485 19.52-11.093 30.379-13.845s27.627-4.117 50.304-4.117c18.475 0 39.851 5.269 64.171 15.787s46.016 22.037 65.131 34.496c19.115 12.48 38.571 23.893 58.325 34.261 19.776 10.368 34.837 15.403 45.205 15.061 8.427-0.32 18.965-5.419 31.595-15.296s24.235-20.736 34.752-32.555 21.547-22.763 33.045-32.811c11.499-10.048 20.501-15.211 26.987-15.552 11.349-0.96 20.821 1.301 28.437 6.805s16.619 15.701 26.987 30.613c9.067 13.291 15.957 29.632 20.651 49.067s7.083 36.608 7.083 51.52zM885.333 361.558c0-53.12-10.048-102.443-30.144-147.968-20.096-45.504-46.997-83.733-80.704-114.667-33.707-30.955-73.003-55.147-117.888-72.661-44.885-17.493-91.947-26.24-141.227-26.24s-96.725 9.323-142.421 27.947c-45.696 18.645-85.803 44.053-120.32 76.309-34.517 32.235-62.144 71.36-82.88 117.355s-31.104 94.912-31.104 146.752c0 28.843 3.157 56.768 9.472 83.819s14.251 50.624 23.829 70.699c9.557 20.096 20.992 39.275 34.261 57.579 13.291 18.304 26.005 33.536 38.165 45.675s24.875 23.403 38.165 33.771c13.291 10.368 23.744 17.899 31.36 22.592s14.507 8.661 20.651 11.904c4.544 2.603 12.8 6.891 24.789 12.885s20.821 10.624 26.496 13.845 13.44 8.107 23.339 14.571 19.691 13.611 29.419 21.376c11.669 9.067 21.056 20.821 28.203 35.221s11.989 34.752 14.592 60.992c41.813-50.219 71.936-81.472 90.411-93.781 14.251-9.387 35.328-20.416 63.189-33.045s48.768-23.339 62.699-32.064c6.805-4.224 13.12-8.256 18.965-12.16 5.824-3.883 15.637-11.413 29.419-22.592s26.091-22.592 36.949-34.261c10.859-11.669 23.019-27.051 36.459-46.165s24.64-38.869 33.536-59.285c8.917-20.416 16.533-44.459 22.848-72.171 6.315-27.691 9.472-56.427 9.472-86.229z" />
</svg>