<svg width="24" height="24" viewBox="0 0 1000 1000">
  <path d="M958.933 849.494c-38.4-38.827-101.12-69.973-178.773-92.16-73.387 60.16-167.253 96-269.227 96s-195.84-35.84-269.227-96c-77.653 22.187-140.373 53.333-178.773 92.16 1.28-69.547 36.267-133.12 94.72-183.893-46.507-68.267-73.387-150.187-73.387-238.933 0-235.627 191.019-426.667 426.667-426.667s426.667 191.040 426.667 426.667c0 88.747-26.88 170.667-73.387 238.933 58.453 50.773 93.44 114.347 94.72 183.893zM510.933 85.334c-188.501 0-341.333 152.832-341.333 341.333s152.832 341.333 341.333 341.333c188.523 0 341.333-152.832 341.333-341.333s-152.811-341.333-341.333-341.333zM426.667 533.334l-128 64v-64c0-34.133 29.867-64 64-64s64 29.867 64 64zM661.333 469.334c34.133 0 64 29.867 64 64v64l-128-64c0-34.133 29.867-64 64-64zM512 341.334c-106.944 0-161.259-79.595-163.499-83.008-13.056-19.605-7.765-46.101 11.84-59.157 19.605-13.077 46.080-7.744 59.157 11.84 0.299 0.448 31.701 44.992 92.501 44.992 60.309 0 91.456-43.52 92.501-44.992 8.235-12.331 21.76-19.008 35.541-19.008 8.128 0 16.363 2.304 23.616 7.168 19.605 13.056 24.896 39.552 11.84 59.157-2.24 3.413-56.555 83.008-163.499 83.008z" />
</svg>