<svg width="24" height="24" viewBox="0 0 1000 1000">
  <path d="M426.667 362.667c0-35.346-28.654-64-64-64s-64 28.654-64 64c0 35.346 28.654 64 64 64s64-28.654 64-64zM725.333 362.667c0-35.346-28.654-64-64-64s-64 28.654-64 64c0 35.346 28.654 64 64 64s64-28.654 64-64zM923.925 536.256c-48.448 182.443-214.251 317.077-411.925 317.077-17.109 0-33.877-1.301-50.453-3.243-55.424-6.549-107.648-23.509-154.475-49.195-127.595-70.037-215.040-203.477-220.907-357.867-0.213-5.461-0.832-10.837-0.832-16.363 0-234.667 190.72-426.667 426.667-426.667 235.648 0 426.667 191.040 426.667 426.667 0 37.952-5.44 74.56-14.741 109.589zM512 85.334c-188.523 0-341.333 152.832-341.333 341.333 0 16.448 1.557 32.491 3.797 48.299 91.648 43.008 168.533 112.277 220.757 198.251 93.376-99.179 225.792-161.216 372.779-161.216 24.725 0 49.003 1.856 72.789 5.248 7.936-28.885 12.544-59.157 12.544-90.581 0-188.501-152.811-341.333-341.333-341.333z" />
</svg>