<svg width="24" height="24" viewBox="0 0 1000 1000">
  <path d="M512-0c-235.264 0-426.667 191.403-426.667 426.667s191.403 426.667 426.667 426.667 426.667-191.403 426.667-426.667-191.403-426.667-426.667-426.667zM512 768c-188.203 0-341.333-153.131-341.333-341.333s153.131-341.333 341.333-341.333 341.333 153.131 341.333 341.333-153.131 341.333-341.333 341.333zM516.693 341.334c-99.413 0-183.893-62.293-218.027-149.333h436.053c-34.56 87.040-118.613 149.333-218.027 149.333zM362.667 469.334c-35.349 0-64 28.651-64 64s28.651 64 64 64 64-28.651 64-64-28.651-64-64-64zM661.333 469.334c-35.349 0-64 28.651-64 64s28.651 64 64 64 64-28.651 64-64-28.651-64-64-64z" />
</svg>