<svg width="24" height="24" viewBox="0 0 1000 1000">
  <path d="M512 512c-47.061 0-85.333-38.272-85.333-85.333s38.272-85.333 85.333-85.333 85.333 38.272 85.333 85.333-38.272 85.333-85.333 85.333zM931.755 443.158c-5.547 13.269-139.179 324.843-419.584 324.843-280.363 0-414.336-311.531-419.883-324.8l-6.955-16.533 6.955-16.533c5.568-13.269 139.52-324.8 419.883-324.8 280.405 0 414.037 311.552 419.584 324.843l6.912 16.491-6.912 16.491zM512 256c-94.101 0-170.667 76.565-170.667 170.667s76.565 170.667 170.667 170.667 170.667-76.565 170.667-170.667-76.544-170.667-170.667-170.667z" />
</svg>