<svg width="24" height="24" viewBox="0 0 1000 1000">
  <path d="M760.149 747.947c-3.413 0-6.827 0.853-9.813 2.56-81.941 42.24-152.768 60.16-237.696 60.16-84.501 0-164.736-20.053-237.696-60.16-10.24-5.547-23.040-1.707-29.013 8.533-5.547 10.24-1.707 23.467 8.533 29.013 79.381 43.093 166.443 65.28 258.176 65.28 90.901 0 170.283-20.053 257.323-64.853 10.667-5.547 14.507-18.347 8.96-28.587-3.84-7.68-11.093-11.947-18.773-11.947zM149.461 523.947c-4.267 0-8.533 1.28-12.373 3.84-9.813 6.827-11.947 20.053-5.12 29.867 42.24 59.733 96.021 106.667 160.043 139.52 133.995 69.12 305.557 69.547 439.979 0.427 64.021-32.853 117.781-79.36 160.043-138.667 6.827-9.387 4.693-23.040-5.12-29.867s-23.040-4.693-29.867 5.12c-38.4 53.76-87.061 96-144.661 125.44-122.475 62.72-279.104 62.72-401.152-0.427-58.048-29.867-106.688-72.533-145.088-126.293-3.435-5.973-9.835-8.96-16.683-8.96zM416.192 8.96c-5.547 0-11.093 2.133-14.933 6.4-37.12 37.12-57.195 61.013-85.781 112.64-29.44 52.48-44.8 116.48-44.8 185.173 0 126.72 108.395 229.973 241.536 229.973s241.536-103.253 241.536-229.973c0-11.947-9.387-21.333-21.333-21.333s-21.333 9.387-21.333 21.333c0 103.253-89.195 187.307-198.869 187.307s-198.869-84.053-198.869-187.307c0-61.44 13.653-118.187 39.68-164.267 27.307-49.067 46.080-69.973 78.955-103.253 8.107-8.533 8.107-21.76 0-30.293-4.693-4.267-10.24-6.4-15.787-6.4zM722.176 87.894c-50.773 0-95.595 12.8-132.288 37.973-63.595 43.093-101.568 113.067-101.568 187.307 0 11.947 9.387 21.333 21.333 21.333s21.333-9.387 21.333-21.333c0-60.16 30.72-116.907 82.795-151.893 30.293-20.48 65.728-30.293 108.395-30.293 10.24 0 27.307 1.28 44.373 4.267 11.52 2.133 22.613-5.547 24.747-17.493 2.133-11.52-5.547-22.613-17.493-24.747-24.32-4.693-45.653-5.12-51.627-5.12zM636.395-0c-1.707 0-3.84 0.427-5.547 0.853-67.861 18.773-112.235 43.947-158.763 89.6-59.755 59.307-92.608 138.24-92.608 222.72 0 69.12 58.901 125.44 131.435 125.44s131.435-56.32 131.435-125.44c0-45.653 39.68-82.773 88.768-82.773s88.768 37.12 88.768 82.773c0 160.853-138.688 291.413-309.397 291.413-121.195 0-232.149-67.413-282.091-171.947-16.64-34.56-25.173-75.093-25.173-119.467 0-33.28 2.987-85.76 28.587-154.027 4.267-11.093-1.28-23.467-12.373-27.307-11.093-4.267-23.467 1.707-27.307 12.373-20.907 55.893-31.147 111.36-31.147 168.96 0 51.2 9.813 97.707 29.013 138.24 56.768 119.040 182.656 196.267 320.491 196.267 194.176 0 352.064-149.76 352.064-334.080 0-69.12-58.901-125.44-131.435-125.44s-131.435 56.32-131.435 125.44c0 45.653-39.68 82.773-88.768 82.773s-88.768-37.12-88.768-82.773c0-72.96 28.16-141.227 79.808-192.427 40.533-40.107 79.381-62.293 139.541-78.933 11.52-2.987 17.92-14.933 14.933-26.027-2.112-9.813-11.072-16.213-20.032-16.213z" />
</svg>