<svg width="24" height="24" viewBox="0 0 1000 1000">
  <path d="M640.32 359.744c53.675-66.368 121.024-159.083 298.347-61.077-92.885 149.312-214.485 117.419-298.347 61.077zM475.797 493.995c11.221-48.832 55.189-85.461 107.243-85.461h0.939c29.419 0.235 56.96 11.925 77.589 32.875 14.912 15.168 24.917 33.877 29.205 54.357 3.243-0.299 6.528-0.448 9.792-0.448 48.235 0 90.389 30.912 104.96 76.949 8.832 28.032 6.251 57.856-7.339 83.947-9.835 18.944-24.597 34.261-42.645 44.608 19.797 46.464 5.44 102.187-37.312 132.736-41.195 29.397-100.715 25.365-137.664-7.872-37.44 32.555-97.152 35.733-137.813 5.589-23.616-17.451-39.061-43.115-43.413-72.171-3.157-21.099-0.235-42.176 8.277-61.141-17.877-10.688-32.384-26.219-41.899-45.312-13.12-26.304-15.232-56.149-5.888-84.011 16.235-48.683 64.64-80.043 115.968-74.645zM582.379 701.952c34.155 0 61.952-27.776 61.952-61.952s-27.797-61.952-61.952-61.952c-34.155 0-61.952 27.776-61.952 61.952s27.797 61.952 61.952 61.952zM384 274.048l-64.043-52.459 89.365 250.091-110.656 82.987-213.333-426.667 128-128 426.667 298.667-194.965 146.219z" />
</svg>