<svg width="24" height="24" viewBox="0 0 1000 1000">
  <path d="M213.248 554.667h-85.333v213.333c0 23.552 19.115 42.667 42.667 42.667h213.333v-85.333h-170.667v-170.667zM895.915 554.667h-85.333v170.667h-170.667v85.333h213.333c23.552 0 42.667-19.115 42.667-42.667v-213.333zM383.915 42.667h-213.333c-23.552 0-42.667 19.115-42.667 42.667v213.333h85.333v-170.667h170.667v-85.333zM853.248 42.667h-213.333v85.333h170.667v170.667h85.333v-213.333c0-23.552-19.115-42.667-42.667-42.667zM682.581 426.667c0-94.257-76.41-170.667-170.667-170.667s-170.667 76.41-170.667 170.667c0 94.257 76.41 170.667 170.667 170.667s170.667-76.41 170.667-170.667z" />
</svg>