<svg width="24" height="24" viewBox="0 0 1000 1000">
  <path d="M896 682.667h-426.667l-51.2 68.267c-8.064 10.752-20.715 17.067-34.133 17.067h-256c-23.552 0-42.667-19.115-42.667-42.667v-597.333c0-23.552 19.115-42.667 42.667-42.667h768c23.552 0 42.667 19.115 42.667 42.667v512c0 23.552-19.115 42.667-42.667 42.667zM640 554.667c47.125 0 85.333-38.208 85.333-85.333s-38.208-85.333-85.333-85.333-85.333 38.208-85.333 85.333c0 47.125 38.208 85.333 85.333 85.333zM469.333 170.667c0 106.048 76.416 170.667 170.667 170.667s170.667-64.619 170.667-170.667h-341.333z" />
</svg>