<svg width="24" height="24" viewBox="0 0 1000 1000">
  <path d="M929.28 538.688c-8.085 10.112-20.352 15.979-33.28 15.979h-640c-20.011 0-37.312-13.888-41.643-33.408l-43.691-196.565v357.973h191.979l51.221-68.267c8.043-10.752 20.693-17.067 34.133-17.067h405.333v85.333h-384l-51.221 68.267c-8.043 10.752-20.693 17.067-34.133 17.067h-255.979c-23.552 0-42.667-19.115-42.667-42.667v-597.333c0-23.552 19.115-42.667 42.667-42.667h682.667c20.011 0 37.312 13.888 41.643 33.408l85.333 384c2.816 12.629-0.277 25.856-8.363 35.947z" />
</svg>