<svg width="24" height="24" viewBox="0 0 1000 1000">
  <path d="M938.667 682.667h-853.333c-23.467 0-42.667-19.2-42.667-42.667v-426.667c0-23.467 19.2-42.667 42.667-42.667h853.333c23.467 0 42.667 19.2 42.667 42.667v426.667c0 23.467-19.2 42.667-42.667 42.667zM469.419 384h-128v-128h-85.333v128h-128v85.333h128v128h85.333v-128h128v-85.333zM661.419 298.667c-35.413 0-64 28.587-64 64s28.587 64 64 64c35.413 0 64-28.587 64-64s-28.587-64-64-64zM832.085 426.667c-35.413 0-64 28.587-64 64s28.587 64 64 64c35.413 0 64-28.587 64-64s-28.587-64-64-64z" />
</svg>