<svg width="24" height="24" viewBox="0 0 1000 1000">
  <path d="M512-0c212.053 0 384 171.947 384 384-212.053 0-384-171.947-384-384zM128 384c0-212.053 171.947-384 384-384 0 212.053-171.947 384-384 384zM512 488.427c-58.304 0-105.557 47.275-105.557 105.557s47.253 105.557 105.557 105.557 105.557-47.275 105.557-105.557-47.253-105.557-105.557-105.557zM688.832 583.424c-7.381 4.224-15.040 7.659-22.699 10.56 7.659 2.901 15.317 6.336 22.699 10.56 50.667 29.035 78.912 81.813 79.168 136.981-47.232 27.179-107.413 29.291-158.357 0-7.381-4.224-14.251-9.237-20.587-14.251 1.323 8.171 2.112 16.619 2.112 25.067 0 58.603-31.936 109.525-79.168 136.981-47.232-27.456-79.168-78.379-79.168-136.981 0-8.448 0.789-16.896 2.112-25.067-6.336 5.269-13.205 10.283-20.587 14.507-50.667 29.291-110.848 27.179-158.357 0 0-54.635 28.245-108.203 79.168-136.981 7.381-4.224 15.040-7.659 22.699-10.816-7.659-2.645-15.317-6.059-22.699-10.283-50.667-29.291-78.912-82.069-79.168-136.981 47.232-27.179 107.413-29.291 158.357 0 7.381 4.224 14.251 9.237 20.587 14.251-1.323-8.448-2.112-16.896-2.112-25.344 0-58.581 31.936-109.525 79.168-136.981 47.232 27.456 79.168 78.379 79.168 136.981 0 8.448-0.789 16.896-2.112 25.067 6.336-5.291 13.205-10.027 20.587-14.251 50.667-29.291 110.848-27.179 158.357 0-0.256 55.168-28.501 107.968-79.168 136.981z" />
</svg>