<svg width="24" height="24" viewBox="0 0 1000 1000">
  <path d="M370.624 537.067c13.397-17.152 27.563-41.003 27.563-75.285 0-82.731-64.832-131.179-158.741-131.179-23.872 0-45.483 2.987-58.88 6.699l-24.619-39.488 73.045-4.459c128.96-8.213 204.949-11.947 204.949-111.040 0-85.739-75.264-134.165-204.949-134.165-134.891 0-186.325 34.283-186.325 93.163 0 33.557 14.912 51.413 41.003 76.032-24.597 10.389-32.789 29.013-32.789 49.152 0 16.405 8.192 31.317 21.632 45.483 13.419 14.144 28.309 28.331 46.208 44.715-36.501 17.877-64.107 56.64-64.107 111.808 0 85.696 56.64 144.555 170.667 144.555 32.043 0 51.435-2.944 68.587-7.445h145.344v-63.339l-68.587-5.205zM149.995 197.163c-9.707-11.904-19.371-24.555-19.371-39.488 0-29.781 37.995-38.763 90.176-38.763 43.221 0 102.123 3.029 102.123 43.221 0 23.893-28.331 25.365-64.128 27.605l-108.8 7.424zM231.979 539.307c-41.003 0-71.552-20.139-71.552-68.587 0-36.501 20.139-61.867 69.333-61.867 41.707 0 70.037 24.576 70.037 63.36 0.021 43.968-25.323 67.093-67.819 67.093zM474.155 224.598v58.859l38.037 5.205c10.432 1.515 11.925 3.733 11.925 14.933v219.115c0 8.192-2.219 13.419-9.707 15.637l-40.235 14.187 8.192 60.352h154.304v-309.291c0-11.947 0.725-13.419 11.925-14.933l38.016-5.205v-58.859h-212.459zM570.325 672.491c-42.496 0-67.072 24.619-67.072 67.115 0 42.453 24.597 65.579 67.072 65.579 43.221 0 67.819-23.125 67.819-65.579 0-42.496-24.597-67.115-67.819-67.115zM981.333 253.483c-32.064-15.637-79.019-29.803-121.515-29.803-88.683 0-122.219 35.733-122.219 120v195.264c0 4.459 0 7.467-5.973 7.467h-52.16v66.325c65.621 7.488 91.669 40.277 99.883 121.515h70.827v-105.856c0-5.205 0-7.467 5.973-7.467h105.067v-74.517h-111.040v-178.133c0-43.968 10.453-61.099 50.667-61.099 20.885 0 42.496 5.205 60.373 11.925l20.117-65.621z" />
</svg>