<svg width="24" height="24" viewBox="0 0 1000 1000">
  <path d="M413.547 295.382c0-13.675-2.133-27.691-6.4-42.048s-11.627-27.349-22.059-38.976c-10.432-11.605-22.827-17.429-37.184-17.429s-26.752 5.803-37.184 17.429c-10.432 11.627-17.771 24.619-22.059 38.976s-6.4 28.373-6.4 42.048 2.133 27.691 6.4 42.048c4.267 14.357 11.627 27.349 22.059 38.976s22.827 17.429 37.184 17.429c14.357 0 26.752-5.803 37.184-17.429s17.771-24.619 22.059-38.976c4.245-14.357 6.4-28.373 6.4-42.048zM741.739 295.382c0-13.675-2.133-27.691-6.4-42.048s-11.627-27.349-22.059-38.976c-10.432-11.605-22.827-17.429-37.184-17.429s-26.752 5.803-37.184 17.429c-10.432 11.627-17.771 24.619-22.059 38.976-4.267 14.357-6.4 28.373-6.4 42.048s2.133 27.691 6.4 42.048c4.267 14.357 11.627 27.349 22.059 38.976s22.827 17.429 37.184 17.429c14.357 0 26.752-5.803 37.184-17.429s17.771-24.619 22.059-38.976c4.267-14.357 6.4-28.373 6.4-42.048zM823.787 295.382c0 41.024-11.797 75.904-35.392 104.619s-55.552 43.072-95.893 43.072c-14.016 0-47.36-3.584-100.011-10.752-24.277-3.755-51.115-5.653-80.512-5.653s-56.235 1.877-80.512 5.653c-51.968 7.168-85.291 10.752-100.011 10.752-40.341 0-72.299-14.357-95.893-43.072s-35.392-63.595-35.392-104.619c0-30.080 5.461-56.32 16.405-78.72s24.789-40 41.536-52.821 37.611-23.083 62.571-30.763c24.96-7.68 48.896-12.736 71.787-15.125 22.912-2.389 48.384-3.584 76.416-3.584h86.144c28.032 0 53.504 1.195 76.416 3.584s46.848 7.445 71.787 15.125c24.96 7.701 45.803 17.941 62.571 30.763 16.747 12.821 30.592 30.421 41.536 52.821 10.987 22.4 16.448 48.64 16.448 78.72zM938.667 385.643c0-70.763-10.432-127.36-31.275-169.749-12.992-26.325-31.019-49.067-54.101-68.203s-47.189-33.835-72.299-44.096c-25.131-10.261-54.187-18.368-87.189-24.363-32.981-5.973-62.315-9.749-87.957-11.285s-54.187-2.304-85.632-2.304c-26.667 0-50.944 0.512-72.811 1.536-21.888 1.024-47.104 3.157-75.648 6.421-28.544 3.243-54.613 8.384-78.208 15.381s-47.019 15.808-70.251 26.411c-23.253 10.603-43.925 24.448-62.059 41.536s-32.811 36.757-44.096 58.965c-21.205 42.048-31.787 98.645-31.787 169.749 0 81.024 23.253 148.715 69.739 203.072-9.237 28.032-13.845 57.088-13.845 87.168 0 39.659 8.725 76.928 26.155 111.787 36.928 0 69.397-6.741 97.429-20.245s60.352-34.624 96.917-63.339c50.261 11.968 103.083 17.941 158.464 17.941 50.603 0 98.453-5.461 143.595-16.405 35.904 28.032 67.861 48.704 95.893 62.037s60.352 20.011 96.917 20.011c17.429-34.859 26.155-72.128 26.155-111.787 0-29.739-4.608-58.453-13.845-86.165 46.485-54.677 69.739-122.709 69.739-204.075z" />
</svg>