<svg width="24" height="24" viewBox="0 0 1000 1000">
  <path d="M512 853.334c-235.264 0-426.667-191.403-426.667-426.667s191.403-426.667 426.667-426.667 426.667 191.403 426.667 426.667-191.381 426.667-426.667 426.667zM850.389 469.334h-126.848c-7.317 126.016-45.803 214.912-86.592 274.667 113.792-44.971 197.696-149.269 213.44-274.667zM511.253 94.827c-37.611 31.68-114.581 116.821-125.781 289.173h252.821c-11.307-172.437-89.131-257.579-127.040-289.173zM385.472 469.334c11.2 172.523 88.32 257.685 125.739 289.195 37.909-31.595 115.755-116.715 127.083-289.195h-252.821zM385.835 743.552c-40.341-59.755-78.357-148.501-85.589-274.219h-126.613c15.701 124.949 99.029 228.971 212.203 274.219zM173.632 384h126.613c7.232-125.717 45.248-214.464 85.589-274.219-113.173 45.248-196.501 149.269-212.203 274.219zM636.928 109.334c40.768 59.755 79.275 148.651 86.592 274.667h126.848c-15.723-125.397-99.627-229.696-213.44-274.667z" />
</svg>