<svg width="24" height="24" viewBox="0 0 1000 1000">
  <path d="M893.44 469.334c-8.171 74.005-37.696 141.333-81.877 196.48l84.523 84.523-60.331 60.331-707.669-707.669 60.331-60.331 84.437 84.437c55.125-44.181 122.475-73.707 196.48-81.877v-87.893h85.333v87.893c177.92 19.627 319.147 160.853 338.773 338.773h87.893v85.333h-87.893zM512 128c-67.136 0-128.875 22.251-178.645 59.605l417.707 417.707c37.355-49.771 59.605-111.509 59.605-178.645 0-165.12-133.547-298.667-298.667-298.667zM177.899 238.144l63.211 63.211c-17.643 38.144-27.776 80.469-27.776 125.312 0 165.12 133.547 298.667 298.667 298.667 44.843 0 87.168-10.133 125.312-27.776l63.211 63.211c-43.989 24.875-93.248 41.536-145.856 47.339v87.893h-85.333v-87.893c-177.92-19.627-319.147-160.853-338.773-338.773h-87.893v-85.333h87.893c5.803-52.608 22.464-101.867 47.339-145.856z" />
</svg>