<svg width="24" height="24" viewBox="0 0 1000 1000">
  <path d="M682.539 557.782c60.587 10.069 106.795 62.357 106.795 125.504 0 70.336-57.323 127.381-128 127.381-56.875 0-105.003-36.949-121.685-88 80.171-13.077 141.675-81.749 142.891-164.885zM677.589 514.859c-10.155-41.152-35.477-76.203-69.611-99.456 111.083-34.923 196.053-128.832 218.197-244.736h77.824c19.136 0 34.667 15.445 34.667 34.496v33.621c0 147.456-115.52 267.627-261.077 276.075zM341.461 557.782c1.237 83.136 62.72 151.808 142.891 164.885-16.683 51.051-64.811 88-121.685 88-70.699 0-128-57.045-128-127.381 0-63.147 46.208-115.435 106.795-125.504zM416.021 415.403c-34.133 23.275-59.456 58.304-69.611 99.456-145.557-8.448-261.077-128.619-261.077-276.053v-33.621c0-19.051 15.509-34.496 34.667-34.496h77.824c22.165 115.883 107.115 209.792 218.197 244.715zM640 555.286c0-70.351-57.308-127.381-128-127.381s-128 57.031-128 127.381c0 70.351 57.308 127.381 128 127.381s128-57.031 128-127.381zM512 387.67c-153.173 0-277.333-123.968-277.333-276.864v-33.621c0-19.051 15.509-34.496 34.667-34.496h485.333c19.136 0 34.667 15.445 34.667 34.496v33.621c0 152.896-124.16 276.864-277.333 276.864z" />
</svg>