<svg width="24" height="24" viewBox="0 0 1000 1000">
  <path d="M815.701 407.467l-4.011-12.672-42.731-96.128v490.667c0 35.2-28.843 64-64.107 64-35.243 0-64.107-28.8-64.107-64v-320h-42.731v405.333c0 35.2-28.843 64-64.107 64s-64.107-28.8-64.107-64v-405.333h-42.731v362.667c0 35.2-28.843 64-64.107 64s-64.107-28.8-64.107-64v-362.667h-42.731v234.667c0 35.2-28.843 64-64.107 64s-64.107-28.8-64.107-64v-533.333c0-140.8 115.371-256 256.384-256h213.653c7.765 0 15.424 0.491 23.019 1.173 31.744 2.859 61.739 11.669 89.131 25.109 0.96 0.469 1.941 0.917 2.901 1.408 3.392 1.621 6.741 3.52 10.091 5.269 77.056 40.555 145.259 117.227 173.952 223.040l84.181 341.333c-97.856 0-121.472-17.963-165.525-104.533z" />
</svg>