<svg width="24" height="24" viewBox="0 0 1000 1000">
  <path d="M694.4 725.334c77.163 0 137.6-69.269 137.6-157.696 0-108.459-83.328-194.667-256.704-364.032-20.288-19.819-41.451-40.491-63.488-62.272-22.037 21.803-43.285 42.603-63.68 62.549-172.992 169.28-256.128 255.445-256.128 363.819 0 88.384 60.437 157.632 137.6 157.632 42.965 0 77.739-20.331 117.739-60.992l64.661-67.008 67.243 67.008c33.195 29.44 72.192 60.992 115.157 60.992zM694.4 810.667c-70.528 0-138.219-35.819-182.4-92.373-44.181 56.533-111.872 92.373-182.4 92.373-124.843 0-222.933-106.901-222.933-242.965 0-167.019 137.813-281.749 346.56-488.448l58.773-57.92 58.773 58.304c208.747 206.293 346.56 321.024 346.56 488 0 136.128-98.091 243.029-222.933 243.029v0z" />
</svg>