<svg width="24" height="24" viewBox="0 0 1000 1000">
  <path d="M512 853.334c-235.264 0-426.667-191.403-426.667-426.667s191.403-426.667 426.667-426.667 426.667 191.403 426.667 426.667-191.403 426.667-426.667 426.667zM512 213.334c-23.552 0-42.667 19.115-42.667 42.667s19.115 42.667 42.667 42.667 42.667-19.115 42.667-42.667-19.115-42.667-42.667-42.667zM587.477 408.598c-0.64-0.533-1.344-1.067-2.005-1.557-12.8-9.536-30.805-30.165-30.805-43.712v-21.995h-85.333v21.995c0 59.968 53.781 103.552 64.619 111.744 18.219 15.275 20.715 27.221 20.715 36.907 0 23.531-19.157 42.667-42.667 42.667s-42.667-19.136-42.667-42.667h-85.333c0 70.592 57.408 128 128 128s128-57.408 128-128c0-39.872-17.664-74.667-52.523-103.381z" />
</svg>