<svg width="24" height="24" viewBox="0 0 1000 1000">
  <path d="M512 853.334c-235.264 0-426.667-191.403-426.667-426.667s191.403-426.667 426.667-426.667c235.264 0 426.667 191.403 426.667 426.667s-191.403 426.667-426.667 426.667zM512 85.334c-188.203 0-341.333 153.131-341.333 341.333s153.131 341.333 341.333 341.333c188.203 0 341.333-153.131 341.333-341.333s-153.131-341.333-341.333-341.333zM554.667 597.334c0-23.564-19.103-42.667-42.667-42.667s-42.667 19.103-42.667 42.667c0 23.564 19.103 42.667 42.667 42.667s42.667-19.103 42.667-42.667zM554.347 512h-127.68v-42.667h42.88v-256h85.12v286.656h-0.32z" />
</svg>