<svg width="24" height="24" viewBox="0 0 1000 1000">
  <path d="M662.997 338.176l-80-80-75.499-76.011-14.997-14.997c-21.675-21.333-46.912-35.84-75.755-43.499s-57.408-8-85.76-1.003c-5.333-23.339-17.344-42.496-36.011-57.493s-40.171-22.507-64.491-22.507c-28.331 0-52.501 10.091-72.491 30.251s-29.995 44.416-29.995 72.747c0 24 7.424 45.333 22.251 64s33.749 30.677 56.747 36.011c-7.339 28.672-7.168 57.493 0.491 86.507s22.336 54.336 44.011 76.011l5.995 5.995 75.499-76.011-5.504-5.504c-12.331-12.331-18.496-27.157-18.496-44.501s6.165-32.341 18.496-44.992c12.331-12.331 27.157-18.496 44.501-18.496s32.171 6.165 44.501 18.496l14.997 14.997 75.499 76.011 80.491 80 75.52-76.011zM492.501 679.168l5.995-5.995-76.011-76.011-5.995 5.995c-12.331 12.331-27.157 18.496-44.501 18.496-17.323 0-32.171-6.165-44.501-18.496s-18.496-27.243-18.496-44.757 6.165-32.427 18.496-44.757l170.517-170.517-75.499-76.011-80.491 80-75.499 76.011-14.997 14.997c-22.677 22.336-37.675 48.917-44.992 79.744s-6.507 60.757 2.496 89.749c-23.339 4.992-42.496 16.832-57.493 35.499s-22.507 40.171-22.507 64.491c0 28.331 10.005 52.587 29.995 72.747s44.16 30.251 72.491 30.251c25.344 0 47.573-8.171 66.752-24.491s30.741-36.843 34.752-61.504c28.011 6.677 56.256 6.080 84.757-1.749s53.397-22.357 74.731-43.691zM896 145.664c0-28.331-10.005-52.587-29.995-72.747s-44.16-30.251-72.491-30.251c-24.661 0-46.507 7.829-65.493 23.509s-30.827 35.328-35.499 59.008c-28.672-9.344-58.581-10.325-89.749-3.008s-58.091 22.336-80.747 44.992l-5.504 5.995 75.499 76.011 5.995-5.995c12.331-12.331 27.157-18.496 44.501-18.496s32.171 6.165 44.501 18.496 18.496 27.157 18.496 44.501-6.165 32.171-18.496 44.501l-171.008 171.008 76.011 76.011 155.989-156.011 14.507-14.997c21.333-21.333 35.925-46.421 43.755-75.243s8.256-57.408 1.259-85.76c25.344-3.669 46.421-15.083 63.253-34.24s25.216-41.621 25.216-67.285zM894.997 707.67c0-25.664-8.491-48.171-25.493-67.499s-38.165-30.827-63.509-34.496c8.661-28.331 9.173-57.749 1.493-88.256s-22.677-56.917-44.992-79.253l-5.995-5.995-75.499 76.011 5.995 5.995c12.331 12.331 18.496 27.157 18.496 44.501s-6.165 32.171-18.496 44.501-27.157 18.496-44.501 18.496-32.171-6.165-44.501-18.496l-171.008-171.008-76.011 76.011 80.491 80 76.011 76.011 14.507 14.997c22.336 22.336 48.832 37.248 79.509 44.757s60.331 6.912 89.003-1.749c3.669 25.003 15.083 45.995 34.24 62.997s41.749 25.493 67.755 25.493c28.331 0 52.501-10.091 72.491-30.251s30.016-44.437 30.016-72.768z" />
</svg>