<svg width="24" height="24" viewBox="0 0 1000 1000">
  <path d="M678.869 810.667h-333.696c-22.421 0-40.597-17.28-40.597-38.613v-338.475c0-21.312 18.176-38.592 40.597-38.592h153.835c-1.088-37.653-17.045-78.933-41.323-115.051-23.424-34.752-61.931-69.013-82.837-85.419-0.533-0.427-1.045-0.811-1.536-1.259-4.523-4.096-7.787-8.875-7.872-15.509-0.085-5.035 2.667-8.896 5.717-13.013l0.768-0.853 106.517-114.283c0 0 5.205-5.227 9.536-6.229 4.864-1.109 10.347-1.259 14.165 1.579 185.771 136.683 212.544 308.139 217.259 400.917 0 0.491 0.043 326.165 0.043 326.165-0.021 21.355-18.197 38.635-40.576 38.635z" />
</svg>