<svg width="24" height="24" viewBox="0 0 1000 1000">
  <path d="M396.373 435.542h50.645l-25.301 55.467zM511.957 800.64c-223.872 0-405.291-144.555-405.291-322.816 0-113.323 73.344-212.949 184.277-270.549l-30.635-158.72 175.275 112.256c24.704-3.755 50.261-5.803 76.331-5.803 223.829 0 405.333 144.555 405.333 322.816 0.043 178.261-181.461 322.816-405.291 322.816zM306.517 382.294c0-4.48-1.835-8.917-4.992-12.075-3.2-3.2-7.595-5.035-12.117-5.035h-3.84c-4.437 0-8.875 1.835-12.075 5.077-3.157 3.115-4.949 7.552-4.949 12.032v141.141h-41.557c-3.456 0-6.741 0.939-9.6 2.688-2.731 1.707-4.821 4.096-6.144 6.912-0.853 1.877-1.365 3.968-1.365 6.059 0 2.048 0.555 4.181 1.408 6.101 0.853 1.835 2.091 3.541 3.627 4.949 3.243 2.987 7.552 4.608 12.075 4.608h120.576c3.371 0 6.699-0.896 9.515-2.688 2.731-1.749 4.992-4.139 6.272-6.912 0.811-1.92 1.237-4.011 1.237-6.059s-0.427-4.181-1.195-6.059c-0.981-1.877-2.176-3.584-3.712-4.992-3.243-2.987-7.509-4.608-12.075-4.608h-41.088v-141.141zM508.544 373.547c-1.792-2.816-4.309-5.077-7.339-6.443l-3.584-1.579c-5.12-2.304-11.307-1.92-16.128 1.109-2.816 1.792-5.035 4.309-6.4 7.339l-13.995 30.72h-78.848l-13.867-30.507c-1.408-3.029-3.584-5.547-6.4-7.339-4.864-3.072-11.093-3.499-16.213-1.109l-3.499 1.579c-2.987 1.365-5.632 3.584-7.339 6.443-1.707 2.688-2.645 5.888-2.645 9.131 0 2.432 0.512 4.821 1.493 7.040l68.523 150.229 0.555 1.408c0.469 1.749 1.152 3.371 2.133 4.907 0.256 0.469 0.597 0.853 1.323 1.835 1.365 2.091 3.115 3.883 5.205 5.205 2.773 1.707 5.973 2.645 9.173 2.645 0.725 0 1.323-0.043 2.773-0.171 3.029-0.128 5.973-1.024 8.448-2.645 1.493-0.896 2.773-2.048 4.395-3.84 0.853-0.939 1.579-1.877 2.304-2.901 0.981-1.664 1.707-3.499 2.176-5.419l72.661-159.787-4.907-7.851zM653.867 373.931c-0.853-1.536-1.877-2.944-3.243-4.139-3.2-2.944-7.509-4.565-12.032-4.565h-99.499c-0.597 0-1.195 0.085-1.792 0.085-2.773 0.299-5.504 1.195-7.723 2.603-2.517 1.493-4.437 3.541-5.845 5.931l-1.664 2.773v161.067c0 4.437 1.835 8.875 4.992 12.075 3.157 3.157 7.509 4.992 12.032 4.992h3.883c4.437 0 8.875-1.792 11.989-5.035 3.2-3.157 4.992-7.552 4.992-12.032v-141.568h78.592c3.371 0 6.656-0.896 9.515-2.645 1.365-0.896 2.645-1.92 3.712-3.072l6.827-7.637-4.736-8.832zM813.184 376.918c-1.195-2.475-2.987-4.565-5.163-6.229l-3.115-2.261c-4.992-3.669-12.117-4.224-17.707-1.493-2.432 1.195-4.565 2.987-6.187 5.205l-53.589 73.216-22.528-23.509v-39.552c0-4.48-1.835-8.917-5.035-12.075-3.157-3.2-7.552-5.035-12.032-5.035h-3.84c-4.437 0-8.917 1.835-12.075 5.035-1.109 1.109-2.091 2.389-2.859 3.797l-2.091 3.883v159.787c0 4.437 1.792 8.875 4.949 12.075 3.157 3.157 7.595 4.992 12.075 4.992h3.925c4.437 0 8.789-1.792 11.989-5.035 3.157-3.157 4.992-7.552 4.992-12.032v-60.885l69.803 72.789c1.621 1.707 3.584 3.029 5.76 3.883 6.016 2.517 13.525 1.237 18.389-3.371l2.773-2.688c1.749-1.664 2.987-3.541 3.925-5.675 0.853-2.091 1.28-4.352 1.28-6.656 0-4.395-1.664-8.576-4.693-11.776l-48-50.048 57.6-78.635c2.133-2.859 3.285-6.443 3.285-10.027-0.043-2.688-0.725-5.291-1.835-7.68z" />
</svg>