<svg width="24" height="24" viewBox="0 0 1000 1000">
  <path d="M896 725.334h-768c-23.552 0-42.667-19.115-42.667-42.667v-512c0-23.552 19.115-42.667 42.667-42.667h768c23.552 0 42.667 19.115 42.667 42.667v512c0 23.552-19.115 42.667-42.667 42.667zM597.333 597.59h85.333v-85.333h-85.333v85.333zM597.333 469.59h85.333v-85.333h-85.333v85.333zM469.333 597.59h85.333v-85.333h-85.333v85.333zM469.333 469.59h85.333v-85.333h-85.333v85.333zM341.333 597.59h85.333v-85.333h-85.333v85.333zM341.333 469.59h85.333v-85.333h-85.333v85.333zM213.333 597.59h85.333v-85.333h-85.333v85.333zM213.333 469.59h85.333v-85.333h-85.333v85.333zM725.333 256.256h-426.667v85.333h426.667v-85.333zM810.667 384.256h-85.333v85.333h85.333v-85.333zM810.667 512.256h-85.333v85.333h85.333v-85.333z" />
</svg>