<svg width="24" height="24" viewBox="0 0 1000 1000">
  <path d="M612.16 105.259c-9.621 3.328-15.915 10.368-21.099 18.88-7.403 12.224-15.189 24.448-22.208 37.035-26.667 47.765-53.312 95.147-79.979 142.933-0.747 1.109-1.472 2.219-2.219 3.691-4.437-1.109-8.512-2.219-12.949-3.328-58.88-15.168-117.376-30.357-176.256-45.547-7.040-1.856-13.696-3.691-20.736-3.691-14.080 0-24.811 6.293-32.213 18.133-1.856 2.965-3.328 5.931-4.437 9.259-54.059 116.651-108.117 233.643-161.813 350.293-9.621 20.736-19.264 41.835-28.501 62.571-2.219 5.184-3.712 10.731-5.931 16.299-0.363 0.747-0.747 1.472-1.109 2.219 0 2.219 0 4.437 0 6.656 0.363 1.109 1.109 1.856 1.472 2.965 1.109 3.328 3.328 5.547 6.656 7.040 2.581 1.109 5.184 1.856 7.765 1.856 14.080 1.472 28.139 2.603 42.219 3.691 19.264 1.493 38.891 2.965 58.133 4.437 24.811 1.856 49.984 4.075 74.795 5.931 4.075 0.363 8.149 0.747 11.84 1.472 4.075 0 8.149 0 12.587 0 0.747-0.384 1.472-0.384 2.219-0.747 5.931-0.747 10.368-3.712 13.696-8.896 2.965-4.437 5.931-8.896 8.896-13.333 73.323-122.944 147.008-245.504 220.309-368.427 0.747-1.109 1.472-2.603 2.581-4.075 94.421 22.592 188.843 45.163 284.011 68.117-1.109 1.472-1.472 2.603-2.219 3.328-30.357 42.965-60.352 85.547-90.709 128.491-1.109 1.472-2.219 3.328-2.965 5.184-2.219 4.437-1.109 8.149 3.328 10.368 3.328 1.472 6.656 2.965 10.368 3.691 17.408 2.965 34.816 5.931 51.84 8.896 22.955 3.691 45.909 7.765 68.501 11.477 5.931 1.109 11.477 1.835 17.408 2.581 5.184 0.747 10.005-0.747 14.443-3.691 4.437-3.328 8.149-7.403 11.84-11.477 23.317-28.885 46.656-57.771 69.973-86.656 12.224-15.189 24.811-30.357 37.035-45.547 1.109-1.109 1.856-2.603 2.581-3.712 0-1.856 0-4.075 0-5.931-2.219-3.691-6.293-4.821-10.005-5.909-41.109-11.115-82.197-21.845-123.307-32.96-1.109-0.384-2.581-0.747-4.075-1.109 1.109-1.472 1.472-2.219 2.219-3.328 18.88-25.173 37.397-49.984 56.277-75.157s37.397-50.347 55.915-75.541c1.472-2.219 2.965-4.437 4.075-7.040 2.219-4.437 1.109-8.149-2.965-10.731-2.603-1.835-5.184-3.328-8.149-4.075-9.259-3.691-18.517-7.040-27.776-10.368-76.288-27.392-152.555-54.805-228.843-82.197-18.517-6.677-37.035-12.949-55.915-19.264-4.821-1.472-10.005-2.603-14.805-4.075-4.011-0.683-7.723-0.683-11.797-0.683zM241.515 721.046c-11.84-1.109-23.701-2.219-35.925-2.965-12.587-1.109-24.811-2.219-37.397-3.328-15.552-1.493-31.467-2.603-47.019-4.075-10.368-0.747-20.736-1.856-31.104-2.603-2.581-0.384-3.328-1.109-2.965-3.712 0.363-1.472 0.747-2.965 1.472-4.075 1.109-2.581 2.219-4.821 3.712-7.403 47.765-98.133 95.531-196.608 142.933-294.741 15.552-31.851 30.741-63.68 45.909-95.531 0.747-1.856 1.856-2.603 3.712-2.219 2.603 0.384 5.184 0.747 7.403 1.493 51.093 12.224 101.824 24.448 152.917 36.288 5.184 1.109 10.731 2.603 15.915 3.712 3.712 1.109 4.821 2.965 3.328 6.677-0.747 1.835-1.472 3.328-2.581 4.821-69.973 120.704-139.605 241.045-209.579 361.771-3.691 6.251-3.691 6.251-10.731 5.888zM525.888 317.803c0.747-1.472 1.109-2.219 1.856-2.965 20.736-35.925 41.835-72.213 62.955-108.117 8.149-14.080 16.661-28.139 25.173-42.219 1.856-2.965 4.075-5.931 6.293-8.512 2.581-2.603 5.931-3.328 9.259-1.856 1.472 0.747 2.965 1.109 4.437 1.493 61.845 21.099 123.669 42.219 185.515 62.955 28.139 9.621 56.277 18.88 84.416 28.501 1.472 0.363 3.328 1.109 4.821 1.835 2.965 1.493 3.328 2.965 1.472 5.568-1.109 1.835-2.581 4.075-3.712 5.909-11.115 15.552-22.592 30.741-33.685 46.293-18.517 25.173-36.651 50.347-55.168 75.541-1.472 2.219-2.965 4.437-4.821 6.677s-4.075 3.328-7.040 2.219c-2.219-0.747-4.075-1.109-6.293-1.835-29.995-7.787-59.989-15.552-89.984-23.339-60.352-15.552-120.704-31.467-181.077-47.019-1.451-0.021-2.944-0.384-4.416-1.131zM820.267 427.776c0.747 0 1.472 0.363 2.219 0.363 35.541 8.896 71.467 17.408 107.008 26.283 1.472 0.384 2.965 0.747 4.437 1.472 3.328 1.472 4.075 3.328 1.472 6.293-0.363 0.363-0.747 1.109-1.109 1.472-26.283 33.323-52.203 66.645-78.507 99.605-0.363 0.747-1.109 1.472-1.472 1.856-2.603 2.965-5.547 3.691-9.621 2.965-31.851-5.931-63.68-11.477-95.531-17.408-3.712-0.747-7.765-1.109-11.477-2.219-3.328-0.747-3.712-2.219-2.219-4.821 0.747-1.109 1.472-2.603 2.603-3.712 26.667-36.288 52.949-72.939 79.616-109.227 0.725-0.704 1.472-1.813 2.581-2.923z" />
</svg>