<svg width="24" height="24" viewBox="0 0 1000 1000">
  <path d="M886.485 403.179l-238.037 145.259-44.352-72.875 238.912-145.771c0.683-0.427 1.344-0.789 2.048-1.173 4.075-2.197 8.427-7.019 8.427-14.037 0-8.768-7.125-15.915-15.893-15.915h-69.589v42.667h-512v-42.667h-69.568c-8.768 0-15.893 7.147-15.893 15.915 0 7.019 4.352 11.861 8.427 14.037 0.704 0.384 1.387 0.789 2.091 1.216l394.773 241.792c39.616 22.784 64.213 65.344 64.213 111.040 0 70.592-57.323 128-127.808 128s-127.808-57.408-127.808-128h85.205c0 23.531 19.115 42.667 42.603 42.667s42.603-19.136 42.603-42.667c0-15.253-8.213-29.44-22.443-37.653l-394.901-241.856c-32.192-17.856-52.139-51.669-52.139-88.576 0-55.829 45.355-101.248 101.099-101.248h69.568v-170.667h512v170.667h69.568c55.744 0 101.099 45.419 101.099 101.248-0.021 36.949-19.989 70.763-52.203 88.597z" />
</svg>