<svg width="24" height="24" viewBox="0 0 1000 1000">
  <path d="M982.976 385.643c22.635 0 41.024 18.411 41.024 41.003 0 22.635-18.389 41.024-41.024 41.024h-114.411v73.408h114.411c22.635 0 41.024 18.389 41.024 41.003 0 22.635-18.389 41.024-41.024 41.024h-155.477c-22.592 0-40.981-18.389-40.981-41.024v-310.869c0-22.656 18.411-41.045 40.981-41.045h155.477c22.592 0 41.024 18.389 41.024 41.045 0 22.613-18.411 41.003-41.024 41.003h-114.411v73.387h114.411zM690.432 623.126c-22.613 0-41.024-18.389-41.024-41.024v-192.341l-159.339 216.917c-7.701 10.304-19.947 16.427-32.789 16.427-4.395 0-8.789-0.683-13.013-2.091-16.768-5.611-28.032-21.248-28.032-38.933v-310.869c0-22.656 18.389-41.045 41.024-41.045s41.024 18.389 41.024 41.045v192.32l159.296-216.939c7.744-10.283 20.011-16.427 32.768-16.427 4.416 0 8.811 0.704 13.056 2.133 16.789 5.568 28.032 21.205 28.032 38.912v310.869c0 22.677-18.389 41.045-41.003 41.045zM316.245 623.126c-22.635 0-41.024-18.389-41.024-41.024v-310.869c0-22.656 18.389-41.045 41.024-41.045 22.592 0 41.003 18.389 41.003 41.045v310.869c0 22.656-18.411 41.024-41.003 41.024zM196.459 312.256h-114.432v269.867c0 22.635-18.368 41.024-41.003 41.024s-41.024-18.389-41.024-41.024v-310.869c0-22.656 18.389-41.045 41.024-41.045h155.435c22.635 0 41.003 18.389 41.003 41.045 0 22.592-18.368 41.003-41.003 41.003z" />
</svg>