<svg width="24" height="24" viewBox="0 0 1000 1000">
  <path d="M341.333 469.334h341.333v-85.333h-341.333v85.333zM128 426.667c0 94.101 76.565 170.667 170.667 170.667h170.667v85.333h-170.667c-141.163 0-256-114.837-256-256s114.837-256 256-256h170.667v85.333h-170.667c-94.101 0-170.667 76.565-170.667 170.667zM725.333 682.667h-170.667v-85.333h170.667c94.101 0 170.667-76.565 170.667-170.667s-76.565-170.667-170.667-170.667h-170.667v-85.333h170.667c141.163 0 256 114.837 256 256s-114.837 256-256 256z" />
</svg>