<svg width="24" height="24" viewBox="0 0 1000 1000">
  <path d="M768 597.334h-42.667v85.333c0 94.101-76.565 170.667-170.667 170.667h-85.333c-94.101 0-170.667-76.565-170.667-170.667v-85.333h-42.667c-47.061 0-85.333-38.272-85.333-85.333v-426.667c0-47.061 38.272-85.333 85.333-85.333h512c47.061 0 85.333 38.272 85.333 85.333v426.667c0 47.061-38.272 85.333-85.333 85.333zM384 682.667c0 47.061 38.272 85.333 85.333 85.333h85.333c47.061 0 85.333-38.272 85.333-85.333v-85.333h-256v85.333zM554.667 213.334h-85.333v170.667h85.333v-170.667z" />
</svg>