<svg width="24" height="24" viewBox="0 0 1000 1000">
  <path d="M810.667 597.334h-129.067v84.523c0 94.571-76.565 171.477-170.667 171.477s-170.667-76.907-170.667-171.477v-84.523h-126.933l-42.667-597.333h682.667l-42.667 597.333zM425.6 681.856c0 47.509 38.272 86.144 85.333 86.144s85.333-38.656 85.333-86.144v-84.523h-170.667v84.523zM341.333 426.667c-23.552 0-42.667 19.093-42.667 42.667 0 23.552 19.115 42.667 42.667 42.667 23.573 0 42.667-19.115 42.667-42.667 0-23.573-19.093-42.667-42.667-42.667zM682.667 426.667c-23.552 0-42.667 19.093-42.667 42.667 0 23.552 19.115 42.667 42.667 42.667 23.573 0 42.667-19.115 42.667-42.667 0-23.573-19.093-42.667-42.667-42.667z" />
</svg>