<svg width="24" height="24" viewBox="0 0 1000 1000">
  <path d="M640 675.499v49.835c0 70.699-57.323 128-128 128s-128-57.301-128-128v-256c0-14.912 2.688-29.163 7.381-42.453l248.619 248.619zM327.403 362.902c-18.176 31.381-28.736 67.648-28.736 106.432h-85.333c0-62.421 19.477-120.213 52.373-168.128l61.696 61.696zM512 256c-32.235 0-62.741 7.296-90.133 20.203l67.349 67.349c7.424-1.344 14.976-2.219 22.763-2.219 70.677 0 128 57.323 128 128v25.003l256 256-60.331 60.331-707.669-707.669 60.331-60.331 170.923 170.923c33.109-19.883 70.229-33.749 110.037-39.509v-174.080h85.333v174.059c144.533 20.821 256.043 145.088 256.043 295.275h-85.333c0.021-117.632-95.68-213.333-213.312-213.333z" />
</svg>