<svg width="24" height="24" viewBox="0 0 1000 1000">
  <path d="M810.667 128h-240.683v85.333c88.128 66.155 133.675 149.888 133.675 247.893 0 61.248-17.963 109.44-53.056 144.96-35.499 35.52-82.624 55.147-138.603 55.147-56.384 0-101.589-19.605-137.515-55.552-36.331-35.52-54.293-84.523-54.293-146.197 0-97.195 45.525-180.501 133.675-246.251v-85.333h-240.512v85.333h148.629c-99.008 63.296-148.629 150.293-148.629 257.685 0 85.76 27.072 152.725 81.792 201.728 54.72 49.408 127.915 73.92 216.875 73.92 91.072 0 162.411-24.491 216.704-73.109 54.72-48.597 81.963-116.779 81.963-201.728 0-107.392-50.219-194.795-150.464-258.496h150.464v-85.333z" />
</svg>