<svg width="24" height="24" viewBox="0 0 1000 1000">
  <path d="M223.808 156.416c0-36.864 29.931-66.816 66.965-66.816 36.843 0 66.773 29.973 66.773 66.816 0 37.013-29.931 66.965-66.773 66.965-37.035 0-66.965-29.952-66.965-66.965zM528.512 156.416c0-36.864 29.973-66.816 66.965-66.816 36.907 0 66.816 29.973 66.816 66.816 0 37.013-29.931 66.965-66.816 66.965-36.992 0-66.965-29.952-66.965-66.965zM692.267 276.352c0 0 12.096 21.397 32.277 45.931 0 0 19.243 22.464 23.381 26.816 0 0 53.397 56.149 64.853 68.267 0 0 51.563 47.893 48.128 83.179 0 0-0.917 27.947-62.336 40.107 0 0-50.197 10.539-112.939 11.456 0 0-54.315 1.579-59.349 0.917 0 0-163.861-1.92-205.376 4.8 0 0-113.621 8.576-182.379 33.323 0 0-80.128 25.344-130.133 76.373 0 0-21.995 24.427-35.755 46.4 0 0-18.965 31.787-29.973 49.813 0 0 30.891-30.571 32.363-31.488 0 0 41.259-37.269 87.083-57.408 0 0 41.259-23.211 138.155-38.208 0 0 77.269-11.925 163.072-14.059 0 0 151.573-5.205 176.597-3.669 0 0 129.856 0.299 163.435-1.835 0 0 82.048-2.667 126.507-15.061 0 0 51.285-12.139 51.285-39.339 0 0 5.867-29.333-52.523-79.445 0 0-52.523-49.472-75.776-68.437 0 0-66.603-56.811-70.272-60.16 0.021 0.043-83.435-71.317-90.325-78.272z" />
</svg>