<svg width="24" height="24" viewBox="0 0 1000 1000">
  <path d="M938.667 427.67l-0.085 0.384c-0.832 211.435-191.467 382.635-426.581 382.635-235.648 0-426.667-171.925-426.667-384 0-207.744 183.445-376.533 412.437-383.36v-0.64h248.896c35.349 0 64 28.651 64 64 0 35.328-28.651 64-64 64h-21.333c-47.125 0-85.333 38.208-85.333 85.333s38.208 85.333 85.333 85.333h170.667c15.424 0 28.821 8.256 36.288 20.501 3.968 6.485 6.379 14.016 6.379 22.165 0 1.003-0.363 1.899-0.448 2.88 0.107 0.725 0.448 1.365 0.448 2.133v38.635zM277.333 256c-35.349 0-64 28.651-64 64 0 35.328 28.651 64 64 64s64-28.672 64-64c0-35.349-28.651-64-64-64zM277.333 469.334c-35.349 0-64 28.672-64 64 0 35.349 28.651 64 64 64 35.328 0 64-28.651 64-64 0-35.328-28.672-64-64-64zM490.667 597.334c-35.349 0-64 28.672-64 64 0 35.349 28.651 64 64 64 35.328 0 64-28.651 64-64 0-35.328-28.672-64-64-64zM704 469.334c-35.328 0-64 28.672-64 64 0 35.349 28.672 64 64 64 35.349 0 64-28.651 64-64 0-35.328-28.651-64-64-64z" />
</svg>