<svg width="24" height="24" viewBox="0 0 1000 1000">
  <path d="M682.667 640v-426.667c0-94.101-76.565-170.667-170.667-170.667s-170.667 76.565-170.667 170.667v490.667c0 58.816 47.851 106.667 106.667 106.667s106.667-47.851 106.667-106.667v-405.333c0-23.531-19.157-42.667-42.667-42.667s-42.667 19.136-42.667 42.667v341.333h-85.333v-341.333c0-70.592 57.408-128 128-128s128 57.408 128 128v405.333c0 105.856-86.123 192-192 192s-192-86.144-192-192v-490.667c0-141.163 114.837-256 256-256s256 114.859 256 256v426.667h-85.333z" />
</svg>