<svg width="24" height="24" viewBox="0 0 1000 1000">
  <path d="M154.325 308.011l124.907 93.141c0 0-43.008 41.899-43.008 116.565 0 74.709 101.397 201.557 266.283 201.557 164.843 0 279.509-100.267 279.509-209.749 0-109.44-88.107-152.427-136.171-156.501-48.171-4.117-77.888 0-117.803 16.384v242.453c0 0-67.563 19.456-160.725 2.048v-403.136c0 0 2.091-103.317-71.68-65.429l-42.005 17.365c0 0-3.029-39.893-3.029-66.496 0-26.581-19.499-92.075 120.789-96.171 140.331-4.075 185.365 168.789 166.912 240.427 0 0 130.069-33.771 217.429 15.36 87.317 49.088 182.933 115.947 182.933 276.907 0 160.981-162.496 320.576-446.443 320.576s-403.371-171.925-406.827-339.669c-2.752-130.944 68.928-205.632 68.928-205.632z" />
</svg>