<svg width="24" height="24" viewBox="0 0 1000 1000">
  <path d="M444.459 381.078c28.075 0 73.877 0 102.315 0 92.459 0 209.792 94.208 232.171 178.325 7.104 33.024 13.184 82.624 15.552 139.243 0 78.315-80.32 154.709-203.584 154.709-66.923 0-238.208 0-271.040 0s-54.443 0.085-65.131-39.083c-21.739-133.909-117.227-716.544-117.227-716.544l193.088-2.453c0 0 36.629 188.544 41.365 223.915 9.195 70.464 44.416 61.888 72.491 61.888zM811.712 639.488c-3.029-39.957-7.829-74.603-13.227-99.648-22.357-84.117-139.712-178.325-232.171-178.325-28.459 0-74.24 0-102.315 0-24.704 0-54.933 6.592-68.096-39.808-28.288-160.811-56.512-319.573-56.512-319.573l182.613-2.133c0 0 27.349 158.741 31.531 189.739 3.904 43.2 39.211 47.723 63.979 47.723s18.816 0 43.925 0c81.557 0 188.245 72.683 211.349 169.323 6.272 28.949 11.627 72.427 13.717 122.027-0.021 42.859-27.627 85.013-74.795 110.677z" />
</svg>