<svg width="24" height="24" viewBox="0 0 1000 1000">
  <path d="M896 725.334h-171.712c-49.024 76.843-134.443 128-231.68 128h-236.608v-128h-128v-85.333h128v-85.333h-128v-85.333h128v-469.333h85.333v298.667h151.275c114.325 0 212.565 70.549 254.144 170.667h149.248v85.333h-129.067c0.533 7.061 1.067 14.144 1.067 21.333 0 22.059-2.837 43.413-7.701 64h135.701v85.333zM341.333 768h151.275c45.12 0 86.571-16.021 119.211-42.667h-270.485v42.667zM492.608 384h-151.275v85.333h309.205c-34.155-51.413-92.181-85.333-157.931-85.333zM682.667 576c0-7.211-0.469-14.315-1.237-21.333h-340.096v85.333h330.24c7.061-20.053 11.093-41.536 11.093-64z" />
</svg>