<svg width="24" height="24" viewBox="0 0 1000 1000">
  <path d="M411.221 551.254c-17.067 0-29.013-1.707-34.987-2.56v-113.493c7.68-1.707 17.067-2.56 29.867-2.56 45.227 0 73.387 22.187 73.387 61.44 0 37.547-25.6 57.173-68.267 57.173zM511.915 853.334c-235.52 0-426.667-191.147-426.667-426.667s191.147-426.667 426.667-426.667 426.667 191.147 426.667 426.667-191.147 426.667-426.667 426.667zM511.061 419.84c-23.893-23.893-62.293-35.84-105.813-35.84-11.093 0-22.187 0.853-29.867 1.707v-125.44h-59.733v330.24c22.187 4.267 52.053 6.827 93.013 6.827 44.373 0 77.653-9.387 98.987-27.307 19.627-16.213 32.427-42.667 32.427-74.24s-10.24-58.027-29.013-75.947zM628.821 254.294c-29.013 0-55.467 6.827-73.387 17.067l11.947 45.227c13.653-8.533 40.107-17.067 62.293-17.067 26.453 0 38.4 11.093 38.4 26.453 0 16.213-10.24 24.747-39.253 34.987-46.933 16.213-66.56 41.813-66.56 69.973 0 42.667 34.987 75.947 91.307 75.947 26.453 0 50.347-6.827 64-14.507l-11.947-43.52c-10.24 5.973-29.867 13.653-51.2 13.653-22.187 0-33.28-10.24-33.28-25.6s11.093-23.040 41.813-33.28c43.52-16.213 64-38.4 64-74.24 0-43.52-34.133-75.093-98.133-75.093z" />
</svg>