<svg width="24" height="24" viewBox="0 0 1000 1000">
  <path d="M469.312 469.526c0-23.552-19.093-42.645-42.645-42.645s-42.645 19.093-42.645 42.645c0 23.552 19.093 42.645 42.645 42.645s42.645-19.093 42.645-42.645zM871.381 384.235h67.285v85.291h-67.285c-15.36 105.344-86.592 197.952-189.227 244.736-5.269 77.547-69.931 139.072-148.821 139.072-78.251 0-142.549-60.544-148.715-137.195-18.496-6.421-38.485-13.675-58.795-22.123-26.688 44.032-85.312 74.027-155.136 74.027v-85.291c38.443 0 66.496-13.76 78.635-27.968-38.037-24.64-71.403-56.661-90.923-99.968h-30.4c-23.552 0-42.667-19.093-42.667-42.645v-213.227c0-23.552 19.115-42.645 42.667-42.645h40.192c35.136-38.592 70.443-69.952 107.051-94.848l-47.723-71.403 70.955-47.381 51.925 77.675c55.573-23.531 115.371-34.603 182.933-34.603 49.664 0 97.515 12.224 141.056 33.216l50.603-76.181 71.083 47.189-49.707 74.837c66.411 54.763 113.152 133.184 125.013 219.435zM533.333 768.043c35.285 0 64-28.693 64-63.957 0-3.243-0.597-7.253-1.216-10.731h0.021c0-0.021 0-0.021-0.021-0.043-5.227-30.848-31.637-53.205-62.784-53.205s-57.557 22.357-62.784 53.205c0 0 0 0.021-0.021 0.043h0.021c-0.597 3.477-1.216 7.467-1.216 10.731 0 35.264 28.715 63.957 64 63.957zM219.52 326.934c-8.107 9.301-19.84 14.656-32.192 14.656h-16.661v127.936h17.813c19.456 0 36.459 13.163 41.323 31.979 18.155 70.272 99.371 104.64 172.885 130.581 0.192-0.341 0.427-0.619 0.597-0.96 2.837-5.099 5.973-10.005 9.365-14.699 0.704-0.96 1.451-1.877 2.176-2.837 3.093-4.075 6.379-7.979 9.856-11.691 0.683-0.725 1.301-1.472 1.984-2.197 3.989-4.096 8.256-7.936 12.693-11.541 1.024-0.832 2.069-1.6 3.115-2.411 4.075-3.136 8.299-6.101 12.693-8.811 0.683-0.427 1.323-0.896 2.027-1.301 4.949-2.923 10.091-5.525 15.36-7.872 1.259-0.555 2.539-1.088 3.819-1.6 5.035-2.069 10.176-3.947 15.467-5.483 0.469-0.128 0.939-0.32 1.408-0.448 5.675-1.579 11.499-2.709 17.408-3.627 1.429-0.213 2.859-0.405 4.288-0.576 6.037-0.747 12.117-1.259 18.347-1.259 6.080 0 12.053 0.491 17.963 1.195 1.472 0.171 2.944 0.384 4.395 0.597 5.803 0.875 11.541 1.963 17.109 3.477 0.021 0 0.064 0.021 0.085 0.021 5.611 1.536 11.051 3.499 16.405 5.675 1.323 0.533 2.645 1.088 3.947 1.664 5.205 2.283 10.325 4.757 15.211 7.616 0.043 0.021 0.085 0.043 0.128 0.064 4.928 2.88 9.621 6.144 14.187 9.557 1.131 0.853 2.219 1.707 3.328 2.581 4.416 3.52 8.683 7.189 12.672 11.179 0.043 0.043 0.085 0.085 0.128 0.128 4.032 4.032 7.723 8.384 11.285 12.885 0.875 1.109 1.728 2.219 2.56 3.349 3.371 4.523 6.571 9.195 9.429 14.123 0.043 0.064 0.107 0.128 0.149 0.213 77.355-41.6 127.019-118.72 127.019-202.219 0-136.299-119.616-255.872-256-255.872-128.149 0-216.128 43.712-313.771 155.925z" />
</svg>