<svg width="24" height="24" viewBox="0 0 1000 1000">
  <path d="M304.256 365.995l11.115 39.339c0 0 5.184 18.581-5.504 31.168 0 0-33.045 42.347-33.045 100.971 0 58.667 40.043 231.595 246.379 231.595 0 0 198.976 7.424 198.976-195.243 0 0 0.832-182.571-102.4-238.272-103.189-55.659-146.24 47.531-126.208 99.499 20.053 51.947 42.368 129.899 39.36 160.341-3.008 30.421-16.341 69.739-67.541 68.267-51.243-1.451-98.795-59.371-95.040-127.68 0 0 3.712-46.016 17.131-73.472l-59.435-259.093c0 0-11.157-47.488-11.861-77.205-0.789-29.675 5.141-111.339 5.141-111.339s0-14.080 5.227-14.848c5.184-0.747 17.045 11.136 26.027 25.237 8.939 14.123 54.869 69.056 77.141 161.856l27.499 107.627c0 0 46.059-60.885 121.024-59.392 74.944 1.451 171.84 34.901 223.104 149.205 51.2 114.325 41.152 186.688 41.152 186.688s-11.157 293.952-329.621 281.707c-319.808-12.288-331.712-298.411-331.712-298.411s-11.2-138.091 96.747-193.792c-0.043 0.021 22.272-9.003 26.347 5.248z" />
</svg>