<svg width="24" height="24" viewBox="0 0 1000 1000">
  <path d="M512 853.334c-235.264 0-426.667-191.403-426.667-426.667s191.403-426.667 426.667-426.667c235.264 0 426.667 191.403 426.667 426.667s-191.403 426.667-426.667 426.667zM510.677 640c70.699 0 128-57.323 128-128 0-70.699-57.301-128-128-128s-128 57.301-128 128c0 70.677 57.301 128 128 128zM768.597 202.304c-62.421-72.512-153.664-118.763-256.597-118.763-102.656 0-194.411 45.781-256.896 117.931 0.128 0.235 0.299 0.448 0.448 0.683 0.021-0.021 0.021-0.021 0.043-0.043 54.869 83.755 149.035 139.221 256.405 139.221 107.349 0 201.685-55.339 256.597-139.029-0.085 0.213 0.448 0.235 0.363 0.448 0.107-0.192-0.448-0.213-0.363-0.448z" />
</svg>