<svg width="24" height="24" viewBox="0 0 1000 1000">
  <path d="M352 682.667c0 53.013-42.987 96-96 96s-96-42.987-96-96c0-37.611 21.845-69.824 53.333-85.568v-340.843c-31.488-15.744-53.333-47.979-53.333-85.589 0-53.013 42.987-96 96-96s96 42.987 96 96c0 37.611-21.845 69.824-53.333 85.589v340.843c31.488 15.744 53.333 47.957 53.333 85.568zM810.667 256.256v426.411c0 23.552-19.115 42.667-42.667 42.667h-170.667v85.333l-170.667-128 170.667-128v85.333h128v-383.744c-31.488-15.744-53.333-47.979-53.333-85.589 0-53.013 42.987-96 96-96s96 42.987 96 96c0 37.611-21.845 69.824-53.333 85.589z" />
</svg>