<svg width="24" height="24" viewBox="0 0 1000 1000">
  <path d="M816.64 640c67.392 0 122.027-54.635 122.027-122.027v0-161.28c0-67.392-54.635-122.027-122.027-122.027v0h-304.64c0-16.64 13.653-40.96 30.293-40.96h183.040v-71.68c0-67.392-54.635-122.027-122.027-122.027v0h-182.613c-67.392 0-122.027 54.635-122.027 122.027v0 160c0 67.413 54.613 121.6 122.027 121.6h224c67.413 0 121.6 54.613 121.6 122.027v114.347h50.347zM634.027 136.96c-17.067 0-30.72-12.8-30.72-37.973s13.653-30.293 30.72-30.293c16.725 0 30.293 13.568 30.293 30.293 0 25.173-13.653 37.973-30.293 37.973zM207.36 213.334c-67.413 0-122.027 54.613-122.027 122.027v161.28c0 67.413 54.613 122.027 122.027 122.027h304.64c0 16.64-13.653 40.96-30.293 40.96h-183.040v71.68c0 67.413 54.613 122.027 122.027 122.027h182.613c67.413 0 122.027-54.613 122.027-122.027v-160c0-67.413-54.613-121.6-122.027-121.6h-224c-67.413 0-121.6-54.613-121.6-122.027v-114.347h-50.347zM389.973 716.374c17.067 0 30.72 12.8 30.72 37.973s-13.653 30.293-30.72 30.293c-16.64 0-30.293-5.12-30.293-30.293s13.653-37.973 30.293-37.973z" />
</svg>