<svg width="24" height="24" viewBox="0 0 1000 1000">
  <path d="M213.909 469.526c-2.539 6.037-3.819 14.272-3.819 24.768 0 6.357 1.749 14.123 5.248 23.339 3.499 9.195 7.296 16.341 11.435 21.419-0.32 6.976 0.875 15.403 3.563 25.237s6.272 16.661 10.709 20.48c0 44.139 14.677 89.92 44.053 137.387s63.893 80.725 103.573 99.776c44.117 20.949 95.552 31.424 154.283 31.424 42.219 0 84.437-8.725 126.677-26.197 15.552-6.677 29.845-14.272 42.859-22.848s24.277-17.472 33.813-26.667c9.515-9.216 18.261-20.011 26.197-32.384s14.613-24.128 20.011-35.243c5.397-11.115 10.56-24.533 15.467-40.235s8.96-29.909 12.139-42.624c3.179-12.693 6.677-28.245 10.475-46.677l0.469-2.389c17.451-26.347 26.197-50.155 26.197-71.424 0-4.437-1.429-10.795-4.288-19.051s-4.288-14.293-4.288-18.091c0-0.32 0.235-0.875 0.725-1.664 0.469-0.789 1.024-1.579 1.664-2.389 0.64-0.789 0.96-1.344 0.96-1.664 24.448-36.181 43.563-70.229 57.387-102.144 13.803-31.915 20.715-65.003 20.715-99.285 0-13.653-3.093-29.525-9.28-47.616s-14.997-27.136-26.432-27.136c-2.859 0-5.952 1.195-9.28 3.563-3.328 2.389-6.357 5.163-9.045 8.341-2.709 3.179-5.717 7.296-9.045 12.373s-5.867 9.28-7.616 12.629-3.883 7.467-6.421 12.373c-2.539 4.907-3.968 7.701-4.288 8.341-0.32 0.32-0.789 0.469-1.429 0.469l-2.389-1.899c-18.731-48.896-39.68-84.288-62.848-106.197 6.357-6.357 16.107-12.459 29.291-18.325s24.128-12.459 32.853-19.755c8.725-7.296 14.357-17.621 16.896-30.955-0.64-1.28-1.28-3.819-1.899-7.616-0.64-3.819-1.749-6.677-3.328-8.576-20.309-30.784-68.245-46.187-143.808-46.187-16.832 0-34.368 1.429-52.608 4.288-18.261 2.859-33.813 6.037-46.677 9.536s-29.44 8.256-49.771 14.293c-4.757 1.579-8.405 2.688-10.944 3.328-4.437 1.28-11.755 1.984-21.909 2.133-10.155 0.171-16.512 0.405-19.051 0.704-13.013-14.272-33.259-24.597-60.715-30.955s-54.208-9.536-80.235-9.536c-11.115 0-22.059 0.235-32.853 0.704s-25.557 1.899-44.288 4.288c-18.731 2.389-34.752 5.632-48.085 9.771s-25.152 10.475-35.477 19.051c-10.325 8.576-15.467 18.731-15.467 30.485 0 12.693 1.579 22.144 4.757 28.331s9.685 13.888 19.52 23.104c3.499 0.64 9.92 2.688 19.285 6.187s17.216 5.397 23.573 5.717c1.28 0 3.499 0.32 6.677 0.96 0.64 0.64 0.96 1.28 0.96 1.899l-0.96 1.429c-15.232 3.499-32.384 20.224-51.435 50.24-19.051 29.995-30.635 54.848-34.752 74.517l-2.389 1.429c-1.28 0-3.179-3.179-5.717-9.515-5.717-13.013-14.357-24.853-25.941-35.477s-23.893-16.576-36.907-17.856h-0.469c-1.28 0-2.219 0.704-2.859 2.133s-1.429 2.304-2.389 2.624c-7.296 17.131-10.944 33.024-10.944 47.616-0.085 87.275 39.915 161.259 119.915 221.888z" />
</svg>