<svg width="24" height="24" viewBox="0 0 1000 1000">
  <path d="M512 853.334c235.648 0 426.667-191.019 426.667-426.667 0-83.435-23.701-161.195-65.429-227.093l65.429-65.429v-86.763c0-26.176-21.227-47.403-47.403-47.403h-86.272l-65.899 65.429c-65.429-41.728-143.637-65.429-227.072-65.429-235.648 0-426.667 191.019-426.667 426.667s190.997 426.688 426.645 426.688zM512 663.702c-130.901 0-237.035-106.133-237.035-237.035s106.133-237.035 237.035-237.035c30.805 0 59.733 5.696 86.763 16.597l-136.533 136.533c-36.971 36.501-36.971 97.195 0 134.165s97.195 36.971 134.165 0l136.533-136.533c10.432 26.539 16.128 55.936 16.128 86.272-0.021 130.901-106.155 237.035-237.056 237.035z" />
</svg>