<svg width="24" height="24" viewBox="0 0 1000 1000">
  <path d="M760.043 628.843l58.581 62.080c-169.088 159.659-444.16 159.659-613.248 0l58.581-62.080c136.747 129.109 359.339 129.109 496.085 0zM316.565 585.963l58.581-62.080c75.456 71.232 198.229 71.253 273.728-0.021l58.539 62.123c-107.755 101.696-283.093 101.696-390.848-0.021zM853.333 384h-298.667v128h-85.333v-128h-298.667c-23.552 0-42.667-18.944-42.667-42.517v-256.128c0-23.573 19.115-42.688 42.667-42.688h682.667c23.552 0 42.667 19.115 42.667 42.688v256.128c0 23.573-19.115 42.517-42.667 42.517zM640 170.667h-85.333v85.333h85.333v-85.333zM768 170.667h-85.333v85.333h85.333v-85.333z" />
</svg>