<svg width="24" height="24" viewBox="0 0 1000 1000">
  <path d="M575.573 704.854c46.933 0 85.333 38.4 85.333 85.333s-38.4 85.333-85.333 85.333c-46.933 0-85.333-38.4-85.333-85.333s38.4-85.333 85.333-85.333zM421.973 111.787l42.667 187.733 89.6-85.333v-256h85.333v320l-89.6 85.333 25.6 128c55.467-64 140.8-106.667 234.667-106.667v85.333c-81.067 0-149.333 42.667-183.467 102.4l-42.667 68.267c-17.067 25.6-42.667 42.667-72.533 42.667-12.8 0-21.333-4.267-34.133-4.267l-221.867-93.867v-200.533h85.333v145.067l76.8 29.867-68.267-345.6-209.067 42.667-17.067-85.333 298.667-59.733z" />
</svg>