<svg width="24" height="24" viewBox="0 0 1000 1000">
  <path d="M725.333 810.667h-426.667l-170.667-255.979h768zM128 512.022v0-30.229c0-77.077 62.485-139.541 139.541-139.541 52.651 0 98.475 29.184 122.219 72.235 23.765-43.051 69.568-72.235 122.219-72.235s98.475 29.184 122.219 72.235c23.765-43.051 69.568-72.235 122.219-72.235 77.077 0 139.541 62.485 139.541 139.541v30.229h-767.957zM768 213.355h-512v86.805c-31.232 1.984-60.309 11.776-85.333 27.584v-285.056h682.667v285.035c-25.024-15.787-54.101-25.6-85.333-27.563v-86.805z" />
</svg>