<svg width="24" height="24" viewBox="0 0 1000 1000">
  <path d="M431.915 282.326c67.285 46.037 84.459 137.899 38.4 205.184l-121.856-83.307c-33.621-23.061-79.573-14.464-102.613 19.221-22.997 33.579-14.421 79.552 19.243 102.571l0.107 0.107 182.571 124.971c67.328 46.101 84.544 137.963 38.443 205.227l-304.299-208.363c-0.043-0.043-0.149-0.064-0.256-0.128-100.885-69.077-126.699-206.891-57.6-307.819 69.056-100.885 206.912-126.699 307.84-57.6v-0.064zM592.085 570.944v0l-0.107-0.064c-0.256-0.192-0.491-0.405-0.747-0.533l0.875 0.597c-67.328-46.059-84.501-137.941-38.4-205.205l121.771 83.413c33.664 23.083 79.573 14.485 102.613-19.179 22.997-33.6 14.421-79.552-19.243-102.613l-182.677-125.077c-67.328-46.101-84.544-137.899-38.443-205.205l304.533 208.491c100.885 69.077 126.741 206.891 57.643 307.776-69.077 100.928-206.933 126.699-307.819 57.6z" />
</svg>