<svg width="24" height="24" viewBox="0 0 1000 1000">
  <path d="M898.069 447.040c-3.285-2.347-6.613-4.608-9.877-6.784v330.133c0 45.909-34.496 82.944-76.928 82.944h-598.208c-42.411 0-76.864-37.013-76.864-82.944v-330.453c-3.413 2.283-6.827 4.629-10.325 7.104-25.451 17.771-42.091-6.485-26.453-29.611 30.379-37.227 88.213-83.563 176.789-119.936-93.781-319.552 228.992-370.368 224.043-206.485 0-3.029 0.213 92.971 0.341 161.152 8.491-2.027 15.872-3.989 22.741-5.696 0.171-67.669 0.341-158.443 0.341-155.456-4.949-163.904 318.037-113.088 223.957 206.485 88.704 36.373 146.624 82.709 177.003 119.936 15.573 23.125-1.088 47.381-26.56 29.611zM847.232 415.232c-114.923-62.123-213.952-51.328-267.755-49.643-39.381 2.005-54.037-14.933-56-41.131-9.493 6.741-19.243 14.805-29.163 24.021-1.664 1.557-3.2 2.88-4.8 4.203-8.661 9.131-22.912 14.059-45.163 12.907-52.949-1.621-149.739-12.096-262.549 46.997v320.405c0 58.005 14.741 76.203 67.883 76.203h529.365c50.411 0 68.16-21.653 68.16-76.203v-317.76zM637.419 597.184c-56.832 0-102.869-43.115-102.869-96.192 0-53.141 46.037-96.213 102.869-96.213 56.661 0 102.741 43.072 102.741 96.213 0 53.099-46.080 96.192-102.741 96.192zM500.821 500.992c0-53.125-45.999-96.192-102.741-96.192s-102.741 43.067-102.741 96.192c0 53.125 45.999 96.192 102.741 96.192s102.741-43.067 102.741-96.192z" />
</svg>