<svg width="24" height="24" viewBox="0 0 1000 1000">
  <path d="M81.387 426.027c0 0-7.723-86.165-7.723-101.077 0-14.848 7.723-92.693 8.341-98.048 0.533-5.355 1.749-17.237 5.333-17.237s7.125 11.307 7.723 19.605c0 0 8.299 67.733 8.299 98.069s-8.875 99.84-8.875 99.84-1.216 10.688-5.931 10.688c-4.8 0.021-5.995-7.125-7.168-11.84zM40.363 410.496c0 0-7.659-70.656-7.659-85.568 0-14.848 7.659-76.672 8.299-81.984 0.576-5.355 1.792-17.237 5.333-17.237 3.584 0 7.125 11.285 7.765 19.584 0 0 8.299 51.712 8.299 82.048s-8.917 84.395-8.917 84.395-1.173 10.688-5.867 10.688c-4.843 0-6.059-7.083-7.253-11.925zM5.291 378.048c0 0-5.291-38.4-5.291-48.683 0-10.197 5.291-52.651 5.717-56.277 0.341-3.691 1.173-11.819 3.648-11.819 2.432 0 4.907 7.723 5.333 13.461 0 0 5.717 35.499 5.717 56.341 0 20.779-6.165 47.787-6.165 47.787s-0.832 7.275-4.075 7.275c-3.285 0-4.117-4.864-4.885-8.085zM121.792 430.144c0 0-7.659-90.283-7.659-105.195 0-14.848 7.659-97.451 8.235-102.827 0.576-5.312 1.835-17.216 5.376-17.216s7.125 11.285 7.701 19.584c0 0 8.341 72.512 8.341 102.848s-8.917 104-8.917 104-1.152 10.688-5.909 10.688c-4.736 0-5.909-7.147-7.168-11.883zM163.413 423.595c0 0-7.701-83.755-7.701-98.667 0-14.848 7.701-97.451 8.341-102.827 0.533-5.312 1.749-17.216 5.333-17.216 3.541 0 7.125 11.285 7.701 19.584 0 0 8.341 72.512 8.341 102.848s-8.917 97.451-8.917 97.451-1.152 10.752-5.909 10.752c-4.821 0-6.037-7.147-7.189-11.925zM205.013 490.774c0 0-7.659-133.099-7.659-148.011 0-14.848 7.659-115.264 8.256-120.661 0.64-5.312 1.835-17.216 5.376-17.216s7.125 11.285 7.701 19.584c0 0 8.299 90.325 8.299 120.619 0 30.379-8.875 146.88-8.875 146.88s-1.152 10.688-5.973 10.688c-4.693 0.021-5.909-7.104-7.125-11.883zM236.544 364.182c0 0 5.909 125.995 7.083 140.864 1.216 14.891 1.835 34.496 8.341 34.496 6.592 0 10.667-13.056 10.667-33.877s4.8-114.688 4.8-138.496c0-23.744-1.173-113.493-3.008-135.531-1.792-21.973-4.693-27.328-10.667-27.328s-9.515 23.211-10.133 32.107c-0.576 8.875-5.909 96.235-7.083 127.765zM277.525 368.96c0 0 5.909 140.821 7.125 155.691 1.152 14.869 1.792 34.475 8.341 34.475s10.667-13.056 10.667-33.835c0-20.843 4.8-129.6 4.8-153.344 0-23.808-1.216-120.085-3.008-142.037-1.792-22.016-4.693-24.427-10.709-24.427-5.931 0-9.515 20.224-10.091 29.141-0.576 8.896-5.909 102.848-7.125 134.336zM322.112 368.96c0 0 3.008 140.821 4.16 155.691 1.173 14.869 4.757 39.829 11.307 39.829s11.243-19.008 11.243-39.829c0-20.779 4.224-128.96 4.224-152.704 0-23.808-1.216-114.752-3.008-136.789-1.749-21.952-5.931-29.675-11.883-29.675s-10.091 22.016-10.709 30.869c-0.576 8.939-4.181 101.12-5.333 132.608zM380.352 561.472c9.515 0 11.883-13.632 11.883-20.181 0-6.507 3.541-123.051 3.541-147.968 0-25.024 1.792-129.6-5.333-174.165 0 0-0.576-15.445-10.091-15.445s-11.883 10.709-12.501 16.064c-0.533 5.312-4.117 164.651-4.117 178.88 0 14.293 4.757 126.656 4.757 136.107 0 9.536 1.792 26.709 11.861 26.709zM406.507 398.635c0 0 4.181 107.584 4.757 134.912 0 0 0.576 20.843 10.709 20.843 10.091 0 13.675-13.099 13.675-20.843 0 0 4.117-100.437 4.117-155.136 0-54.656-2.901-141.44-5.333-155.691-2.389-14.229-6.592-18.432-12.459-18.432-5.909 0-12.459 13.099-12.459 24.427 0 11.264-3.584 138.432-3.008 169.92zM467.136 595.947c8.917 0 12.501-11.285 12.501-19.584 0-8.32 3.499-123.029 3.499-165.227s-1.152-169.387-4.693-188.437c-3.541-19.008-7.125-19.008-11.307-19.008s-14.848 6.549-14.848 23.189-3.008 149.781-3.008 190.805c0 41.003 3.584 147.968 3.584 155.093 0.021 7.168 4.181 23.168 14.272 23.168zM527.189 389.76c0 0-2.325 173.525-2.325 185.984s0.491 43.392-14.933 43.392c-15.467 0-16-34.453-16-46.336 0-11.861-4.16-155.755-4.16-200.853 0-45.184 5.333-138.496 5.333-148.053 0-9.472 4.181-18.987 14.251-18.987 10.133 0 14.848 8.32 14.848 21.995-0.021 13.696 4.139 131.307 2.987 162.859zM534.933 622.144v-402.389c0 0 0.533-17.237 17.173-17.237s357.227 0 357.227 0 114.667 14.869 114.667 131.925c0 117.077-127.765 137.301-175.872 112.981 0 0 0.533 111.125-109.952 173.525-110.592 62.379-202.709 8.896-203.243 1.195z" />
</svg>