<svg width="24" height="24" viewBox="0 0 1000 1000">
  <path d="M364.8 426.667c-45.653 30.293-96 54.187-150.613 68.693 54.613-14.507 104.96-38.4 150.613-68.693zM809.813 495.36c-55.040-14.507-106.24-38.827-152.32-69.973 46.080 31.147 97.28 55.467 152.32 69.973zM660.907 527.787c-7.68 119.040-55.893 235.093-146.347 325.547-91.307-91.307-141.653-207.36-151.467-325.547 54.613-29.013 104.96-66.56 148.907-112.213 43.947 45.227 94.293 82.773 148.907 112.213zM383.573 414.72c-5.973 4.267-12.8 8.107-19.2 12.373 6.4-4.693 13.227-8.107 19.2-12.373zM657.493 425.387c-5.547-3.84-11.52-6.827-17.067-11.093 5.547 4.267 11.52 7.253 17.067 11.093zM512 279.467c-91.733 139.947-248.32 232.533-426.667 232.533 0-226.987 143.36-418.987 342.613-490.24 26.88-9.813 55.040-17.067 84.053-21.76 29.013 5.12 56.747 12.373 84.053 21.76 199.253 71.253 342.613 263.253 342.613 490.24-178.347 0-334.933-92.587-426.667-232.533z" />
</svg>