<svg width="24" height="24" viewBox="0 0 1000 1000">
  <path d="M711.445 252.224c0 11.84-5.547 21.291-16.661 28.331-71.488 42.581-154.261 63.893-248.341 63.893-49.259 0-102.4-6.293-159.445-18.88-15.552-3.328-23.339-12.971-23.339-28.885 0-7.403 2.496-13.803 7.509-19.157s11.584-8.064 19.712-8.064c1.856 0 8.704 1.493 20.565 4.437 48.896 10.005 93.888 14.997 134.997 14.997 83.712 0 157.227-19.072 220.565-57.216 7.040-4.075 13.141-6.101 18.325-6.101 7.040 0 13.141 2.496 18.325 7.509s7.787 11.349 7.787 19.136zM764.779 371.67c0 14.805-6.485 26.112-19.435 33.899-87.787 52.224-189.269 78.336-304.448 78.336-56.661 0-112.768-7.787-168.341-23.339-17.771-4.821-26.667-16.661-26.667-35.563 0-9.259 3.243-17.131 9.728-23.616s14.357-9.728 23.616-9.728c2.603 0 9.451 1.472 20.565 4.437 45.184 12.224 91.669 18.325 139.435 18.325 103.339 0 193.707-22.955 271.104-68.885 8.896-4.821 15.936-7.232 21.12-7.232 9.259 0 17.131 3.243 23.616 9.728 6.464 6.507 9.707 14.379 9.707 23.637zM824.768 509.44c0 17.408-7.403 30.379-22.229 38.891-46.677 27.029-100.928 47.509-162.773 61.397s-125.376 20.843-190.549 20.843c-75.563 0-142.955-8.704-202.219-26.112-8.512-2.581-15.659-7.317-21.397-14.165s-8.619-15.829-8.619-26.944c0-11.477 3.797-21.12 11.392-28.885 7.595-7.787 17.131-11.669 28.608-11.669 4.075 0 11.477 1.493 22.229 4.437 49.259 13.696 106.112 20.544 170.56 20.544 58.88 0 116.203-6.293 171.947-18.88s102.677-30.187 140.843-52.779c7.787-4.437 15.189-6.677 22.229-6.677 10.731 0 20.096 3.797 28.053 11.392s11.925 17.131 11.925 28.608zM938.667 426.667c0-77.397-19.072-148.8-57.216-214.165s-89.899-117.12-155.285-155.285c-65.365-38.144-136.768-57.216-214.165-57.216s-148.8 19.072-214.165 57.216c-65.365 38.144-117.12 89.899-155.285 155.285s-57.216 136.768-57.216 214.165 19.072 148.8 57.216 214.165 89.899 117.12 155.285 155.285c65.365 38.144 136.768 57.216 214.165 57.216s148.8-19.072 214.165-57.216c65.365-38.144 117.12-89.899 155.285-155.285s57.216-136.768 57.216-214.165z" />
</svg>