<svg width="24" height="24" viewBox="0 0 1000 1000">
  <path d="M741.141-0c-14.571 0-28.757 4.053-41.067 11.691l-188.053 114.603-188.416-114.816c-25.557-15.723-60.203-14.869-85.227 2.453-25.429 17.387-38.037 48.405-31.872 78.848l44.011 217.963-160.043 139.989c-22.741 19.691-31.936 51.221-23.275 80.149 8.533 28.587 33.259 50.027 62.955 54.528l223.104 33.749 88.171 189.205c12.608 27.285 40.384 44.971 70.677 44.971 30.229 0 57.984-17.643 70.72-44.971l88.128-189.205 223.061-33.749c29.547-4.416 54.229-25.835 62.827-54.528 8.555-29.013-0.64-60.437-23.381-80.213l-159.957-139.925 44.011-218.005c6.293-30.187-6.272-61.291-32.064-78.955-13.013-8.96-28.395-13.781-44.309-13.781zM159.339 503.723l166.037-145.216c11.477-10.048 16.704-25.451 13.696-40.405l-45.44-225.152 196.16 119.552c13.653 8.32 30.827 8.32 44.501 0l196.139-119.552-45.44 225.152c-3.029 14.933 2.219 30.336 13.696 40.405l166.059 145.237-229.205 34.688c-14.144 2.133-26.283 11.2-32.299 24.149l-91.093 195.563-91.136-195.563c-6.016-12.949-18.155-22.016-32.299-24.149l-229.376-34.709z" />
</svg>