<svg width="24" height="24" viewBox="0 0 1000 1000">
  <path d="M904 606.102c0-38.485-13.611-71.339-40.853-98.581s-60.096-40.853-98.581-40.853c-38.485 0-71.339 13.611-98.581 40.853s-40.853 60.096-40.853 98.581 13.611 71.339 40.853 98.581 60.096 40.853 98.581 40.853c38.485 0 71.339-13.611 98.581-40.853 27.243-27.264 40.853-60.117 40.853-98.581zM464 182.102c0 39.616-13.909 73.344-41.707 101.141-27.819 27.819-61.525 41.707-101.141 41.707-10.283 0-20.565-1.131-30.848-3.435l59.435-24c29.333-11.797 50.197-32.085 62.571-60.864 12.373-28.757 12.672-57.621 0.853-86.571-11.819-29.333-32.192-50.091-61.141-62.272-28.949-12.203-57.899-12.395-86.848-0.576-8 3.051-19.819 7.701-35.435 13.995-15.616 6.272-27.243 10.944-34.859 13.995 12.181-22.848 29.525-41.237 52.011-55.147s47.232-20.864 74.283-20.864c39.616 0 73.344 13.909 101.141 41.707 27.776 27.84 41.685 61.568 41.685 101.184zM938.283 605.526c0 48-17.045 89.045-51.136 123.136s-75.136 51.136-123.136 51.136c-48.384 0-89.621-17.045-123.712-51.136s-51.136-75.136-51.136-123.136c0-48.384 17.045-89.515 51.136-123.435s75.328-50.859 123.712-50.859c48 0 89.045 16.939 123.136 50.859s51.136 75.051 51.136 123.435zM1024 605.526c0-72-25.429-133.333-76.288-184s-112.085-76.011-183.723-76.011l-249.707-182.272c-4.565-49.152-25.323-90.667-62.293-124.565-36.949-33.899-80.576-50.859-130.859-50.859-46.101 0-86.848 14.464-122.283 43.435-35.435 28.949-57.899 65.515-67.435 109.717l-131.435 52.565v245.141l222.293-89.728c30.101 18.283 63.040 27.435 98.859 27.435 4.949 0 11.627-0.384 20.011-1.152l162.283 232.576c0.768 71.232 26.581 132.011 77.419 182.272 50.859 50.283 111.915 75.435 183.147 75.435 71.616 0 132.864-25.429 183.723-76.288 50.859-50.837 76.288-112.085 76.288-183.701z" />
</svg>