<svg width="24" height="24" viewBox="0 0 1000 1000">
  <path d="M256 128h512v-85.333h-512v85.333zM576 597.334c-58.816 0-106.667-47.851-106.667-106.667s47.851-106.667 106.667-106.667 106.667 47.851 106.667 106.667-47.851 106.667-106.667 106.667zM810.667 810.667h-597.333c-23.552 0-42.667-19.115-42.667-42.667v-42.667h-42.667v-85.333h42.667v-298.667h-42.667v-85.333h42.667v-42.667c0-23.552 19.115-42.667 42.667-42.667h597.333c23.552 0 42.667 19.115 42.667 42.667v554.667c0 23.552-19.115 42.667-42.667 42.667zM576 298.667c-105.877 0-192 86.123-192 192s86.123 192 192 192 192-86.123 192-192-86.123-192-192-192z" />
</svg>