<svg width="24" height="24" viewBox="0 0 1000 1000">
  <path d="M512 853.334c-235.648 0-426.667-191.019-426.667-426.667s191.019-426.667 426.667-426.667 426.667 191.019 426.667 426.667-191.019 426.667-426.667 426.667zM509.461 535.531c0 0-24.704-5.931-24.704-28.501v-169.216c0 0-5.888-97.771-110.123-104.747 0 0-74.155-8.085-110.677 71.445 0 0-8.043 23.083-8.043 41.344l0.533 72.555h87.552v-73.621c0 0 5.376-24.704 25.237-24.704 19.904 0 27.947 17.728 27.947 22.016v166.037c0 0-5.376 44.053 41.344 87.573 46.763 43.499 132.203 34.368 167.104-22.016 0 0 20.459-24.171 20.459-63.403v-33.856l-53.205-16.107-33.813 16.661v29.525c0-0.021-0.597 29.013-29.611 29.013zM767.915 338.902c0 0-5.397-104.789-116.629-108.544 0 0-58.005-4.309-93.995 53.205 0 0-17.728 25.771-17.728 58.517v74.667l33.877-15.531 53.675 15.040v-72.533c0 0 1.643-25.792 26.347-25.792s25.771 23.104 25.771 23.104v74.112h88.683v-76.245z" />
</svg>