<svg width="24" height="24" viewBox="0 0 1000 1000">
  <path d="M768 426.667c0 141.163-114.837 256-256 256s-256-114.837-256-256h-170.667v-85.333h853.333v85.333h-170.667zM341.333 426.667c0 94.101 76.565 170.667 170.667 170.667s170.667-76.565 170.667-170.667h-341.333zM170.667 256h682.667v-85.333h-682.667v85.333zM256 85.334h512v-85.333h-512v85.333zM861.538 696.798l42.581-73.95-110.925-63.872-42.581 73.95 110.925 63.872zM164.14 697.826l110.925-63.872-42.581-73.95-110.925 63.872 42.581 73.95zM469.333 853.334h85.333v-128h-85.333v128z" />
</svg>