<svg width="24" height="24" viewBox="0 0 1000 1000">
  <path d="M615.488 582.336c0-27.328-9.728-50.624-29.205-69.931s-42.688-28.949-69.675-28.949c-20.501 0-39.445 5.973-56.875 17.941-21.184-22.891-40.811-47.808-58.923-74.795-84.352-126.699-118.848-273.387-103.488-440.064 0.341-7.509-1.792-14.080-6.4-19.733s-10.496-8.789-17.664-9.472h-2.56c-6.827 0-12.8 2.304-17.92 6.912s-8.021 10.325-8.704 17.152c-4.779 43.029-5.376 85.291-1.792 126.784s8.619 78.549 15.104 111.168c6.485 32.619 15.701 64.384 27.669 95.296 11.947 30.912 23.744 57.472 35.349 79.659 11.605 22.208 24.256 43.541 37.909 64.043 20.843 30.741 43.371 58.923 67.627 84.523-5.461 11.947-8.192 25.109-8.192 39.445 0 27.328 9.643 50.645 28.949 69.931 19.307 19.307 42.603 28.949 69.931 28.949s50.624-9.643 69.931-28.949c19.264-19.285 28.928-42.603 28.928-69.909zM810.667 576.683c0-53.952-13.312-103.829-39.957-149.589s-62.933-81.963-108.864-108.608c-45.931-26.645-95.893-39.957-149.845-39.957-21.867 0-44.224 2.389-67.115 7.168-7.168 1.707-12.715 5.717-16.64 12.032s-5.035 13.077-3.328 20.245c1.707 6.827 5.632 12.203 11.776 16.128s12.8 5.205 19.989 3.84c17.408-4.437 35.861-6.656 55.339-6.656 33.131 0 64.896 6.485 95.296 19.477 30.4 12.971 56.533 30.4 78.379 52.245 21.867 21.867 39.275 47.979 52.245 78.379s19.477 62.165 19.477 95.296c0 33.131-6.485 64.896-19.477 95.296-12.971 30.4-30.4 56.533-52.245 78.379-21.867 21.845-47.979 39.275-78.379 52.245s-62.165 19.477-95.296 19.477-64.896-6.485-95.296-19.477c-30.4-12.971-56.533-30.4-78.379-52.245-21.867-21.867-39.275-47.979-52.245-78.379s-19.477-62.165-19.477-95.296c0-38.933 8.875-76.16 26.645-111.68 3.413-6.827 4.011-13.653 1.792-20.48s-6.571-11.968-13.056-15.36c-6.485-3.413-13.227-3.925-20.245-1.536s-12.203 6.827-15.616 13.312c-21.867 42.005-32.789 87.253-32.789 135.765 0 40.64 7.936 79.403 23.829 116.288s37.141 68.651 63.787 95.296c26.645 26.645 58.411 47.808 95.296 63.531 36.885 15.701 75.477 23.552 115.776 23.552 53.952 0 103.915-13.312 149.845-39.957s82.219-62.933 108.864-108.864c26.603-45.952 39.915-95.893 39.915-149.867z" />
</svg>