<svg width="24" height="24" viewBox="0 0 1000 1000">
  <path d="M896 373.419c0 41.152-33.323 74.475-74.453 74.581 41.152 0.107 74.453 33.451 74.453 74.581 0 41.237-44.096 74.752-85.333 74.752h-298.667c97.323 195.435-0.384 256-0.384 256l-258.24-298.411h-125.376v-469.312l384.256-85.611 266.453 0.341c41.237 0 74.709 33.387 74.709 74.624 0 41.152-33.344 74.475-74.496 74.603h42.389c41.259 0 74.688 33.387 74.688 74.603s-33.429 74.624-74.688 74.624h0.021c41.259 0 74.667 33.408 74.667 74.624z" />
</svg>