<svg width="24" height="24" viewBox="0 0 1000 1000">
  <path d="M426.667 768c0-47.128-38.205-85.333-85.333-85.333s-85.333 38.205-85.333 85.333c0 47.128 38.205 85.333 85.333 85.333s85.333-38.205 85.333-85.333zM768 768c0-47.128-38.205-85.333-85.333-85.333s-85.333 38.205-85.333 85.333c0 47.128 38.205 85.333 85.333 85.333s85.333-38.205 85.333-85.333zM810.667 554.667c0 0-19.115 80.875-85.333 85.333h-85.333c-66.24-4.459-85.333-85.333-85.333-85.333l-42.667-128v128c0 47.125-38.208 85.333-85.333 85.333h-170.667c-47.125 0-85.333-38.208-85.333-85.333v-256h85.333l42.667-298.667h85.333l42.667 298.667h170.667l42.667-298.667h85.333l42.667 298.667h128l-85.333 256z" />
</svg>