<svg width="24" height="24" viewBox="0 0 1000 1000">
  <path d="M384 459.094v159.573c0 58.88 47.787 106.667 106.667 106.667s106.667-47.787 106.667-106.667v-159.573c51.627 34.56 85.333 93.013 85.333 159.573 0 106.24-85.76 192-192 192s-192-85.76-192-192c0-66.56 33.707-125.013 85.333-159.573zM803.84 261.547l-193.707 96.427c-7.253 2.987-14.933 4.693-23.040 4.693h-32.427v256c0 35.413-28.587 64-64 64s-64-28.587-64-64v-458.24l-146.347 30.72c-3.413 0.427-6.4 1.28-10.24 1.28-13.227 0-25.173-5.547-33.707-14.080l-33.707-34.133 210.773-210.773c11.52-11.52 27.733-18.773 45.227-18.773h289.707c32 0 56.747 23.467 61.44 54.613l32 224.853c0.427 2.987 0.853 5.973 0.853 8.533 0 26.453-16.213 49.493-38.827 58.88z" />
</svg>