<svg width="24" height="24" viewBox="0 0 1000 1000">
  <path d="M105.813 506.411c-44.053 0-79.744-35.691-79.744-79.765 0-44.032 35.691-79.744 79.744-79.744 44.032 0 79.744 35.712 79.744 79.744 0 44.075-35.691 79.765-79.744 79.765zM675.221 143.958c-38.144-22.016-51.2-70.784-29.184-108.907 22.016-38.144 70.784-51.2 108.928-29.184 38.123 22.016 51.2 70.763 29.184 108.907-22.037 38.123-70.784 51.2-108.928 29.184zM279.040 426.667c0 78.805 39.168 148.437 99.051 190.592l-58.304 97.664c-69.803-46.635-121.707-117.909-143.275-201.408 25.195-20.544 41.28-51.797 41.28-86.848s-16.085-66.304-41.28-86.848c21.568-83.499 73.472-154.773 143.275-201.408l58.304 97.664c-59.883 42.155-99.051 111.765-99.051 190.592zM512 659.627c121.707 0 221.525-93.312 232-212.288l113.664 1.664c-5.589 87.851-43.968 166.741-102.933 224.704-30.315-11.456-65.344-9.728-95.616 7.765-30.315 17.493-49.323 47.019-54.549 79.061-29.461 8.149-60.48 12.608-92.544 12.608-55.147 0-107.264-12.949-153.536-35.883l55.403-99.285c29.803 13.845 63.040 21.653 98.112 21.653zM512 193.707c-35.072 0-68.309 7.787-98.133 21.675l-55.403-99.307c46.293-22.912 98.389-35.861 153.557-35.861 32.064 0 63.083 4.437 92.565 12.608 5.205 32.043 24.235 61.547 54.549 79.061 30.272 17.472 65.301 19.2 95.616 7.744 58.965 57.984 97.344 136.875 102.933 224.704l-113.664 1.664c-10.475-118.997-110.315-212.288-232.021-212.288zM675.221 709.376c38.144-22.016 86.891-8.96 108.907 29.163 22.016 38.144 8.96 86.891-29.184 108.928-38.144 22.016-86.891 8.96-108.907-29.184-22.016-38.123-8.96-86.891 29.184-108.907z" />
</svg>