<svg width="24" height="24" viewBox="0 0 1000 1000">
  <path d="M640 640v-170.667h42.667v-85.333h-128v341.333h85.333l-128 170.667-128-170.667h85.333v-341.333h-128v88.32c29.867 15.787 51.2 46.080 51.2 82.347 0 51.627-42.24 93.867-93.867 93.867s-93.867-42.24-93.867-93.867c0-36.267 21.333-66.56 51.2-82.347v-88.32c0-47.36 37.973-85.333 85.333-85.333h128v-164.267c-30.293-15.787-51.2-46.933-51.2-83.2 0-52.053 42.24-93.867 93.867-93.867s93.867 41.813 93.867 93.867c0 36.267-20.907 67.413-51.2 83.2v164.267h128c47.36 0 85.333 37.973 85.333 85.333v85.333h42.667v170.667h-170.667z" />
</svg>