<svg width="24" height="24" viewBox="0 0 1000 1000">
  <path d="M853.333 810.667h-682.667c-23.467 0-42.667-19.2-42.667-42.667v-682.667c0-23.467 19.2-42.667 42.667-42.667h682.667c23.467 0 42.667 19.2 42.667 42.667v682.667c0 23.467-19.2 42.667-42.667 42.667zM512 725.334c70.699 0 128-57.301 128-128 0-70.677-57.301-128-128-128s-128 57.323-128 128c0 70.699 57.301 128 128 128zM658.283 170.667h-402.283c0 159.061 114.624 256 256 256 25.707 0 50.475-3.349 73.856-9.579 26.133-6.955 50.539-17.557 72.427-31.659 66.261-42.731 109.717-116.928 109.717-214.741h-109.717z" />
</svg>