<svg width="24" height="24" viewBox="0 0 1000 1000">
  <path d="M554.667 614.998v153.003l-256-213.333h-213.333v-256h153.003zM645.184 768l-0.149-0.981-5.035 0.981v-67.669l56.085 56.085c-16.491 5.035-33.408 9.131-50.901 11.584zM836.288 811.307l-708.288-708.288 60.331-60.331 189.781 189.781 176.555-147.115v323.669l85.333 85.333v-238.336c74.453 24.96 128 91.947 128 170.667 0 52.757-24.341 99.968-62.613 133.035l60.949 60.949c53.547-47.872 87.211-117.76 87.211-194.475 0-126.741-91.371-234.496-213.547-254.997v-85.845h5.163c167.317 23.445 293.504 169.408 293.504 340.864 0 99.904-43.029 191.253-111.936 254.869l69.909 69.909-60.352 60.309z" />
</svg>