<svg width="24" height="24" viewBox="0 0 1000 1000">
  <path d="M576 704c46.933 0 85.333 38.4 85.333 85.333s-38.4 85.333-85.333 85.333-85.333-38.4-85.333-85.333 38.4-85.333 85.333-85.333zM418.133 558.934l-119.467-601.6h89.6l76.8 341.333 89.6-85.333v-256h85.333v320l-89.6 85.333 25.6 128c55.467-64 140.8-106.667 234.667-106.667v85.333c-81.067 0-149.333 42.667-183.467 102.4l-42.667 68.267c-17.067 25.6-42.667 42.667-72.533 42.667-12.8 0-29.952 0-42.752 0l-213.248-98.133v-200.533h85.333v145.067l76.8 29.867z" />
</svg>