<svg width="24" height="24" viewBox="0 0 1000 1000">
  <path d="M896 554.667h-298.667c-23.552 0-42.667-19.115-42.667-42.667v-170.667c0-23.552 19.115-42.667 42.667-42.667h298.667c23.552 0 42.667 19.115 42.667 42.667v170.667c0 23.552-19.115 42.667-42.667 42.667zM682.667 384c-23.552 0-42.667 19.115-42.667 42.667s19.115 42.667 42.667 42.667 42.667-19.115 42.667-42.667-19.115-42.667-42.667-42.667zM512 341.334v170.667c0 47.061 38.272 85.333 85.333 85.333h298.667v128c0 23.552-19.115 42.667-42.667 42.667h-682.667c-23.552 0-42.667-19.115-42.667-42.667v-597.333c0-23.552 19.115-42.667 42.667-42.667h682.667c23.552 0 42.667 19.115 42.667 42.667v128h-298.667c-47.061 0-85.333 38.272-85.333 85.333z" />
</svg>