<svg width="24" height="24" viewBox="0 0 1000 1000">
  <path d="M703.637 573.334c-2.453 0-4.48-0.085-6.613 0-77.675 2.496-148.779-17.579-211.307-64.491-49.301-36.949-83.413-84.8-98.475-145.152-9.749-38.656-8.981-77.312 0.768-115.883 0.341-1.472 0.619-2.944 0.96-4.715-13.845 0-27.221-0.704-40.491 0.085-30.976 2.048-61.184 7.893-90.645 17.579-2.261 0.768-5.696-0.363-7.957-1.707-32.811-19.435-65.472-39.061-98.027-58.709-3.819-2.261-7.531-4.757-11.776-1.259-4.011 3.264-2.837 7.509-1.6 11.733 8.789 30.144 17.707 60.288 26.773 90.368 1.301 4.096 0.384 6.080-2.944 8.576-49.067 36.032-86.272 81.429-105.365 139.712-29.376 89.813-12.971 172.459 44.779 246.315 47.872 61.547 112.405 97.856 187.627 116.075 36.181 8.768 73.045 11.691 109.952 9.003 94.507-6.848 176.299-41.835 240.213-113.451 33.301-37.248 54.912-80.64 63.829-130.027 0.256-1.131 0.213-2.24 0.299-4.053zM465.835 625.899c-0.085-23.403 18.24-41.728 41.536-41.835 23.104 0 41.877 18.261 41.984 40.917 0.085 24.021-17.899 42.603-41.344 42.645-23.936 0.064-42.069-17.941-42.176-41.728zM289.259 625.302c0.043 23.829-17.856 42.283-41.152 42.347-23.595 0.043-42.304-18.133-42.411-41.195-0.192-23.403 18.197-42.197 41.259-42.368 23.723-0.128 42.155 17.899 42.304 41.216zM410.603 300.438c1.344 68.843 28.416 123.861 76.907 168.661 44.715 41.387 98.133 65.259 157.803 74.112 82.539 12.203 159.936-2.88 229.419-50.261 48.256-32.896 83.136-76.757 98.517-133.803 19.307-71.616 3.52-136.405-41.579-194.603-12.779-16.533-27.733-30.933-44.395-43.648-3.435-2.56-3.904-4.757-2.56-8.683 7.723-22.187 15.211-44.459 22.72-66.645 0.491-1.28 1.493-2.667 1.259-3.883-0.427-3.2-0.491-7.573-2.56-9.173-1.984-1.493-6.891-1.173-9.365 0.192-22.101 12.651-44.331 25.088-65.664 38.891-10.475 6.741-19.243 7.296-30.976 3.179-45.547-16.064-92.672-20.651-140.736-15.147-63.872 7.296-120.96 30.485-169.301 73.451-39.765 35.413-66.005 78.976-76.032 131.733-0.576 3.307-1.195 6.549-1.451 9.856-0.811 9.259-1.387 18.539-2.005 25.771zM836.416 396.31c0 21.056-16.171 37.269-37.163 37.355-21.227 0.171-37.589-16.277-37.589-37.589 0-20.672 16.491-37.077 37.483-37.013 21.013 0.021 37.269 16.341 37.269 37.248zM630.165 396.694c-0.491 21.525-16.981 37.44-38.315 36.971-21.12-0.512-36.672-17.088-36.288-38.869 0.299-20.331 17.365-36.16 38.784-35.733 20.053 0.427 36.117 17.323 35.819 37.632z" />
</svg>