<svg width="24" height="24" viewBox="0 0 1000 1000">
  <path d="M638.72 130.219l-109.227 257.28c-43.52-84.907-91.307-174.080-132.267-257.28-0.427-0.427-20.053 0-20.053 0-62.72 147.2-127.573 292.267-190.72 438.187-14.507 35.84-65.707 93.013-101.12 93.013 0 4.267 0 13.653 0 19.2h215.893v-19.2c-25.6 0-69.12-17.067-58.027-44.8 30.72-65.707 138.24-320.427 167.68-385.28 20.053 40.107 76.8 145.92 101.12 190.72-19.2 37.547-79.787 178.347-97.707 213.333-13.653 23.040-48.213 26.027-74.667 26.027 0 6.4 0.427 10.667 0 18.773l190.293-0.427v-17.067c-26.027-1.28-50.347-10.24-39.253-34.987 25.6-52.907 40.533-90.88 64-139.947 7.253 14.507 45.653 93.44 64 134.827 11.093 27.733-5.547 38.827-51.627 38.827 0.427 5.12 0.427 14.080 0.427 18.347 59.307 0.427 148.48 0.427 164.267 0.853v-17.92c-30.293-1.28-61.44-17.493-77.653-42.24l-78.080-163.84c7.68-21.76 83.627-190.293 91.733-209.067l164.267 376.747c-12.8 30.72-49.493 37.12-64 37.12 0 5.547 0 12.8 0 19.2l170.667-1.28v-17.92c-37.547 0-61.013-21.333-74.667-53.333-34.133-76.373-138.667-319.573-206.933-477.867h-18.347z" />
</svg>