<svg width="24" height="24" viewBox="0 0 1000 1000">
  <path d="M510.336 853.334c-232.896 0-425.003-190.293-425.003-424.981 0-234.731 197.099-428.352 429.995-428.352s423.339 195.328 423.339 430.037c0 234.667-195.435 423.296-428.331 423.296zM156.907 293.483c0 0-55.488 142.251 8.064 292.096l181.632-499.648c0 0.021-123.733 50.155-189.696 207.552zM405.333 64.384l113.685 331.712 117.973-326.443c0 0-112.747-46.357-231.659-5.269zM564.117 609.451c0 0 20.821 0.619 37.312 2.795 0 0 24.341-2.624 19.349 21.717 0 0-1.984 12.416-27.157 8.448 0 0-72.448-6.528-175.275-0.277 0 0-33.515 6.997-31.189-15.168 0 0-6.101-19.541 55.488-17.493l57.856-163.2-83.285-250.688-137.664 412.757c0 0 43.541 1.771 48.107 5.248 0 0 13.504 3.947 7.403 21.547 0 0-0.384 9.941-33.515 7.019l-106.496-2.325c0 0 98.325 169.621 318.144 172.544 0 0 143.211 5.248 256.235-100.565 0 0-79.787 3.221-66.795-87.147 0 0 3.157-22.72 31.488-64.128 0 0 33.6-57.131 31.275-81.621 0 0 11.584-50.133-22.016-138.773l-41.621-139.883-137.643 409.195zM702.912 98.496l123.243 361.152c32.939 76.928 19.072 152.128 19.072 152.128 87.637-165.248 22.549-317.419 22.549-317.419-52.885-136.384-164.864-195.861-164.864-195.861z" />
</svg>