<svg width="24" height="24" viewBox="0 0 1000 1000">
  <path d="M849.835 321.771l-101.461 105.408c5.205 4.416 10.411 9.131 15.637 14.336l68.501 70.379c111.253 110.72 40.213 194.048-0.917 235.413-43.947 44.139-125.632 105.941-216.043 15.915l-103.637-99.456-88.213 86.357c-108.949 109.504-192.384 38.443-233.707-2.624-44.075-43.947-105.835-125.568-15.829-216.064l101.333-105.344c-5.163-4.48-10.368-9.173-15.573-14.357l-68.416-70.379c-111.339-110.699-40.213-194.069 0.96-235.371 43.883-44.117 125.547-105.899 216.043-15.915l103.552 99.456 88.213-85.952c109.376-111.040 192.341-38.955 233.664 2.24 44.16 43.947 105.899 125.504 15.893 215.957zM630.336 750.614c31.168 30.379 75.456 49.835 115.243 23.616 55.573-39.125 35.755-90.795-6.421-132.864 0 0-38.955-39.445-41.131-41.707-23.552-23.424-43.541-32.469-61.12-32.427-19.947 0.021-37.952 12.373-57.835 30.805l-52.992 51.947 104.256 100.629zM393.792 102.678c-31.083-30.379-75.413-49.813-115.2-23.616-55.573 39.125-35.84 90.795 6.336 132.885 0 0 38.997 39.445 41.216 41.685 23.531 23.424 43.456 32.448 61.12 32.448 19.989-0.064 37.909-12.416 57.749-30.869l53.077-51.883-104.299-100.651zM728.384 198.592l-221.973 217.195c-61.504 61.76-138.24 78.464-214.763 22.955l-104.405 107.797c-30.336 31.253-49.877 75.541-23.744 115.328 39.211 55.659 90.325 35.008 132.416-7.083l221.931-217.067c61.504-61.888 137.92-78.72 214.421-23.232l104.789-107.669c30.379-31.211 49.877-75.413 23.701-115.285-39.168-55.637-90.304-35.029-132.373 7.061z" />
</svg>