<svg width="24" height="24" viewBox="0 0 1000 1000">
  <path d="M618.325 244.395v-110.528c0-23.403-6.805-35.093-20.437-35.093-8.043 0-15.893 3.84-23.573 11.52v157.675c7.68 7.68 15.531 11.52 23.573 11.52 13.632-0.021 20.437-11.712 20.437-35.093zM795.392 243.862v-24.085h-47.147v24.085c0 23.744 7.851 35.627 23.573 35.627 15.701-0.021 23.573-11.883 23.573-35.627zM289.387 358.038h56.043v49.237h-163.435v-49.237h54.997v-298.048h52.373v298.048zM440.235 59.99h46.613v258.752h-46.613v-197.995c-10.475-14.677-20.437-21.995-29.867-21.995-6.293 0-9.963 3.669-11.008 11.008-0.341 1.045-0.533 7.147-0.533 18.325v190.677h-46.613v-204.821c0-17.109 1.387-29.845 4.181-38.229 4.181-12.928 14.315-19.392 30.379-19.392 16.768 0 34.581 10.645 53.419 31.957v-28.288zM664.96 137.515v103.189c0 25.493-1.579 42.773-4.715 51.861-5.931 19.563-18.325 29.333-37.184 29.333-17.451 0-33.707-9.429-48.725-28.288v113.664h-46.613v-347.285h46.613v25.152c15.723-19.2 31.957-28.821 48.725-28.821 18.859 0 31.253 9.6 37.184 28.821 3.136 9.429 4.715 26.88 4.715 52.373zM842.005 142.763v6.805h-47.659c0-17.813-0.341-28.459-1.045-31.957-2.453-12.565-9.429-18.859-20.949-18.859-16.064 0-24.085 12.053-24.085 36.139v45.568h93.76v53.952c0 27.584-4.715 47.851-14.144 60.757-13.611 17.813-32.128 26.709-55.531 26.709-23.744 0-42.432-8.896-56.043-26.709-9.771-12.928-14.677-33.173-14.677-60.757v-90.624c0-27.584 5.056-47.851 15.189-60.757 13.611-17.813 32.469-26.709 56.576-26.709 25.152 0 44.011 9.259 56.576 27.755 6.293 9.429 9.963 18.859 11.008 28.288 0.661 3.157 1.024 13.291 1.024 30.4zM523.52 620.992v109.995c0 24.085-7.509 36.139-22.528 36.139s-22.528-12.053-22.528-36.139v-109.995c0-24.448 7.509-36.672 22.528-36.672s22.528 12.245 22.528 36.672zM900.139 227.606c0-81.707-4.544-142.827-13.611-183.339-4.885-20.587-15.019-37.888-30.379-51.861s-33.173-21.995-53.419-24.085c-64.256-7.339-161.152-11.008-290.709-11.008s-226.453 3.669-290.709 11.008c-20.245 2.091-38.144 10.133-53.696 24.085-15.531 13.973-25.579 31.253-30.123 51.861-9.088 39.104-13.611 100.224-13.611 183.339 0 81.728 4.544 142.827 13.611 183.339 4.885 20.608 15.019 37.888 30.379 51.861s33.344 22.187 53.952 24.619c63.915 6.976 160.64 10.475 290.197 10.475s226.453-3.499 290.709-10.475c20.245-2.453 38.144-10.645 53.696-24.619 15.531-13.973 25.579-31.253 30.123-51.861 9.045-39.104 13.589-100.224 13.589-183.339zM377.387 896h53.419l-63.381-209.003v-141.952h-52.373v141.952c-4.885 25.835-15.531 62.869-31.957 111.040-12.928 35.968-24.277 68.629-34.048 97.963h55.531l37.184-137.771 35.627 137.771zM571.2 721.579v-91.669c0-28.288-4.885-48.896-14.677-61.803-12.928-17.813-31.424-26.709-55.531-26.709-23.403 0-41.728 8.896-54.997 26.709-9.771 13.269-14.677 33.877-14.677 61.803v91.669c0 27.947 4.885 48.363 14.677 61.291 13.269 17.813 31.595 26.709 54.997 26.709 24.085 0 42.603-8.896 55.531-26.709 9.771-12.928 14.677-33.365 14.677-61.291zM746.667 806.422v-261.376h-47.659v28.821c-18.517-21.653-36.501-32.469-53.952-32.469-16.064 0-26.368 6.464-30.912 19.371-2.795 8.384-4.181 21.483-4.181 39.296v206.379h47.659v-192.235c0-11.52 0.171-17.643 0.533-18.325 1.045-7.68 4.715-11.52 11.008-11.52 9.429 0 19.371 7.509 29.867 22.528v199.573h47.637z" />
</svg>