<svg width="24" height="24" viewBox="0 0 1000 1000">
  <path d="M490.667 682.667h-85.333v-149.333h-149.333v-85.333h149.333v-149.333h85.333v149.333h149.333v85.333h-149.333zM810.667 490.667c0 200.299-162.368 362.667-362.667 362.667s-362.667-162.368-362.667-362.667 162.368-362.667 362.667-362.667c200.299 0 362.667 162.368 362.667 362.667zM448 213.334c-152.939 0-277.333 124.416-277.333 277.333s124.395 277.333 277.333 277.333c152.917 0 277.333-124.416 277.333-277.333s-124.416-277.333-277.333-277.333zM703.048 173.327l61.29 61.29 173.37-173.37-61.29-61.29-173.37 173.37z" />
</svg>