<svg width="24" height="24" viewBox="0 0 1000 1000">
  <path d="M938.667 694.614l-196.267 164.693-55.040-65.28 196.267-164.693zM336.213 794.027l-54.613 65.28-196.267-164.267 55.040-65.28zM512 768c-212.053 0-384-171.947-384-384s171.52-384 384-384c212.053 0 384 171.947 384 384s-171.947 384-384 384zM512 85.334c-165.12 0-298.667 133.547-298.667 298.667s133.547 298.667 298.667 298.667 298.667-133.547 298.667-298.667-133.547-298.667-298.667-298.667zM469.248 597.334h85.333v-256h-213.333v85.333h128z" />
</svg>