<svg width="24" height="24" viewBox="0 0 1000 1000">
  <path d="M799.253 106.71c-35.413-52.907-72.96-104.533-130.133-105.387-57.173-1.28-75.52 33.707-140.373 33.707-65.28 0-85.333-32.853-139.52-34.987-55.893-2.133-98.133 56.32-133.973 107.947-72.96 105.387-128.853 299.499-53.76 430.059 37.12 64.853 103.68 105.813 175.765 107.093 54.613 0.853 106.667-37.12 140.373-37.12 33.28 0 96.427 45.653 162.56 38.827 27.733-1.28 105.387-11.093 155.307-84.48-3.84-2.56-92.587-54.613-91.733-162.539 1.28-128.853 113.067-171.947 114.347-172.373-1.28-2.987-17.899-61.44-58.859-120.747zM555.627 789.334c31.147 35.413 82.773 62.293 125.44 64 5.547-49.92-14.507-100.267-44.373-136.107-29.44-36.267-78.080-64.427-125.867-60.587-6.379 49.088 17.493 100.267 44.8 132.693z" />
</svg>