<svg width="24" height="24" viewBox="0 0 1000 1000">
  <path d="M576.768 276.95c-16.725-26.688-36.075-46.272-57.984-58.859s-47.765-18.837-77.568-18.837c-48.107 0-84.693 13.675-109.76 41.024-25.109 27.285-37.653 67.648-37.653 121.024 0 76.011 21.227 139.691 63.659 191.211 42.432 51.499 94.677 77.184 156.736 77.184 24.341 0 45.504-5.205 63.488-15.68 17.941-10.517 32.661-26.091 44.245-46.741l24.171 46.741h81.237l-66.581-270.933c-0.875-3.477-1.643-7.104-2.283-10.645-0.576-3.627-0.875-6.635-0.875-8.832 0-11.136 3.669-19.477 10.987-25.024 7.317-5.568 18.069-8.384 32.363-8.384 11.861 0 24.256 3.2 37.184 9.536 12.907 6.357 25.003 15.275 36.288 26.688 26.155 25.429 45.973 55.147 59.541 89.173 13.547 34.027 20.309 50.027 20.309 90.688 0 76.288-28.203 138.965-84.651 188.075-56.469 49.152-129.237 73.621-218.368 73.621-42.88 0-82.773-5.397-119.765-16.171-36.949-10.837-70.528-26.88-100.651-48.171-51.691-36.224-91.456-81.515-119.317-135.829-27.819-54.357-41.749-114.005-41.749-178.795 0-97.557 31.509-154.219 94.464-212.501 62.997-58.304 147.115-87.445 252.352-87.445 49.28 0 97.429 7.765 144.448 23.339 46.997 15.552 90.688 38.123 131.157 67.733l36.885-70.016c-46.507-36.544-95.893-64.064-148.075-82.475-52.16-18.389-106.539-27.669-163.115-27.669-58.411 0-112.085 7.765-161.131 23.147-48.981 15.403-92.437 38.229-130.453 68.373-47.147 38.485-82.453 82.837-105.856 132.992-23.403 50.219-35.093 107.115-35.093 170.688 0 53.056 7.957 103.701 23.915 151.829 16 48.192 39.509 91.989 70.507 131.349 45.035 57.493 99.179 101.056 162.475 130.624 63.275 29.525 133.717 44.309 211.307 44.309 51.392 0 99.712-7.253 144.853-21.739 45.184-14.464 84.501-34.837 117.931-61.248 41.067-33.344 71.723-71.424 91.989-114.155 20.203-42.773 30.357-90.987 30.357-144.704 0-52.395-9.984-100.757-29.888-145.152-19.925-44.352-48.597-82.219-86.016-113.643-21.291-17.813-44.48-31.424-69.589-40.789-25.088-9.408-51.157-14.080-78.293-14.080-32.213 0-56.448 6.677-72.747 20.032-16.363 13.461-24.811 33.131-25.387 59.136v0zM599.552 481.024c-3.947 25.707-12.693 45.376-26.219 58.901-13.547 13.525-31.381 20.224-53.632 20.224-34.624 0-64.747-19.755-90.325-59.136-25.557-39.381-38.357-86.741-38.357-142.059 0-29.248 6.144-51.477 18.475-66.731 12.309-15.296 30.187-22.933 53.632-22.933 25.216 0 48.256 10.048 69.099 30.037 20.864 20.011 35.093 46.080 42.688 78.208l24.64 103.488z" />
</svg>