<svg width="24" height="24" viewBox="0 0 1000 1000">
  <path d="M789.333 682.667h-490.667c-141.163 0-256-114.837-256-256s114.837-256 256-256h426.667v85.333h-426.667c-94.101 0-170.667 76.565-170.667 170.667s76.565 170.667 170.667 170.667h490.667c58.816 0 106.667-47.851 106.667-106.667s-47.851-106.667-106.667-106.667h-405.333c-23.531 0-42.667 19.136-42.667 42.667s19.136 42.667 42.667 42.667h341.333v85.333h-341.333c-70.592 0-128-57.408-128-128s57.408-128 128-128h405.333c105.856 0 192 86.123 192 192s-86.144 192-192 192z" />
</svg>