<svg width="24" height="24" viewBox="0 0 1000 1000">
  <path d="M867.669 396.928c-1.877 29.099-11.733 51.157-29.099 66.176s-38.955 22.528-64.768 22.528c-27.221 0-50.688-7.979-65.237-23.936-15.488-15.957-25.344-37.547-29.099-64.768zM977.493 407.723c3.755-19.243 3.755-46.933 3.755-83.072h-305.067c2.347-42.24 16.427-71.339 44.117-88.235 16.427-10.795 36.608-15.957 60.544-15.957 24.875 0 45.056 6.571 59.605 19.243 9.387 7.040 16.896 16.427 23.467 29.099h111.701c-2.816-25.344-16.427-50.219-41.301-76.032-36.608-41.301-89.173-61.013-156.757-61.013-55.851 0-104.661 17.365-148.309 51.627-41.301 34.261-62.891 90.112-62.891 167.552 0 72.747 19.243 129.067 57.728 166.613 38.485 38.955 88.235 58.197 149.717 58.197 36.139 0 68.992-6.571 98.091-19.712s53.504-33.323 72.277-61.952c17.365-24.875 28.16-53.504 33.323-86.357zM398.336 312.448c0 30.507-12.672 51.627-37.077 62.891-13.611 6.101-33.323 9.387-58.667 10.795h-125.312v-156.757h123.435c25.344 0 45.056 3.285 59.136 10.325 25.813 12.672 38.485 37.077 38.485 72.747zM177.28 481.878h123.435c25.344 0 46.933 4.693 61.952 14.549 15.957 9.387 23.467 26.752 23.467 51.157 0 26.283-10.325 45.056-30.976 53.973-18.304 6.101-41.301 8.917-68.992 8.917h-108.885zM498.773 389.888c15.019-23.467 22.528-52.096 22.528-85.419 0-35.669-9.387-65.707-25.813-93.397-11.264-18.304-24.875-33.323-41.301-45.995-18.773-13.611-40.832-23.936-66.176-29.099s-52.565-7.979-82.133-7.979h-263.296v584.32h281.6c71.808-1.408 122.027-21.12 151.595-62.421 17.835-24.875 26.752-54.443 26.752-89.173 0-35.669-8.917-64.299-26.752-85.888-10.795-12.203-24.875-23.467-44.587-33.323 29.568-10.795 52.096-28.16 67.584-51.627zM890.197 629.248h-235.136v58.667h235.136v-58.667z" />
</svg>