<svg width="24" height="24" viewBox="0 0 1000 1000">
  <path d="M512-0c46.933 0 85.333 38.4 85.333 85.333h-170.667c0-46.933 38.357-85.333 85.333-85.333zM679.509 716.118c-3.2 2.197-6.315 4.48-9.6 6.549-0.704 0.448-1.408 0.853-2.133 1.301-6.677 4.075-13.44 7.979-20.416 11.541-0.043 0-0.064 0.021-0.107 0.043-15.851 8.085-32.725 14.379-50.048 19.605v12.949c0 47.061-38.144 85.227-85.205 85.227s-85.205-38.165-85.205-85.227v-12.949c-17.344-5.227-34.219-11.52-50.091-19.605-0.043-0.021-0.064-0.043-0.107-0.043-6.976-3.563-13.76-7.467-20.416-11.541-0.704-0.448-1.408-0.853-2.133-1.301-6.443-4.011-12.693-8.299-18.773-12.779-0.747-0.533-1.472-1.109-2.219-1.643-6.123-4.608-12.075-9.387-17.835-14.443-0.363-0.32-0.683-0.64-1.045-0.96-24.064-21.312-44.629-46.379-60.8-74.368-0.427-0.725-0.896-1.408-1.301-2.155-3.093-5.461-5.888-11.115-8.64-16.768-1.237-2.539-2.517-5.056-3.669-7.616-2.283-5.056-4.373-10.219-6.379-15.445-1.323-3.413-2.581-6.869-3.797-10.325-1.643-4.864-3.2-9.728-4.629-14.677-1.173-4.096-2.197-8.299-3.2-12.48-1.109-4.629-2.219-9.216-3.093-13.909-0.939-4.907-1.6-9.92-2.283-14.912-0.555-4.203-1.28-8.384-1.664-12.651-0.661-7.083-0.939-14.272-1.088-21.483-0.064-2.219-0.341-4.352-0.341-6.592v-57.344h0.043l-0.043-167.467 466.219 471.467zM810.581 273.451v138.667h0.043v57.344c0 2.219-0.299 4.373-0.341 6.592-0.149 7.211-0.427 14.4-1.088 21.483-0.384 4.267-1.109 8.448-1.664 12.651-0.683 4.992-1.344 10.005-2.283 14.912-0.875 4.715-1.984 9.301-3.093 13.909-1.024 4.181-2.048 8.384-3.2 12.48-1.408 4.949-2.987 9.835-4.629 14.677-1.216 3.456-2.475 6.912-3.797 10.325-2.005 5.205-4.075 10.368-6.379 15.445-1.152 2.56-2.411 5.077-3.669 7.616-2.752 5.675-5.547 11.307-8.64 16.768-0.427 0.725-0.875 1.408-1.301 2.155-0.768 1.344-1.664 2.581-2.453 3.904l127.893 127.915-60.373 60.373-707.627-707.648 60.373-60.352 85.355 85.355h536.96c23.552 0 42.667 19.093 42.667 42.688 0 6.101-1.365 11.861-3.733 17.067l-39.019 85.675z" />
</svg>