<svg width="24" height="24" viewBox="0 0 1000 1000">
  <path d="M512-0c46.933 0 85.333 38.4 85.333 85.333h-170.667c0-46.933 38.357-85.333 85.333-85.333zM810.581 273.43v138.667l0.043 57.237h0.043c0 56.043-15.659 108.288-42.581 153.045l127.915 127.915-60.373 60.373-707.627-707.648 60.373-60.352 85.333 85.333h536.96c23.552 0 42.667 19.093 42.667 42.667 0 6.123-1.365 11.883-3.733 17.088l-39.019 85.675zM597.312 213.334h-238.272l346.133 346.133c12.373-26.219 19.563-55.36 20.117-86.123v-3.947l-0.043-57.301v-157.184l7.659-16.853 11.264-24.725h-146.859zM298.752 335.574v76.587l-0.043 57.237v3.861c2.091 115.84 96.96 209.408 213.291 209.408 38.443 0 74.411-10.368 105.579-28.224l61.909 61.888c-25.003 16.96-52.672 30.357-82.283 39.168v12.608c0 47.061-38.144 85.227-85.205 85.227s-85.205-38.165-85.205-85.227v-12.608c-123.392-36.715-213.461-150.848-213.461-286.165h0.043l0.043-57.237-0.085-165.44 85.419 88.917z" />
</svg>