<svg width="24" height="24" viewBox="0 0 1000 1000">
  <path d="M512-0c46.933 0 85.333 38.4 85.333 85.333h-170.667c0-46.933 38.357-85.333 85.333-85.333zM849.6 187.755l-39.019 85.696v138.667l0.043 57.237h0.043c0 135.317-90.069 249.451-213.461 286.165v12.608c0 47.083-38.144 85.227-85.205 85.227s-85.205-38.144-85.205-85.227v-12.608c-123.413-36.715-213.461-150.848-213.461-286.165h0.043l0.043-57.237v-138.667l-39.019-85.696c-2.368-5.205-3.733-10.965-3.733-17.088 0-23.573 19.115-42.667 42.667-42.667h597.333c23.552 0 42.667 19.093 42.667 42.667 0 6.123-1.365 11.883-3.733 17.088zM597.291 213.334h-317.483l11.264 24.747 7.68 16.832v157.248l-0.043 57.237v3.947c2.133 115.797 97.003 209.344 213.291 209.344 116.267 0 211.093-93.483 213.291-209.237v-4.032l-0.043-57.301v-157.184l18.923-41.579h-146.88z" />
</svg>