<svg width="24" height="24" viewBox="0 0 1000 1000">
  <path d="M512 692.907c130.56-0.427 236.8 22.187 236.8 49.92s-105.813 50.347-236.8 50.773c-130.56 0-236.8-22.187-236.8-49.92 0-28.16 105.813-50.773 236.8-50.773zM512 324.267c64 0 117.333 52.907 117.333 117.76 0 64.811-52.523 117.333-117.333 117.333-64 0-117.333-52.48-117.333-117.333s53.333-117.76 117.333-117.76zM512 853.334c203.52 0 369.493-54.613 369.493-122.453 0-17.92-44.373-274.773-61.867-376.32-7.68-45.653-125.867-112.64-307.627-112.64v0c-181.76 0-299.947 66.987-307.627 112.64-17.493 101.547-61.867 358.4-61.867 376.32 0 67.84 165.973 122.453 369.493 122.453zM777.813 252.587c6.4 0 12.8-4.693 12.8-14.507v-3.413c-14.507-75.093-24.747-128-26.453-136.96-12.373-55.040-121.173-97.707-252.16-97.707v0c-130.987 0-239.787 42.667-252.16 97.707-1.707 8.96-11.947 61.867-26.453 136.96v3.413c0 9.813 6.4 14.507 12.8 14.507 5.973 0 9.813-3.84 9.813-3.84s91.307-72.107 256-72.107 256 72.107 256 72.107 3.84 3.84 9.813 3.84zM570.88 442.027c0-32.427-26.453-58.027-58.88-58.027s-58.88 25.6-58.88 58.027c0 32.512 26.368 58.88 58.88 58.88v0c32.512 0 58.88-26.368 58.88-58.88v0z" />
</svg>