<svg width="24" height="24" viewBox="0 0 1000 1000">
  <path d="M232.533 500.054c40.533 0 87.467-32.853 87.467-73.387s-46.933-73.387-87.467-73.387h-147.2l29.44 146.773h117.76zM261.973 735.574c40.533 0 88.32-32.853 88.32-74.24 0-39.68-47.787-72.96-88.32-72.96h-147.2l29.44 147.2h117.76zM555.947 735.574c41.387 0 88.32-32.853 88.32-74.24 0-39.68-46.933-72.96-88.32-72.96h-154.453l29.44 147.2h125.013zM526.507 500.054c40.96 0 88.32-32.853 88.32-73.387s-47.36-73.387-88.32-73.387h-154.453l29.44 146.773h125.013zM468.053 264.96c40.533 0 87.893-33.28 87.893-72.96 0-41.387-47.36-74.24-87.893-74.24h-148.053l30.293 147.2h117.76zM791.467 353.28c40.533 0 88.32-33.28 88.32-73.813s-47.787-73.387-88.32-73.387h-147.2l29.44 147.2h117.76zM850.347 588.374c40.533 0 88.32-33.707 88.32-73.387 0-40.533-47.787-73.813-88.32-73.813h-146.347l28.587 147.2h117.76z" />
</svg>