<svg width="24" height="24" viewBox="0 0 1000 1000">
  <path d="M607.573 426.24l98.987-98.987c11.947 30.72 18.773 64.427 18.773 99.413s-6.827 67.84-18.347 98.56l-99.413-98.987zM832.853 650.667l-53.76-53.76c26.88-51.627 41.813-109.653 41.813-171.52s-15.36-120.32-41.813-171.52l51.2-51.2c41.387 65.707 65.707 143.36 65.707 226.56-0.427 80.64-23.467 156.587-63.147 221.44zM670.293 609.707l-243.627 243.627h-42.667v-323.84l-195.84 195.84-60.16-60.16 238.507-238.507-238.507-238.507 60.16-60.16 195.84 195.84v-323.84h42.667l243.627 243.627-183.467 183.040 183.467 183.040zM469.333 689.92l80.213-80.213-80.213-80.213v160.427zM549.547 243.627l-80.213-80.213v160.427l80.213-80.213z" />
</svg>