<svg width="24" height="24" viewBox="0 0 1000 1000">
  <path d="M298.667 725.334h85.333v85.333h-85.333v-85.333zM298.667 384h85.333v85.333h-85.333v-85.333zM298.667 42.667h85.333v85.333h-85.333v-85.333zM469.333 213.334h85.333v85.333h-85.333v-85.333zM469.333 42.667h85.333v85.333h-85.333v-85.333zM128 42.667h85.333v85.333h-85.333v-85.333zM128 213.334h85.333v85.333h-85.333v-85.333zM128 384h85.333v85.333h-85.333v-85.333zM128 554.667h85.333v85.333h-85.333v-85.333zM128 725.334h85.333v85.333h-85.333v-85.333zM469.333 384h85.333v85.333h-85.333v-85.333zM810.667 213.334h85.333v85.333h-85.333v-85.333zM810.667 384h85.333v85.333h-85.333v-85.333zM810.667 42.667h85.333v85.333h-85.333v-85.333zM810.667 554.667h85.333v85.333h-85.333v-85.333zM469.333 554.667h85.333v85.333h-85.333v-85.333zM810.667 810.667v-85.333h85.333v85.333h-85.333zM469.333 725.334h85.333v85.333h-85.333v-85.333zM640 42.667h85.333v85.333h-85.333v-85.333zM640 384h85.333v85.333h-85.333v-85.333zM640 725.334h85.333v85.333h-85.333v-85.333z" />
</svg>