<svg width="24" height="24" viewBox="0 0 1000 1000">
  <path d="M746.667 714.667c-53.013 0-96-42.987-96-96 0-17.173 4.885-33.045 12.757-46.976l-108.757-145.024h-170.667v213.099c31.488 15.744 53.333 47.979 53.333 85.568 0 53.013-42.987 96-96 96s-96-42.987-96-96c0-37.611 21.845-69.824 53.333-85.568v-426.176c-31.488-15.744-53.333-47.979-53.333-85.589 0-53.013 42.987-96 96-96s96 42.987 96 96c0 37.611-21.845 69.824-53.333 85.589v127.744h213.333l136.939 182.592c4.096-0.533 8.149-1.259 12.395-1.259 53.013 0 96 42.987 96 96s-42.987 96-96 96z" />
</svg>