<svg width="24" height="24" viewBox="0 0 1000 1000">
  <path d="M151.467 126.294l60.16-60.16 129.707 129.28-60.587 60.587-129.28-129.707zM469.333-42.666c13.653 0 85.333 0 85.333 0v213.333h-85.333v-213.333zM512.085 640c-117.824 0-213.333-95.509-213.333-213.333s95.509-213.333 213.333-213.333c117.824 0 213.333 95.509 213.333 213.333 0 118.037-95.637 213.333-213.333 213.333zM768 384h213.333v85.333h-213.333v-85.333zM682.667 195.414l129.707-129.28 60.16 60.16-129.28 129.707-60.587-60.587zM872.533 727.040l-60.16 60.16-129.707-129.28 60.587-60.587 129.28 129.707zM554.667 896h-85.333v-213.333h85.333v213.333zM256 469.334h-213.333v-85.333h213.333v85.333zM341.333 657.92l-129.707 129.28-60.16-60.16 129.28-129.707 60.587 60.587z" />
</svg>