<svg width="24" height="24" viewBox="0 0 1000 1000">
  <path d="M853.333 512v85.333h-682.667v-85.333h85.248v-85.333h-85.248v-85.333h85.248v-42.667c0-14.549 1.365-28.779 3.733-42.667h-88.981v-85.333h119.957c37.611-64.427 102.528-111.189 178.624-124.117v465.451h85.333v-465.451c76.117 12.928 141.035 59.691 178.624 124.117h120.128v85.333h-89.152c2.368 13.888 3.733 28.117 3.733 42.667v42.667h85.419v85.333h-85.419v85.333h85.419zM512 810.667c-94.251 0-170.667-76.416-170.667-170.667h341.333c0 94.251-76.416 170.667-170.667 170.667z" />
</svg>