<svg width="24" height="24" viewBox="0 0 1000 1000">
  <path d="M333.909 394.24c-19.2 26.581-36.48 54.635-51.456 84.053l93.867 93.867c11.947 11.947 15.36 28.587 10.667 43.52-15.787 47.787-24.32 98.987-24.32 152.32 0 23.467-19.2 42.667-42.667 42.667h-149.333c-23.467 0-42.667-19.2-42.667-42.667 0-163.157 53.867-313.728 144.789-434.88l61.12 61.12zM853.333 276.907c-52.907 0-104.533 8.533-152.32 24.32-14.933 5.12-32 1.28-43.52-10.24l-93.867-93.867c-47.552 24.363-91.413 54.72-131.157 89.685l463.531 463.531-60.331 60.331-707.669-707.669 60.331-60.331 183.424 183.424c128.085-113.963 296.619-183.424 481.579-183.424 23.467 0 42.667 19.2 42.667 42.667v148.907c0 23.467-19.2 42.667-42.667 42.667z" />
</svg>