<svg width="24" height="24" viewBox="0 0 1000 1000">
  <path d="M896 682.667h-186.965l-52.203 104.427c-7.232 14.464-21.995 23.573-38.165 23.573h-213.333c-16.171 0-30.933-9.131-38.165-23.573l-52.203-104.427h-186.965c-23.573 0-42.667-19.115-42.667-42.667v-554.667c0-23.552 19.093-42.667 42.667-42.667h768c23.552 0 42.667 19.115 42.667 42.667v554.667c0 23.552-19.115 42.667-42.667 42.667zM512 170.667c-117.632 0-213.333 95.701-213.333 213.333s95.701 213.333 213.333 213.333c117.632 0 213.333-95.701 213.333-213.333s-95.701-213.333-213.333-213.333zM512 512c-70.592 0-128-57.408-128-128s57.408-128 128-128c70.592 0 128 57.408 128 128s-57.408 128-128 128z" />
</svg>