<svg width="24" height="24" viewBox="0 0 1000 1000">
  <path d="M814.784 729.622c-82.624 82.475-183.68 123.712-303.339 123.712-118.165 0-218.219-41.237-300.075-123.712-84.032-85.355-126.037-186.325-126.037-302.955 0-116.608 42.005-216.896 126.037-300.8 83.989-83.904 184.021-125.867 300.075-125.867 117.483 0 219.328 42.304 305.451 126.933 81.195 80.363 121.771 180.288 121.771 299.733 0 119.467-41.301 220.459-123.883 302.955zM761.344 182.4c-70.485-69.696-153.429-104.512-248.811-104.512-95.424 0-177.664 34.496-246.699 103.488-69.077 68.949-103.595 150.741-103.595 245.312 0 36.373 5.205 70.912 15.531 103.701l218.432-97.259h-48.064v-66.411h99.947l9.771-20.267v-32.192h-109.717v-66.411h109.717v-96.448h106.176v96.448h110.421v61.376l139.307-62.037c-14.293-23.211-31.723-44.821-52.416-64.789zM663.168 314.219h-99.093v32.192l4.992 9.707 94.101-41.899zM674.453 402.56v30.549h-66.368l108.331 199.595h-113.237l-74.603-165.184-39.595 17.621-68.181 147.563h-113.216l46.976-87.701-140.885 62.741c14.635 23.211 32.32 45.376 53.184 66.432 66.923 68.267 148.8 102.4 245.653 102.4 96.789 0 179.051-34.133 246.699-102.4 68.352-67.563 102.507-150.037 102.507-247.488 0-36.096-4.565-69.888-13.632-101.44l-173.632 77.312z" />
</svg>