<svg width="24" height="24" viewBox="0 0 1000 1000">
  <path d="M511.232 853.334c119.36 0 220.437-41.387 303.232-124.203 82.795-82.283 124.203-183.104 124.203-302.464s-40.64-219.435-121.92-300.181c-85.845-84.331-187.691-126.464-305.515-126.464-115.307 0-215.381 41.899-300.181 125.717-83.819 83.797-125.717 184.128-125.717 300.949 0 116.309 41.899 217.131 125.717 302.464 82.773 82.773 182.848 124.181 300.181 124.181zM512.768 776.363c-97.024 0-179.051-34.283-246.101-102.848-69.589-70.613-104.384-152.896-104.384-246.848 0-94.997 34.539-176.768 103.616-245.333 69.077-69.077 151.36-103.616 246.869-103.616 94.976 0 177.771 34.795 248.384 104.384 67.051 65.003 100.565 146.539 100.565 244.565 0 97.536-34.048 179.819-102.101 246.848-67.563 68.565-149.845 102.848-246.848 102.848zM790.848 419.051l8.384-3.797v-120.384l-7.616-3.797-103.616-44.181-4.565-1.536-5.333 1.536-230.848 95.232-110.485-45.717-108.949 47.232v109.717l102.101 42.667-0.768 0.747v120.384l115.819 51.051 261.333-108.203v-105.899l84.544-35.051zM669.717 278.848v75.435h-0.768v3.051l-195.797 80v-77.717l195.797-80.747v0.768l0.768-0.789zM682.667 377.899l68.587 28.181-63.232 26.667-67.051-28.203 61.696-26.645zM772.565 312.384v73.899l-76.181-32v-74.667l76.181 32.768z" />
</svg>