<svg width="24" height="24" viewBox="0 0 1000 1000">
  <path d="M511.232 853.334c119.36 0 220.437-41.387 303.232-124.203 82.795-82.283 124.203-183.104 124.203-302.464s-40.64-219.435-121.92-300.181c-85.845-84.331-187.691-126.464-305.515-126.464-115.307 0-215.381 41.899-300.181 125.717-83.797 83.797-125.717 184.107-125.717 300.949 0 116.309 41.92 217.131 125.717 302.464 82.773 82.773 182.848 124.181 300.181 124.181zM512.768 776.363c-97.024 0-179.051-34.283-246.101-102.848-69.611-70.613-104.384-152.896-104.384-246.848 0-94.997 34.539-176.768 103.616-245.333 69.077-69.077 151.36-103.616 246.869-103.616 94.976 0 177.771 34.795 248.384 104.384 67.051 65.024 100.565 146.539 100.565 244.565 0 97.536-34.048 179.797-102.101 246.848-67.563 68.565-149.845 102.848-246.848 102.848zM686.464 548.566c6.592 0 12.203-2.283 16.768-6.869 4.565-4.565 6.869-10.176 6.869-16.768v-313.899c0-6.613-2.283-12.181-6.869-16.747-4.565-4.587-10.155-6.869-16.768-6.869h-232.384c-6.613 0-12.203 2.283-16.768 6.869-4.565 4.565-6.848 10.155-6.848 16.747v92.949h-92.949c-6.613 0-12.203 2.283-16.768 6.848s-6.848 10.155-6.848 16.768v313.899c0 6.101 2.027 11.285 6.101 15.616 4.053 4.309 9.131 6.976 15.232 8h234.667c6.592 0 12.203-2.283 16.768-6.848s6.848-10.176 6.848-16.768v-92.949h92.949zM360.384 350.464h70.101v174.464c0 6.101 2.027 11.307 6.101 15.616 4.053 4.309 8.875 6.976 14.464 8h96v69.333h-186.667v-267.413zM663.616 502.080h-186.667v-267.435h186.667v267.435z" />
</svg>