<svg width="24" height="24" viewBox="0 0 1000 1000">
  <path d="M511.232 853.334c119.36 0 220.437-41.387 303.232-124.203 82.795-82.283 124.203-183.104 124.203-302.464s-40.64-219.435-121.92-300.181c-85.845-84.331-187.691-126.464-305.515-126.464-115.307 0-215.381 41.899-300.181 125.717-83.819 83.797-125.717 184.128-125.717 300.949 0 116.309 41.899 217.131 125.717 302.464 82.773 82.773 182.848 124.181 300.181 124.181zM512.768 776.363c-97.024 0-179.051-34.283-246.101-102.848-69.611-70.613-104.384-152.896-104.384-246.848 0-94.997 34.539-176.768 103.616-245.333 69.077-69.077 151.36-103.616 246.869-103.616 94.976 0 177.771 34.795 248.384 104.384 67.051 65.003 100.565 146.539 100.565 244.565 0 97.536-34.048 179.819-102.101 246.848-67.563 68.565-149.845 102.848-246.848 102.848zM322.283 486.848c8.128 52.309 29.205 92.821 63.232 121.515s75.435 43.051 124.203 43.051c67.051 0 120.384-21.589 160-64.768s59.435-98.539 59.435-166.080c0-65.536-20.565-120-61.717-163.435s-94.485-65.131-160-65.131c-48.256 0-89.899 14.464-124.949 43.435-35.051 28.949-56.128 70.101-63.232 123.435h107.435c2.539-51.819 33.771-77.717 93.717-77.717 29.952 0 54.101 12.949 72.384 38.848s27.435 60.437 27.435 103.616c0 45.205-8.384 79.616-25.152 103.232s-40.896 35.435-72.384 35.435c-56.896 0-88.896-25.131-96-75.435h31.232l-84.565-84.587-84.565 84.587h33.493z" />
</svg>