<svg width="24" height="24" viewBox="0 0 1000 1000">
  <path d="M709.781 423.552c0-20.437-3.115-36.16-9.344-47.104-5.632-10.368-13.333-15.552-23.104-15.552-6.805 0-12.885 1.344-18.219 4.011v99.563c8.597 8.896 17.045 13.333 25.344 13.333 16.875-0.021 25.323-18.091 25.323-54.251zM904.448 439.552h-48.896c1.771 29.035 10.069 43.563 24.896 43.563 15.104 0 23.104-14.528 24-43.563zM211.563 379.563c0 17.472-4.885 31.040-14.677 40.661-9.771 9.621-24.747 18.155-44.885 25.557-10.667 3.861-18.368 7.403-23.104 10.667s-7.104 6.955-7.104 11.115c0 7.701 5.632 11.563 16.896 11.563 17.195 0 35.563-4.885 55.104-14.677l8 49.771c-19.861 9.472-41.92 14.229-66.219 14.229-22.805 0-41.045-5.632-54.677-16.896-14.229-11.563-21.333-27.712-21.333-48.448 0-17.173 4.821-30.592 14.443-40.213s24.363-18.005 44.224-25.109c11.563-4.139 19.627-7.915 24.213-11.328s6.891-7.488 6.891-12.224c0-9.195-7.104-13.781-21.333-13.781-8.597 0-18.965 1.856-31.104 5.547-12.139 3.712-22.805 8.213-32 13.547l-8-50.219c21.333-12.139 46.229-18.219 74.667-18.219 24 0 43.115 5.483 57.344 16.448 15.083 12.16 22.656 29.483 22.656 52.011zM342.656 475.115l8.448 49.344h-42.667v60.011l-57.344-9.344-8-50.667-20.437-3.563-7.552-45.781h27.563v-97.344c0-24.896 6.528-42.667 19.563-53.333 11.264-8.896 27.712-13.333 49.344-13.333 9.472 0 21.184 1.621 35.115 4.885v52.437c-9.472-2.069-16-3.115-19.563-3.115-12.437 0-18.667 7.403-18.667 22.229v87.552h34.197zM483.115 464v61.781c-4.437 0.896-8.597 1.344-12.437 1.344-9.472 0-17.707-2.368-24.661-7.104s-11.925-11.563-14.891-20.437l-4.437 24.896h-58.219v-209.344h66.667v136c7.701 9.195 19.861 13.781 36.437 13.781 4.715-0.021 8.576-0.32 11.541-0.917zM499.563 315.115h66.667v209.344h-66.667v-209.344zM776 425.771c0 36.16-6.677 62.677-19.989 79.552-11.861 15.403-28.288 23.104-49.344 23.104-18.965 0-36.288-8.299-52.011-24.896l-3.563 20.885h-58.667v-286.677l66.667 11.115v67.115c10.667-3.264 20.736-4.885 30.229-4.885 24.597 0 44.437 8.299 59.563 24.896 18.069 19.285 27.115 49.216 27.115 89.792zM568 580.438c0 9.771-3.413 18.069-10.219 24.896-6.805 6.805-15.104 10.219-24.896 10.219-9.771 0-18.069-3.413-24.896-10.219s-10.219-15.104-10.219-24.896c0-9.771 3.413-18.155 10.219-25.109s15.104-10.453 24.896-10.453c9.771 0 18.069 3.477 24.896 10.453 6.805 6.976 10.219 15.339 10.219 25.109zM967.104 421.782c0 33.493-7.104 59.563-21.333 78.229-14.805 18.965-36.139 28.437-64 28.437-28.437 0-50.88-9.771-67.328-29.333s-24.661-46.229-24.661-80c0-37.931 9.344-65.771 28.011-83.563 16.299-16.299 40.149-24.448 71.552-24.448 29.931 0 53.632 5.931 71.104 17.771l-7.104 45.781c-16.896-9.195-35.861-13.781-56.896-13.781-12.736 0-22.080 2.816-28.011 8.448-6.805 5.632-10.965 15.403-12.437 29.333h110.229c0.576 4.16 0.875 11.861 0.875 23.125zM1024 711.104v-568.896c0-15.403-5.632-28.736-16.896-40s-24.597-16.896-40-16.896h-910.208c-15.403 0-28.736 5.632-40 16.896s-16.896 24.597-16.896 40v568.896c0 15.403 5.632 28.736 16.896 40s24.597 16.896 40 16.896h910.229c15.403 0 28.736-5.632 40-16.896 11.243-11.243 16.875-24.576 16.875-40z" />
</svg>