<svg width="24" height="24" viewBox="0 0 1000 1000">
  <path d="M877.781 384.896h-61.333c4.139 10.965 13.931 37.483 29.333 79.552l1.344 4.011c1.195 2.965 2.667 6.827 4.437 11.563s3.115 8.597 4.011 11.563l5.333-24.448 16.875-82.24zM235.989 413.782l-25.771 131.115c-3.264 16-14.379 24-33.344 24h-119.104l-0.896-5.781c92.16-23.403 151.872-73.195 179.115-149.333zM315.563 568.896l-72-194.667-7.552 39.552c-7.701 20.736-20.288 39.936-37.781 57.557s-36.885 30.741-58.219 39.339l60.011-226.667h77.781l116.011 284.885h-78.251zM377.323 283.563h73.771l46.229 285.333h-73.771l-46.229-285.333zM718.656 561.771c-20.437 8-42.517 12.011-66.219 12.011-36.437 0-66.219-8.747-89.344-26.219-23.104-17.493-34.816-40.149-35.115-68.011-0.299-30.229 21.184-56 64.448-77.333 14.229-6.827 24.149-12.885 29.781-18.219s8.448-11.115 8.448-17.344c0-8.896-4.437-15.701-13.333-20.437s-19.115-7.104-30.677-7.104c-25.472 0-48.597 4.885-69.333 14.677l-9.771 4.885-10.219-64c21.931-10.069 49.344-15.104 82.219-15.104 38.528-0.299 69.397 8.448 92.672 26.219 23.253 17.771 35.179 41.493 35.776 71.104 0 31.403-20.736 57.173-62.229 77.333-14.528 7.403-25.045 13.632-31.552 18.667-6.528 5.035-9.771 10.667-9.771 16.896 0 6.528 3.627 12.224 10.88 17.109s17.707 7.339 31.339 7.339c20.736 0.299 39.104-3.264 55.104-10.667l6.677-3.563 10.219 61.76zM907.563 568.896h-56.896c-19.264 0-32.149-8-38.677-24l-109.333-261.333h77.333l15.552 42.667h94.229c1.472-6.528 4.437-20.736 8.896-42.667h68.437l-59.541 285.333zM1024 711.104v-568.896c0-15.403-5.632-28.736-16.896-40s-24.597-16.896-40-16.896h-910.229c-15.403 0-28.736 5.632-40 16.896s-16.896 24.597-16.896 40v568.896c0 15.403 5.632 28.736 16.896 40s24.597 16.896 40 16.896h910.229c15.403 0 28.736-5.632 40-16.896 11.264-11.243 16.896-24.576 16.896-40z" />
</svg>