<svg width="24" height="24" viewBox="0 0 1000 1000">
  <path d="M512 672.256c-140.864 0-176.299-132.907-176.299-245.589 0-112.704 35.413-245.589 176.299-245.589 140.864 0 176.277 132.907 176.277 245.589s-35.413 245.589-176.277 245.589zM512 579.648c5.717 0 10.944-0.896 15.829-2.091 10.133-8.747 15.104-20.8 5.376-37.632l-93.824-172.395c-2.88 21.803-3.285 43.2-3.285 59.157 0.021 49.621 3.456 152.96 75.904 152.96zM582.208 500.16c4.971-26.453 5.675-54.080 5.675-73.493 0-49.643-3.456-152.981-75.883-152.981-5.717 0-10.965 0.576-15.829 1.792-0.939 0.277-1.792 0.576-2.688 0.896-1.493 0.448-3.072 0.917-4.48 1.493-16.128 6.869-26.304 19.285-11.648 41.237l104.853 181.056zM511.104 853.334c-118.357 0-218.112-41.195-299.371-124.011-41.152-41.152-72.576-88.085-94.421-140.437-21.333-51.819-31.957-105.856-31.957-162.24 0-56.896 10.624-110.933 31.957-162.24 21.333-51.328 52.288-97.493 92.928-138.645 41.131-40.64 87.317-72 138.645-93.824 51.797-21.333 105.835-31.957 162.24-31.957 56.384 0 111.211 11.008 164.032 32.875 52.821 21.845 99.968 53.248 141.632 94.421 40.128 39.104 70.507 83.968 90.837 134.741 20.8 51.307 31.061 106.197 31.061 164.629 0 57.899-10.261 112.725-31.061 164.032-20.843 51.797-51.307 97.6-91.435 137.728-83.861 83.349-185.728 124.928-305.088 124.928zM512.896 776.555c96.512 0 178.816-34.219 247.381-102.784 33.024-33.024 58.325-70.805 75.605-112.939 17.28-42.155 25.984-86.912 25.984-134.165 0-98.027-33.536-179.392-100.075-244.395-34.56-33.536-73.365-59.307-116.544-77.099-42.667-17.771-86.635-26.581-132.373-26.581-46.229 0-90.496 8.725-132.651 25.984-42.176 17.792-80.021 43.179-113.536 76.203-33.536 33.515-59.392 71.36-77.675 113.536-17.771 42.667-26.901 86.635-26.901 132.352 0 46.229 9.109 90.496 26.901 132.651 18.283 42.667 44.16 80.981 77.675 115.051 66.539 68.053 148.672 102.187 246.208 102.187z" />
</svg>