<svg width="24" height="24" viewBox="0 0 1000 1000">
  <path d="M930.901 507.051c-0.149 0.64-0.256 1.301-0.384 1.963-2.389 12.181-5.355 24.256-8.811 36.139-0.555 1.984-1.152 3.968-1.749 5.931-3.349 11.008-7.125 21.845-11.349 32.512-1.088 2.752-2.219 5.483-3.371 8.213-4.267 10.197-8.875 20.224-13.931 30.059-1.429 2.795-2.987 5.525-4.48 8.299-5.355 9.899-11.029 19.648-17.173 29.12-1.387 2.133-2.901 4.181-4.309 6.293-6.805 10.091-13.973 19.968-21.696 29.483-0.811 1.024-1.707 2.005-2.539 3.029-8.533 10.368-17.536 20.416-27.157 29.995-0.064 0.085-0.128 0.192-0.235 0.277-46.592 46.635-102.272 80.683-162.837 101.483-41.515 14.272-85.291 22.208-130.304 23.083-2.859 0.064-5.696 0.427-8.555 0.427v0 0h-0.021c-111.275 0-215.829-42.539-295.701-119.552-1.941-1.877-4.053-3.499-5.973-5.419v-0.021h-0.021v-0.021c-9.728-9.707-18.837-19.904-27.477-30.421-0.789-0.939-1.621-1.835-2.389-2.795-7.723-9.557-14.933-19.499-21.781-29.653-1.387-2.069-2.859-4.053-4.203-6.144-6.187-9.493-11.883-19.285-17.259-29.248-1.493-2.709-3.008-5.419-4.416-8.171-5.077-9.856-9.685-19.925-13.952-30.123-1.152-2.731-2.283-5.419-3.371-8.171-4.224-10.688-8-21.547-11.371-32.533-0.576-1.984-1.173-3.968-1.728-5.909-3.456-11.925-6.421-24-8.832-36.181-0.107-0.64-0.235-1.28-0.363-1.92-6.549-34.027-9.109-68.971-7.168-104.192l0.661 0.043c5.611-101.205 46.507-200.789 123.648-277.931l60.352 60.331c-64.683 64.683-97.664 149.056-99.477 234.027-0.107 4.672-0.107 9.344-0.021 13.973 0.128 6.635 0.427 13.248 0.939 19.861 0.405 4.992 0.939 10.005 1.557 14.976 0.725 6.059 1.536 12.117 2.603 18.176 1.067 5.803 2.347 11.563 3.691 17.323 1.173 5.099 2.283 10.219 3.712 15.275 1.941 6.912 4.245 13.739 6.635 20.501 1.344 3.861 2.539 7.723 4.011 11.52 3.136 8.064 6.741 15.936 10.517 23.744 1.216 2.496 2.24 5.056 3.499 7.552 4.523 8.832 9.536 17.408 14.827 25.835 0.917 1.472 1.685 3.029 2.624 4.459 5.845 9.045 12.267 17.771 19.008 26.24 0.64 0.832 1.195 1.707 1.856 2.539 7.488 9.301 15.509 18.219 24.043 26.752 64.491 64.448 150.187 99.968 241.365 99.968 91.157 0 176.875-35.499 241.344-99.968 8.512-8.533 16.555-17.472 24.064-26.795 0.491-0.619 0.917-1.301 1.387-1.92 6.912-8.661 13.44-17.6 19.435-26.88 0.875-1.344 1.579-2.752 2.432-4.096 5.355-8.512 10.453-17.237 15.019-26.176 1.259-2.432 2.261-4.928 3.435-7.403 3.776-7.851 7.424-15.787 10.581-23.893 1.472-3.776 2.667-7.616 3.968-11.435 2.411-6.784 4.715-13.632 6.677-20.587 1.408-5.035 2.539-10.155 3.712-15.253 1.344-5.76 2.624-11.499 3.669-17.323 1.088-6.037 1.899-12.096 2.624-18.176 0.619-4.971 1.173-9.984 1.557-14.976 0.512-6.613 0.811-13.227 0.96-19.861 0.085-4.651 0.043-9.323-0.043-13.973-1.813-84.949-34.816-169.344-99.477-234.027l60.331-60.331c77.163 77.141 118.059 176.725 123.669 277.931l0.64-0.043c1.963 35.2-0.597 70.165-7.125 104.192zM767.637 412.374c0.128 2.176-0.043 4.331 0 6.507 0.085 2.603 0.405 5.163 0.405 7.787 0 2.389-0.277 4.736-0.363 7.125-0.085 3.691-0.277 7.381-0.533 11.051-0.384 5.525-0.96 10.987-1.707 16.427-0.384 2.859-0.747 5.717-1.259 8.555-1.088 6.443-2.453 12.821-4.032 19.115-0.448 1.835-0.875 3.691-1.365 5.504-1.984 7.253-4.309 14.357-6.912 21.397-0.384 1.003-0.704 2.048-1.109 3.051-2.901 7.552-6.187 14.912-9.792 22.144-0.32 0.597-0.555 1.259-0.896 1.856-3.712 7.275-7.787 14.357-12.203 21.269-0.405 0.597-0.704 1.259-1.131 1.856-4.288 6.635-8.981 13.035-13.931 19.264-0.64 0.811-1.195 1.685-1.856 2.496-5.589 6.869-11.52 13.547-17.877 19.904-48.363 48.384-112.661 75.008-181.035 75.008-68.395 0-132.693-26.624-181.035-75.008-6.357-6.357-12.267-13.013-17.877-19.904-0.661-0.811-1.216-1.685-1.877-2.496-4.928-6.229-9.621-12.651-13.909-19.264-0.405-0.597-0.747-1.259-1.131-1.856-4.416-6.912-8.491-13.995-12.203-21.269-0.341-0.597-0.576-1.259-0.896-1.856-3.627-7.232-6.891-14.613-9.813-22.144-0.384-1.003-0.704-2.048-1.088-3.051-2.603-7.040-4.928-14.144-6.912-21.397-0.491-1.813-0.917-3.669-1.365-5.504-1.579-6.315-2.944-12.693-4.032-19.115-0.491-2.859-0.875-5.717-1.259-8.555-0.747-5.44-1.344-10.901-1.728-16.427-0.256-3.669-0.448-7.36-0.555-11.051-0.064-2.389-0.32-4.736-0.32-7.125 0-2.624 0.32-5.184 0.384-7.787 0.043-2.176-0.128-4.331 0-6.507l0.299 0.021c3.456-63.019 29.333-121.813 74.304-166.763l60.352 60.331c-30.997 30.976-48.427 71.787-49.771 115.349-0.107 3.413-0.107 6.805-0.021 10.197 0.085 2.411 0.213 4.8 0.363 7.189 0.277 3.733 0.64 7.424 1.152 11.115 0.256 1.877 0.512 3.733 0.832 5.589 0.725 4.309 1.643 8.597 2.709 12.843 0.299 1.216 0.576 2.411 0.917 3.627 1.344 4.843 2.88 9.6 4.629 14.315 0.256 0.64 0.448 1.323 0.704 1.963 1.941 5.056 4.139 10.027 6.592 14.869 0.192 0.384 0.341 0.747 0.512 1.131 2.475 4.885 5.269 9.664 8.213 14.315 0.256 0.384 0.427 0.747 0.683 1.109 2.923 4.523 6.101 8.853 9.451 13.099 0.384 0.448 0.683 0.96 1.067 1.408 3.733 4.608 7.701 9.067 11.947 13.291 32.277 32.256 75.115 50.005 120.704 50.005s88.427-17.749 120.683-50.005c4.245-4.224 8.235-8.683 11.968-13.291 0.384-0.448 0.683-0.96 1.067-1.408 3.349-4.245 6.549-8.576 9.451-13.099 0.256-0.363 0.448-0.725 0.661-1.109 2.965-4.651 5.739-9.408 8.235-14.315 0.192-0.384 0.363-0.747 0.512-1.131 2.432-4.864 4.651-9.813 6.592-14.869 0.256-0.64 0.448-1.323 0.704-1.963 1.749-4.715 3.285-9.472 4.629-14.315 0.341-1.216 0.597-2.411 0.917-3.627 1.067-4.224 1.963-8.512 2.709-12.843 0.32-1.856 0.555-3.712 0.811-5.589 0.512-3.691 0.896-7.381 1.173-11.115 0.171-2.389 0.277-4.779 0.341-7.189 0.107-3.371 0.107-6.763-0.021-10.197-1.323-43.563-18.752-84.373-49.728-115.349l60.331-60.331c44.971 44.949 70.848 103.744 74.304 166.763l0.235-0.021zM597.376 426.667c0 47.125-38.208 85.333-85.333 85.333s-85.333-38.208-85.333-85.333c0-37.312 24.107-68.693 57.451-80.299l-57.451-346.368h170.667l-57.493 346.368c33.387 11.605 57.493 42.987 57.493 80.299z" />
</svg>