<svg width="24" height="24" viewBox="0 0 1000 1000">
  <path d="M269.248 227.648c-58.133 69.419-99.221 165.44-99.221 263.787 0 100.544 36.821 192.533 97.387 262.485 5.248 6.123 2.581 2.923 8.171 8.597l0.192 0.341-71.573 47.808c-73.707-84.203-118.891-195.029-118.848-316.629 0-123.285 46.272-235.669 121.749-320.277l68.8 45.931c-1.088 1.344-2.112 2.752-3.307 3.968-1.024 1.216-2.133 2.496-3.349 3.989zM819.819 810.667l-71.595-47.808 0.213-0.341c5.589-5.696 2.923-2.475 8.171-8.597 60.587-69.931 97.408-161.941 97.408-262.485 0-98.347-41.088-194.368-99.243-263.787-1.195-1.493-2.261-2.773-3.307-3.989-1.237-1.216-2.219-2.624-3.307-3.968l68.821-45.931c75.477 84.608 121.749 196.971 121.749 320.277 0 121.6-45.205 232.427-118.912 316.629zM331.349 697.302c-46.656-55.467-75.328-127.168-75.328-205.952 0-78.805 28.693-150.613 75.392-206.101l69.077 46.123c-36.651 42.069-59.136 97.301-59.136 157.973 0 61.803 23.403 118.016 61.312 160.363l-71.317 47.595zM692.672 697.302l-71.339-47.595c37.931-42.325 61.333-98.539 61.333-160.363 0-60.693-22.528-115.925-59.157-157.973l69.099-46.123c46.677 55.509 75.392 127.296 75.392 206.101 0 78.784-28.651 150.485-75.328 205.952zM512 576.683c-47.125 0-85.333-38.272-85.333-85.461 0-31.552 17.259-58.795 42.667-73.579v-374.976h85.333v374.976c25.408 14.805 42.667 42.048 42.667 73.579 0 47.189-38.208 85.461-85.333 85.461z" />
</svg>