<svg width="24" height="24" viewBox="0 0 1000 1000">
  <path d="M981.333 597.334c0-46.933-38.4-85.333-85.333-85.333-7.68 0-14.933 0.853-21.76 2.987l-151.893-151.467c2.133-6.827 2.987-14.507 2.987-22.187 0-46.933-38.4-85.333-85.333-85.333s-85.333 38.4-85.333 85.333c0 7.68 0.853 15.36 2.987 22.187l-108.8 108.8c-6.827-2.133-14.507-2.987-22.187-2.987s-15.36 0.853-22.187 2.987l-194.133-194.56c2.133-6.827 2.987-14.080 2.987-21.76 0-46.933-38.4-85.333-85.333-85.333s-85.333 38.4-85.333 85.333 38.4 85.333 85.333 85.333c7.68 0 14.933-0.853 21.76-2.987l194.56 194.133c-2.133 6.827-2.987 14.507-2.987 22.187 0 46.933 38.4 85.333 85.333 85.333s85.333-38.4 85.333-85.333c0-7.68-0.853-15.36-2.987-22.187l108.8-108.8c6.827 2.133 14.507 2.987 22.187 2.987s15.36-0.853 22.187-2.987l151.467 151.893c-2.133 6.827-2.987 14.080-2.987 21.76 0 46.933 38.4 85.333 85.333 85.333s85.333-38.4 85.333-85.333z" />
</svg>