<svg width="24" height="24" viewBox="0 0 1000 1000">
  <path d="M426.581 512h170.667v-170.667h-170.667v170.667zM896 469.334v85.333h-85.333v128c0 23.467-19.2 42.667-42.667 42.667h-128v85.333h-85.333v-85.333h-85.333v85.333h-85.333v-85.333h-128c-23.467 0-42.667-19.2-42.667-42.667v-128h-85.333v-85.333h85.333v-85.333h-85.333v-85.333h85.333v-128c0-23.467 19.2-42.667 42.667-42.667h128v-85.333h85.333v85.333h85.333v-85.333h85.333v85.333h128c23.467 0 42.667 19.2 42.667 42.667v128h85.333v85.333h-85.333v85.333h85.333zM640 298.667h-256v256h256v-256z" />
</svg>