<svg width="24" height="24" viewBox="0 0 1000 1000">
  <path d="M511.997 208.313c-43.328 0-82.773 11.669-118.357 34.987-35.563 23.339-62.229 53.333-80 90.005l-174.976 306.688c-36.672-65.579-53.333-138.901-53.333-213.333 0-106.667 34.709-199.723 104.149-279.168s155.84-126.933 259.179-142.507l123.755 214.165c-12.437-3.648-33.216-10.837-60.416-10.837v0zM377.832 599.182c39.403 30.528 84.16 40.832 134.165 40.832 6.677 0 366.677 0 366.677 0-37.781 64.427-89.173 118.891-154.155 156.672-65.024 37.76-135.851 56.661-212.501 56.661-66.667 0-128.896-14.165-186.667-42.496-57.792-28.331-111.253-69.568-150.421-122.517l123.755-208.32c12.203 47.744 39.68 88.576 79.147 119.168v0zM906.579 586.66h-247.915c43.328-43.328 71.68-98.901 71.68-160 0-45.568-12.779-87.232-38.336-125.013l-174.997-301.653c116.672 1.131 216.107 43.328 298.347 126.677 82.176 83.328 123.307 183.339 123.307 300.011 0 54.421-9.173 111.659-32.085 159.979v0zM671.997 426.66c0-88.366-71.634-160-160-160s-160 71.634-160 160c0 88.366 71.634 160 160 160s160-71.634 160-160z" />
</svg>