<svg width="24" height="24" viewBox="0 0 1000 1000">
  <path d="M640 469.334v256l-128 128-128-128v-85.333h-256v-597.333h768v426.667h-256zM298.667 128h-85.333v85.333h85.333v-85.333zM298.667 298.667h-85.333v85.333h85.333v-85.333zM298.667 469.334h-85.333v85.333h85.333v-85.333zM554.667 128h-85.333v85.333h85.333v-85.333zM554.667 298.667h-85.333v85.333h85.333v-85.333zM554.667 469.334h-85.333v85.333h85.333v-85.333zM554.667 640h-85.333v85.333h85.333v-85.333zM810.667 128h-85.333v85.333h85.333v-85.333zM810.667 298.667h-85.333v85.333h85.333v-85.333z" />
</svg>