<svg width="24" height="24" viewBox="0 0 1000 1000">
  <path d="M810.667 554.667l-21.333-1.28c-11.093 143.787-130.987 257.28-277.333 257.28-115.2 0-213.333-70.4-256-170.667-117.824 0-213.333-95.509-213.333-213.333s95.509-213.333 213.333-213.333h554.667c94.251 0 170.667 76.416 170.667 170.667s-76.416 170.667-170.667 170.667zM810.667 298.667h-554.667c-70.699 0-128 57.323-128 128 0 70.699 57.301 128 128 128h46.933c19.883 97.109 105.301 170.667 209.067 170.667 117.824 0 213.333-95.509 213.333-213.333v-42.667h85.333c47.125 0 85.333-38.208 85.333-85.333s-38.208-85.333-85.333-85.333z" />
</svg>