<svg width="24" height="24" viewBox="0 0 1000 1000">
  <path d="M85.333 341.334c0 94.293 76.373 170.667 170.667 170.667h30.293c28.16 98.56 118.187 170.667 225.707 170.667 43.861 0 84.757-12.224 119.872-33.131l61.824 61.824c-51.584 35.712-114.155 56.64-181.696 56.64-123.307 0-230.4-69.973-283.733-172.373-128.427-13.653-228.267-122.453-228.267-254.293 0-87.872 44.48-165.483 112.085-211.584l61.909 61.909c-52.843 28.992-88.661 85.12-88.661 149.675zM825.6 510.294c-6.528 33.131-18.219 64.341-34.091 92.885l104.491 104.491-60.331 60.331-707.669-707.669 60.331-60.331 85.333 85.333h537.003c117.76 0 213.333 95.573 213.333 213.333 0 112.64-87.467 203.947-198.4 211.627zM810.667 170.667h-451.669l368.875 368.896c11.989-28.139 18.795-59.008 18.795-91.563v-21.333h64c70.827 0 128-57.173 128-128s-57.173-128-128-128z" />
</svg>