<svg width="24" height="24" viewBox="0 0 1000 1000">
  <path d="M768 341.334h-85.333v170.667h85.333c94.101 0 170.667 76.565 170.667 170.667s-76.565 170.667-170.667 170.667-170.667-76.565-170.667-170.667v-85.333h-170.667v85.333c0 94.101-76.565 170.667-170.667 170.667s-170.667-76.565-170.667-170.667 76.565-170.667 170.667-170.667h85.333v-170.667h-85.333c-94.101 0-170.667-76.565-170.667-170.667s76.565-170.667 170.667-170.667 170.667 76.565 170.667 170.667v85.333h170.667v-85.333c0-94.101 76.565-170.667 170.667-170.667s170.667 76.565 170.667 170.667-76.565 170.667-170.667 170.667zM682.667 682.667c0 47.061 38.272 85.333 85.333 85.333s85.333-38.272 85.333-85.333-38.272-85.333-85.333-85.333h-85.333v85.333zM256 597.334c-47.061 0-85.333 38.272-85.333 85.333s38.272 85.333 85.333 85.333 85.333-38.272 85.333-85.333v-85.333h-85.333zM341.333 170.667c0-47.061-38.272-85.333-85.333-85.333s-85.333 38.272-85.333 85.333 38.272 85.333 85.333 85.333h85.333v-85.333zM426.667 341.334v170.667h170.667v-170.667h-170.667zM768 85.334c-47.061 0-85.333 38.272-85.333 85.333v85.333h85.333c47.061 0 85.333-38.272 85.333-85.333s-38.272-85.333-85.333-85.333z" />
</svg>