<svg width="24" height="24" viewBox="0 0 1000 1000">
  <path d="M512 853.334c-235.648 0-426.667-191.019-426.667-426.667s191.019-426.667 426.667-426.667 426.667 191.019 426.667 426.667-191.019 426.667-426.667 426.667zM512 85.334c-188.523 0-341.333 152.832-341.333 341.333s152.811 341.333 341.333 341.333 341.333-152.832 341.333-341.333-152.832-341.333-341.333-341.333zM426.667 512l-128-298.667 298.667 128 128 298.667-298.667-128zM512 384c-23.573 0-42.667 19.115-42.667 42.667s19.093 42.667 42.667 42.667 42.667-19.115 42.667-42.667-19.115-42.667-42.667-42.667z" />
</svg>