<svg width="24" height="24" viewBox="0 0 1000 1000">
  <path d="M981.333 427.115c0-6.421-1.984-11.989-5.952-16.725s-9.024-7.723-15.125-8.939l-93.952-163.157c0.917-2.752 1.365-5.504 1.365-8.256 0-6.101-1.92-11.541-5.739-16.277s-8.789-7.723-14.891-8.939l-88.448-154.453c0.917-2.453 1.365-4.885 1.365-7.339 0-7.019-2.517-13.141-7.552-18.325s-11.221-7.787-18.56-7.787c-7.637 0-13.909 2.752-18.795 8.256h-183.339c-5.184-6.101-11.755-9.173-19.712-9.173s-14.507 3.051-19.712 9.173h-182.869c-5.184-6.101-11.755-9.173-19.712-9.173-7.019 0-13.141 2.517-18.325 7.552s-7.787 11.221-7.787 18.56c0 2.453 0.619 5.504 1.835 9.173l-88.448 153.536c-6.101 1.216-11.072 4.203-14.891 8.939s-5.739 10.155-5.739 16.277c0 2.752 0.448 5.504 1.365 8.256l-94.421 163.157c-6.101 1.536-11.072 4.672-14.891 9.387s-5.739 10.155-5.739 16.277c0 6.421 2.069 11.989 6.187 16.725s9.237 7.723 15.36 8.939l91.2 157.675c0 0.299-0.085 0.768-0.235 1.365s-0.235 1.067-0.235 1.365c0 11.008 5.184 18.795 15.573 23.381l95.787 166.379c-1.216 3.051-1.835 5.803-1.835 8.256 0 7.339 2.603 13.525 7.787 18.56s11.307 7.552 18.325 7.552c7.936 0 14.677-3.2 20.16-9.621h181.504c4.885 6.421 11.456 9.621 19.712 9.621s14.827-3.2 19.712-9.621h182.421c5.504 6.421 12.224 9.621 20.16 9.621 7.019 0 13.141-2.517 18.325-7.552s7.787-11.221 7.787-18.56c0-1.835-0.619-4.587-1.835-8.256l94.869-164.075c7.019-0.299 12.992-2.987 17.877-8.021s7.339-10.923 7.339-17.643c0-3.968-1.067-8.107-3.2-12.373l85.717-148.501c5.803-1.216 10.624-4.203 14.443-8.939s5.76-10.155 5.76-16.277zM529.877 60.907h178.283l-156.757 162.24h-65.536l-156.757-162.24h164.992c5.504 4.885 11.456 7.339 17.877 7.339s12.395-2.432 17.899-7.339zM93.995 433.088c0.299-1.216 0.448-3.2 0.448-5.952 0-3.051-0.299-5.355-0.917-6.869l95.339-164.992c0.619 0 1.301-0.149 2.069-0.448s1.6-0.683 2.517-1.152l2.283-1.152 86.165 91.2v159.040l-85.717 88.917c-3.968-2.453-8.405-3.968-13.291-4.587l-88.896-154.005zM494.592 792.427h-177.835l87.083-91.669 253.909 91.669h-128.341c-4.885-4.885-10.688-7.339-17.408-7.339s-12.523 2.432-17.408 7.339zM816.789 236.907c0.299 1.835 1.067 3.52 2.283 5.035l-29.333 31.168-7.787-36.203h34.837zM768.213 236.907l10.091 48.128-115.499 121.92-135.659-140.715 28.885-29.333h212.181zM727.872 68.246l7.339 12.843 29.781 142.080h-195.712l152.619-157.205c2.453 1.216 4.459 1.984 5.973 2.283zM307.584 60.907h2.283l156.757 162.24h-170.965v-153.536l1.835-2.752c4.288-1.515 7.637-3.499 10.091-5.952zM295.659 236.907h184.256l29.333 30.251-141.632 147.115-71.957-76.075v-101.291zM207.211 236.907h74.709v86.635l-76.992-81.131c1.216-2.432 1.984-4.267 2.283-5.504zM206.741 615.040c0-0.299 0.085-0.619 0.235-0.917s0.235-0.619 0.235-0.917c0-4.885-1.216-9.323-3.669-13.291l78.379-81.131v123.285l-75.179-27.029zM295.659 647.126v-142.549l70.123-71.957 136.128 143.915-102.208 108.16-104.043-37.568zM297.493 786.454l-1.835-3.669v-121.003l93.952 33.92-87.552 92.117c-1.813-0.597-3.328-1.045-4.565-1.365zM705.877 792.427h-7.339l-284.629-102.677 97.621-103.125 194.347 205.803zM511.531 566.912l-136.128-144.384 142.549-146.219 135.659 140.715-142.080 149.888zM357.995 423.915l-62.336 64.619v-130.176l62.336 65.557zM518.421 257.088l-19.243-20.16h38.955l-19.712 20.16zM672.405 416.576l109.077-115.051 60.501 285.995-1.365 2.283-0.448 0.448-167.765-173.675zM830.080 599.915c-2.453 3.968-3.669 8.405-3.669 13.291v0.917l-99.008 172.331c-1.536 0.299-3.52 1.067-5.952 2.283l-200.299-212.203 142.080-149.867 166.848 173.248zM281.92 656.747v102.208l-74.709-129.259 74.709 27.051zM281.92 223.168h-74.709l74.709-129.707v129.707zM779.2 223.168l-21.995-104.043 59.584 104.043h-37.589zM835.115 255.254l94.869 165.461c-0.619 3.051-0.917 5.184-0.917 6.421 0 0.299 0.448 2.752 1.365 7.339l-78.379 135.659-59.115-280.491 35.285-37.589c1.557 0.896 3.84 1.963 6.891 3.2z" />
</svg>