<svg width="24" height="24" viewBox="0 0 1000 1000">
  <path d="M170.667 534.656c0 43.669 15.253 81.408 45.76 113.259s67.584 47.744 111.253 47.744h371.008l176 179.008v-734.997c0-44.011-15.253-81.835-45.76-113.493s-67.584-47.509-111.253-47.509h-389.995c-43.669 0-80.747 15.829-111.253 47.509s-45.76 69.504-45.76 113.493v394.987zM786.667 157.675l-88 90.005v212.501c0 15.339-5.333 28.501-16 39.509s-23.659 16.491-38.997 16.491h-242.005c-15.339 0-28.331-5.504-38.997-16.491s-16-24.171-16-39.509v-245.995c0-15.339 5.419-28.587 16.256-39.744s23.744-16.747 38.741-16.747h385.003z" />
</svg>