<svg width="24" height="24" viewBox="0 0 1000 1000">
  <path d="M515.413-0c-104.533 0-200.107 37.973-273.92 101.12l-181.333-24.747 69.973 173.227c-23.467 54.187-37.973 113.067-37.973 177.067 0 234.667 189.44 426.667 423.253 426.667s423.253-192 423.253-426.667-189.44-426.667-423.253-426.667zM746.667 427.947v1.28c0 122.88-87.040 210.773-236.8 210.773h-161.707v-426.667h159.573c150.613 0 238.933 91.307 238.933 214.613zM512 318.294h-47.36v216.747h47.36c69.12 0 115.2-39.68 115.2-108.373v0c0-69.547-46.080-108.373-115.2-108.373z" />
</svg>