<svg width="24" height="24" viewBox="0 0 1000 1000">
  <path d="M256 768h-85.333v-768h597.333v85.333h-512zM341.355 127.958c-11.307 0-22.165 4.501-30.165 12.501s-12.501 18.859-12.501 30.165v640c0 23.552 19.093 42.667 42.667 42.667l273.984 0.043c11.307 0 22.165-4.501 30.165-12.501l195.328-195.328c8-8 12.501-18.859 12.501-30.165v-444.672c0-23.552-19.115-42.667-42.667-42.667l-469.312-0.043zM384.021 767.958v-554.667l383.979 0.043v384.341l-170.325 170.325-213.653-0.043zM825.323 597.334h-227.989v178.005z" />
</svg>