<svg width="24" height="24" viewBox="0 0 1000 1000">
  <path d="M233.344 530.454l278.677-172.053-192.917-160.768-276.416 179.947 190.656 152.875zM789.547 217.387v-60.928l-276.416-165.291v-0.555l-0.555 0.555-0.555-0.555v0.555l-275.84 165.291v60.928l82.923-54.165 192.917 160.213v1.131l0.555-0.555 0.555 0.555v-1.131l193.493-160.213 82.923 54.165zM319.083 862.72l192.917-160.768-278.677-171.477-190.677 152.299 276.437 179.947zM790.677 530.454l190.677-152.875-275.84-179.947-193.493 160.768 278.656 172.053zM705.493 862.72l275.84-179.947-190.677-152.299-278.677 171.477 193.515 160.768z" />
</svg>