<svg width="24" height="24" viewBox="0 0 1000 1000">
  <path d="M423.744 642.283c-33.728-38.315-51.2-82.56-57.835-132.608 101.461 0 201.835 0 302.976 0 0 7.403 0.405 14.933-0.064 22.4-2.048 32.683-9.067 64.043-26.923 92.032-23.915 37.504-59.797 56.171-102.528 63.061-61.973 9.984-121.792-0.597-179.904-21.76-85.013-30.976-156.395-81.579-213.205-152.235-9.557-11.883-18.048-24.597-28.523-38.976 0.875 7.147 1.365 12.309 2.133 17.429 12.245 81.835 41.707 156.48 94.763 220.587 62.336 75.328 142.677 119.979 239.040 135.509 93.867 15.147 182.656-0.085 265.067-47.808 75.861-43.947 128.149-108.309 159.36-189.909 18.005-47.061 26.795-95.957 27.243-146.347 0.277-31.744 0.576-63.488 0.853-95.211 0.021-3.157 0-6.336 0-10.731-179.349 0-357.888 0-537.045 0 0.213-44.053 13.035-82.005 42.603-113.536 34.368-36.629 78.464-54.421 126.763-61.461 101.419-14.784 196.928 3.733 286.037 54.635 2.283 1.301 4.565 2.624 6.848 3.904 0.235 0.128 0.555 0.064 1.92 0.171 0.192-3.072 0.533-6.144 0.533-9.216 0.021-54.101-0.107-108.203 0.149-162.304 0.021-6.208-1.984-9.429-7.467-12.16-63.893-31.851-131.52-50.027-202.56-55.531-45.269-3.52-90.411-3.541-135.232 5.547-134.869 27.328-242.432 126.080-267.115 264.981-28.16 158.507 47.275 304.832 198.827 369.557 0.491 0.171 1.131-0.021 3.285-0.021z" />
</svg>