<svg width="24" height="24" viewBox="0 0 1000 1000">
  <path d="M512 853.334c-235.648 0-426.667-191.019-426.667-426.667 0-235.627 191.019-426.667 426.667-426.667s426.667 191.040 426.667 426.667c0 235.648-191.019 426.667-426.667 426.667zM512 768c126.293 0 236.8-68.693 295.68-170.667h-591.36c58.88 101.973 169.387 170.667 295.68 170.667zM512 85.334c-188.523 0-341.333 152.832-341.333 341.333 0 21.739 2.112 43.008 5.973 63.637 26.475-48.491 134.592-84.971 186.027-84.971 58.88 0 117.333 47.787 117.333 106.667h64c0-58.88 58.453-106.667 117.333-106.667 51.456 0 159.552 36.48 186.027 84.971 3.84-20.629 5.973-41.899 5.973-63.637 0-188.501-152.811-341.333-341.333-341.333zM707.733 333.206c-19.093 13.781-45.76 9.579-59.605-9.472-0.469-0.683-51.499-67.733-136.128-67.733-82.667 0-135.552 67.029-136.661 68.437-14.144 18.688-40.768 22.507-59.605 8.363-18.859-14.123-22.677-40.875-8.512-59.733 3.115-4.16 78.251-102.4 204.8-102.4 129.024 0 202.155 98.731 205.205 102.933 13.824 19.093 9.557 45.76-9.493 59.605z" />
</svg>