<svg width="24" height="24" viewBox="0 0 1000 1000">
  <path d="M958.933 849.494c-38.4-38.827-101.12-69.973-178.773-92.16-73.387 60.16-167.253 96-269.227 96s-195.84-35.84-269.227-96c-77.653 22.187-140.373 53.333-178.773 92.16 1.28-69.547 36.267-133.12 94.72-183.893-46.507-68.267-73.387-150.187-73.387-238.933 0-235.627 191.019-426.667 426.667-426.667s426.667 191.040 426.667 426.667c0 88.747-26.88 170.667-73.387 238.933 58.453 50.773 93.44 114.347 94.72 183.893zM298.667 533.334v64l128-64c0-34.133-29.867-64-64-64s-64 29.867-64 64zM663.659 199.168c-7.275-4.864-15.509-7.168-23.616-7.168-13.781 0-27.307 6.677-35.541 19.008-1.045 1.472-32.192 44.992-92.501 44.992-60.8 0-92.203-44.544-92.501-44.992-13.077-19.584-39.552-24.917-59.157-11.84-19.605 13.056-24.896 39.552-11.84 59.157 2.24 3.392 56.555 83.008 163.499 83.008s161.259-79.595 163.499-83.008c13.056-19.605 7.765-46.101-11.84-59.157zM725.333 533.334c0-34.133-29.867-64-64-64s-64 29.867-64 64l128 64v-64z" />
</svg>