<svg width="24" height="24" viewBox="0 0 1000 1000">
  <path d="M512 853.334c-235.264 0-426.667-191.403-426.667-426.667s191.403-426.667 426.667-426.667 426.667 191.403 426.667 426.667-191.403 426.667-426.667 426.667zM298.667 533.334c0 35.349 28.651 64 64 64s64-28.651 64-64-28.651-64-64-64-64 28.651-64 64zM663.659 199.168c-7.275-4.864-15.509-7.168-23.616-7.168-13.781 0-27.307 6.677-35.541 19.008-1.045 1.472-32.192 44.992-92.501 44.992-60.8 0-92.203-44.544-92.501-44.992-13.077-19.584-39.552-24.917-59.157-11.84-19.605 13.056-24.896 39.552-11.84 59.157 2.24 3.392 56.555 83.008 163.499 83.008s161.259-79.595 163.499-83.008c13.056-19.605 7.765-46.101-11.84-59.157zM661.333 469.334c-35.349 0-64 28.651-64 64s28.651 64 64 64 64-28.651 64-64-28.651-64-64-64z" />
</svg>