<svg width="24" height="24" viewBox="0 0 1000 1000">
  <path d="M707.733 333.184c-19.072 13.845-45.76 9.6-59.584-9.451-0.491-0.661-51.541-67.733-136.171-67.733-82.624 0-135.509 66.965-136.64 68.437-14.144 18.688-40.747 22.485-59.605 8.384-18.859-14.144-22.677-40.896-8.533-59.755 3.136-4.16 78.251-102.4 204.8-102.4 129.024 0 202.176 98.731 205.205 102.933 13.845 19.072 9.579 45.76-9.472 59.584zM512 853.334c-235.264 0-426.667-191.403-426.667-426.667s191.403-426.667 426.667-426.667 426.667 191.403 426.667 426.667-191.403 426.667-426.667 426.667zM512 85.334c-188.203 0-341.333 153.131-341.333 341.333s153.131 341.333 341.333 341.333 341.333-153.131 341.333-341.333-153.131-341.333-341.333-341.333zM426.667 533.334c0-35.346-28.654-64-64-64s-64 28.654-64 64c0 35.346 28.654 64 64 64s64-28.654 64-64zM725.333 533.334c0-35.346-28.654-64-64-64s-64 28.654-64 64c0 35.346 28.654 64 64 64s64-28.654 64-64z" />
</svg>