<svg width="24" height="24" viewBox="0 0 1000 1000">
  <path d="M512 853.334c-235.648 0-426.667-191.019-426.667-426.667 0-235.627 191.019-426.667 426.667-426.667s426.667 191.040 426.667 426.667c0 235.648-191.019 426.667-426.667 426.667zM717.205 273.6c-3.072-4.203-76.181-102.933-205.205-102.933-126.549 0-201.664 98.219-204.8 102.4-14.144 18.859-10.325 45.611 8.512 59.733 18.837 14.144 45.461 10.325 59.605-8.363 1.109-1.408 53.995-68.437 136.661-68.437 84.629 0 135.637 67.051 136.128 67.733 13.845 19.072 40.512 23.275 59.605 9.472 19.072-13.845 23.339-40.512 9.493-59.605zM661.333 405.334c-58.88 0-117.333 47.787-117.333 106.667h-64c0-58.88-58.453-106.667-117.333-106.667s-192 47.787-192 106.667v85.333h682.667v-85.333c0-58.88-133.12-106.667-192-106.667z" />
</svg>