<svg width="24" height="24" viewBox="0 0 1000 1000">
  <path d="M512 853.334c-235.264 0-426.667-191.403-426.667-426.667s191.403-426.667 426.667-426.667 426.667 191.403 426.667 426.667-191.403 426.667-426.667 426.667zM512 85.334c-188.203 0-341.333 153.131-341.333 341.333s153.131 341.333 341.333 341.333 341.333-153.131 341.333-341.333-153.131-341.333-341.333-341.333zM512 341.334c-106.944 0-161.259-79.595-163.499-83.008-13.056-19.605-7.765-46.101 11.84-59.157 19.605-13.077 46.080-7.744 59.157 11.84 0.299 0.448 31.701 44.992 92.501 44.992 60.309 0 91.456-43.52 92.501-44.992 8.235-12.331 21.76-19.008 35.541-19.008 8.128 0 16.363 2.304 23.616 7.168 19.605 13.056 24.896 39.552 11.84 59.157-2.24 3.413-56.555 83.008-163.499 83.008zM426.667 533.334c0-35.346-28.654-64-64-64s-64 28.654-64 64c0 35.346 28.654 64 64 64s64-28.654 64-64zM725.333 533.334c0-35.346-28.654-64-64-64s-64 28.654-64 64c0 35.346 28.654 64 64 64s64-28.654 64-64z" />
</svg>