<svg width="24" height="24" viewBox="0 0 1000 1000">
  <path d="M347.456 382.166c-3.861 14.229-6.101 29.099-6.101 44.544 0 94.101 76.565 170.667 170.667 170.667 15.424 0 30.315-2.24 44.544-6.101l131.627 131.627c-50.496 27.243-109.013 45.141-176 45.141-280.384 0-414.336-311.531-419.904-324.8l-6.955-16.533 6.955-16.533c2.837-6.763 39.147-91.051 111.125-172.053l144.043 144.043zM931.776 443.2c-3.2 7.616-48.875 113.707-140.267 202.603l104.491 104.491-60.373 60.373-707.627-707.627 60.373-60.352 110.528 110.528c58.24-39.659 129.109-67.84 213.291-67.84 280.405 0 414.037 311.552 419.584 324.843l6.912 16.491-6.912 16.491zM512.021 256.022c-31.616 0-61.141 8.704-86.507 23.765l64.704 64.704c6.997-1.877 14.208-3.136 21.803-3.136 47.061 0 85.333 38.272 85.333 85.333 0 7.573-1.28 14.805-3.157 21.781l64.704 64.704c15.061-25.365 23.765-54.891 23.765-86.507 0.021-94.080-76.544-170.645-170.645-170.645z" />
</svg>