<svg width="24" height="24" viewBox="0 0 1000 1000">
  <path d="M241.493-6.976c0 50.112 0.597 95.808-0.597 141.504-0.235 9.152-4.821 20.992-11.52 26.88-116.245 102.187-168.064 228.821-133.461 381.205 35.179 155.008 137.92 253.888 288.107 296.832 174.635 50.005 332.075 10.88 455.040-125.248 180.736-200.192 105.984-505.088-146.944-615.104-90.24-39.275-183.851-46.955-280.235-26.965-11.392 2.304-25.835 0.341-36.117-4.992-43.904-22.805-86.72-47.595-134.272-74.112zM463.253 563.307c-72.085-76.416-146.261-155.179-220.459-233.92 0.875-1.109 1.856-2.155 2.688-3.243 66.581 36.693 133.099 73.429 195.883 108.011 40.512-36.821 79.296-72 119.125-108.181 71.851 76.203 145.6 154.432 219.349 232.725-1.024 1.216-2.048 2.411-3.051 3.605-66.389-36.565-132.736-73.109-194.453-107.115-41.195 37.397-79.531 72.149-119.083 108.117z" />
</svg>