<svg width="24" height="24" viewBox="0 0 1000 1000">
  <path d="M298.667 640h-170.667c-23.552 0-42.667-19.115-42.667-42.667v-512c0-23.552 19.115-42.667 42.667-42.667h170.667c23.552 0 42.667 19.115 42.667 42.667v512c0 23.552-19.115 42.667-42.667 42.667zM896 810.667h-341.333c-23.552 0-42.667-19.115-42.667-42.667v-128h-128v-597.333h512c23.552 0 42.667 19.115 42.667 42.667v682.667c0 23.552-19.115 42.667-42.667 42.667zM554.667 170.667c-23.573 0-42.667 19.115-42.667 42.667 0 23.573 19.093 42.667 42.667 42.667 23.552 0 42.667-19.093 42.667-42.667 0-23.552-19.115-42.667-42.667-42.667zM554.667 341.334c-23.573 0-42.667 19.115-42.667 42.667 0 23.573 19.093 42.667 42.667 42.667 23.552 0 42.667-19.093 42.667-42.667 0-23.552-19.115-42.667-42.667-42.667zM682.667 170.667c-23.573 0-42.667 19.115-42.667 42.667 0 23.573 19.093 42.667 42.667 42.667 23.552 0 42.667-19.093 42.667-42.667 0-23.552-19.115-42.667-42.667-42.667zM682.667 341.334c-23.573 0-42.667 19.115-42.667 42.667 0 23.573 19.093 42.667 42.667 42.667 23.552 0 42.667-19.093 42.667-42.667 0-23.552-19.115-42.667-42.667-42.667zM810.667 170.667c-23.573 0-42.667 19.115-42.667 42.667 0 23.573 19.093 42.667 42.667 42.667 23.552 0 42.667-19.093 42.667-42.667 0-23.552-19.115-42.667-42.667-42.667zM810.667 341.334c-23.573 0-42.667 19.115-42.667 42.667 0 23.573 19.093 42.667 42.667 42.667 23.552 0 42.667-19.093 42.667-42.667 0-23.552-19.115-42.667-42.667-42.667zM853.333 655.104v-100.437h-256v170.667h256v-70.229z" />
</svg>