<svg width="24" height="24" viewBox="0 0 1000 1000">
  <path d="M640 853.334v-213.333h213.333zM597.333 607.104v246.229h-384c-23.573 0-42.667-19.115-42.667-42.667v-768c0-23.552 19.093-42.667 42.667-42.667h597.333c23.552 0 42.667 19.115 42.667 42.667v554.667h-256v9.771zM640 512v-85.269h-85.333v-204.608h-0.427c-2.027-21.867-12.416-44.608-30.763-62.933-36.416-36.416-90.219-41.707-120.107-11.84-29.888 29.888-24.597 83.669 11.819 119.979 15.893 15.915 35.093 25.493 54.144 29.205v215.467h170.667z" />
</svg>