<svg width="24" height="24" viewBox="0 0 1000 1000">
  <path d="M533.333 554.667h-64v-215.467c-19.072-3.712-38.251-13.291-54.144-29.205-36.416-36.309-41.707-90.091-11.819-119.979 29.888-29.867 83.691-24.576 120.107 11.84 18.347 18.325 28.757 41.067 30.763 62.933h0.427v204.608h85.333v85.269h-106.667zM840.832 670.166l-170.667 170.667c-8 8-18.859 12.501-30.165 12.501h-426.667c-23.573 0-42.667-19.115-42.667-42.667v-768c0-23.552 19.093-42.667 42.667-42.667h597.333c23.552 0 42.667 19.115 42.667 42.667v597.333c0 11.307-4.501 22.165-12.501 30.165zM768 85.334h-512v682.667h340.992v-170.667h171.008v-512z" />
</svg>