<svg width="24" height="24" viewBox="0 0 1000 1000">
  <path d="M381.995 675.222c3.328 28.48 22.336 65.451 58.091 82.389-53.717 8.213-97.365-16.939-119.083-49.28-34.475 7.445-55.659 7.851-90.347 1.365-21.995 16.683-47.872 54.677-45.867 94.443-41.643-49.045-50.219-86.016-45.077-130.176-160.235-286.635 55.339-631.317 362.645-631.317 276.075 0 436.288 211.136 436.288 427.499 0 145.899-66.048 272.555-133.483 299.947 25.152-27.733 53.739-99.947 48.256-149.931-54.421 141.717-190.315 196.48-236.117 193.557 150.528-58.688 186.56-258.517 173.205-317.483-13.077 69.163-54.848 128.725-79.829 144.448 145.792-341.547-206.315-446.485-313.749-327.957 27.712-7.189 82.389-3.648 123.371 23.787 38.336 25.685 41.941 27.179 66.56 29.099 29.248 2.261-1.771 60.032-65.664 50.261-26.283-4.011-69.611-34.944-122.901-14.571-64.299 24.597-62.272 112.363 4.117 85.952 14.379 18.645 3.755 53.888 3.755 53.888 19.285 17.664 43.648 30.101 58.475 38.848 9.728 5.739 35.371 21.632 33.92 52.501-5.227 4.075-13.675 9.301-32.683 8.213-74.048-4.651-78.997 22.123-83.883 34.517z" />
</svg>