<svg width="24" height="24" viewBox="0 0 1000 1000">
  <path d="M857.643 810.667h-691.307c-21.227 0-38.357-17.173-38.357-38.357v-691.285c0-21.248 17.173-38.357 38.357-38.357h691.307c21.227 0 38.357 17.173 38.357 38.357v691.285c0 21.248-17.173 38.357-38.357 38.357zM393.856 338.048c-48.939 0-88.619 39.68-88.619 88.619s39.68 88.619 88.619 88.619c48.939 0 88.619-39.68 88.619-88.619s-39.68-88.619-88.619-88.619zM630.144 338.048c-48.939 0-88.619 39.68-88.619 88.619s39.68 88.619 88.619 88.619 88.619-39.68 88.619-88.619-39.659-88.619-88.619-88.619z" />
</svg>