<svg width="24" height="24" viewBox="0 0 1000 1000">
  <path d="M213.163 554.667h-85.333v213.333c0 23.552 19.115 42.667 42.667 42.667h213.333v-85.333h-170.667v-170.667zM895.829 554.667h-85.333v170.667h-170.667v85.333h213.333c23.552 0 42.667-19.115 42.667-42.667v-213.333zM383.829 42.667h-213.333c-23.552 0-42.667 19.115-42.667 42.667v213.333h85.333v-170.667h170.667v-85.333zM853.163 42.667h-213.333v85.333h170.667v170.667h85.333v-213.333c0-23.552-19.093-42.667-42.667-42.667zM511.829 512c47.061 0 85.333-38.272 85.333-85.333s-38.272-85.333-85.333-85.333-85.333 38.272-85.333 85.333 38.293 85.333 85.333 85.333zM511.829 597.334c-94.251 0-170.667-76.416-170.667-170.667s76.416-170.667 170.667-170.667c94.251 0 170.667 76.416 170.667 170.667s-76.416 170.667-170.667 170.667v0z" />
</svg>