<svg width="24" height="24" viewBox="0 0 1000 1000">
  <path d="M85.333 298.667h512v-85.333h-512v85.333zM640 298.667h298.667v-85.333h-298.667v85.333zM85.333 128h170.667v-85.333h-170.667v85.333zM298.667 128h640v-85.333h-640v85.333zM810.667 554.667l-21.333-1.28c-11.093 143.787-130.987 257.28-277.333 257.28-115.2 0-213.333-70.4-256-170.667-117.824 0-213.333-95.509-213.333-213.333l4.267-42.667h88.32c-4.693 13.227-7.253 27.733-7.253 42.667 0 70.699 57.301 128 128 128h46.933c19.883 97.109 105.301 170.667 209.067 170.667 117.824 0 213.333-95.509 213.333-213.333v-42.667h85.333c47.125 0 85.333-38.208 85.333-85.333h85.333c-1.28 95.573-77.227 170.667-170.667 170.667z" />
</svg>