<svg width="24" height="24" viewBox="0 0 1000 1000">
  <path d="M384 341.078h85.333v-85.077h85.333v85.077h85.333v85.333h-85.333v85.589h-85.333v-85.589h-85.333zM896 682.667h-426.667l-51.221 68.267c-8.043 10.752-20.693 17.067-34.133 17.067h-255.979c-23.552 0-42.667-19.115-42.667-42.667v-597.333c0-23.552 19.115-42.667 42.667-42.667h768c23.552 0 42.667 19.115 42.667 42.667v512c0 23.552-19.115 42.667-42.667 42.667zM853.333 170.667h-682.667v512h191.979l51.221-68.267c8.043-10.752 20.693-17.067 34.133-17.067h405.333v-426.667z" />
</svg>