<svg width="24" height="24" viewBox="0 0 1000 1000">
  <path d="M896 682.667h-426.667l-51.2 68.267c-8.043 10.731-20.693 17.067-34.133 17.067h-256c-23.573 0-42.667-19.115-42.667-42.667v-597.333c0-23.552 19.093-42.667 42.667-42.667h256v85.333h-213.333v512h192l51.2-68.267c8.043-10.731 20.693-17.067 34.133-17.067h405.333v-426.667h-213.333v-85.333h256c23.552 0 42.667 19.115 42.667 42.667v512c0 23.552-19.115 42.667-42.667 42.667zM554.667 256v256h-85.333v-256h-85.333l128-170.667 128 170.667z" />
</svg>