<svg width="24" height="24" viewBox="0 0 1000 1000">
  <path d="M896 682.667h-426.667l-51.2 68.267c-8.043 10.731-20.693 17.067-34.133 17.067h-256c-23.552 0-42.667-19.115-42.667-42.667v-597.333c0-23.552 19.115-42.667 42.667-42.667h768c23.552 0 42.667 19.115 42.667 42.667v512c0 23.552-19.115 42.667-42.667 42.667zM853.333 170.667h-682.667v512h192l51.2-68.267c8.043-10.731 20.693-17.067 34.133-17.067h405.333v-426.667zM341.419 384.128l128.128-128.128 213.205 213.184-60.331 60.352-152.853-152.875-67.819 67.819z" />
</svg>