<svg width="24" height="24" viewBox="0 0 1000 1000">
  <path d="M810.667 533.334c0 20.821-4.267 72.96-41.109 284.651l-6.144 35.349h-149.781l-54.464-108.907 76.331-38.165 30.869 61.76h25.237c29.184-170.539 33.749-220.267 33.749-234.667 0-105.877-95.701-192-213.333-192s-213.333 86.123-213.333 192c0 14.4 4.544 64.128 33.749 234.667h96.683l-64-170.667h77.867l-54.464-108.907 76.331-38.165 116.203 232.427h-92.8l64 170.667h-291.648l-6.144-35.349c-36.864-211.691-41.109-263.829-41.109-284.651 0-138.581 110.144-253.397 253.333-273.792v-174.208h-128v-85.333h341.333v85.333h-128v173.461c145.771 18.197 258.645 134.208 258.645 274.496z" />
</svg>