<svg width="24" height="24" viewBox="0 0 1000 1000">
  <path d="M963.627 468.48l-409.835 409.813c-23.595 23.595-61.867 23.595-85.483 0l-85.099-85.12 107.947-107.947c25.088 8.469 53.867 2.773 73.856-17.216 20.096-20.117 25.749-49.131 17.067-74.304l104.043-104.043c25.173 8.661 54.208 3.072 74.325-17.067 28.096-28.096 28.096-73.621 0-101.717s-73.621-28.096-101.739 0c-21.141 21.141-26.347 52.203-15.659 78.229l-97.024 97.024v-255.339c6.848-3.392 13.312-7.915 19.029-13.611 28.096-28.075 28.096-73.6 0-101.739-28.096-28.096-73.643-28.096-101.717 0-28.096 28.117-28.096 73.643 0 101.739 6.955 6.933 14.976 12.181 23.552 15.701v257.728c-8.576 3.499-16.597 8.704-23.552 15.68-21.291 21.269-26.411 52.501-15.488 78.656l-106.411 106.432-281.024-280.981c-23.616-23.616-23.616-61.909 0-85.525l409.835-409.813c23.595-23.595 61.867-23.595 85.483 0l407.915 407.915c23.595 23.595 23.595 61.888-0.021 85.504z" />
</svg>