<svg width="24" height="24" viewBox="0 0 1000 1000">
  <path d="M511.979 853.334c-235.584 0-426.645-191.019-426.645-426.688 0-188.48 122.24-348.416 291.797-404.843 21.333-3.904 29.12 9.259 29.12 20.565 0 10.133-0.363 36.949-0.576 72.555-118.677-25.771-143.723 57.195-143.723 57.195-19.392 49.301-47.381 62.4-47.381 62.4-38.741 26.475 2.923 25.941 2.923 25.941 42.816-3.029 65.344-43.968 65.344-43.968 38.059-65.195 99.861-46.379 124.181-35.456 3.883 27.563 14.891 46.379 27.093 57.045-94.741 10.752-194.347 47.36-194.347 210.859 0 46.592 16.619 84.672 43.925 114.496-4.395 10.795-19.029 54.187 4.181 112.917 0 0 35.819 11.477 117.333-43.733 34.027 9.472 70.528 14.208 106.816 14.357 36.224-0.171 72.725-4.885 106.816-14.357 81.451 55.211 117.205 43.733 117.205 43.733 23.275-58.731 8.64-102.123 4.245-112.917 27.349-29.824 43.861-67.904 43.861-114.496 0-163.904-99.755-199.979-194.816-210.539 15.317-13.163 28.971-39.211 28.971-79.019 0-57.045-0.533-103.061-0.533-117.035 0-11.413 7.68-24.683 29.333-20.523 169.387 56.533 291.541 216.341 291.541 404.8 0.021 235.691-191.019 426.709-426.667 426.709z" />
</svg>