<svg width="24" height="24" viewBox="0 0 1000 1000">
  <path d="M418.517 465.92c-5.547 49.92-21.333 98.56-47.787 141.227-11.52 20.48-13.227 45.653-5.973 64.853 3.413 10.667 8.533 19.2 17.067 28.16 8.96 8.96 18.347 14.080 27.307 17.493 8.96 3.84 14.080 5.12 27.307 5.12 14.933 0 29.44-4.693 41.387-12.373l18.773-17.493 4.693-6.827c47.36-78.507 72.533-168.107 72.533-259.413l-1.28-33.707c-5.12-80.64-29.867-158.293-71.68-227.84-13.653-23.040-38.4-37.12-65.28-37.12l-21.76 3.84-17.493 7.68c-21.76 12.8-34.133 34.987-37.12 58.027 0 13.653 1.707 27.733 8.107 40.96l3.413 5.547c32.853 54.613 50.347 117.333 50.347 182.613l-2.56 39.253zM866.112 602.454c12.8-57.173 19.627-116.907 19.627-175.787 0-61.013-6.827-120.32-19.627-177.493l-11.52-44.8c-14.080-50.773-30.293-90.027-47.36-119.040-12.8-26.453-40.107-42.667-69.12-42.667-11.947 0-23.467 2.56-34.133 7.68-24.747 11.52-38.827 32-43.947 54.613l-2.133 18.347c0 17.493 7.253 32.427 7.68 33.707 40.107 84.48 60.16 174.507 60.16 269.653 0 93.013-20.053 183.893-60.587 269.653-19.2 39.68-2.133 87.467 37.547 106.667 11.093 5.12 22.613 7.68 34.56 7.68 30.72 0 59.307-17.92 72.107-45.653 24.747-52.053 43.947-106.667 56.747-162.56zM684.352 533.334c5.973-34.987 9.387-70.827 9.387-106.667 0-85.333-16.64-167.253-48.64-244.053-3.84 64.427-19.2 126.293-44.373 182.613l2.56 30.293 1.28 32.853c0 88.747-23.040 175.36-67.413 251.307 56.747-40.96 107.093-91.307 147.2-146.347zM167.232 490.667c-36.267 20.053-49.493 64-30.72 98.987 12.8 23.467 37.12 38.4 64 38.4 11.947 0 23.467-2.987 34.133-9.387 55.040-28.587 104.533-68.267 144.64-113.493l6.4-37.973 2.56-40.533c0-61.013-15.787-121.173-46.080-173.653-21.333 102.827-84.48 189.867-174.933 237.653z" />
</svg>