<svg width="24" height="24" viewBox="0 0 1000 1000">
  <path d="M981.248 469.334h-85.333v85.333h-85.333v-85.333h-85.333v-85.333h85.333v-85.333h85.333v85.333h85.333zM341.248 469.334v-102.4h170.667c-8.533-42.667-51.2-128-170.667-128-102.4 0-183.467 85.333-183.467 187.733s81.067 187.733 183.467 187.733c59.733 0 98.133-25.6 119.467-46.933l81.067 76.8c-51.2 51.2-119.467 81.067-200.533 81.067-166.4 0-298.667-132.267-298.667-298.667s132.267-298.667 298.667-298.667c170.667 0 285.867 119.467 285.867 290.133 0 21.333 0 34.133-4.267 51.2h-281.6z" />
</svg>