<svg width="24" height="24" viewBox="0 0 1000 1000">
  <path d="M514.773 201.11l194.453 262.763c5.931 8.149 10.453 19.072 13.611 32.789s2.027 29.44-3.328 47.211c-5.376 17.771-16.768 32.405-34.176 43.904-14.805 9.621-30.187 14.336-46.101 14.165-15.936-0.192-29.547-3.435-40.832-9.728-11.307-6.293-21.397-14.635-30.272-25.003-13.333-14.805-31.104-22.229-53.333-22.229-21.845 0-39.445 7.403-52.779 22.229-8.896 10.368-18.987 18.709-30.272 25.003-11.307 6.293-24.917 9.536-40.832 9.728-15.936 0.171-31.488-4.544-46.677-14.165-17.045-11.499-28.245-26.112-33.621-43.904-5.376-17.771-6.485-33.515-3.328-47.211 3.157-13.717 7.68-24.619 13.611-32.789l193.877-262.763zM938.667 426.667c0-77.397-19.072-148.8-57.216-214.165s-89.899-117.12-155.285-155.285c-65.365-38.144-136.768-57.216-214.165-57.216s-148.8 19.072-214.165 57.216c-65.365 38.165-117.12 89.899-155.285 155.285-38.144 65.365-57.216 136.768-57.216 214.165s19.072 148.8 57.216 214.165c38.144 65.365 89.899 117.12 155.285 155.285 65.365 38.144 136.768 57.216 214.165 57.216s148.8-19.072 214.165-57.216c65.365-38.165 117.12-89.899 155.285-155.285 38.144-65.365 57.216-136.768 57.216-214.165z" />
</svg>