<svg width="24" height="24" viewBox="0 0 1000 1000">
  <path d="M512 853.334c-235.264 0-426.667-191.403-426.667-426.667s191.403-426.667 426.667-426.667c235.264 0 426.667 191.403 426.667 426.667s-191.403 426.667-426.667 426.667zM512 85.334c-188.203 0-341.333 153.131-341.333 341.333s153.131 341.333 341.333 341.333c188.203 0 341.333-153.131 341.333-341.333s-153.131-341.333-341.333-341.333zM512 640c-70.592 0-128-57.408-128-128h85.333c0 23.531 19.157 42.667 42.667 42.667s42.667-19.136 42.667-42.667c0-9.685-2.475-21.653-20.715-36.907-10.859-8.192-64.619-51.797-64.619-111.744v-21.995h85.333v21.995c0 13.547 18.005 34.176 30.805 43.712 0.661 0.491 1.365 1.024 2.005 1.557 34.859 28.715 52.523 63.509 52.523 103.403 0 70.571-57.408 127.979-128 127.979zM554.667 256c0-23.564-19.103-42.667-42.667-42.667s-42.667 19.103-42.667 42.667c0 23.564 19.103 42.667 42.667 42.667s42.667-19.103 42.667-42.667z" />
</svg>