<svg width="24" height="24" viewBox="0 0 1000 1000">
  <path d="M458.091 437.227l67.328-371.008-122.197-22.144-149.675 62.848-36.288 194.859 118.635 113.301zM174.784 262.784l24.768-132.757-114.219 46.891zM663.552 474.432l66.389-370.133 118.592 21.248c0 0 42.517 2.667 70.912 59.328 28.267 56.683 20.288 125.781 7.936 176.213-12.352 50.453-55.787 108.011-80.555 121.344-24.811 13.205-47.808 17.685-60.267 15.040l-123.008-23.040zM822.912 695.808c-30.101 96.491-101.867 115.072-157.611 113.344-55.787-1.771-92.139-35.413-121.323-77.035-29.227-41.643-66.389-10.624-66.389-10.624-92.971 73.472-182.464 9.685-182.464 9.685-91.2-69.035-59.285-167.296-59.285-167.296 33.664-99.157 121.323-113.344 170.923-106.261 49.579 7.104 85.845 48.683 85.845 48.683l81.429-432.128 109.781 20.416-78.763 433.856c146.155-68.16 247.957 70.827 217.856 167.36zM380.16 542.614c-34.667 0-62.891 28.117-62.891 62.848 0 34.752 28.224 62.848 62.891 62.848 34.773 0 62.891-28.096 62.891-62.848 0-34.731-28.117-62.848-62.891-62.848zM613.952 661.27c0 34.709 28.181 62.912 62.848 62.912 34.731 0 62.891-28.203 62.891-62.912s-28.181-62.869-62.891-62.869c-34.688 0-62.848 28.139-62.848 62.869z" />
</svg>