<svg width="24" height="24" viewBox="0 0 1000 1000">
  <path d="M85.333 853.334v-853.333h853.333v853.333h-853.333zM853.333 85.334h-682.667v682.667h682.667v-682.667zM402.816 347.392h118.976l33.92-106.197h73.387l-121.771 374.741h-87.296l-120.085-374.741h70.613l32.256 106.197zM442.837 491.414c6.677 22.229 12.224 48.363 17.792 70.059h1.109c5.568-21.675 11.669-47.253 18.901-70.059l29.461-92.288h-96.192l28.928 92.288zM656.341 511.979h68.949v-270.763h-68.949v270.763zM690.24 550.891c23.915 0 38.912 16.128 38.912 36.693-0.555 21.12-15.019 37.248-38.357 37.248-22.784 0-38.357-16.128-38.357-37.248 0-20.565 15.019-36.693 37.803-36.693z" />
</svg>