<svg width="24" height="24" viewBox="0 0 1000 1000">
  <path d="M453.12 541.014v0c-5.973-19.627-11.093-42.667-17.067-62.293l-25.6-81.92h86.187l-26.453 81.92c-6.827 20.48-11.947 42.667-17.067 62.293zM512 853.334c-235.52 0-426.667-191.147-426.667-426.667s191.147-426.667 426.667-426.667 426.667 191.147 426.667 426.667-191.147 426.667-426.667 426.667zM536.747 256l-29.867 94.72h-105.813l-29.013-94.72h-63.147l106.667 333.653h77.653l109.227-333.653h-65.707zM687.787 256h-61.44v240.64h61.44v-240.64zM656.213 531.627c-20.48 0-33.28 14.507-33.28 32.427 0 18.773 13.653 33.28 34.133 33.28s33.28-14.507 34.133-33.28c0-17.92-13.653-32.427-34.987-32.427z" />
</svg>