<svg width="24" height="24" viewBox="0 0 1000 1000">
  <path d="M512 776.534c113.067 0 128 0 172.8-2.133 40.533-2.133 64-8.533 78.933-17.067 19.2-6.4 34.133-17.067 49.067-29.867 14.933-14.933 23.467-27.733 29.867-49.067 4.267-14.933 12.8-38.4 14.933-78.933 2.133-44.8 2.133-59.733 2.133-172.8s0-128-2.133-172.8c0-40.533-6.4-64-14.933-78.933-6.4-19.2-17.067-34.133-29.867-49.067-14.933-14.933-27.733-23.467-49.067-29.867-14.933-4.267-38.4-12.8-78.933-14.933-44.8-2.133-59.733-2.133-172.8-2.133s-128 0-172.8 2.133c-40.533 0-64 6.4-78.933 14.933-19.2 6.4-34.133 17.067-49.067 29.867-14.933 14.933-23.467 27.733-29.867 49.067-6.4 14.933-14.933 38.4-17.067 78.933-2.133 44.8-2.133 59.733-2.133 172.8s0 128 2.133 172.8c2.133 40.533 8.533 64 17.067 78.933 6.4 19.2 17.067 34.133 29.867 49.067 14.933 14.933 27.733 23.467 49.067 29.867 14.933 6.4 38.4 14.933 78.933 17.067 44.8 0 59.733 2.133 172.8 2.133zM512 853.334c-115.2 0-130.133 0-174.933-2.133s-76.8-8.533-104.533-19.2c-27.733-12.8-53.333-25.6-76.8-49.067s-36.267-49.067-49.067-76.8c-8.533-25.6-17.067-59.733-19.2-104.533s-2.133-59.733-2.133-174.933 0-130.133 2.133-174.933 8.533-76.8 19.2-104.533c12.8-27.733 25.6-51.2 49.067-76.8 23.467-23.467 46.933-38.4 76.8-49.067 25.6-8.533 59.733-17.067 104.533-19.2s59.733-2.133 174.933-2.133 130.133 0 174.933 2.133 76.8 8.533 104.533 19.2c27.733 12.8 51.2 25.6 76.8 49.067 23.467 23.467 38.4 46.933 49.067 76.8 8.533 25.6 17.067 59.733 19.2 104.533s2.133 59.733 2.133 174.933 0 130.133-2.133 174.933-8.533 76.8-19.2 104.533c-12.8 27.733-25.6 51.2-49.067 76.8s-49.067 36.267-76.8 49.067c-25.6 8.533-59.733 17.067-104.533 19.2s-59.733 2.133-174.933 2.133v0zM512 644.267c-121.6 0-217.6-98.133-217.6-217.6s96-217.6 217.6-217.6 217.6 96 217.6 217.6-96 217.6-217.6 217.6zM512 283.734c-78.933 0-142.933 64-142.933 142.933s64 142.933 142.933 142.933 142.933-64 142.933-142.933-64-142.933-142.933-142.933zM791.467 654.934c0-28.277-22.923-51.2-51.2-51.2s-51.2 22.923-51.2 51.2c0 28.277 22.923 51.2 51.2 51.2s51.2-22.923 51.2-51.2z" />
</svg>