<svg width="24" height="24" viewBox="0 0 1000 1000">
  <path d="M559.957 794.518l42.069-2.517c117.824 53.44 220.075 59.755 273.515 5.888 42.069-42.496 45.44-115.712 17.664-201.984 29.035-53.867 45.44-114.88 45.44-180.096l-2.112-42.091h-541.547c15.573-95.936 83.307-168.32 164.949-168.32 55.125 0 103.936 33.237 134.656 84.16h223.019c-52.608-147.264-192.725-252.459-357.675-252.459-53.867 0-105.195 11.349-151.061 31.552-122.453-60.16-232.277-69.419-287.808-13.035-66.069 67.328-37.44 209.963 60.181 360.192 39.125 61.419 90.048 123.712 150.229 183.040l34.091 32.405c-49.237-29.035-112.341-73.216-176.299-138.432 35.328 172.096 188.075 301.696 370.688 301.696zM559.957 626.198c-75.328 0-139.285-61.845-160.747-147.264h321.472c-21.44 85.419-85.397 147.264-160.725 147.264zM857.024 749.91c-27.776 28.203-77.419 29.888-139.691 10.517 62.272-29.035 116.139-73.643 154.432-129.6 13.461 52.181 9.664 94.251-14.741 119.083zM176.619 79.168c34.923-35.349 105.621-29.035 191.467 10.112-77.845 45.867-137.6 118.656-167.061 205.333-50.496-95.509-61.845-176.299-24.405-215.445z" />
</svg>