<svg width="24" height="24" viewBox="0 0 1000 1000">
  <path d="M127.915 810.667h768v-768h-768v768zM329.728 168.96c17.067-36.267 50.773-66.133 108.373-66.133 64 0 107.947 34.133 107.947 108.8v246.613h-72.533v-244.907c0-36.693-14.933-46.080-38.4-46.080-24.747 0-34.987 17.067-46.507 37.12l-58.88-35.413zM584.875 176.64c21.333-41.813 64.427-73.813 131.84-73.813 68.267 0 119.467 35.413 119.467 100.693 0 60.16-34.56 87.040-96 113.493l-17.92 7.68c-31.147 13.227-44.373 22.187-44.373 43.52 0 17.493 13.227 31.147 34.56 31.147 20.48 0 34.133-8.96 46.507-31.147l55.893 37.12c-23.467 40.96-56.747 56.747-102.4 56.747-64.427 0-105.813-40.96-105.813-95.147 0-58.88 34.56-86.613 86.613-108.8l17.92-7.68c33.28-14.507 52.907-23.467 52.907-48.213 0-20.48-19.2-35.413-49.067-35.413-35.413 0-55.893 18.347-71.253 43.947l-58.88-34.133z" />
</svg>