<svg width="24" height="24" viewBox="0 0 1000 1000">
  <path d="M511.765 896c40.96 0 74.155-33.195 74.155-74.155 0-40.939-33.195-74.155-74.155-74.155s-74.155 33.216-74.155 74.155c0 40.96 33.195 74.155 74.155 74.155zM314.176 846.72c40.832 0 74.155-33.323 74.155-74.155s-33.323-74.155-74.155-74.155c-40.96 0-74.155 33.216-74.155 74.155 0 40.96 33.195 74.155 74.155 74.155v0zM709.355 846.72c40.832 0 74.155-33.323 74.155-74.155s-33.323-74.155-74.155-74.155c-40.96 0-74.155 33.216-74.155 74.155 0 40.96 33.195 74.155 74.155 74.155zM502.379 475.947c-98.56 99.029-74.155 148.309-74.155 148.309h173.184c0-74.155-99.029-148.309-99.029-148.309zM601.408-17.792c0 0 0 98.56-197.589 296.149-197.12 197.589-222.464 247.339-247.339 395.179 0 0 18.773 24.875 43.648 0 24.405-24.405 80.256-43.179 129.536-43.179 0 0 49.28-154.411 185.387-252.971 0 0 178.816 184.917 178.816 259.072 0 0 55.851-12.203 122.965 37.077 0 0 46.933 24.875 50.219 0 6.101-49.28-43.648-221.995-247.339-395.179 0 0 130.005-148.309 117.333-296.149h-135.637zM378.944 229.078l105.131-117.333c-49.28-49.28-55.851-154.411-55.851-154.411h-147.84c24.405 197.589 98.56 271.744 98.56 271.744z" />
</svg>