<svg width="24" height="24" viewBox="0 0 1000 1000">
  <path d="M867.413 435.627c66.987-27.733 113.92-92.587 113.92-168.107 0-100.693-82.773-182.187-184.747-182.187h-566.187c-102.4 1.707-187.733 85.333-187.733 186.88 0 67.84 37.12 127.573 92.587 160-3.84 11.947-5.547 24.747-5.547 37.12 0 70.827 57.6 128 128.853 128 29.44 0 56.747-10.667 78.507-27.307 45.227 92.587 140.8 157.013 252.16 157.013 154.027 0 279.040-123.307 279.040-275.2 0-5.547-0.427-11.093-0.853-16.213zM393.387 433.067c-75.52 0-137.387-54.187-137.387-120.32 0-66.56 61.867-120.747 137.387-120.747 43.947 0 83.2 18.773 108.373 47.36l-43.093 48.64c-14.080-18.347-41.813-32-65.28-32-33.707 0-61.013 25.6-61.013 56.747 0 30.72 27.307 55.893 61.013 55.893 20.053 0 38.4-9.813 57.173-22.187 18.773-11.947 49.92-55.040 74.667-82.773 62.293-62.72 94.72-68.267 131.84-68.267 75.52 0 136.533 54.187 136.533 120.32 0 66.56-61.013 120.32-136.533 120.32-44.373 0-83.627-18.347-108.8-46.933l43.093-47.787c14.080 17.493 41.813 30.72 65.707 30.72 33.707 0 61.013-25.173 61.013-56.32 0-30.72-27.307-55.893-61.013-55.893-20.053 0-38.4 9.813-57.6 22.187-18.773 11.947-49.92 55.040-74.24 82.773-62.72 61.867-95.147 68.267-131.84 68.267z" />
</svg>