<svg width="24" height="24" viewBox="0 0 1000 1000">
  <path d="M213.333 671.723c0 0-0.939 79.637 56.811 119.061 57.792 39.339 147.883 18.347 181.163-48.128 0 0 12.288-18.432 10.603-61.291v-130.411l141.739 203.904c0 0 34.133 52.736 100.651 55.701 66.475 2.965 131.285-62.677 127.787-123.968-3.52-61.269-30.699-82.219-30.699-82.219l-116.352-168.064 157.504-201.323c0 0 31.552-33.216 18.389-90.133-13.12-56.853-56.811-103.232-133.035-101.547 0 0-41.152-3.456-74.389 36.779l-190.784 238.059-0.789-144.363c0 0 0.789-77.035-51.755-109.461-52.459-32.341-141.739-39.317-186.368 56.896 0 0-9.664 33.28-10.453 54.272v496.235z" />
</svg>