<svg width="24" height="24" viewBox="0 0 1000 1000">
  <path d="M384 42.667c0-23.467 19.2-42.667 42.667-42.667h170.667c23.467 0 42.667 19.2 42.667 42.667v42.667h-256v-42.667zM512 853.334c-164.693 0-298.667-133.973-298.667-298.667 0-101.547 50.773-190.72 128-244.907v-139.093c0-23.467 19.2-42.667 42.667-42.667h256c23.467 0 42.667 19.2 42.667 42.667v139.093c77.227 54.187 128 143.36 128 244.907 0 164.693-133.973 298.667-298.667 298.667zM633.6 379.734l-36.267-25.6v-140.8h-170.667v140.8l-36.267 25.6c-57.6 40.107-91.733 105.387-91.733 174.933 0 117.76 95.573 213.333 213.333 213.333s213.333-95.573 213.333-213.333c0-69.547-34.133-134.827-91.733-174.933z" />
</svg>