<svg width="24" height="24" viewBox="0 0 1000 1000">
  <path d="M128 298.667h213.333v85.333h-213.333v-85.333zM405.333 298.667h213.333v85.333h-213.333v-85.333zM682.667 298.667h213.333v85.333h-213.333v-85.333zM128 128h85.333v85.333h-85.333v-85.333zM298.667 128h85.333v85.333h-85.333v-85.333zM469.333 128h85.333v85.333h-85.333v-85.333zM640 128h85.333v85.333h-85.333v-85.333zM810.667 128h85.333v85.333h-85.333v-85.333zM128 469.334h341.333v85.333h-341.333v-85.333zM554.667 469.334h341.333v85.333h-341.333v-85.333zM128 725.334v-85.333h768v85.333h-768z" />
</svg>