<svg width="24" height="24" viewBox="0 0 1000 1000">
  <path d="M469.333 597.334h85.333v-341.333h-85.333v341.333zM682.667 213.334c0-94.101-76.565-170.667-170.667-170.667s-170.667 76.565-170.667 170.667v170.667h-85.333v-170.667c0-141.163 114.837-256 256-256s256 114.837 256 256v170.667h-85.333v-170.667zM512 896c-141.163 0-256-114.837-256-256v-170.667h85.333v170.667c0 94.101 76.565 170.667 170.667 170.667s170.667-76.565 170.667-170.667v-170.667h85.333v170.667c0 141.163-114.837 256-256 256z" />
</svg>