<svg width="24" height="24" viewBox="0 0 1000 1000">
  <path d="M810.667 128h-128v226.133c0 35.349-28.651 64-64 64s-64-28.651-64-64v-226.133h-128v384h128v-51.2c21.333 35.84 67.84 59.733 106.667 59.733 82.475 0 149.333-66.859 149.333-149.333zM277.333 584.107c-42.667 0-77.227 34.56-77.227 77.227s34.581 77.227 77.227 77.227v0c42.667 0 77.227-34.56 77.227-77.227s-34.581-77.227-77.227-77.227v0zM341.333 128h-128v384h128zM853.333 853.334h-682.667c-47.36 0-85.333-37.973-85.333-85.333v-682.667c0-47.125 38.208-85.333 85.333-85.333h682.667c47.125 0 85.333 38.208 85.333 85.333v682.667c0 47.36-38.4 85.333-85.333 85.333z" />
</svg>