<svg width="24" height="24" viewBox="0 0 1000 1000">
  <path d="M857.131 150.976c-22.101 17.429-13.525 55.979-36.501 74.965 0 0 0 0 0 0 22.251 131.605-40.085 247.616-114.411 321.963-62.4 62.4-42.261 123.072-42.261 175.616 0 83.968-35.413 172.48-142.784 172.48-114.795 0-146.219-93.099-147.349-146.219-2.752-127.573 26.539-160.725-50.261-253.589-90.325-109.248-103.637-218.197-83.264-276.011v0c-9.536-10.795-22.4-22.763-46.464-32.683-66.432-28.181-17.749-75.264-36.096-108.736-21.227-38.699 2.133-84.864 59.797-79.851 36.928 3.221 75.776-11.904 109.504-26.816 47.467-20.992 90.304-0.64 106.731 32.128 55.381 13.269 123.755 11.584 179.115-2.283 17.024-46.229 83.691-64.789 130.048-15.339 20.352 21.717 52.459 55.147 90.347 67.477 44.395 14.464 52.693 74.133 23.851 96.896zM489.237 560.256c-12.821 0-23.445 10.112-40.235 22.208-21.248 15.339-42.837 24.171-42.603 40.299 0 11.051 15.232 14.464 34.965 26.645 21.163 13.035 29.397 26.24 50.197 26.24 21.312 0 27.797-10.496 56.704-22.656 28.523-11.989 48.299-16.683 48.299-30.229 0-13.888-29.803-23.851-46.571-33.941-24.576-14.784-37.269-28.565-60.715-28.565s12.8 0-0.043 0zM556.203 764.267c35.477-5.504 39.488-66.133 22.464-96-4.309 1.707-7.808 3.051-14.272 5.675 7.381 21.269 7.275 56.192-17.515 58.432-15.701 1.408-25.856-18.795-28.032-36.053-6.187 2.496-12.885 4.309-21.077 4.949 2.581 36.096 26.56 67.947 58.432 62.997zM419.328 751.318c27.179 6.592 43.243-24.171 43.349-56.128-4.48-2.155-8.555-4.736-12.437-7.445-1.707 13.44-7.872 35.115-23.296 30.464-16.576-4.992-13.867-42.347-4.651-50.005-4.053-2.325-8.064-4.416-12.288-6.635-16.875 27.627-16.875 83.392 9.323 89.749zM334.229-1.344c-78.955 34.923-105.792 26.987-120.875 26.987-31.275 0-41.472 22.656-29.717 44.075 9.984 18.176 6.891 37.248 4.416 52.544-3.797 23.424-4.48 31.083 19.221 41.173 32.789 13.525 47.36 30.912 58.219 43.947 30.507 36.629 61.269-20.971 86.507-72.341 16.341-33.28 48.597-50.155 58.496-87.019 9.131-34.069-28.544-70.464-76.267-49.365zM615.296 71.958c-55.637-26.325-126.592-38.4-179.605-11.669-7.851 22.016-20.395 36.267-33.899 50.581v0c21.675 5.547 37.781 31.851 18.496 58.283-20.565 28.16-62.528 47.851-105.003 79.765-39.701 29.824-52.267 103.381 1.813 185.621-26.368-72.832-10.944-139.925 2.283-159.147 2.752 38.656 5.909 103.189 60.16 180.48 27.392 39.040 27.797 90.603 28.416 122.837 8.299-5.696 16.789-10.731 24.917-16.597 18.325-13.205 33.685-27.691 55.723-27.691h0.064c32.576 0 50.539 18.219 75.648 33.344 9.792 5.888 24.64 11.819 37.099 20.053 20.907-96.832 107.563-213.312 112.427-279.659 20.181 40.363-5.717 137.451-5.717 137.451 33.877-50.261 36.544-92.139 38.080-143.552 23.701-9.429 49.109-33.984 51.413-66.325-3.029 0.512-6.293 0.896-9.835 1.088-5.077 35.947-104.896 88.725-113.856 21.056-47.851-7.061-30.464-80.789-40.064-128.576-4.373-21.867-12.629-39.147-18.56-57.344zM810.176 73.558c-39.595-14.848-66.368-46.421-84.757-66.027-35.413-37.781-82.24-19.669-87.189 15.659-5.291 37.781 14.464 58.389 22.976 100.693 7.765 38.613-0.939 98.027 17.323 104.341 11.883-68.587 83.093-39.765 99.371-21.013 26.432 0 28.651-8.661 34.56-32.747 3.691-15.061 8.789-27.733 23.232-42.645 16.875-17.451 11.712-44.288-25.515-58.261zM488.448 582.251c-26.197 0-45.781 16.939-61.696 30.059-8.171 6.72 2.005 19.072 10.155 12.352 15.573-12.843 31.275-26.411 51.52-26.411 24.427 0 45.909 20.288 75.093 31.467 9.92 3.776 15.573-11.157 5.717-14.933-28.267-10.816-51.008-32.533-80.789-32.533z" />
</svg>