<svg width="24" height="24" viewBox="0 0 1000 1000">
  <path d="M682.667 264.534v149.333c0 29.867-25.6 55.467-51.2 55.467v64c0 59.733-59.733 106.667-119.467 106.667s-119.467-46.933-119.467-106.667v-64c-25.6 0-51.2-25.6-51.2-51.2v-149.333c0-29.867 25.6-55.467 51.2-55.467h234.667c29.867 0 55.467 25.6 55.467 51.2zM576 469.334h-128v64c0 34.133 29.867 55.467 64 55.467s64-21.333 64-55.467v-64zM512 853.334c-235.648 0-426.667-191.019-426.667-426.667h-85.333l128-170.667 128 170.667h-85.333c0 188.224 153.131 341.333 341.333 341.333s341.333-153.109 341.333-341.333c0-115.307-57.621-217.259-145.451-279.083-55.509-39.083-122.987-62.251-195.883-62.251-71.808 0-138.411 22.4-193.451 60.416l-60.992-60.992c71.104-52.992 158.955-84.757 254.443-84.757 32.299 0 63.637 3.904 93.888 10.688 190.421 42.816 332.779 212.629 332.779 415.979 0 235.648-191.019 426.667-426.667 426.667z" />
</svg>