<svg width="24" height="24" viewBox="0 0 1000 1000">
  <path d="M825.557 740.224c-45.419 45.44-106.624 70.443-172.352 70.443-70.485 0-137.429-28.139-188.544-79.232l-257.408-257.429c-49.045-49.045-77.141-113.323-79.147-181.013-2.005-68.629 22.976-132.523 70.336-179.883 45.44-45.419 106.645-70.421 172.373-70.421 70.485 0 137.429 28.139 188.523 79.232l257.429 257.429c49.045 49.045 77.141 113.344 79.125 181.013 2.005 68.629-22.955 132.501-70.336 179.861zM499.008 182.23c-34.987-34.965-80.512-54.229-128.192-54.229-42.944 0-82.731 16.128-112.043 45.44-30.571 30.571-46.677 72.128-45.355 117.035 1.344 45.845 20.587 89.6 54.165 123.179l128.704 128.704 231.424-231.424-128.704-128.704z" />
</svg>