<svg width="24" height="24" viewBox="0 0 1000 1000">
  <path d="M829.44 553.387l-171.947 171.947h-188.16v-85.333h153.173l85.333-85.333h-494.507c-119.467 0-213.333-93.867-213.333-213.333s93.867-213.333 213.333-213.333c104.96 0 189.867 72.107 209.067 170.667h70.4l118.187 118.187c-8.96-23.040-13.653-48.64-13.653-75.52 0-119.467 93.867-213.333 213.333-213.333s213.333 93.867 213.333 213.333c0 113.067-84.053 203.52-194.56 212.053zM333.653 298.667c-17.92-49.067-65.707-85.333-120.32-85.333-69.547 0-128 58.453-128 128s58.453 128 128 128c54.613 0 102.4-36.267 120.32-85.333h-120.32v-85.333h120.32zM810.667 213.334c-70.827 0-128 57.173-128 128s57.173 128 128 128c70.827 0 128-57.173 128-128s-57.173-128-128-128z" />
</svg>