<svg width="24" height="24" viewBox="0 0 1000 1000">
  <path d="M853.333 853.334l-554.667-86.677v-511.787c-3.499 0.469-7.040 0.875-10.709 1.024-68.437 2.816-138.219-52.139-155.883-122.795-17.621-70.613 23.531-130.176 91.968-132.992 68.416-2.837 138.219 52.096 155.883 122.773 2.624 10.496 3.797 20.715 3.925 30.592h0.171v371.051l384 59.307v-243.605c-3.499 0.469-7.040 0.875-10.709 1.024-68.437 2.816-138.219-52.139-155.883-122.795-17.621-70.613 23.531-130.176 91.968-132.992 68.416-2.837 138.219 52.096 155.883 122.773 2.709 10.901 3.883 21.461 3.925 31.659h0.171v613.44zM384 610.859v82.773l384 60.011v-83.456l-384-59.328z" />
</svg>