<svg width="24" height="24" viewBox="0 0 1000 1000">
  <path d="M554.581 128v85.333h256.085v426.667h-170.667v170.667h-426.667v-597.333h255.915v-85.333h-298.581v-85.333h682.667v85.333h-298.752zM639.915 554.667h85.333v-85.333h-85.333v85.333zM639.915 384h85.333v-85.333h-85.333v85.333zM383.915 298.667h-85.333v85.333h85.333v-85.333zM383.915 469.334h-85.333v85.333h85.333v-85.333zM383.915 640h-85.333v85.333h85.333v-85.333zM469.248 725.334h85.333v-85.333h-85.333v85.333zM469.248 554.667h85.333v-85.333h-85.333v85.333zM469.248 384h85.333v-85.333h-85.333v85.333z" />
</svg>