<svg width="24" height="24" viewBox="0 0 1000 1000">
  <path d="M255.339 573.718c0 88.64 28.907 170.347 77.333 236.949-145.877-67.328-247.339-214.485-247.339-385.685 0-234.709 190.272-424.981 424.981-424.981 171.2 0 318.379 101.461 385.685 247.339-66.581-48.427-148.288-77.333-236.949-77.333-222.955 0-403.712 180.757-403.712 403.712zM597.333 682.667l-42.667-128-42.667 128 42.667 128zM554.667 640l-128 42.667 128 42.667 128-42.667zM661.333 341.334l-21.333-64-21.333 64 21.333 64zM640 320l-64 21.333 64 21.333 64-21.333zM839.104 469.334l-28.437-85.333-28.459 85.333 28.459 85.333zM810.667 440.896l-85.333 28.437 85.333 28.437 85.333-28.437z" />
</svg>