<svg width="24" height="24" viewBox="0 0 1000 1000">
  <path d="M810.667 256h-42.667c0 77.227-34.56 146.773-88.747 193.707 18.347 103.68-34.987 211.627-135.68 255.573-118.187 52.48-256.853-1.28-308.907-119.040-38.4-84.48-21.333-178.773 32.853-244.907h-11.52c-94.251 0-170.667-76.416-170.667-170.667s76.416-170.667 170.667-170.667h554.667c70.699 0 128 57.323 128 128 0 70.699-57.301 128-128 128zM311.893 551.68c33.28 75.093 121.6 109.653 197.12 75.52 53.333-23.893 85.76-75.093 88.32-129.707-26.453 9.387-55.467 14.507-85.333 14.507-78.507 0-149.333-35.413-195.84-90.88-20.48 38.827-23.893 87.040-4.267 130.56zM810.667 85.334h-554.667c-47.125 0-85.333 38.208-85.333 85.333s38.208 85.333 85.333 85.333h85.333c0 94.251 76.416 170.667 170.667 170.667s170.667-76.416 170.667-170.667v-85.333h128c23.573 0 42.667-19.115 42.667-42.667s-19.093-42.667-42.667-42.667zM217.027 824.396l79.834-100.058-66.705-53.222-79.834 100.058 66.705 53.222zM566.048 871.987l79.403-31.266-46.899-119.104-79.403 31.266 46.899 119.104zM44.821 459.006l126.541 19.277 12.851-84.361-126.541-19.277-12.851 84.361zM845.398 585.61l12.834-84.361-126.541-19.251-12.834 84.361 126.541 19.251z" />
</svg>