<svg width="24" height="24" viewBox="0 0 1000 1000">
  <path d="M895.893 554.603l0.107 255.595-256.064 0.469 97.643-97.664-609.579-609.984 60.309-60.352 609.579 609.984zM320 426.667c105.856 0 192 86.123 192 192s-86.144 192-192 192-192-86.123-192-192 86.144-192 192-192zM320 725.334c58.816 0 106.667-47.851 106.667-106.667s-47.851-106.667-106.667-106.667-106.667 47.851-106.667 106.667 47.851 106.667 106.667 106.667zM704 426.667c-105.856 0-192-86.123-192-192s86.144-192 192-192 192 86.123 192 192-86.144 192-192 192zM704 128c-58.816 0-106.667 47.851-106.667 106.667s47.851 106.667 106.667 106.667 106.667-47.851 106.667-106.667-47.851-106.667-106.667-106.667z" />
</svg>