<svg width="24" height="24" viewBox="0 0 1000 1000">
  <path d="M85.333 853.334v-853.333h853.333v853.333h-853.333zM853.333 85.334h-682.667v682.667h682.667v-682.667zM350.4 382.422c8.896-1.664 20.565-2.219 33.365-2.219 48.363 0 91.179 12.779 118.421 40.021 21.12 20.011 32.235 49.472 32.235 85.056 0 35.029-14.464 64.491-36.693 82.837-23.915 20.011-60.608 30.592-110.656 30.592-46.144 0-80.064-3.328-104.533-7.787v0-369.728h67.84v141.227zM350.4 563.136c7.232 1.664 20.565 3.328 39.467 3.328 47.253 0 76.181-22.229 76.181-63.936 0-43.925-31.125-68.949-82.283-68.949-13.909 0-25.024 0.555-33.365 2.773v126.784zM634.496 284.587c-24.469 0-53.931 10.005-69.504 19.456l-13.333-49.493c20.011-11.115 49.493-18.901 82.283-18.901 71.723 0 110.080 35.584 110.080 84.523-0.555 40.021-23.339 65.045-72.277 82.837-34.475 12.224-47.253 20.565-47.253 37.803 0 16.683 13.333 28.352 37.803 28.352 23.915 0 45.589-8.896 57.259-15.573l13.333 48.363c-15.573 8.341-41.707 16.128-71.723 16.128-62.827 0-102.293-37.248-102.293-85.077-0.555-31.701 21.675-60.608 74.496-78.955 33.365-11.669 44.48-21.12 44.48-39.467 0.021-17.771-13.312-29.995-43.349-29.995z" />
</svg>