<svg width="24" height="24" viewBox="0 0 1000 1000">
  <path d="M512 167.254c-282.88 0-512 116.053-512 259.413s229.12 259.413 512 259.413 512-116.053 512-259.413-229.12-259.413-512-259.413zM290.56 506.454c23.040 0 38.827-4.267 46.507-13.227 7.68-8.533 9.387-23.893 5.547-43.947-4.267-22.613-12.373-37.12-24.747-46.507-11.947-9.387-30.293-14.080-55.040-14.080h-37.12l22.613 117.76h42.24zM141.227 269.654h61.44l14.507 74.667h52.48c23.040 0 41.813 2.56 56.747 7.253 14.933 5.12 28.587 13.227 40.96 24.747 10.24 9.387 18.347 19.627 24.747 31.147 6.4 11.093 11.093 23.893 13.227 37.547 6.827 33.28 2.133 59.307-14.080 77.653-16.64 18.773-42.24 27.733-77.653 27.733h-117.76l-54.613-280.747zM450.56 625.067l-54.613-280.747h60.587l31.573 160.853h48.64c15.36 0 25.6-2.56 30.293-7.68s5.547-14.507 2.987-28.16l-24.32-125.013h61.867l25.173 130.987c5.547 26.453 1.28 45.653-11.52 58.027-12.8 11.52-36.267 17.067-70.4 17.067h-54.187l15.36 74.667h-61.44zM768 506.454c23.467 0 38.827-4.267 46.507-13.227 7.68-8.533 9.387-23.893 5.547-43.947-4.267-22.613-12.373-37.12-24.32-46.507-12.373-9.387-30.72-14.080-55.467-14.080h-36.267l21.333 117.76h42.667zM618.667 269.654h61.44l14.507 74.667h52.053c23.467 0 42.667 2.56 57.6 7.253 14.933 5.12 27.733 13.227 40.533 24.747 10.24 9.387 18.773 19.627 24.747 31.147 6.4 11.093 11.093 23.893 13.653 37.547 6.4 33.28 1.707 59.307-14.507 77.653-15.36 18.773-42.24 27.733-77.653 27.733h-117.333l-55.040-280.747z" />
</svg>