<svg width="24" height="24" viewBox="0 0 1000 1000">
  <path d="M938.667 426.667c0-77.397-19.072-148.8-57.216-214.165s-89.899-117.12-155.285-155.285c-65.365-38.144-136.768-57.216-214.165-57.216-41.109 0-81.472 5.931-121.109 17.771 21.845 34.453 36.288 64.811 43.328 91.115 3.328 12.587 13.333 51.669 29.995 117.227 7.403-14.443 20.928-26.944 40.555-37.504s40.747-15.829 63.339-15.829c44.821 0 84.821 12.693 120 38.059s62.4 60.267 81.664 104.725c19.264 44.437 28.885 94.443 28.885 149.995 0 42.219-11.008 81.856-33.045 118.891s-53.973 67.221-95.829 90.56c-41.856 23.339-89.067 35.008-141.675 35.008-38.891 0-75.179-5.376-108.885-16.107-33.707-10.752-62.315-25.003-85.824-42.773s-43.712-38.229-60.565-61.376c-16.853-23.147-29.269-47.125-37.227-71.957-7.957-24.811-11.947-49.621-11.947-74.453 0-38.528 7.403-72.405 22.229-101.675 14.805-29.269 36.48-49.813 65.003-61.675 11.115-4.437 18.155-0.747 21.12 11.115 0.747 2.603 2.219 8.341 4.437 17.216 2.219 8.896 3.712 14.443 4.437 16.661 2.219 8.512 0.192 16.469-6.101 23.893-18.88 22.592-28.331 50.56-28.331 83.883 0 55.936 19.349 103.979 58.048 144.171s89.344 60.288 151.936 60.288c55.936 0 99.541-15.189 130.837-45.547s46.955-69.803 46.955-118.336c0-62.955-12.693-116.48-38.059-160.555s-57.877-66.112-97.493-66.112c-22.592 0-40.747 8.064-54.443 24.171s-17.963 35.456-12.779 58.048c2.965 12.971 7.872 30.272 14.72 51.947s12.416 40.747 16.661 57.216c4.267 16.469 6.379 30.464 6.379 41.941 0 18.517-4.992 33.899-14.997 46.101-10.005 12.224-24.256 18.325-42.773 18.325-22.955 0-42.411-10.56-58.325-31.659-15.936-21.12-23.893-47.403-23.893-78.891 0-27.029 4.629-49.621 13.888-67.776l-54.997-232.213c-6.293-25.92-8.704-58.709-7.232-98.325-76.288 33.707-137.963 85.739-185.003 156.117s-70.549 148.693-70.549 235.008c0 77.397 19.072 148.8 57.216 214.165s89.899 117.12 155.285 155.285c65.365 38.144 136.768 57.216 214.165 57.216s148.8-19.072 214.165-57.216c65.365-38.144 117.12-89.899 155.285-155.285 38.144-65.387 57.216-136.789 57.216-214.187z" />
</svg>