<svg width="24" height="24" viewBox="0 0 1000 1000">
  <path d="M938.667 42.667c-47.36 0-73.813 15.787-93.013 27.307-15.787 9.387-25.6 15.36-49.067 15.36-23.893 0-33.28-5.547-49.067-15.36-19.627-11.52-45.653-27.307-93.013-27.307s-73.813 15.787-93.013 27.307c-15.787 9.387-25.6 15.36-49.067 15.36-23.893 0-33.28-5.547-49.067-15.36-19.627-11.52-46.080-27.307-93.44-27.307s-73.813 15.787-93.013 27.307c-15.787 9.813-25.6 15.36-49.067 15.36s-33.28-5.547-49.067-15.36c-19.627-11.52-46.080-27.307-93.44-27.307v85.333c23.893 0 33.28 5.547 49.067 15.36 19.627 11.52 46.080 27.307 93.44 27.307s73.813-15.787 93.013-27.307c15.787-9.813 25.173-15.36 49.067-15.36s33.28 5.547 49.067 15.36c19.627 11.52 46.080 27.307 93.44 27.307s73.813-15.787 93.013-27.307c15.787-9.387 25.6-15.36 49.067-15.36s33.28 5.547 49.067 15.36c19.2 11.52 45.653 27.307 93.013 27.307s73.813-15.787 93.013-27.307c15.787-9.813 25.173-15.36 49.067-15.36v-85.333zM938.667 234.667c-47.36 0-73.813 15.787-93.013 27.307-15.787 9.387-25.6 15.36-49.067 15.36-23.893 0-33.28-5.547-49.067-15.36-19.2-11.52-45.653-27.307-93.013-27.307s-73.813 15.787-93.013 27.307c-15.787 9.387-25.6 15.36-49.067 15.36-23.893 0-33.28-5.547-49.067-15.36-19.2-11.52-45.653-27.307-93.013-27.307s-73.813 15.787-93.013 27.307c-15.787 9.387-25.6 15.36-49.067 15.36s-33.28-5.547-49.067-15.36c-20.053-11.52-46.507-27.307-93.867-27.307v85.333c23.893 0 33.28 5.547 49.067 15.36 19.2 11.52 45.653 27.307 93.013 27.307s73.813-15.787 93.013-27.307c15.787-9.387 25.6-15.36 49.067-15.36 23.893 0 33.28 5.547 49.067 15.36 19.2 11.52 45.653 27.307 93.013 27.307s73.813-15.787 93.013-27.307c15.787-9.387 25.6-15.36 49.067-15.36s33.28 5.547 49.067 15.36c19.2 11.52 45.653 27.307 93.013 27.307s73.813-15.787 93.013-27.307c15.787-9.387 25.6-15.36 49.067-15.36v-85.333h0.853zM369.92 426.667c23.893 0 33.28 5.547 49.067 15.36 19.627 11.52 46.080 27.307 93.44 27.307s73.813-15.787 93.013-27.307c15.787-9.387 25.6-15.36 49.067-15.36s33.28 5.547 49.067 15.36c5.12 2.987 11.093 6.4 17.493 9.813l-273.92 273.493c-66.133 66.133-127.147 85.76-233.813 85.333v-106.667c77.653 0.427 123.307-16.64 170.667-64l42.667-42.667-138.667-138.667c13.227-5.12 23.893-11.52 32.853-16.64 15.787-9.813 25.173-15.36 49.067-15.36zM810.667 704c0-58.91-47.756-106.667-106.667-106.667s-106.667 47.756-106.667 106.667c0 58.91 47.756 106.667 106.667 106.667s106.667-47.756 106.667-106.667z" />
</svg>