<svg width="24" height="24" viewBox="0 0 1000 1000">
  <path d="M853.333 469.334h-424.149c-2.027 11.541-3.861 20.117-4.8 24.085-15.403 106.987 1.216 183.339 49.408 226.859 89.984 81.259 266.112 34.795 267.84 34.347l21.995 82.24c-8.96 2.475-221.461 58.987-345.621-52.779-71.168-64.107-96.939-166.763-76.587-305.109l0.853-4.203c0.043-0.213 0.512-2.197 1.195-5.419h-172.8v-85.333h182.805c3.499-90.368-13.355-226.688-129.472-306.112l23.573-77.888h552.427v85.205h-445.909c74.261 96.085 86.869 213.909 83.819 298.795h415.424v85.312z" />
</svg>