<svg width="24" height="24" viewBox="0 0 1000 1000">
  <path d="M128 853.334h768v-85.333h-768v85.333zM298.667 554.667h85.333v-128h-85.333v128zM469.333 682.667h85.333v-256h-85.333v256zM640 597.334h85.333v-170.667h-85.333v170.667zM810.667 341.334h-597.333v384h-85.333v-426.667c0-23.552 19.115-42.667 42.667-42.667h298.667v-86.677l-134.443-104.533 55.552-64.789 121.557 93.525 121.557-93.525 55.552 64.789-134.443 104.533v86.677h298.667c23.552 0 42.667 19.115 42.667 42.667v426.667h-85.333v-384z" />
</svg>