<svg width="24" height="24" viewBox="0 0 1000 1000">
  <path d="M896 640h-128v213.333h-512v-213.333h-128c-23.552 0-42.667-19.115-42.667-42.667v-384c0-23.552 19.115-42.667 42.667-42.667h128v-170.667h512v170.667h128c23.552 0 42.667 19.115 42.667 42.667v384c0 23.552-19.115 42.667-42.667 42.667zM341.333 768h341.333v-128h-341.333v128zM682.667 85.334h-341.333v170.667h341.333v-170.667zM810.667 469.334c-23.445 0-42.667 19.2-42.667 42.667 0 23.445 19.221 42.667 42.667 42.667s42.667-19.221 42.667-42.667c0-23.467-19.221-42.667-42.667-42.667z" />
</svg>