<svg width="24" height="24" viewBox="0 0 1000 1000">
  <path d="M725.333 768c-69.589 0-131.285-33.643-170.261-85.333h-427.072c-23.552 0-42.667-19.115-42.667-42.667v-469.333c0-23.552 19.115-42.667 42.667-42.667h85.333v-85.333h85.333v85.333h384v-85.333h85.333v85.333h85.333c23.552 0 42.667 19.115 42.667 42.667v256.555c26.667 35.605 42.667 79.637 42.667 127.445 0 117.632-95.701 213.333-213.333 213.333zM426.667 298.667h-213.333v85.333h213.333v-85.333zM426.667 426.667h-213.333v85.333h213.333v-85.333zM725.333 426.667c-70.592 0-128 57.408-128 128s57.408 128 128 128 128-57.408 128-128-57.408-128-128-128z" />
</svg>