<svg width="24" height="24" viewBox="0 0 1000 1000">
  <path d="M512 853.334c-235.093 0-426.667-191.573-426.667-426.667s191.573-426.667 426.667-426.667c235.093 0 426.667 191.573 426.667 426.667s-191.573 426.667-426.667 426.667zM512 85.334c-188.16 0-341.333 153.173-341.333 341.333s153.173 341.333 341.333 341.333c188.16 0 341.333-153.173 341.333-341.333s-153.173-341.333-341.333-341.333zM512 725.334c-165.269 0-298.667-133.397-298.667-298.667s133.397-298.667 298.667-298.667c165.269 0 298.667 133.397 298.667 298.667s-133.397 298.667-298.667 298.667z" />
</svg>