<svg width="24" height="24" viewBox="0 0 1000 1000">
  <path d="M981.333 437.824c0 49.621-32.832 104.043-104.896 106.283-1.92 0.064-44.053 0.704-73.792-27.605-73.408 47.296-168.533 74.731-270.144 78.229l62.101 174.656 155.179-38.507c2.069-45.909 40.021-82.603 86.485-82.603 47.723 0 86.571 38.891 86.571 86.656s-38.848 86.635-86.571 86.635c-37.355 0-69.077-23.787-81.28-56.896l-182.016 45.227-76.459-214.997c-103.936-2.219-201.259-29.376-276.373-77.163-29.589 27.072-70.571 26.453-72.683 26.368-72.021-2.24-104.747-56.661-104.747-106.283 0-47.723 33.877-82.261 48.939-95.339-1.387-9.6-2.069-19.264-2.069-29.056 0-76.629 44.629-148.16 126.016-201.344 78.976-51.797 183.723-80.363 294.869-80.363 111.125 0 215.872 28.565 294.933 80.363 81.237 53.184 126.016 124.715 126.016 201.344 0 9.003-0.725 17.877-1.835 26.645 12.949 10.709 51.755 46.677 51.755 97.749zM836.224 787.563c28.971 0 52.587-23.616 52.587-52.608 0-29.056-23.616-52.651-52.587-52.651-29.013 0-52.587 23.595-52.587 52.651 0 28.992 23.573 52.608 52.587 52.608zM76.693 437.824c0 2.923 0.875 70.123 71.68 72.299 0.235 0 23.808 0.107 42.667-12.608-43.669-33.92-74.197-73.771-89.707-116.8-11.435 13.099-24.64 33.237-24.64 57.109zM510.4 65.792c-213.355 0-386.944 111.104-386.944 247.659 0 136.597 173.589 247.68 386.944 247.68s386.944-111.083 386.944-247.68c0.021-136.533-173.568-247.659-386.944-247.659zM831.317 496.214c19.029 14.037 44.096 13.931 44.16 13.931 70.912-2.197 71.723-69.397 71.723-72.299 0-25.451-14.891-46.72-26.859-59.712-15.083 43.541-45.355 83.819-89.024 118.080zM442.347 362.347c0-36.395-29.504-65.899-65.899-65.899s-65.899 29.504-65.899 65.899c0 36.395 29.504 65.899 65.899 65.899s65.899-29.504 65.899-65.899zM718.763 362.347c0-36.407-29.513-65.92-65.92-65.92s-65.92 29.513-65.92 65.92c0 36.407 29.513 65.92 65.92 65.92s65.92-29.513 65.92-65.92zM513.493 129.6c-91.499 0-154.496 47.637-157.141 49.685-8.427 6.379-10.027 18.389-3.563 26.773 6.464 8.363 18.411 10.005 26.752 3.584 0.96-0.725 56.256-41.771 133.973-41.771 77.312 0 128.277 43.669 128.853 44.117 7.851 6.955 19.968 6.187 26.944-1.792 6.933-7.893 6.229-19.925-1.685-26.901-2.475-2.24-61.675-53.696-154.133-53.696z" />
</svg>