<svg width="24" height="24" viewBox="0 0 1000 1000">
  <path d="M335.979 199.104v455.104h193.408c48.64 0 83.968-4.096 105.984-12.309 22.037-8.192 39.723-22.677 52.949-43.584 13.248-20.928 19.84-44.821 19.84-71.723 0-34.155-10.005-62.357-30.101-84.629-20.075-22.229-50.048-36.245-89.984-42.005 19.861-11.627 36.245-24.32 49.152-38.251 12.949-13.845 30.443-38.507 52.373-73.856l55.552-88.811h-109.909l-66.432 99.072c-23.637 35.413-39.765 57.685-48.405 66.901-8.704 9.216-17.92 15.467-27.648 18.901-9.707 3.413-25.067 5.12-46.229 5.12h-18.603v-189.995l-91.947 0.064zM427.883 461.739h67.968c44.075 0 71.637 1.899 82.603 5.589 10.944 3.712 19.584 10.155 25.749 19.243 6.187 9.109 9.301 20.459 9.301 34.133 0 15.339-4.096 27.691-12.245 37.099-8.192 9.429-19.755 15.403-34.667 17.899-7.467 1.003-29.824 1.536-67.051 1.536h-71.701v-115.477l0.043-0.021zM512.043-0c-235.264 0-426.709 191.381-426.709 426.667s191.445 426.667 426.709 426.667c235.264 0 426.624-191.381 426.624-426.667s-191.36-426.667-426.624-426.667zM512.043 777.28c-193.301 0-350.613-157.291-350.613-350.613s157.312-350.613 350.613-350.613c193.28 0 350.592 157.312 350.592 350.613s-157.312 350.613-350.592 350.613z" />
</svg>