<svg width="24" height="24" viewBox="0 0 1000 1000">
  <path d="M768 426.667h-128l170.667-170.667 170.667 170.667h-128c0 188.587-152.747 341.333-341.333 341.333-66.987 0-129.28-19.627-181.76-52.907l62.293-62.293c35.413 19.2 76.373 29.867 119.467 29.867 141.227 0 256-114.773 256-256zM693.76 138.24l-62.293 62.293c-35.84-18.773-76.373-29.867-119.467-29.867-141.227 0-256 114.773-256 256h128l-170.667 170.667-170.667-170.667h128c0-188.587 152.747-341.333 341.333-341.333 66.987 0 129.28 19.627 181.76 52.907z" />
</svg>