<svg width="24" height="24" viewBox="0 0 1000 1000">
  <path d="M714.773 56.107c-63.339-34.816-131.477-52.224-204.437-52.224-72.597 0-140.565 17.408-203.883 52.224 51.115 32.213 94.72 71.296 130.837 117.227s60.459 95.552 73.045 148.885c12.971-53.333 37.504-102.955 73.621-148.885 36.096-45.931 79.701-84.992 130.816-117.227zM439.787 849.451v-269.44c0-93.333-23.424-178.432-70.272-255.275-46.848-76.864-108.053-133.611-183.616-170.283-67.029 79.637-100.565 171.307-100.565 275.008 0 69.269 15.467 133.995 46.379 194.176 30.933 60.181 73.429 110.101 127.509 149.717s114.261 64.981 180.565 76.096zM938.667 429.44c0-103.701-33.515-195.371-100.565-275.008-75.563 36.672-136.768 93.419-183.616 170.283-46.848 76.843-70.272 161.941-70.272 255.275v269.44c66.304-11.115 126.485-36.48 180.565-76.117s96.576-89.536 127.509-149.717c30.912-60.16 46.379-124.885 46.379-194.155z" />
</svg>