<svg width="24" height="24" viewBox="0 0 1000 1000">
  <path d="M853.333 810.667h-682.667c-23.552 0-42.667-19.115-42.667-42.667v-682.667c0-23.552 19.115-42.667 42.667-42.667h682.667c23.552 0 42.667 19.115 42.667 42.667v682.667c0 23.552-19.093 42.667-42.667 42.667zM298.667 128c-47.125 0-85.333 38.208-85.333 85.333s38.208 85.333 85.333 85.333 85.333-38.208 85.333-85.333-38.187-85.333-85.333-85.333zM512 128c0 164.693-133.973 298.667-298.667 298.667v85.333c211.733 0 384-172.267 384-384h-85.333zM725.333 128c0 282.304-229.696 512-512 512v85.333c329.365 0 597.333-267.968 597.333-597.333h-85.333z" />
</svg>