<svg width="24" height="24" viewBox="0 0 1000 1000">
  <path d="M893.333 517.76l33.856 7.467c-24.981 105.557-89.173 196.011-176.32 255.040l-21.973-34.667c-2.304-3.627-7.104-4.672-10.667-2.411s-4.544 7.040-2.24 10.667l22.059 34.731c-65.557 41.024-143.040 64.747-226.069 64.747v0c-27.307 0-53.952-2.56-79.829-7.467l8.747-39.552c0.939-4.224-1.643-8.384-5.781-9.301-4.117-0.917-8.213 1.792-9.152 6.016l-8.832 39.723c-107.029-24.299-198.763-88.875-258.475-176.896l34.987-22.229c3.669-2.325 4.843-7.104 2.56-10.667-2.261-3.563-7.083-4.587-10.752-2.24l-35.136 22.379c-41.173-65.621-64.981-143.296-64.981-226.475 0-28.437 2.795-56.149 8.107-83.029l40.683 9.067c4.267 0.939 8.469-1.664 9.387-5.781s-1.771-8.213-6.016-9.152l-40.832-9.152c25.237-107.349 91.051-199.040 180.352-258.069l24.939 39.317c2.304 3.627 7.019 4.736 10.581 2.475s4.629-7.040 2.325-10.667l-25.024-39.317c64.704-39.531 140.757-62.336 222.144-62.336 29.76 0 58.837 3.029 86.891 8.832l-8.981 40.277c-0.939 4.224 1.664 8.384 5.781 9.301s8.213-1.792 9.152-6.016l8.981-40.107c105.856 25.92 196.203 91.285 254.549 179.691l-31.125 19.819c-3.669 2.325-4.843 7.104-2.56 10.667 2.261 3.563 7.083 4.587 10.752 2.24l31.211-19.819c39.403 64.64 62.101 140.501 62.101 221.739 0 28.629-2.88 56.619-8.256 83.669l-33.771-7.531c-4.245-0.939-8.384 1.643-9.301 5.781-1.003 4.139 1.685 8.299 5.931 9.237zM552.64 393.984l-1.707-2.752-1.493-1.429-293.312-275.093 210.453 349.717 1.408 1.408 293.312 275.093-208.661-346.944zM508.907 390.166c20.16 0.896 35.84 18.048 34.923 38.208-0.896 20.16-17.963 35.755-38.144 34.859-20.16-0.896-35.755-17.984-34.859-38.144 0.917-20.16 17.899-35.819 38.080-34.923z" />
</svg>