<svg width="24" height="24" viewBox="0 0 1000 1000">
  <path d="M704 341.334c-15.125 0-29.717-2.283-43.456-6.507l-71.808 76.395 180.523 186.112c107.221 102.677 43.563 211.179 42.752 213.141v0.192l-0.064-0.064-0.021 0.064-0.213-0.299-299.051-318.208-299.371 318.315c-0.811-1.963-64.469-110.485 42.752-213.141l180.523-186.112-72.064-76.693c-14.080 4.416-29.013 6.784-44.523 6.784-82.325 0-149.333-67.008-149.333-149.333s67.008-149.333 149.333-149.333c82.325 0 149.333 67.008 149.333 149.333 0 27.371-7.552 52.971-20.459 75.072l63.787 65.749 62.955-64.917c-13.227-22.272-20.949-48.171-20.949-75.904 0-82.325 67.008-149.333 149.333-149.333s149.333 67.008 149.333 149.333-66.987 149.355-149.312 149.355zM320 128c-35.285 0-64 28.715-64 64s28.715 64 64 64 64-28.715 64-64-28.715-64-64-64zM512.021 384c-11.776 0-21.333 9.557-21.333 21.355 0 11.776 9.557 21.312 21.333 21.312s21.333-9.536 21.333-21.312c0-11.797-9.557-21.355-21.333-21.355zM704 128c-35.285 0-64 28.715-64 64s28.715 64 64 64 64-28.715 64-64-28.715-64-64-64z" />
</svg>