<svg width="24" height="24" viewBox="0 0 1000 1000">
  <path d="M730.155 202.667v335.957c0 6.421-2.283 11.925-6.869 16.491s-9.92 6.869-16.043 6.869h-42.624c-6.101 0-11.456-2.283-16.043-6.869s-6.869-10.091-6.869-16.491v-335.957c0-6.101 2.283-11.456 6.869-16.043s9.92-6.869 16.043-6.869h42.624c6.101 0 11.456 2.283 16.043 6.869s6.869 9.941 6.869 16.043zM600 202.667v243.371c0 6.101-2.283 11.456-6.869 16.043s-9.92 6.869-16.043 6.869h-46.293c-6.101 0-11.456-2.283-16.043-6.869s-6.869-9.941-6.869-16.043v-243.371c0-6.101 2.283-11.456 6.869-16.043s9.92-6.869 16.043-6.869h46.293c6.101 0 11.456 2.283 16.043 6.869s6.869 9.941 6.869 16.043zM466.155 202.667v196.629c0 6.101-2.283 11.456-6.869 16.043s-9.92 6.869-16.043 6.869h-46.293c-6.101 0-11.456-2.283-16.043-6.869s-6.869-9.941-6.869-16.043v-196.629c0-6.101 2.283-11.456 6.869-16.043s9.92-6.869 16.043-6.869h46.293c6.101 0 11.456 2.283 16.043 6.869s6.869 9.941 6.869 16.043zM332.331 202.667v165.909c0 6.101-2.283 11.456-6.869 16.043s-9.92 6.869-16.043 6.869h-46.293c-6.101 0-11.456-2.283-16.043-6.869s-6.869-9.941-6.869-16.043v-165.909c0-6.101 2.283-11.456 6.869-16.043s9.92-6.869 16.043-6.869h46.293c6.101 0 11.456 2.283 16.043 6.869s6.869 9.941 6.869 16.043zM981.333 269.59c0-50.731-18.027-94.101-54.080-130.176s-79.445-54.080-130.176-54.080h-570.176c-50.731 0-94.101 18.027-130.176 54.080s-54.080 79.445-54.080 130.176c0 35.435 9.621 68.224 28.885 98.304s44.907 52.779 76.992 68.053c-3.051 10.389-4.587 21.547-4.587 33.451 0 34.517 12.309 64.085 36.885 88.683s54.165 36.885 88.683 36.885c31.168 0 58.667-10.24 82.496-30.699 13.76 55.915 43.392 101.76 88.917 137.493s97.173 53.632 154.923 53.632c45.525 0 87.552-11.221 126.037-33.685s68.971-52.928 91.435-91.435 33.685-80.512 33.685-126.037c0-20.16-2.133-38.805-6.421-55.915 41.259-10.091 75.008-31.851 101.291-65.323s39.467-71.253 39.467-113.408z" />
</svg>