<svg width="24" height="24" viewBox="0 0 1000 1000">
  <path d="M768 341.334c-53.717 0-101.653-25.024-132.971-63.936l-212.587 112.064c2.688 11.989 4.203 24.405 4.203 37.205 0 13.525-1.749 26.603-4.736 39.211l214.144 108.672c31.317-38.165 78.827-62.549 131.925-62.549 94.101 0 170.667 76.587 170.667 170.667s-76.565 170.667-170.667 170.667c-94.101 0-170.667-76.587-170.667-170.667 0-10.453 1.088-20.672 2.901-30.613l-218.197-110.741c-31.232 34.304-76.096 56-126.037 56-94.101 0-170.667-76.587-170.667-170.667s76.565-170.667 170.667-170.667c50.688 0 96.149 22.336 127.445 57.557l216.512-114.133c-1.6-9.365-2.624-18.944-2.624-28.757 0-94.080 76.565-170.667 170.667-170.667s170.667 76.587 170.667 170.667-76.544 170.688-170.645 170.688zM768 768c47.061 0 85.333-38.251 85.333-85.333s-38.272-85.333-85.333-85.333c-47.061 0-85.333 38.251-85.333 85.333s38.272 85.333 85.333 85.333zM256 341.334c-47.061 0-85.333 38.251-85.333 85.333s38.272 85.333 85.333 85.333c47.061 0 85.333-38.251 85.333-85.333s-38.272-85.333-85.333-85.333zM768 85.334c-47.061 0-85.333 38.251-85.333 85.333s38.272 85.333 85.333 85.333c47.061 0 85.333-38.251 85.333-85.333s-38.272-85.333-85.333-85.333z" />
</svg>