<svg width="24" height="24" viewBox="0 0 1000 1000">
  <path d="M682.624 141.654c-104.107-72.96-237.227-72.96-341.333 0-52.053-36.267-111.36-56.32-170.667-56.32h-85.333v-85.333h85.333c58.88 0 116.907 14.933 170.667 42.24 107.52-55.040 233.813-55.040 341.333 0 53.76-27.733 111.787-42.24 170.667-42.24h85.333v85.333h-85.333c-59.307 0-118.613 20.053-170.667 56.32zM167.467 149.334h2.133c68.267 0 128.853 37.547 170.667 85.333 41.813-47.787 102.4-85.333 170.667-85.333s128.853 37.547 170.667 85.333c41.813-47.787 102.4-85.333 170.667-85.333h2.133l84.309 256-128.085 57.621v262.379c0 23.467-19.2 42.667-42.667 42.667h-170.667v85.333h-170.667v-85.333h-170.667c-23.467 0-42.667-19.2-42.667-42.667v-262.421l-127.915-57.579 82.091-256zM298.624 682.667h426.667v-181.312l-213.333 95.979-213.333-96.021v181.355z" />
</svg>