<svg width="24" height="24" viewBox="0 0 1000 1000">
  <path d="M444.821 370.006c0 31.104-11.051 57.707-33.131 79.787s-48.683 33.131-79.787 33.131-57.643-11.051-79.573-33.131c-21.952-22.080-32.917-48.683-32.917-79.787s10.965-57.643 32.917-79.573c21.952-21.952 48.469-32.917 79.573-32.917s57.707 10.965 79.787 32.917 33.131 48.448 33.131 79.573zM804.416 370.411c0 31.104-10.965 57.643-32.917 79.573-21.952 21.952-48.469 32.917-79.573 32.917s-57.707-10.965-79.787-32.917-33.131-48.469-33.131-79.573c0-31.381 11.051-58.048 33.131-80s48.683-32.917 79.787-32.917c31.104 0 57.643 11.051 79.573 33.131 21.952 22.080 32.917 48.683 32.917 79.787zM938.581 707.499v-561.664c0-12.224-4.373-22.699-13.12-31.467s-19.371-13.12-31.872-13.12h-763.328c-12.501 0-23.125 4.373-31.872 13.12s-13.12 19.243-13.12 31.467v561.664c0 12.224 4.373 22.699 13.12 31.467s19.371 13.12 31.872 13.12h179.584c12.224 0 22.784-4.373 31.659-13.12 8.896-8.747 13.333-19.243 13.333-31.467v-67.093h314.176v67.093c0 12.224 4.437 22.699 13.333 31.467 8.896 8.747 19.435 13.12 31.659 13.12h179.584c12.501 0 23.125-4.373 31.872-13.12s13.12-19.243 13.12-31.467z" />
</svg>