<svg width="24" height="24" viewBox="0 0 1000 1000">
  <path d="M763.669 810.667h-503.339l-174.997-306.219 426.667-511.979 426.667 511.979-174.997 306.219zM852.544 536.896h-152.32l54.208 171.691 98.112-171.691zM706.624 752l-51.285-162.389-92.8 162.389h144.085zM512 722.219l105.877-185.323h-211.776l105.899 185.323zM620.181 478.23l-108.181-342.571-108.181 342.571h216.363zM461.461 752l-92.8-162.389-51.285 162.389h144.085zM269.547 708.587l54.208-171.691h-152.32l98.112 171.691zM183.531 478.23h158.763l96.875-306.773-255.637 306.773zM584.832 171.478l96.875 306.773h158.763l-255.637-306.773z" />
</svg>