<svg width="24" height="24" viewBox="0 0 1000 1000">
  <path d="M512 768c187.989 0 340.928-137.835 340.928-307.264 0-68.053-24.555-132.757-71.019-187.093l-12.8-15.019c-93.973-99.435-276.224-144.661-414.891-162.795l0.107 0.213 33.728 69.589-66.219 40.299c-94.4 57.429-150.763 152.704-150.763 254.827 0 169.408 152.939 307.243 340.928 307.243zM512 853.334c-235.627 0-426.667-175.765-426.667-392.597 0-136.939 76.288-257.344 191.765-327.616l-64.512-133.099c0 0 455.701 0 635.051 218.389l-0.448-0.064c57.109 66.795 91.456 150.827 91.456 242.389 0.021 216.832-191.019 392.597-426.645 392.597v0z" />
</svg>