<svg width="24" height="24" viewBox="0 0 1000 1000">
  <path d="M512 896c-23.467 0-42.667-19.2-42.667-42.667v-128c0-23.467 19.2-42.667 42.667-42.667s42.667 19.2 42.667 42.667v128c0 23.467-19.2 42.667-42.667 42.667zM640 648.534c6.4-4.267 14.933-6.4 21.333-6.4 14.933 0 29.867 8.533 36.267 21.333l64 110.933c12.8 19.2 6.4 44.8-14.933 57.6-19.2 12.8-44.8 6.4-57.6-14.933l-64-110.933c-12.8-19.2-6.4-44.8 14.933-57.6zM733.867 554.667c6.4-12.8 21.333-21.333 36.267-21.333 8.533 0 14.933 2.133 21.333 6.4l110.933 64c19.2 10.667 27.733 36.267 14.933 57.6-10.667 19.2-36.267 27.733-57.6 14.933l-110.933-64c-19.2-10.667-27.733-36.267-14.933-57.6zM326.4 663.467c6.4-12.8 21.333-21.333 36.267-21.333 6.4 0 14.933 2.133 21.333 6.4 19.2 10.667 27.733 36.267 14.933 57.6l-64 110.933c-10.667 19.2-36.267 27.733-57.6 14.933-21.333-10.667-27.733-36.267-14.933-57.6l64-110.933zM121.6 603.734l110.933-64c6.4-4.267 14.933-6.4 21.333-6.4 14.933 0 29.867 8.533 36.267 21.333 12.8 19.2 6.4 44.8-14.933 57.6l-110.933 64c-19.2 12.8-44.8 6.4-57.6-14.933s-6.4-46.933 14.933-57.6zM512 170.667c-23.467 0-42.667-19.2-42.667-42.667v-128c0-23.467 19.2-42.667 42.667-42.667s42.667 19.2 42.667 42.667v128c0 23.467-19.2 42.667-42.667 42.667zM697.6 189.867c-10.667 19.2-36.267 27.733-57.6 14.933-19.2-10.667-27.733-36.267-14.933-57.6l64-110.933c6.4-12.8 21.333-21.333 36.267-21.333 6.4 0 14.933 2.133 21.333 6.4 19.2 10.667 27.733 36.267 14.933 57.6l-64 110.933zM902.4 249.6l-110.933 64c-19.2 12.8-44.8 6.4-57.6-14.933-12.8-19.2-6.4-44.8 14.933-57.6l110.933-64c6.4-4.267 14.933-6.4 21.333-6.4 14.933 0 29.867 8.533 36.267 21.333 12.8 19.2 6.4 44.8-14.933 57.6zM384 204.8c-19.2 12.8-44.8 6.4-57.6-14.933l-64-110.933c-12.8-19.2-6.4-44.8 14.933-57.6 6.4-4.267 14.933-6.4 21.333-6.4 14.933 0 29.867 6.4 36.267 21.333l64 110.933c12.8 19.2 6.4 44.8-14.933 57.6zM290.133 298.667c-10.667 19.2-36.267 27.733-57.6 14.933l-110.933-64c-19.2-10.667-27.733-36.267-14.933-57.6 6.4-12.8 21.333-21.333 36.267-21.333 6.4 0 14.933 2.133 21.333 6.4l110.933 64c19.2 10.667 27.733 36.267 14.933 57.6zM256 426.667c0 23.467-19.2 42.667-42.667 42.667h-128c-23.467 0-42.667-19.2-42.667-42.667s19.2-42.667 42.667-42.667h128c23.467 0 42.667 19.2 42.667 42.667zM938.667 469.334h-128c-23.467 0-42.667-19.2-42.667-42.667s19.2-42.667 42.667-42.667h128c23.467 0 42.667 19.2 42.667 42.667s-19.2 42.667-42.667 42.667z" />
</svg>