<svg width="24" height="24" viewBox="0 0 1000 1000">
  <path d="M512 896c-23.467 0-42.667-19.2-42.667-42.667v-170.667c0-23.467 19.2-42.667 42.667-42.667s42.667 19.2 42.667 42.667v170.667c0 23.467-19.2 42.667-42.667 42.667zM512 213.334c-12.8 0-21.333-8.533-21.333-21.333v-213.333c0-12.8 8.533-21.333 21.333-21.333s21.333 8.533 21.333 21.333v213.333c0 12.8-8.533 21.333-21.333 21.333zM697.6 563.2c10.667 0 23.467 4.267 34.133 14.933l113.067 113.067c19.2 19.2 19.2 49.067 0 68.267s-49.067 19.2-68.267 0l-113.067-113.067c-19.2-19.2-19.2-49.067 0-68.267 8.533-10.667 21.333-14.933 34.133-14.933zM322.133 277.334l-142.933-142.933c-10.667-10.667-10.667-27.733 0-38.4 6.4-6.4 12.8-8.533 19.2-8.533 8.533 0 14.933 2.133 19.2 8.533l142.933 142.933c10.667 10.667 10.667 27.733 0 38.4s-27.733 10.667-38.4 0zM298.667 426.667c0 17.067-14.933 32-32 32h-192c-17.067 0-32-14.933-32-32s14.933-32 32-32h192c17.067 0 32 14.933 32 32zM970.667 437.334h-234.667c-6.4 0-10.667-4.267-10.667-10.667s4.267-10.667 10.667-10.667h234.667c6.4 0 10.667 4.267 10.667 10.667s-4.267 10.667-10.667 10.667zM234.667 759.467c-14.933 14.933-38.4 14.933-53.333 0s-14.933-38.4 0-53.333l128-128c6.4-6.4 17.067-10.667 25.6-10.667s19.2 2.133 27.733 10.667c14.933 14.933 14.933 38.4 0 53.333l-128 128zM686.933 275.2c-6.4 6.4-17.067 6.4-23.467 0s-6.4-17.067 0-23.467l157.867-157.867c2.133-2.133 6.4-4.267 10.667-4.267s8.533 2.133 12.8 4.267c6.4 6.4 6.4 17.067 0 23.467l-157.867 157.867z" />
</svg>