<svg width="24" height="24" viewBox="0 0 1000 1000">
  <path d="M512-42.666c-258.133 0-469.333 211.2-469.333 469.333s211.2 469.333 469.333 469.333 469.333-211.2 469.333-469.333-211.2-469.333-469.333-469.333zM512 810.667c-211.2 0-384-172.8-384-384s172.8-384 384-384 384 172.8 384 384-172.8 384-384 384zM512 384c-10.667 0-21.333 4.267-29.867 12.8-17.067 17.067-17.067 42.667 0 59.733l213.333 213.333c17.067 17.067 42.667 17.067 59.733 0s17.067-42.667 0-59.733l-213.333-213.333c-8.533-8.533-19.2-12.8-29.867-12.8z" />
</svg>