<svg width="24" height="24" viewBox="0 0 1000 1000">
  <path d="M853.333 260.886v-36.395c0-31.253-10.56-57.813-31.701-79.68s-46.592-32.811-76.373-32.811h-31.424l-143.381-148.331v148.331h-291.712c-29.781 0-55.232 10.923-76.373 32.811s-31.701 48.427-31.701 79.68v36.395h682.667zM853.333 440.662v-140.608h-682.667v140.608h682.667zM853.333 621.526v-140.608h-682.667v140.608h682.667zM853.333 698.731v-36.949h-682.667v36.949c0 30.891 10.56 57.259 31.701 79.125s46.592 32.811 76.373 32.811h466.517c29.781 0 55.232-10.944 76.373-32.811s31.701-48.256 31.701-79.125z" />
</svg>