<svg width="24" height="24" viewBox="0 0 1000 1000">
  <path d="M896 469.334h-768v-85.333h422.421c36.949-9.408 62.613-16.853 76.48-22.187 31.403-11.84 53.888-26.432 67.584-43.819 13.632-17.408 20.459-37.76 20.459-61.035 0-22.997-7.083-44.181-21.205-63.573-14.208-19.435-35.797-34.688-64.789-45.845-29.013-11.115-62.485-16.725-100.331-16.725-42.667 0-81.045 7.36-115.157 22.037-34.133 14.677-59.307 33.963-75.499 57.771-16.213 23.765-26.539 54.272-30.997 91.413l-93.653-8.085c1.344-49.664 15.083-94.144 41.216-133.504 26.091-39.36 62.080-68.843 108.032-88.405 45.824-19.605 102.763-29.376 170.667-29.376 53.589 0 101.781 9.707 144.619 29.099 42.816 19.435 75.669 46.635 98.517 81.579 22.848 34.965 34.283 72.171 34.283 111.68 0 39.829-10.411 75.051-31.189 105.643-3.157 4.629-7.104 8.917-10.795 13.312h127.339v85.355zM269.504 512h175.957c-39.552 11.755-65.941 23.339-78.571 34.709-19.456 17.237-29.184 39.168-29.184 65.877 0 30.72 13.717 56.96 41.216 78.741 27.456 21.803 71.232 32.683 131.285 32.683 57.664 0 101.269-11.989 130.773-35.968 29.525-24 46.848-59.435 51.947-106.389l95.232 7.083c-1.749 43.584-14.016 82.581-36.885 117.056-22.848 34.411-55.552 60.523-98.027 78.251-42.496 17.749-91.563 26.603-147.136 26.603-50.517 0-96.427-8.448-137.707-25.344s-72.683-41.621-94.187-74.219c-21.483-32.597-32.256-67.627-32.256-105.152 0-34.112 8.768-64.917 26.368-92.437 0.363-0.491 0.832-0.96 1.173-1.493z" />
</svg>