<svg width="24" height="24" viewBox="0 0 1000 1000">
  <path d="M469.333 682.667v170.667c-188.523 0-341.333-152.832-341.333-341.333h341.333v170.667zM789.333 554.667l-42.667-85.333h-618.667c0-78.656 26.88-150.869 71.573-208.597-30.741-27.371-50.24-67.115-50.24-111.403 0-82.347 66.987-149.333 149.333-149.333 75.477 0 137.899 56.341 147.797 129.152 7.595-0.512 15.147-1.152 22.869-1.152h65.707c10.411-72.256 72.555-128 147.627-128 82.347 0 149.333 66.987 149.333 149.333 0 54.955-29.909 102.933-74.24 128.875l95.573 191.125h85.333v85.333h-149.333zM298.667 85.334c-35.349 0-64 28.651-64 64 0 20.779 10.048 39.040 25.387 50.731 30.4-23.659 64.832-42.347 102.208-54.699-2.069-33.451-29.611-60.032-63.595-60.032zM682.667 85.334c-27.819 0-51.264 17.856-60.075 42.667h60.075l36.779 73.579c16.427-11.584 27.221-30.613 27.221-52.245 0-35.349-28.651-64-64-64z" />
</svg>