<svg width="24" height="24" viewBox="0 0 1000 1000">
  <path d="M86.229 412.907h145.941v-122.709c0 0 8.939-41.173 42.069-41.173 33.173 0 46.592 29.547 46.592 36.672v276.715c0 0-8.939 73.429 68.885 145.963 77.931 72.512 220.331 57.28 278.507-36.715 0 0 34.091-40.299 34.091-105.685v-56.405l-88.683-26.859-56.363 27.776v49.216c0 0-0.981 48.384-49.323 48.384 0 0-41.173-9.877-41.173-47.488v-282.027c0 0-9.835-162.965-183.531-174.592 0 0-123.584-13.461-184.469 119.083 0 0-13.419 38.485-13.419 68.928l0.875 120.917zM558.101 410.155l56.448-25.899 89.451 25.067v-120.875c0 0 2.752-43.008 43.925-43.008s42.944 38.528 42.944 38.528v123.541h147.797v-127.125c0 0-8.981-174.635-194.389-180.885 0 0-96.661-7.168-156.651 88.661 0 0-29.525 42.965-29.525 97.536v124.459z" />
</svg>