<svg width="24" height="24" viewBox="0 0 1000 1000">
  <path d="M725.248 810.667h-426.667c-70.4 0-128-57.6-128-128v-426.667c0-67.691 53.291-123.392 119.957-127.595l-77.291-64.405v-21.333h597.333v21.333l-77.291 64.405c66.667 4.203 119.957 59.904 119.957 127.595v426.667c0 70.4-57.6 128-128 128zM319.915 213.334c-35.349 0-64 28.651-64 64s28.651 64 64 64 64-28.651 64-64-28.651-64-64-64zM469.248 469.334h-213.333v213.333h213.333v-213.333zM703.915 213.334c-35.349 0-64 28.651-64 64s28.651 64 64 64 64-28.651 64-64-28.651-64-64-64zM767.915 469.334h-213.333v213.333h213.333v-213.333z" />
</svg>