<svg width="24" height="24" viewBox="0 0 1000 1000">
  <path d="M512 682.667c-141.163 0-256-114.837-256-256s114.837-256 256-256 256 114.837 256 256c0 141.163-114.837 256-256 256zM469.333 853.334h85.333v-128h-85.333v128zM469.333 128h85.333v-128h-85.333v128zM863.829 675.834l42.564-73.958-110.938-63.846-42.564 73.958 110.938 63.846zM162.392 177.916l-42.581 73.95 110.925 63.872 42.581-73.95-110.925-63.872zM161.936 671.28l110.938-63.859-42.573-73.958-110.938 63.859 42.573 73.958zM856.735 176.235l-110.925 63.872 42.581 73.95 110.925-63.872-42.581-73.95z" />
</svg>