<svg width="24" height="24" viewBox="0 0 1000 1000">
  <path d="M767.915 426.667c0-43.093-10.667-84.053-29.867-119.467l62.293-62.293c33.28 52.48 52.907 114.773 52.907 181.76 0 188.587-152.747 341.333-341.333 341.333v128l-170.667-170.667 170.667-170.667v128c141.227 0 256-114.773 256-256zM170.581 426.667c0-188.587 152.747-341.333 341.333-341.333v-128l170.667 170.667-170.667 170.667v-128c-141.227 0-256 114.773-256 256 0 43.093 11.093 83.627 29.867 119.467l-62.293 62.293c-33.28-52.48-52.907-114.773-52.907-181.76z" />
</svg>