<svg width="24" height="24" viewBox="0 0 1000 1000">
  <path d="M800.576 360.534l-439.893 439.68c-6.699 6.699-15.765 10.453-25.237 10.453h-257.067c-19.733 0-35.712-15.979-35.712-35.691v-256.96c0-9.472 3.755-18.539 10.453-25.237l439.893-439.659c6.976-6.976 16.107-10.453 25.237-10.453s18.261 3.477 25.237 10.453l257.067 256.96c13.952 13.931 13.952 36.523 0.021 50.453zM203.328 596.544c-29.568 0-53.547 23.979-53.547 53.525s23.979 53.525 53.547 53.525c29.568 0 53.547-23.979 53.547-53.525 0.021-29.547-23.979-53.525-53.547-53.525zM970.88 360.534l-397.205 397.013c-6.699 6.699-15.765 10.453-25.237 10.453h-75.392v-0.384l432.533-432.32-262.549-261.888 20.288-20.288c6.976-6.976 16.107-10.453 25.237-10.453s18.261 3.477 25.237 10.453l257.067 256.96c13.952 13.931 13.952 36.523 0.021 50.453z" />
</svg>