<svg width="24" height="24" viewBox="0 0 1000 1000">
  <path d="M497.109 223.552c-32.683-31.787-65.088-63.125-97.259-94.763-11.243-11.051-23.851-17.173-39.957-16.341-11.072 0.533-17.173 5.291-20.565 15.808-24.619 76.309-49.579 152.64-74.155 229.077-2.368 7.317-5.781 11.072-13.291 13.376-58.005 17.792-115.883 35.968-173.76 54.187-7.595 2.432-15.232 5.205-22.037 9.152-16.149 9.621-18.197 24.747-3.605 36.416 10.325 8.277 22.507 14.912 34.773 19.776 73.045 28.736 146.304 56.725 219.541 84.971 177.216 68.352 354.453 136.704 531.669 205.141 34.389 13.312 60.736-5.312 57.216-42.475-2.219-23.744-8.384-47.147-13.376-70.635-39.211-185.173-78.507-370.304-117.867-555.499-0.085-0.683-0.128-1.451-0.32-2.155-9.771-41.536-40.512-52.885-75.179-27.328-60.885 44.821-121.664 89.877-182.549 134.805-2.923 2.133-5.845 4.16-9.28 6.485zM361.152 167.36c0.64 0.171 1.301 0.363 1.984 0.533 0.363 1.707 0.981 3.371 1.109 5.141 3.797 41.6 8 83.221 11.243 124.864 0.832 10.112 4.224 17.323 11.904 24.192 108.203 97.216 216.107 194.731 324.16 292.139 10.283 9.259 20.693 18.304 30.507 28.011 2.411 2.368 2.773 6.805 4.075 10.304-3.669 1.152-7.637 3.861-10.837 3.179-6.997-1.557-14.037-4.032-20.181-7.595-14.4-8.405-28.416-17.664-42.56-26.581-123.883-78.123-247.68-156.288-371.669-234.219-7.637-4.736-9.216-8.853-6.165-17.323 8.619-24.64 16.256-49.621 24.448-74.475 13.931-42.752 27.904-85.461 41.984-128.171z" />
</svg>