<svg width="24" height="24" viewBox="0 0 1000 1000">
  <path d="M659.456 147.392l-232.107 620.608h-84.544l-257.472-682.667h93.227l96.896 256.491h217.451l96.405-256.491h93.483l-23.339 62.059zM307.648 427.072l76.821 203.307 76.416-203.307h-153.237zM888.533 170.667c4.736 13.227 7.424 27.413 7.509 42.219h0.384v171.541c0 70.592-57.408 128-128 128h-128.875v-85.333h128.875c23.531 0 42.667-19.136 42.667-42.667v-43.115l-128.427-0.043c-16.64 0-32.491-3.307-47.104-9.109l30.037-79.851c5.248 2.283 11.029 3.627 17.131 3.627v0.043h128v-42.517c0-23.573-19.179-42.773-42.773-42.773v-0.043h-71.637l32.085-85.333h210.261v85.333h-50.133z" />
</svg>