<svg width="24" height="24" viewBox="0 0 1000 1000">
  <path d="M128 479.915c0-41.152 33.323-74.475 74.453-74.581-41.152-0.107-74.453-33.451-74.453-74.581 0-41.237 33.408-74.645 74.667-74.645h309.333c-97.323-195.435 0.384-256.107 0.384-256.107l258.24 298.411h125.376v469.312l-384.256 85.611-266.453-0.341c-41.237 0-74.709-33.387-74.709-74.624 0-41.152 33.344-74.475 74.496-74.603h-42.389c-41.259 0-74.688-33.387-74.688-74.603s33.429-74.624 74.688-74.624h-0.021c-41.259 0-74.667-33.408-74.667-74.624z" />
</svg>