<svg width="24" height="24" viewBox="0 0 1000 1000">
  <path d="M812.373 744.534l-60.587-60.587c-66.133 52.48-149.333 84.053-239.787 84.053-78.080 0-150.613-23.467-211.2-63.147l62.293-62.293c43.52 25.173 94.72 40.107 148.907 40.107 165.12 0 298.667-133.547 298.667-298.667 0-54.187-14.933-105.387-40.107-148.907l61.867-61.867c40.107 60.16 63.573 132.693 63.573 210.773 0 90.453-31.573 173.653-84.053 239.36l60.587 60.587-60.16 60.587zM640 896h-256v-85.333h256v85.333zM469.333 535.894l85.333-85.333v146.773h-85.333v-61.44zM128.853 768l-54.187-54.187 117.333-117.76c-40.533-60.587-64-133.547-64-212.053 0-212.053 171.52-384 384-384 78.507 0 151.467 23.467 212.48 64l106.667-106.667 54.187 54.187-756.48 756.48zM512 85.334c-165.12 0-298.667 133.547-298.667 298.667 0 54.613 14.933 105.813 40.533 150.187l407.893-407.893c-43.947-26.027-95.147-40.96-149.76-40.96z" />
</svg>