<svg width="24" height="24" viewBox="0 0 1000 1000">
  <path d="M640 896h-256v-85.333h256v85.333zM469.333 341.334h85.333v256h-85.333v-256zM811.947 623.36l60.587 60.587c-18.347 21.76-38.4 42.24-60.16 60.16l-60.587-60.587c-66.133 52.907-149.333 84.48-239.787 84.48-212.053 0-384-171.947-384-384s171.52-384 384-384 384 171.947 384 384c0 90.453-31.573 173.653-84.053 239.36zM512 85.334c-165.12 0-298.667 133.547-298.667 298.667s133.547 298.667 298.667 298.667 298.667-133.547 298.667-298.667-133.547-298.667-298.667-298.667z" />
</svg>