<svg width="24" height="24" viewBox="0 0 1000 1000">
  <path d="M341.419 170.667h341.333c141.163 0 256 114.837 256 256s-114.837 256-256 256h-341.333c-141.163 0-256-114.837-256-256s114.837-256 256-256zM682.752 640c117.632 0 213.333-95.701 213.333-213.333s-95.701-213.333-213.333-213.333h-200.128c69.099 45.888 114.795 124.331 114.795 213.333s-45.696 167.445-114.795 213.333h200.128zM341.419 640c117.632 0 213.333-95.701 213.333-213.333s-95.701-213.333-213.333-213.333-213.333 95.701-213.333 213.333 95.701 213.333 213.333 213.333z" />
</svg>