<svg width="24" height="24" viewBox="0 0 1000 1000">
  <path d="M717.995 785.6c-362.645 82.304-542.827-64.491-542.827-64.491-144.576-102.357-71.211-271.424-71.211-271.424 77.824-229.141 220.288-358.165 220.288-358.165 184.683-169.131 347.051-26.752 347.051-26.752 206.891 173.547 255.787 422.741 255.787 422.741 71.232 224.704-209.088 298.091-209.088 298.091zM542.251 703.296h48.896v-72.299h-48.896v72.299zM435.435 703.296h48.939v-72.299h-48.939v72.299zM417.621 196.011h-35.563c0 0-21.12-1.088-23.381 16.768v46.677c0 0-2.176 18.389 21.675 17.813h42.88c0 0 16.661 2.219 18.944-14.485l0.512-51.712c-0.021 0-0.021-16.704-25.067-15.061zM644.565 196.011h-35.605c0 0-21.163-1.088-23.339 16.768v46.677c0 0-2.261 18.389 21.675 17.813h42.88c0 0 16.619 2.219 18.88-14.485l0.555-51.712c0 0 0-16.704-25.045-15.061zM653.504 300.63h-282.603c0 0-21.056 3.328-23.381 26.731v261.333h63.467v-254.677h204.672l1.067 254.677h62.315v-261.333c0.021 0 1.131-23.403-25.536-26.731zM794.475 533.355h-89.813v40.661h89.813v-40.661z" />
</svg>