<svg width="24" height="24" viewBox="0 0 1000 1000">
  <path d="M511.915 853.334c-235.648 0-426.667-191.019-426.667-426.667 0-235.627 191.019-426.667 426.667-426.667s426.667 191.040 426.667 426.667c0 235.648-191.040 426.667-426.667 426.667zM607.659 706.39c15.744 27.243 50.56 36.587 77.803 20.864s36.565-50.56 20.843-77.803c-15.723-27.243-50.56-36.565-77.803-20.843s-36.565 50.56-20.843 77.781zM221.781 369.707c-31.467 0-56.96 25.493-56.96 56.96s25.493 56.96 56.96 56.96c31.467 0 56.96-25.493 56.96-56.96s-25.493-56.96-56.96-56.96zM272.299 364.63c18.005 14.656 29.483 36.992 29.483 62.016 0 25.045-11.499 47.36-29.483 62.037 15.403 59.627 52.48 110.549 102.336 143.851l41.643-69.76c-42.773-30.123-70.763-79.829-70.763-136.128s27.968-106.027 70.763-136.128l-41.643-69.76c-49.856 33.323-86.933 84.224-102.336 143.872zM685.461 126.080c-27.243-15.723-62.059-6.4-77.803 20.843-15.723 27.243-6.4 62.059 20.843 77.781s62.059 6.379 77.781-20.843c15.744-27.221 6.421-62.059-20.821-77.781zM685.291 250.219c-21.653 8.192-46.677 6.955-68.309-5.547-21.653-12.501-35.243-33.579-38.955-56.469-21.056-5.824-43.2-9.003-66.112-9.003-39.381 0-76.608 9.259-109.675 25.621l39.573 70.933c21.312-9.92 45.035-15.488 70.101-15.488 86.933 0 158.229 66.645 165.717 151.637l81.195-1.173c-4.011-62.763-31.424-119.104-73.536-160.512zM677.632 441.43c-7.467 84.992-78.784 151.637-165.717 151.637-25.045 0-48.789-5.568-70.101-15.488l-39.573 70.933c33.067 16.384 70.272 25.621 109.675 25.621 22.912 0 45.056-3.179 66.112-9.003 3.712-22.891 17.301-43.968 38.955-56.469 21.632-12.48 46.656-13.739 68.309-5.547 42.112-41.408 69.525-97.771 73.536-160.512l-81.195-1.173z" />
</svg>