<svg width="24" height="24" viewBox="0 0 1000 1000">
  <path d="M512 684.374l33.28-3.691c121.92-13.504 219.669-98.944 253.056-211.349h-572.651c33.365 112.427 131.115 197.845 253.056 211.349l33.259 3.691zM554.667 853.334h-85.333v-87.829c-191.979-21.248-341.333-183.872-341.333-381.504h341.333v-277.333c0-11.776-9.557-21.333-21.333-21.333s-21.333 9.557-21.333 21.333v64h-85.333v-64c0-58.816 47.851-106.667 106.667-106.667s106.667 47.851 106.667 106.667v277.333h341.333c0 197.632-149.355 360.256-341.333 381.504v87.829z" />
</svg>