<svg width="24" height="24" viewBox="0 0 1000 1000">
  <path d="M640 469.334c94.251 0 170.667 76.416 170.667 170.667s-76.416 170.667-170.667 170.667-170.667-76.416-170.667-170.667c0-94.251 76.416-170.667 170.667-170.667zM640 725.334c47.061 0 85.333-38.272 85.333-85.333s-38.272-85.333-85.333-85.333-85.333 38.272-85.333 85.333 38.272 85.333 85.333 85.333zM640 426.667c-197.781 0-341.333-143.552-341.333-341.333h85.333c0 150.72 105.28 256 256 256s256-105.28 256-256h85.333c0 197.781-143.552 341.333-341.333 341.333zM384 512h-128v128h-85.333v-128h-128v-85.333h128v-128h85.333v128h128z" />
</svg>