<svg width="24" height="24" viewBox="0 0 1000 1000">
  <path d="M512 725.334c47.061 0 85.333-38.272 85.333-85.333s-38.272-85.333-85.333-85.333-85.333 38.272-85.333 85.333 38.272 85.333 85.333 85.333zM512 810.667c-94.251 0-170.667-76.416-170.667-170.667s76.416-170.667 170.667-170.667 170.667 76.416 170.667 170.667c0 94.251-76.416 170.667-170.667 170.667v0zM853.333 85.334h-85.333c0 150.72-105.28 256-256 256s-256-105.28-256-256h-85.333c0 197.781 143.552 341.333 341.333 341.333s341.333-143.552 341.333-341.333z" />
</svg>