<svg width="24" height="24" viewBox="0 0 1000 1000">
  <path d="M677.184 478.784c14.869-6.037 31.104-9.451 48.149-9.451 70.699 0 128 57.323 128 128 0 70.699-57.301 128-128 128-17.045 0-33.28-3.392-48.149-9.451 29.739-30.72 48.149-72.491 48.149-118.549 0-46.037-18.411-87.808-48.149-118.549zM554.667 469.334c32.832 0 62.677 12.459 85.333 32.789 26.133 23.424 42.667 57.344 42.667 95.211s-16.533 71.787-42.667 95.211c-22.656 20.309-52.501 32.789-85.333 32.789-70.699 0-128-57.301-128-128 0-70.677 57.301-128 128-128zM727.936 426.56c6.997-3.819 13.845-7.851 20.523-12.139 93.76-60.459 147.541-164.864 147.541-286.4h128c0 184.555-132.331 297.344-296.064 298.539zM725.333 378.539c-25.536 16.469-54.016 28.821-84.48 36.949-27.285 7.275-56.171 11.179-86.187 11.179-164.949 0-298.667-113.088-298.667-298.667h597.333c0 114.133-50.688 200.683-128 250.539zM341.333 512h-128v128h-85.333v-128h-128v-85.333h128v-128h85.333v128h128z" />
</svg>