<svg width="24" height="24" viewBox="0 0 1000 1000">
  <path d="M682.667 469.334c70.592 0 128 57.408 128 128s-57.408 128-128 128-128-57.408-128-128 57.408-128 128-128zM682.667 661.334c35.285 0 64-28.715 64-64s-28.715-64-64-64-64 28.715-64 64 28.715 64 64 64zM341.333 469.334c70.592 0 128 57.408 128 128s-57.408 128-128 128-128-57.408-128-128 57.408-128 128-128zM341.333 661.334c35.285 0 64-28.715 64-64s-28.715-64-64-64-64 28.715-64 64 28.715 64 64 64zM682.667 426.667c-63.509 0-122.261-19.968-170.667-53.76-48.405 33.792-107.157 53.76-170.667 53.76-164.949 0-298.667-133.717-298.667-298.667h64c0 129.387 105.28 234.667 234.667 234.667 44.181 0 85.419-12.501 120.747-33.813 18.453-11.136 35.243-24.661 49.92-40.277 39.552-42.027 64-98.432 64-160.555h64c0 77.44-29.717 147.776-78.080 200.853 35.328 21.333 76.544 33.813 120.747 33.813 129.387 0 234.667-105.28 234.667-234.667h64c0 164.928-133.717 298.645-298.667 298.645z" />
</svg>