<svg width="24" height="24" viewBox="0 0 1000 1000">
  <path d="M469.333 597.334c0-70.692-57.308-128-128-128s-128 57.308-128 128c0 70.692 57.308 128 128 128s128-57.308 128-128zM810.667 597.334c0-70.692-57.308-128-128-128s-128 57.308-128 128c0 70.692 57.308 128 128 128s128-57.308 128-128zM682.667 426.667c-46.229 0-89.813-9.173-128.875-26.048 79.872-60.736 128.875-157.333 128.875-272.619h298.667c0 185.579-133.717 298.667-298.667 298.667zM512 378.539c-48.405 31.211-107.157 48.128-170.667 48.128-164.949 0-298.667-113.088-298.667-298.667h597.333c0 114.133-50.688 200.683-128 250.539z" />
</svg>