<svg width="24" height="24" viewBox="0 0 1000 1000">
  <path d="M125.568 544.811l-40.235 50.667c0 0 70.827 65.173 116.437 106.112 45.461 40.896 101.333 87.573 149.76 82.965 48.512-4.608 88.149-29.355 106.112-127.936 17.877-98.581 32.171-219.051 61.12-288.235 0 0 18.389-48.405 38.016-46.101 19.627 2.347 55.381 43.797 91.157 101.483 35.691 57.621 55.381 106.069 43.797 152.171-11.563 46.080-85.376 34.56-116.437 21.931 0 0 54.315 216.128 244.267 197.099 0 0 125.739 0 118.848-149.867-6.848-149.867-108.331-280.128-205.141-397.76-96.939-117.611-193.749-200.576-275.605-189.077-81.856 11.563-112.96 132.629-139.499 234.005-26.517 101.504-61.099 235.243-97.963 280.213 0 0-17.365 23.019-42.731 8l-51.904-35.669z" />
</svg>