<svg width="24" height="24" viewBox="0 0 1000 1000">
  <path d="M886.123 428.907v-101.611c-34.56-7.872-68.416-11.797-101.611-11.797-22.229-46.528-50.56-92.885-84.928-139.072-34.389-46.187-65.429-83.051-93.141-110.592s-49.6-45.76-65.685-54.656c-27.371-15.403-55.083-14.891-83.136 1.536-9.579 5.824-19.925 13.269-31.040 22.315-11.115 9.067-25.664 23.36-43.627 42.859s-35.499 41.493-52.608 65.941c-17.109 24.448-35.499 55.936-55.168 94.421s-37.717 80.235-54.144 125.227-32.085 98.795-46.955 161.408-26.944 129.323-36.181 200.149h145.237c8.896-74.581 20.864-142.741 35.925-204.501s32.939-115.989 53.632-162.688c20.693-46.699 41.493-86.976 62.357-120.853s44.821-67.221 71.851-100.075c57.813 57.813 106.923 127.275 147.285 208.363-48.576 24.64-86.741 62.272-114.453 112.896-27.712 50.645-41.579 107.605-41.579 170.901 0 65.685 17.792 119.488 53.376 161.408s84.16 62.869 145.749 62.869c60.907 0 107.605-18.048 140.096-54.144 32.512-36.096 48.747-86.997 48.747-152.683 0-54.4-9.92-103.317-29.76-146.773-2.389-0.341-5.739-0.853-10.005-1.536s-12.139-1.024-23.616-1.024c-11.456 0-22.229 1.024-32.341 3.093-10.091 2.048-20.693 6.421-31.808 13.077s-19.755 15.488-25.92 26.432c10.603 35.243 15.915 66.709 15.915 94.421 0 29.76-4.971 52.352-14.891 67.733s-23.445 23.104-40.533 23.104c-18.133 0-32.683-8.469-43.627-25.408s-16.427-40.96-16.427-72.107c0-63.637 17.963-113.835 53.888-150.635 35.925-36.779 81.6-55.168 137.024-55.168 21.205 0 41.92 2.389 62.101 7.168z" />
</svg>