<svg width="24" height="24" viewBox="0 0 1000 1000">
  <path d="M789.333 298.667c-82.475 0-149.333 66.859-149.333 149.333s66.859 149.333 149.333 149.333 149.333-66.859 149.333-149.333-66.859-149.333-149.333-149.333zM234.667 298.667c-82.475 0-149.333 66.859-149.333 149.333s66.859 149.333 149.333 149.333c82.475 0 149.333-66.859 149.333-149.333s-66.859-149.333-149.333-149.333zM789.333 682.667c-129.6 0-234.667-105.067-234.667-234.667 0-56.747 20.053-108.8 53.76-149.333h-192.853c33.707 40.533 53.76 92.587 53.76 149.333 0 129.6-105.067 234.667-234.667 234.667s-234.667-105.067-234.667-234.667 105.067-234.667 234.667-234.667h554.667c129.6 0 234.667 105.067 234.667 234.667s-105.067 234.667-234.667 234.667z" />
</svg>