<svg width="24" height="24" viewBox="0 0 1000 1000">
  <path d="M597.333 768c0-47.128-38.205-85.333-85.333-85.333s-85.333 38.205-85.333 85.333c0 47.128 38.205 85.333 85.333 85.333s85.333-38.205 85.333-85.333zM810.667 384v85.333c-65.707-0.853-131.84 32-173.653 78.080l-55.040 61.013c-7.253 8.107-16.213 14.507-26.027 19.2-0.427 0-0.427 0.427-0.853 0.427h-0.427c-14.933 8.533-32 12.8-50.773 11.093-44.8-3.84-77.227-43.52-77.227-88.32v-252.16c0-46.933 38.4-85.333 85.333-85.333h213.333v-213.333h85.333v234.667c0 46.933-38.4 85.333-85.333 85.333h-128v147.2c55.040-45.653 138.667-82.773 213.333-83.2zM426.667 85.334c-70.827 0-128 57.173-128 128 0 55.893 35.84 102.827 85.333 120.747v88.32c-97.28-19.627-170.667-105.813-170.667-209.067 0-117.76 95.573-213.333 213.333-213.333 103.253 0 189.44 73.387 209.067 170.667h-88.32c-17.493-49.493-64.853-85.333-120.747-85.333z" />
</svg>