<svg width="24" height="24" viewBox="0 0 1000 1000">
  <path d="M768 256h-640v-85.333h640c23.552 0 42.667-19.115 42.667-42.667s-19.115-42.667-42.667-42.667h-85.333v-85.333h85.333c70.699 0 128 57.323 128 128 0 70.699-57.301 128-128 128zM810.667 597.334h-42.667c0 141.163-114.837 256-256 256-111.211 0-205.803-71.403-241.067-170.667h-14.933c-94.101 0-170.667-76.565-170.667-170.667s76.565-170.667 170.667-170.667h554.667c70.592 0 128 57.408 128 128s-57.408 128-128 128zM810.667 426.667h-554.667c-47.061 0-85.333 38.272-85.333 85.333s38.272 85.333 85.333 85.333h85.333c0 94.101 76.565 170.667 170.667 170.667s170.667-76.565 170.667-170.667v-85.333h128c23.531 0 42.667-19.136 42.667-42.667s-19.136-42.667-42.667-42.667z" />
</svg>