<svg width="24" height="24" viewBox="0 0 1000 1000">
  <path d="M145.813 426.667c0 51.755 10.645 101.419 31.915 149.056l174.763-478.571c-62.229 30.165-112.213 74.752-149.995 133.803-37.803 59.051-56.683 124.288-56.683 195.712zM759.147 445.248c0-6.037-0.405-12.139-1.195-18.325s-2.389-14.037-4.757-23.573c-2.389-9.536-4.203-16.512-5.483-20.949s-4.053-13.803-8.341-28.096c-4.288-14.293-7.061-23.488-8.341-27.627l-36.181-121.899-132.373 393.344c14.613 0.96 28.565 2.219 41.899 3.819 6.037 0.64 10.155 3.563 12.373 8.811s1.835 10.155-1.195 14.763c-3.008 4.608-7.531 6.741-13.568 6.443l-97.621-4.757c-23.808 0.32-55.872 1.899-96.192 4.757-3.819 0.32-7.061-0.469-9.771-2.389-2.688-1.899-4.523-4.288-5.483-7.147s-1.195-5.781-0.704-8.811 1.899-5.632 4.288-7.851c2.389-2.219 5.483-3.499 9.28-3.797l38.101-3.819 57.152-156.181-80-240-133.333 396.181c14.613 0.96 28.565 2.219 41.899 3.819 6.037 0.64 10.155 3.563 12.373 8.811s1.835 10.155-1.195 14.763c-3.008 4.608-7.531 6.741-13.568 6.443l-97.621-4.757c-2.219 0-5.867 0.085-10.944 0.235-5.077 0.171-9.216 0.235-12.373 0.235 33.344 50.795 76.907 91.029 130.709 120.704s112.149 44.523 174.997 44.523c46.656 0 91.2-8.427 133.568-25.237 42.389-16.832 80.235-40.469 113.579-70.955h-4.757c-17.451 0-32.064-6.421-43.819-19.285s-17.621-28.011-17.621-45.483c0-3.819 0.32-7.616 0.96-11.435 0.64-3.797 1.28-7.211 1.899-10.24s1.899-6.677 3.819-10.944c1.899-4.288 3.328-7.616 4.288-10.005s2.859-5.952 5.717-10.709c2.859-4.757 4.843-8.107 5.952-10.005s3.413-5.717 6.912-11.435c3.499-5.717 5.717-9.365 6.677-10.944 19.989-34.027 29.995-67.669 29.995-100.992zM518.187 394.752l112.853-308.096c0.32-1.899 1.109-3.648 2.389-5.248-40-13.973-80.469-20.949-121.429-20.949-35.563 0-69.995 5.077-103.339 15.232l109.525 319.061zM832.96 602.39c30.165-55.232 45.248-113.813 45.248-175.723 0-66.347-16.512-127.552-49.515-183.573s-77.312-100.245-132.864-132.608l111.915 322.859c18.731 53.653 28.096 97.451 28.096 131.435-0.021 13.312-0.981 25.856-2.88 37.611zM512 853.334c57.771 0 113.024-11.264 165.717-33.813s98.091-52.864 136.192-90.944c38.101-38.101 68.416-83.499 90.944-136.192s33.813-107.947 33.813-165.717-11.264-113.024-33.813-165.717c-22.549-52.693-52.864-98.091-90.944-136.192s-83.499-68.416-136.192-90.944-107.947-33.813-165.717-33.813-113.024 11.264-165.717 33.813c-52.693 22.549-98.091 52.864-136.192 90.944-38.101 38.101-68.416 83.499-90.944 136.192-22.549 52.693-33.813 107.947-33.813 165.717s11.264 113.024 33.813 165.717 52.864 98.091 90.944 136.192c38.101 38.101 83.499 68.416 136.192 90.944 52.693 22.549 107.947 33.813 165.717 33.813zM512 19.52c54.912 0 107.541 10.795 157.867 32.384s93.653 50.56 130.005 86.912c36.352 36.352 65.323 79.68 86.912 130.005s32.384 102.933 32.384 157.867-10.795 107.541-32.384 157.867c-21.589 50.325-50.56 93.653-86.912 130.005s-79.68 65.323-130.005 86.891c-50.325 21.589-102.933 32.384-157.867 32.384s-107.541-10.795-157.867-32.384c-50.325-21.589-93.653-50.56-130.005-86.891-36.352-36.352-65.323-79.68-86.912-130.005s-32.384-102.933-32.384-157.867 10.795-107.541 32.384-157.867c21.589-50.325 50.56-93.653 86.912-130.005s79.68-65.323 130.005-86.912c50.325-21.589 102.955-32.384 157.867-32.384z" />
</svg>