<svg width="24" height="24" viewBox="0 0 1000 1000">
  <path d="M386.709 490.24l151.211 213.163c7.339 11.051-3.435 15.083-8.896 15.083s-68.715 0-68.715 0c-6.549 0-10.667-3.371-14.699-9.195 0 0-108.864-153.792-110.827-156.373-1.28-1.685-4.352-6.784-0.32-12.587 12.885-18.176 35.712-50.496 36.523-51.648 2.475-3.584 9.899-6.144 15.723 1.557zM305.216 372.16l163.989-230.656c2.24-3.179 6.507-6.677 11.456-6.677h69.525c11.413 0 13.248 7.040 8.107 14.251l-396.352 560.235c-4.032 5.824-8.256 9.195-14.72 9.195 0 0-63.253 0-68.757 0s-16.32-4.032-8.981-15.083c0 0 180.117-253.248 181.952-256 2.752-4.288 2.752-5.013 0-9.344l-206.059-288.853c-5.141-7.040-3.307-14.123 8.149-14.123h69.568c4.864 0 9.173 3.435 11.413 6.656 0 0 164.501 228.864 165.504 230.421 1.067 1.344 3.456 2.091 5.205-0.021zM692.864 203.99c-4.437 0-7.744 2.773-7.744 7.765v182.251c0 4.928 3.307 7.659 7.744 7.659h263.168c7.339 0 13.013 6.699 13.013 13.376v44.181c0 7.552-5.675 13.333-13.013 13.333h-263.168c-4.437 0-7.744 2.731-7.744 7.723v160.555c0 4.949 3.307 7.616 7.744 7.616h275.413c7.339 0 13.056 6.741 13.056 13.44v43.328c0 7.552-5.739 13.376-13.056 13.376h-316.651c-25.259 0-44.139-15.637-44.139-44.245v-495.168c0-28.48 18.88-44.203 44.139-44.203l316.651-0.235c7.339 0 13.056 5.845 13.056 13.376v42.496c0 7.552-5.739 13.376-13.056 13.376h-275.413z" />
</svg>