<svg width="24" height="24" viewBox="0 0 1000 1000">
  <path d="M442.923 896c29.995 0 42.667-12.651 46.4-45.461l9.835-148.587 11.243-194.539c0.939-16.405-1.408-33.28-7.979-48.277-10.304-21.099-33.749-26.709-52.971-12.181-10.773 8.896-19.691 20.629-27.179 33.28l-174.848 296.256c-16.875 28.587-11.712 47.339 16.405 65.152 34.24 22.485 138.773 54.357 179.093 54.357zM641.664 293.654l12.181-2.816 180.928-65.621c30.933-11.243 39.381-28.587 25.771-59.072-20.629-52.971-54.379-97.963-97.493-134.997-21.568-18.752-43.115-15.467-56.725 7.979l-106.411 185.621c-18.24 33.28 4.245 71.253 41.749 68.907zM157.44 333.504c0 34.688 0 67.968 11.712 99.84 10.304 31.403 27.179 40.789 58.603 28.117l170.155-72.192c21.568-8.896 33.749-23.915 32.811-48.277-1.408-24.384-16.875-34.688-37.504-41.728l-172.501-56.725c-32.811-10.773-49.685-0.939-56.725 32.341-4.203 19.712-7.936 39.872-6.549 58.624zM507.605 5.376c-0.939-37.973-17.344-52.501-54.379-46.869-48.747 9.365-93.76 28.117-133.589 58.133-19.691 14.997-23.915 37.973-9.365 57.664l127.040 166.869c10.773 14.059 26.24 17.344 43.115 10.773 17.813-6.571 27.179-20.629 27.179-39.851v-206.72zM623.851 365.376c-33.749-0.469-57.195 38.443-37.973 66.091 38.912 58.133 80.149 114.837 121.408 171.093 12.651 19.221 33.28 20.629 50.624 4.693 43.584-39.381 75.008-86.251 92.821-143.445 6.571-21.099-1.877-40.32-21.568-45.931l-175.317-45.461-29.995-7.040z" />
</svg>